M48
; DRILL file {KiCad (5.99.0-7341-g2f3ca60c5e)} date 12/04/20 16:45:58
; FORMAT={-:-/ absolute / inch / decimal}
; #@! TF.CreationDate,2020-12-04T16:45:58+01:00
; #@! TF.GenerationSoftware,Kicad,Pcbnew,(5.99.0-7341-g2f3ca60c5e)
; #@! TF.FileFunction,Plated,1,2,PTH
FMAT,2
INCH
T1C0.0157
T2C0.0276
T3C0.0335
T4C0.0354
T5C0.0827
%
G90
G05
T1
X-0.6693Y-1.25
X-0.3248Y-1.0576
X-0.315Y-0.7972
X-0.2854Y-1.0925
X-0.2165Y-1.3287
X-0.2165Y-1.6535
X-0.1969Y-1.2303
X-0.1673Y-0.8366
X-0.1378Y-0.8661
X-0.1378Y-0.9055
X-0.0787Y-1.0728
X-0.0689Y-0.7972
X-0.0394Y-1.0925
X-0.0295Y-0.6102
X0.0Y-0.7776
X0.0098Y-0.972
X0.0197Y-1.2795
X0.0295Y-1.0925
X0.0394Y-1.0005
X0.0591Y-0.6398
X0.0733Y-1.029
X0.1043Y-1.2736
X0.1378Y-1.0039
X0.1427Y-1.2608
X0.158Y-0.5025
X0.187Y-1.2598
X0.2274Y-1.2598
X0.2362Y-0.502
X0.2549Y-0.5512
X0.2854Y-1.001
X0.2854Y-1.1319
X0.2943Y-0.5502
X0.3051Y-0.7185
X0.3199Y-1.0876
X0.374Y-0.1969
X0.3932Y-0.4916
X0.4321Y-1.0443
X0.502Y-0.9547
X0.6693Y-1.0531
T3
X0.3732Y-1.4846
X0.3732Y-1.5846
X0.3732Y-1.6846
X0.4732Y-1.4846
X0.4732Y-1.5846
X0.4732Y-1.6846
T4
X-0.8283Y-0.3543
X-0.8283Y-0.4528
X-0.8283Y-0.5315
X-0.8283Y-0.6299
X-0.8283Y-1.2402
X-0.8283Y-1.3386
X-0.8283Y-1.4173
X-0.8283Y-1.5157
X-0.5807Y-0.1067
X-0.4823Y-0.1067
X-0.4035Y-0.1067
X-0.3051Y-0.1067
X0.3051Y-0.1067
X0.4035Y-0.1067
X0.4823Y-0.1067
X0.5807Y-0.1067
X0.8283Y-0.3543
X0.8283Y-0.4528
X0.8283Y-0.5315
X0.8283Y-0.6299
X0.8283Y-1.2402
X0.8283Y-1.3386
X0.8283Y-1.4173
X0.8283Y-1.5157
T5
X-0.935Y-0.2165
X-0.935Y-0.7677
X-0.935Y-1.1024
X-0.935Y-1.6535
X-0.7185Y0.0
X-0.1673Y0.0
X0.1673Y0.0
X0.7185Y0.0
X0.935Y-0.2165
X0.935Y-0.7677
X0.935Y-1.1024
X0.935Y-1.6535
T2
G00X-0.1437Y-1.565
M15
G01X-0.1437Y-1.6004
M16
G05
G00X-0.1437Y-1.7539
M15
G01X-0.1437Y-1.7894
M16
G05
G00X0.1437Y-1.565
M15
G01X0.1437Y-1.6004
M16
G05
G00X0.1437Y-1.7539
M15
G01X0.1437Y-1.7894
M16
G05
T0
M30
