%TF.GenerationSoftware,KiCad,Pcbnew,(5.99.0-7341-g2f3ca60c5e)*%
%TF.CreationDate,2020-12-04T16:43:46+01:00*%
%TF.ProjectId,controller,636f6e74-726f-46c6-9c65-722e6b696361,rev?*%
%TF.SameCoordinates,Original*%
%TF.FileFunction,Soldermask,Bot*%
%TF.FilePolarity,Negative*%
%FSLAX46Y46*%
G04 Gerber Fmt 4.6, Leading zero omitted, Abs format (unit mm)*
G04 Created by KiCad (PCBNEW (5.99.0-7341-g2f3ca60c5e)) date 2020-12-04 16:43:46*
%MOMM*%
%LPD*%
G01*
G04 APERTURE LIST*
%ADD10C,1.500000*%
%ADD11C,3.000000*%
%ADD12R,1.700000X1.700000*%
%ADD13O,1.700000X1.700000*%
%ADD14O,1.500000X2.600000*%
%ADD15R,1.000000X1.700000*%
G04 APERTURE END LIST*
D10*
%TO.C,USB1*%
X-21040000Y-31500000D03*
X-21040000Y-34000000D03*
X-21040000Y-36000000D03*
X-21040000Y-38500000D03*
D11*
X-23750000Y-42000000D03*
X-23750000Y-28000000D03*
%TD*%
D10*
%TO.C,USB2*%
X-21040000Y-9000000D03*
X-21040000Y-11500000D03*
X-21040000Y-13500000D03*
X-21040000Y-16000000D03*
D11*
X-23750000Y-19500000D03*
X-23750000Y-5500000D03*
%TD*%
D10*
%TO.C,USB6*%
X21040000Y-38500000D03*
X21040000Y-36000000D03*
X21040000Y-34000000D03*
X21040000Y-31500000D03*
D11*
X23750000Y-42000000D03*
X23750000Y-28000000D03*
%TD*%
D12*
%TO.C,J2*%
X9480000Y-37710000D03*
D13*
X12020000Y-37710000D03*
X9480000Y-40250000D03*
X12020000Y-40250000D03*
X9480000Y-42790000D03*
X12020000Y-42790000D03*
%TD*%
D10*
%TO.C,USB3*%
X-7750000Y-2710000D03*
X-10250000Y-2710000D03*
X-12250000Y-2710000D03*
X-14750000Y-2710000D03*
D11*
X-18250000Y0D03*
X-4250000Y0D03*
%TD*%
D10*
%TO.C,USB5*%
X21040000Y-16000000D03*
X21040000Y-13500000D03*
X21040000Y-11500000D03*
X21040000Y-9000000D03*
D11*
X23750000Y-5500000D03*
X23750000Y-19500000D03*
%TD*%
D14*
%TO.C,J1*%
X-3650000Y-40200000D03*
X3650000Y-40200000D03*
X-3650000Y-45000000D03*
X3650000Y-45000000D03*
%TD*%
D10*
%TO.C,USB4*%
X14750000Y-2710000D03*
X12250000Y-2710000D03*
X10250000Y-2710000D03*
X7750000Y-2710000D03*
D11*
X4250000Y0D03*
X18250000Y0D03*
%TD*%
D15*
%TO.C,SW1*%
X1900000Y-4350000D03*
X1900000Y-10650000D03*
X-1900000Y-10650000D03*
X-1900000Y-4350000D03*
%TD*%
M02*
