%TF.GenerationSoftware,KiCad,Pcbnew,(5.99.0-7341-g2f3ca60c5e)*%
%TF.CreationDate,2020-12-04T16:43:46+01:00*%
%TF.ProjectId,controller,636f6e74-726f-46c6-9c65-722e6b696361,rev?*%
%TF.SameCoordinates,Original*%
%TF.FileFunction,Copper,L1,Top*%
%TF.FilePolarity,Positive*%
%FSLAX46Y46*%
G04 Gerber Fmt 4.6, Leading zero omitted, Abs format (unit mm)*
G04 Created by KiCad (PCBNEW (5.99.0-7341-g2f3ca60c5e)) date 2020-12-04 16:43:46*
%MOMM*%
%LPD*%
G01*
G04 APERTURE LIST*
G04 Aperture macros list*
%AMRoundRect*
0 Rectangle with rounded corners*
0 $1 Rounding radius*
0 $2 $3 $4 $5 $6 $7 $8 $9 X,Y pos of 4 corners*
0 Add a 4 corners polygon primitive as box body*
4,1,4,$2,$3,$4,$5,$6,$7,$8,$9,$2,$3,0*
0 Add four circle primitives for the rounded corners*
1,1,$1+$1,$2,$3,0*
1,1,$1+$1,$4,$5,0*
1,1,$1+$1,$6,$7,0*
1,1,$1+$1,$8,$9,0*
0 Add four rect primitives between the rounded corners*
20,1,$1+$1,$2,$3,$4,$5,0*
20,1,$1+$1,$4,$5,$6,$7,0*
20,1,$1+$1,$6,$7,$8,$9,0*
20,1,$1+$1,$8,$9,$2,$3,0*%
G04 Aperture macros list end*
%TA.AperFunction,SMDPad,CuDef*%
%ADD10R,2.000000X0.400000*%
%TD*%
%TA.AperFunction,ComponentPad*%
%ADD11C,1.500000*%
%TD*%
%TA.AperFunction,ComponentPad*%
%ADD12C,3.000000*%
%TD*%
%TA.AperFunction,SMDPad,CuDef*%
%ADD13RoundRect,0.250000X0.450000X-0.325000X0.450000X0.325000X-0.450000X0.325000X-0.450000X-0.325000X0*%
%TD*%
%TA.AperFunction,SMDPad,CuDef*%
%ADD14R,0.550000X1.500000*%
%TD*%
%TA.AperFunction,SMDPad,CuDef*%
%ADD15R,1.500000X0.550000*%
%TD*%
%TA.AperFunction,SMDPad,CuDef*%
%ADD16RoundRect,0.250000X-0.325000X-0.450000X0.325000X-0.450000X0.325000X0.450000X-0.325000X0.450000X0*%
%TD*%
%TA.AperFunction,SMDPad,CuDef*%
%ADD17RoundRect,0.250000X0.325000X0.450000X-0.325000X0.450000X-0.325000X-0.450000X0.325000X-0.450000X0*%
%TD*%
%TA.AperFunction,ComponentPad*%
%ADD18R,1.700000X1.700000*%
%TD*%
%TA.AperFunction,ComponentPad*%
%ADD19O,1.700000X1.700000*%
%TD*%
%TA.AperFunction,SMDPad,CuDef*%
%ADD20RoundRect,0.250000X-0.450000X0.325000X-0.450000X-0.325000X0.450000X-0.325000X0.450000X0.325000X0*%
%TD*%
%TA.AperFunction,SMDPad,CuDef*%
%ADD21R,0.500000X1.500000*%
%TD*%
%TA.AperFunction,ComponentPad*%
%ADD22O,1.500000X2.600000*%
%TD*%
%TA.AperFunction,ViaPad*%
%ADD23C,0.800000*%
%TD*%
%TA.AperFunction,Conductor*%
%ADD24C,0.250000*%
%TD*%
%TA.AperFunction,Conductor*%
%ADD25C,0.200000*%
%TD*%
G04 APERTURE END LIST*
D10*
%TO.P,Y1,1,1*%
%TO.N,Net-(Y1-Pad1)*%
X10500000Y-23050000D03*
%TO.P,Y1,2,2*%
%TO.N,GND*%
X10500000Y-24250000D03*
%TO.P,Y1,3,3*%
%TO.N,Net-(Y1-Pad3)*%
X10500000Y-25450000D03*
%TD*%
D11*
%TO.P,USB1,1,VBUS*%
%TO.N,VBUS*%
X-21040000Y-31500000D03*
%TO.P,USB1,2,D-*%
%TO.N,SENS1*%
X-21040000Y-34000000D03*
%TO.P,USB1,3,D+*%
%TO.N,LED1*%
X-21040000Y-36000000D03*
%TO.P,USB1,4,GND*%
%TO.N,GND*%
X-21040000Y-38500000D03*
D12*
%TO.P,USB1,5,Shield*%
X-23750000Y-42000000D03*
X-23750000Y-28000000D03*
%TD*%
D13*
%TO.P,F1,1*%
%TO.N,Net-(J1-Pad1)*%
X-4250000Y-36275000D03*
%TO.P,F1,2*%
%TO.N,VBUS*%
X-4250000Y-34225000D03*
%TD*%
%TO.P,R4,1*%
%TO.N,Net-(R4-Pad1)*%
X-4500000Y-14525000D03*
%TO.P,R4,2*%
%TO.N,GND*%
X-4500000Y-12475000D03*
%TD*%
D14*
%TO.P,U1,1*%
%TO.N,N/C*%
X-4000000Y-29450000D03*
%TO.P,U1,2,UVCC*%
%TO.N,VBUS*%
X-3200000Y-29450000D03*
%TO.P,U1,3,D-*%
%TO.N,D-*%
X-2400000Y-29450000D03*
%TO.P,U1,4,D+*%
%TO.N,D+*%
X-1600000Y-29450000D03*
%TO.P,U1,5,UGND*%
%TO.N,GND*%
X-800000Y-29450000D03*
%TO.P,U1,6,UCAP*%
%TO.N,Net-(C1-Pad1)*%
X0Y-29450000D03*
%TO.P,U1,7,VBUS*%
%TO.N,VBUS*%
X800000Y-29450000D03*
%TO.P,U1,8*%
%TO.N,N/C*%
X1600000Y-29450000D03*
%TO.P,U1,9,PB1*%
%TO.N,SCK*%
X2400000Y-29450000D03*
%TO.P,U1,10,PB2*%
%TO.N,MOSI*%
X3200000Y-29450000D03*
%TO.P,U1,11,PB3*%
%TO.N,MISO*%
X4000000Y-29450000D03*
D15*
%TO.P,U1,12*%
%TO.N,N/C*%
X5700000Y-27750000D03*
%TO.P,U1,13,~RESET*%
%TO.N,RST*%
X5700000Y-26950000D03*
%TO.P,U1,14,VCC*%
%TO.N,VBUS*%
X5700000Y-26150000D03*
%TO.P,U1,15,GND*%
%TO.N,GND*%
X5700000Y-25350000D03*
%TO.P,U1,16,XTAL2*%
%TO.N,Net-(Y1-Pad3)*%
X5700000Y-24550000D03*
%TO.P,U1,17,XTAL1*%
%TO.N,Net-(Y1-Pad1)*%
X5700000Y-23750000D03*
%TO.P,U1,18,PD0*%
%TO.N,LED1*%
X5700000Y-22950000D03*
%TO.P,U1,19,PD1*%
%TO.N,LED2*%
X5700000Y-22150000D03*
%TO.P,U1,20,PD2*%
%TO.N,LED3*%
X5700000Y-21350000D03*
%TO.P,U1,21,PD3*%
%TO.N,LED4*%
X5700000Y-20550000D03*
%TO.P,U1,22,PD5*%
%TO.N,N/C*%
X5700000Y-19750000D03*
D14*
%TO.P,U1,23,GND*%
%TO.N,GND*%
X4000000Y-18050000D03*
%TO.P,U1,24,AVCC*%
%TO.N,VBUS*%
X3200000Y-18050000D03*
%TO.P,U1,25,PD4*%
%TO.N,N/C*%
X2400000Y-18050000D03*
%TO.P,U1,26*%
X1600000Y-18050000D03*
%TO.P,U1,27*%
X800000Y-18050000D03*
%TO.P,U1,28,PB4*%
%TO.N,LED5*%
X0Y-18050000D03*
%TO.P,U1,29,PB5*%
%TO.N,LED6*%
X-800000Y-18050000D03*
%TO.P,U1,30*%
%TO.N,N/C*%
X-1600000Y-18050000D03*
%TO.P,U1,31*%
X-2400000Y-18050000D03*
%TO.P,U1,32*%
X-3200000Y-18050000D03*
%TO.P,U1,33,~HWB~/PE2*%
%TO.N,Net-(R4-Pad1)*%
X-4000000Y-18050000D03*
D15*
%TO.P,U1,34,VCC*%
%TO.N,VBUS*%
X-5700000Y-19750000D03*
%TO.P,U1,35,GND*%
%TO.N,GND*%
X-5700000Y-20550000D03*
%TO.P,U1,36,PF7*%
%TO.N,SENS6*%
X-5700000Y-21350000D03*
%TO.P,U1,37,PF6*%
%TO.N,SENS5*%
X-5700000Y-22150000D03*
%TO.P,U1,38,PF5*%
%TO.N,SENS4*%
X-5700000Y-22950000D03*
%TO.P,U1,39,PF4*%
%TO.N,SENS3*%
X-5700000Y-23750000D03*
%TO.P,U1,40,PF1*%
%TO.N,SENS2*%
X-5700000Y-24550000D03*
%TO.P,U1,41,PF0*%
%TO.N,SENS1*%
X-5700000Y-25350000D03*
%TO.P,U1,42*%
%TO.N,N/C*%
X-5700000Y-26150000D03*
%TO.P,U1,43,GND*%
%TO.N,GND*%
X-5700000Y-26950000D03*
%TO.P,U1,44,AVCC*%
%TO.N,VBUS*%
X-5700000Y-27750000D03*
%TD*%
D16*
%TO.P,C3,1*%
%TO.N,GND*%
X9475000Y-30750000D03*
%TO.P,C3,2*%
%TO.N,VBUS*%
X11525000Y-30750000D03*
%TD*%
D11*
%TO.P,USB2,1,VBUS*%
%TO.N,VBUS*%
X-21040000Y-9000000D03*
%TO.P,USB2,2,D-*%
%TO.N,SENS2*%
X-21040000Y-11500000D03*
%TO.P,USB2,3,D+*%
%TO.N,LED2*%
X-21040000Y-13500000D03*
%TO.P,USB2,4,GND*%
%TO.N,GND*%
X-21040000Y-16000000D03*
D12*
%TO.P,USB2,5,Shield*%
X-23750000Y-19500000D03*
X-23750000Y-5500000D03*
%TD*%
D17*
%TO.P,C2,1*%
%TO.N,VBUS*%
X-6725000Y-33250000D03*
%TO.P,C2,2*%
%TO.N,GND*%
X-8775000Y-33250000D03*
%TD*%
D11*
%TO.P,USB6,1,VBUS*%
%TO.N,VBUS*%
X21040000Y-38500000D03*
%TO.P,USB6,2,D-*%
%TO.N,SENS6*%
X21040000Y-36000000D03*
%TO.P,USB6,3,D+*%
%TO.N,LED6*%
X21040000Y-34000000D03*
%TO.P,USB6,4,GND*%
%TO.N,GND*%
X21040000Y-31500000D03*
D12*
%TO.P,USB6,5,Shield*%
X23750000Y-42000000D03*
X23750000Y-28000000D03*
%TD*%
D18*
%TO.P,J2,1,Pin_1*%
%TO.N,MISO*%
X9480000Y-37710000D03*
D19*
%TO.P,J2,2,Pin_2*%
%TO.N,VBUS*%
X12020000Y-37710000D03*
%TO.P,J2,3,Pin_3*%
%TO.N,RST*%
X9480000Y-40250000D03*
%TO.P,J2,4,Pin_4*%
%TO.N,MOSI*%
X12020000Y-40250000D03*
%TO.P,J2,5,Pin_5*%
%TO.N,SCK*%
X9480000Y-42790000D03*
%TO.P,J2,6,Pin_6*%
%TO.N,GND*%
X12020000Y-42790000D03*
%TD*%
D11*
%TO.P,USB3,1,VBUS*%
%TO.N,VBUS*%
X-7750000Y-2710000D03*
%TO.P,USB3,2,D-*%
%TO.N,SENS3*%
X-10250000Y-2710000D03*
%TO.P,USB3,3,D+*%
%TO.N,LED3*%
X-12250000Y-2710000D03*
%TO.P,USB3,4,GND*%
%TO.N,GND*%
X-14750000Y-2710000D03*
D12*
%TO.P,USB3,5,Shield*%
X-18250000Y0D03*
X-4250000Y0D03*
%TD*%
D20*
%TO.P,C1,1*%
%TO.N,Net-(C1-Pad1)*%
X3500000Y-34225000D03*
%TO.P,C1,2*%
%TO.N,GND*%
X3500000Y-36275000D03*
%TD*%
D13*
%TO.P,R2,1*%
%TO.N,Net-(J1-Pad2)*%
X-1750000Y-36275000D03*
%TO.P,R2,2*%
%TO.N,D-*%
X-1750000Y-34225000D03*
%TD*%
%TO.P,R1,1*%
%TO.N,Net-(J1-Pad3)*%
X1000000Y-36275000D03*
%TO.P,R1,2*%
%TO.N,D+*%
X1000000Y-34225000D03*
%TD*%
D16*
%TO.P,C4,1*%
%TO.N,GND*%
X3225000Y-15250000D03*
%TO.P,C4,2*%
%TO.N,VBUS*%
X5275000Y-15250000D03*
%TD*%
D17*
%TO.P,R3,1*%
%TO.N,VBUS*%
X11525000Y-28250000D03*
%TO.P,R3,2*%
%TO.N,RST*%
X9475000Y-28250000D03*
%TD*%
D13*
%TO.P,C5,1*%
%TO.N,GND*%
X-9500000Y-30025000D03*
%TO.P,C5,2*%
%TO.N,VBUS*%
X-9500000Y-27975000D03*
%TD*%
D11*
%TO.P,USB5,1,VBUS*%
%TO.N,VBUS*%
X21040000Y-16000000D03*
%TO.P,USB5,2,D-*%
%TO.N,SENS5*%
X21040000Y-13500000D03*
%TO.P,USB5,3,D+*%
%TO.N,LED5*%
X21040000Y-11500000D03*
%TO.P,USB5,4,GND*%
%TO.N,GND*%
X21040000Y-9000000D03*
D12*
%TO.P,USB5,5,Shield*%
X23750000Y-5500000D03*
X23750000Y-19500000D03*
%TD*%
D21*
%TO.P,J1,1,VBUS*%
%TO.N,Net-(J1-Pad1)*%
X-1600000Y-39750000D03*
%TO.P,J1,2,D-*%
%TO.N,Net-(J1-Pad2)*%
X-800000Y-39750000D03*
%TO.P,J1,3,D+*%
%TO.N,Net-(J1-Pad3)*%
X0Y-39750000D03*
%TO.P,J1,4*%
%TO.N,N/C*%
X800000Y-39750000D03*
%TO.P,J1,5,GND*%
%TO.N,GND*%
X1600000Y-39750000D03*
D22*
%TO.P,J1,6,Shield*%
X-3650000Y-40200000D03*
X3650000Y-40200000D03*
X-3650000Y-45000000D03*
X3650000Y-45000000D03*
%TD*%
D11*
%TO.P,USB4,1,VBUS*%
%TO.N,VBUS*%
X14750000Y-2710000D03*
%TO.P,USB4,2,D-*%
%TO.N,SENS4*%
X12250000Y-2710000D03*
%TO.P,USB4,3,D+*%
%TO.N,LED4*%
X10250000Y-2710000D03*
%TO.P,USB4,4,GND*%
%TO.N,GND*%
X7750000Y-2710000D03*
D12*
%TO.P,USB4,5,Shield*%
X4250000Y0D03*
X18250000Y0D03*
%TD*%
D23*
%TO.N,GND*%
X3500000Y-25500000D03*
X-8000000Y-20250000D03*
X-2000000Y-27250000D03*
X-1000000Y-27750000D03*
X7250000Y-28750000D03*
X500000Y-32500000D03*
X12750000Y-24250000D03*
X-8250000Y-26862653D03*
X0Y-19750000D03*
X7250000Y-25425000D03*
X1500000Y-16250000D03*
X7750000Y-18250000D03*
%TO.N,VBUS*%
X-5500000Y-42000000D03*
X-5500000Y-33750000D03*
X10975000Y-26525000D03*
X750000Y-27750000D03*
X2650153Y-32349847D03*
X17000000Y-26750000D03*
X9500000Y-5000000D03*
X-7250000Y-27750000D03*
X-17000000Y-31750000D03*
X6000000Y-12750000D03*
X-5000000Y-31250000D03*
%TO.N,SENS6*%
X7474694Y-13974694D03*
X-4250000Y-21250000D03*
%TO.N,SENS5*%
X9987347Y-12487347D03*
X-3500000Y-22000000D03*
%TO.N,LED6*%
X4012653Y-12762653D03*
X-750000Y-15500000D03*
%TO.N,LED4*%
X6475029Y-14000648D03*
%TO.N,LED3*%
X250000Y-24687653D03*
%TO.N,LED2*%
X1000000Y-25412653D03*
%TO.N,LED1*%
X1862347Y-26137653D03*
%TO.N,SENS4*%
X-3500000Y-23000000D03*
%TO.N,SCK*%
X3625509Y-32025000D03*
%TO.N,MOSI*%
X4750000Y-32000000D03*
%TO.N,RST*%
X8125000Y-27625000D03*
X-1750000Y-20250000D03*
%TO.N,MISO*%
X5775153Y-31999847D03*
%TD*%
D24*
%TO.N,GND*%
X-800000Y-27950000D02*
X-1000000Y-27750000D01*
X3225000Y-15250000D02*
X2500000Y-15250000D01*
X7550000Y-18050000D02*
X7750000Y-18250000D01*
X-7700000Y-20550000D02*
X-8000000Y-20250000D01*
X-800000Y-31200000D02*
X500000Y-32500000D01*
X-8162653Y-26950000D02*
X-8250000Y-26862653D01*
X3650000Y-25350000D02*
X3500000Y-25500000D01*
X5700000Y-25350000D02*
X3650000Y-25350000D01*
X2500000Y-15250000D02*
X1500000Y-16250000D01*
X5700000Y-25350000D02*
X7175000Y-25350000D01*
X-5700000Y-26950000D02*
X-8162653Y-26950000D01*
X10500000Y-24250000D02*
X12750000Y-24250000D01*
X-800000Y-29450000D02*
X-800000Y-27950000D01*
X-800000Y-29450000D02*
X-800000Y-31200000D01*
X-2300000Y-26950000D02*
X-2000000Y-27250000D01*
X4000000Y-18050000D02*
X7550000Y-18050000D01*
X7175000Y-25350000D02*
X7250000Y-25425000D01*
X-5700000Y-26950000D02*
X-2300000Y-26950000D01*
X-5700000Y-20550000D02*
X-7700000Y-20550000D01*
%TO.N,VBUS*%
X17000000Y-34460000D02*
X17000000Y-26750000D01*
X-4250000Y-34225000D02*
X-5025000Y-34225000D01*
X-9250000Y-4210000D02*
X-9250000Y-17500000D01*
X4250000Y-32750000D02*
X3050306Y-32750000D01*
X-7750000Y-2710000D02*
X-9250000Y-4210000D01*
X-7250000Y-27750000D02*
X-7750000Y-27750000D01*
X-6725000Y-33250000D02*
X-6725000Y-32225000D01*
X-6725000Y-32225000D02*
X-5750000Y-31250000D01*
X11525000Y-27075000D02*
X10975000Y-26525000D01*
X-7750000Y-27750000D02*
X-7975000Y-27975000D01*
X800000Y-29450000D02*
X800000Y-30499694D01*
X5275000Y-15250000D02*
X5275000Y-13475000D01*
X-3200000Y-30134634D02*
X-3200000Y-29450000D01*
X3050306Y-32750000D02*
X2650153Y-32349847D01*
X-2500000Y-24386410D02*
X750000Y-27636410D01*
X-5000000Y-31250000D02*
X-4315366Y-31250000D01*
X4250000Y-32750000D02*
X10750000Y-32750000D01*
X5275000Y-13475000D02*
X6000000Y-12750000D01*
X-5700000Y-19750000D02*
X-3500000Y-19750000D01*
X3200000Y-17365366D02*
X5477033Y-15088333D01*
X-7750000Y-2710000D02*
X-9960000Y-500000D01*
X800000Y-30134636D02*
X800000Y-29450000D01*
X12460000Y-5000000D02*
X14750000Y-2710000D01*
X750000Y-27636410D02*
X750000Y-27750000D01*
X11525000Y-30750000D02*
X11525000Y-28250000D01*
X-2500000Y-20750000D02*
X-2500000Y-24386410D01*
X12020000Y-37710000D02*
X10844999Y-38885001D01*
X-15000000Y-500000D02*
X-21040000Y-6540000D01*
X-4215364Y-27750000D02*
X-3200000Y-28765364D01*
X-7975000Y-27975000D02*
X-9500000Y-27975000D01*
X10600000Y-26150000D02*
X5700000Y-26150000D01*
X11525000Y-28250000D02*
X11525000Y-27075000D01*
X-5500000Y-33750000D02*
X-6000000Y-33250000D01*
X-6000000Y-33250000D02*
X-6725000Y-33250000D01*
X-13625000Y-28375000D02*
X-17000000Y-31750000D01*
X-9500000Y-27975000D02*
X-13225000Y-27975000D01*
X8114999Y-38885001D02*
X4500000Y-42500000D01*
X10975000Y-26525000D02*
X10600000Y-26150000D01*
X21040000Y-38500000D02*
X17000000Y-34460000D01*
X-5700000Y-19750000D02*
X-7000000Y-19750000D01*
X-5700000Y-27750000D02*
X-4215364Y-27750000D01*
X-4315366Y-31250000D02*
X-3200000Y-30134634D01*
X4000000Y-32750000D02*
X4250000Y-32750000D01*
X4500000Y-42500000D02*
X-5000000Y-42500000D01*
X3200000Y-18050000D02*
X3200000Y-17365366D01*
X-21040000Y-6540000D02*
X-21040000Y-9000000D01*
X-13225000Y-27975000D02*
X-13625000Y-28375000D01*
X-5025000Y-34225000D02*
X-5500000Y-33750000D01*
X9500000Y-5000000D02*
X12460000Y-5000000D01*
X-3200000Y-28765364D02*
X-3200000Y-29450000D01*
X9500000Y-5000000D02*
X-5460000Y-5000000D01*
X800000Y-30499694D02*
X2650153Y-32349847D01*
X10844999Y-38885001D02*
X8114999Y-38885001D01*
X-5460000Y-5000000D02*
X-7750000Y-2710000D01*
X-9960000Y-500000D02*
X-15000000Y-500000D01*
X-3500000Y-19750000D02*
X-2500000Y-20750000D01*
X-5700000Y-27750000D02*
X-7250000Y-27750000D01*
X11525000Y-31975000D02*
X11525000Y-30750000D01*
X-5750000Y-31250000D02*
X-5000000Y-31250000D01*
X-5000000Y-42500000D02*
X-5500000Y-42000000D01*
X-9250000Y-17500000D02*
X-7000000Y-19750000D01*
X10750000Y-32750000D02*
X11525000Y-31975000D01*
%TO.N,Net-(J1-Pad1)*%
X-1600000Y-38900000D02*
X-1600000Y-39750000D01*
X-4225000Y-36275000D02*
X-1600000Y-38900000D01*
X-4250000Y-36275000D02*
X-4225000Y-36275000D01*
%TO.N,Net-(J1-Pad3)*%
X0Y-38000000D02*
X1000000Y-37000000D01*
X0Y-39750000D02*
X0Y-38000000D01*
X1000000Y-37000000D02*
X1000000Y-36275000D01*
%TO.N,Net-(J1-Pad2)*%
X-1750000Y-37000000D02*
X-800000Y-37950000D01*
X-1750000Y-36275000D02*
X-1750000Y-37000000D01*
X-800000Y-37950000D02*
X-800000Y-39750000D01*
D25*
%TO.N,D+*%
X-1600000Y-31625000D02*
X1000000Y-34225000D01*
X-1600000Y-29450000D02*
X-1600000Y-31150000D01*
X-1600000Y-31150000D02*
X-1600000Y-31625000D01*
%TO.N,D-*%
X-2400000Y-32350000D02*
X-1750000Y-33000000D01*
X-1750000Y-33000000D02*
X-1750000Y-34225000D01*
X-2400000Y-29450000D02*
X-2400000Y-32350000D01*
D24*
%TO.N,SENS6*%
X15974694Y-13974694D02*
X17750000Y-15750000D01*
X17750000Y-15750000D02*
X17750000Y-32710000D01*
X-5700000Y-21350000D02*
X-4350000Y-21350000D01*
X7474694Y-13974694D02*
X15774684Y-13974694D01*
X17750000Y-32710000D02*
X21040000Y-36000000D01*
X15774684Y-13974694D02*
X15974694Y-13974694D01*
X-4350000Y-21350000D02*
X-4250000Y-21250000D01*
%TO.N,SENS5*%
X19000000Y-13500000D02*
X21040000Y-13500000D01*
X17987347Y-12487347D02*
X19000000Y-13500000D01*
X-5700000Y-22150000D02*
X-3650000Y-22150000D01*
X9987347Y-12487347D02*
X17987347Y-12487347D01*
X-3650000Y-22150000D02*
X-3500000Y-22000000D01*
%TO.N,LED5*%
X0Y-15750000D02*
X4250000Y-11500000D01*
X4250000Y-11500000D02*
X6500000Y-11500000D01*
X0Y-18050000D02*
X0Y-15750000D01*
X6500000Y-11500000D02*
X21040000Y-11500000D01*
%TO.N,LED6*%
X4012653Y-12762653D02*
X4762653Y-12012653D01*
X10037652Y-13212348D02*
X16962348Y-13212348D01*
X4825296Y-11950010D02*
X4762653Y-12012653D01*
X8377008Y-11950010D02*
X4825296Y-11950010D01*
X18250000Y-14500000D02*
X18250000Y-31210000D01*
X16962348Y-13212348D02*
X18250000Y-14500000D01*
X10037652Y-13212348D02*
X9639346Y-13212348D01*
X9639346Y-13212348D02*
X8377008Y-11950010D01*
X18250000Y-31210000D02*
X21040000Y-34000000D01*
X-800000Y-15550000D02*
X-750000Y-15500000D01*
X-800000Y-18050000D02*
X-800000Y-15550000D01*
%TO.N,LED4*%
X6475029Y-14000648D02*
X6475029Y-14725029D01*
X6475029Y-14725029D02*
X8750000Y-17000000D01*
X5700000Y-20550000D02*
X7450000Y-20550000D01*
X7450000Y-20550000D02*
X8750000Y-19250000D01*
X8750000Y-19250000D02*
X8750000Y-17000000D01*
%TO.N,LED3*%
X5700000Y-21350000D02*
X3587653Y-21350000D01*
X3587653Y-21350000D02*
X250000Y-24687653D01*
%TO.N,LED2*%
X4262653Y-22150000D02*
X1000000Y-25412653D01*
X5700000Y-22150000D02*
X4262653Y-22150000D01*
%TO.N,LED1*%
X4550000Y-22950000D02*
X4950000Y-22950000D01*
X1862347Y-26137653D02*
X1862347Y-25637653D01*
X3250000Y-24250000D02*
X4550000Y-22950000D01*
X1862347Y-25637653D02*
X3250000Y-24250000D01*
X5700000Y-22950000D02*
X4950000Y-22950000D01*
%TO.N,SENS4*%
X-5700000Y-22950000D02*
X-3550000Y-22950000D01*
X-3550000Y-22950000D02*
X-3500000Y-23000000D01*
%TO.N,SENS3*%
X-11250000Y-20113590D02*
X-11250000Y-3710000D01*
X-11250000Y-3710000D02*
X-10250000Y-2710000D01*
X-5700000Y-23750000D02*
X-7613590Y-23750000D01*
X-7613590Y-23750000D02*
X-11250000Y-20113590D01*
%TO.N,SENS2*%
X-7450000Y-24550000D02*
X-20500000Y-11500000D01*
X-5700000Y-24550000D02*
X-7450000Y-24550000D01*
X-20500000Y-11500000D02*
X-21040000Y-11500000D01*
%TO.N,SENS1*%
X-5700000Y-25350000D02*
X-12390000Y-25350000D01*
X-12390000Y-25350000D02*
X-21040000Y-34000000D01*
%TO.N,Net-(C1-Pad1)*%
X1775000Y-32500000D02*
X0Y-30725000D01*
X0Y-30725000D02*
X0Y-29450000D01*
X3500000Y-34225000D02*
X1775000Y-32500000D01*
%TO.N,SCK*%
X2400000Y-29450000D02*
X2400000Y-30799491D01*
X2400000Y-30799491D02*
X3625509Y-32025000D01*
%TO.N,Net-(R4-Pad1)*%
X-4000000Y-18050000D02*
X-4000000Y-16500000D01*
X-4000000Y-16500000D02*
X-4500000Y-16000000D01*
X-4500000Y-16000000D02*
X-4500000Y-14525000D01*
%TO.N,Net-(Y1-Pad1)*%
X8200000Y-23050000D02*
X10500000Y-23050000D01*
X5700000Y-23750000D02*
X7500000Y-23750000D01*
X7500000Y-23750000D02*
X8200000Y-23050000D01*
%TO.N,Net-(Y1-Pad3)*%
X10500000Y-25450000D02*
X8450000Y-25450000D01*
X8450000Y-25450000D02*
X7550000Y-24550000D01*
X7550000Y-24550000D02*
X5700000Y-24550000D01*
%TO.N,MOSI*%
X3200000Y-30526489D02*
X4673511Y-32000000D01*
X4673511Y-32000000D02*
X4750000Y-32000000D01*
X3200000Y-29450000D02*
X3200000Y-30526489D01*
%TO.N,RST*%
X-1750000Y-24500000D02*
X-750000Y-25500000D01*
X5700000Y-26950000D02*
X700000Y-26950000D01*
X700000Y-26950000D02*
X-750000Y-25500000D01*
X5700000Y-26950000D02*
X7450000Y-26950000D01*
X8750000Y-28250000D02*
X9475000Y-28250000D01*
X-1750000Y-20250000D02*
X-1750000Y-24500000D01*
X7450000Y-26950000D02*
X8125000Y-27625000D01*
X8125000Y-27625000D02*
X8750000Y-28250000D01*
%TO.N,MISO*%
X4000000Y-30224694D02*
X5775153Y-31999847D01*
X4000000Y-29450000D02*
X4000000Y-30224694D01*
%TD*%
%TA.AperFunction,Conductor*%
%TO.N,GND*%
G36*
X-19224253Y1971998D02*
G01*
X-19177760Y1918342D01*
X-19167656Y1848068D01*
X-19197150Y1783488D01*
X-19237139Y1752752D01*
X-19252548Y1745236D01*
X-19260145Y1740850D01*
X-19466982Y1601338D01*
X-19475289Y1591310D01*
X-19468069Y1577279D01*
X-18262812Y372022D01*
X-18248868Y364408D01*
X-18247035Y364539D01*
X-18240420Y368790D01*
X-17033867Y1575343D01*
X-17026899Y1588103D01*
X-17034810Y1598901D01*
X-17120880Y1666145D01*
X-17128156Y1671053D01*
X-17276815Y1756881D01*
X-17325808Y1808263D01*
X-17339244Y1877977D01*
X-17312858Y1943888D01*
X-17255026Y1985070D01*
X-17213815Y1992000D01*
X-5292374Y1992000D01*
X-5224253Y1971998D01*
X-5177760Y1918342D01*
X-5167656Y1848068D01*
X-5197150Y1783488D01*
X-5237139Y1752752D01*
X-5252548Y1745236D01*
X-5260145Y1740850D01*
X-5466982Y1601338D01*
X-5475289Y1591310D01*
X-5468069Y1577279D01*
X-4262812Y372022D01*
X-4248868Y364408D01*
X-4247035Y364539D01*
X-4240420Y368790D01*
X-3033867Y1575343D01*
X-3026899Y1588103D01*
X-3034810Y1598901D01*
X-3120880Y1666145D01*
X-3128156Y1671053D01*
X-3276815Y1756881D01*
X-3325808Y1808263D01*
X-3339244Y1877977D01*
X-3312858Y1943888D01*
X-3255026Y1985070D01*
X-3213815Y1992000D01*
X3207626Y1992000D01*
X3275747Y1971998D01*
X3322240Y1918342D01*
X3332344Y1848068D01*
X3302850Y1783488D01*
X3262861Y1752752D01*
X3247452Y1745236D01*
X3239855Y1740850D01*
X3033018Y1601338D01*
X3024711Y1591310D01*
X3031931Y1577279D01*
X4237188Y372022D01*
X4251132Y364408D01*
X4252965Y364539D01*
X4259580Y368790D01*
X5466133Y1575343D01*
X5473101Y1588103D01*
X5465190Y1598901D01*
X5379120Y1666145D01*
X5371844Y1671053D01*
X5223185Y1756881D01*
X5174192Y1808263D01*
X5160756Y1877977D01*
X5187142Y1943888D01*
X5244974Y1985070D01*
X5286185Y1992000D01*
X17207626Y1992000D01*
X17275747Y1971998D01*
X17322240Y1918342D01*
X17332344Y1848068D01*
X17302850Y1783488D01*
X17262861Y1752752D01*
X17247452Y1745236D01*
X17239855Y1740850D01*
X17033018Y1601338D01*
X17024711Y1591310D01*
X17031931Y1577279D01*
X18237188Y372022D01*
X18251132Y364408D01*
X18252965Y364539D01*
X18259580Y368790D01*
X19466133Y1575343D01*
X19473101Y1588103D01*
X19465190Y1598901D01*
X19379120Y1666145D01*
X19371844Y1671053D01*
X19223185Y1756881D01*
X19174192Y1808263D01*
X19160756Y1877977D01*
X19187142Y1943888D01*
X19244974Y1985070D01*
X19286185Y1992000D01*
X22517465Y1992000D01*
X22585586Y1971998D01*
X22632079Y1918342D01*
X22642183Y1848068D01*
X22612689Y1783488D01*
X22582174Y1757886D01*
X22544082Y1735088D01*
X22319761Y1555373D01*
X22121906Y1346877D01*
X21954177Y1113458D01*
X21819678Y859435D01*
X21720899Y589508D01*
X21719986Y585322D01*
X21719986Y585321D01*
X21660581Y312863D01*
X21660580Y312855D01*
X21659668Y308673D01*
X21651966Y210812D01*
X21638895Y44725D01*
X21637116Y22127D01*
X21644235Y-101331D01*
X21653662Y-264829D01*
X21708999Y-546885D01*
X21710386Y-550936D01*
X21710387Y-550940D01*
X21800714Y-814765D01*
X21800718Y-814774D01*
X21802103Y-818820D01*
X21931252Y-1075605D01*
X21933678Y-1079134D01*
X21933681Y-1079140D01*
X22084542Y-1298642D01*
X22094056Y-1312485D01*
X22096943Y-1315658D01*
X22096944Y-1315659D01*
X22278604Y-1515301D01*
X22287501Y-1525079D01*
X22348177Y-1575812D01*
X22504718Y-1706701D01*
X22504723Y-1706705D01*
X22508010Y-1709453D01*
X22626982Y-1784084D01*
X22747860Y-1859911D01*
X22747864Y-1859913D01*
X22751500Y-1862194D01*
X22818928Y-1892639D01*
X23009555Y-1978711D01*
X23009559Y-1978713D01*
X23013467Y-1980477D01*
X23017587Y-1981697D01*
X23017586Y-1981697D01*
X23284950Y-2060894D01*
X23284954Y-2060895D01*
X23289063Y-2062112D01*
X23293297Y-2062760D01*
X23293302Y-2062761D01*
X23568947Y-2104940D01*
X23568949Y-2104940D01*
X23573189Y-2105589D01*
X23719499Y-2107888D01*
X23856295Y-2110037D01*
X23856301Y-2110037D01*
X23860586Y-2110104D01*
X24145937Y-2075573D01*
X24423961Y-2002635D01*
X24427921Y-2000995D01*
X24427926Y-2000993D01*
X24571155Y-1941665D01*
X24689514Y-1892639D01*
X24937682Y-1747621D01*
X25163873Y-1570265D01*
X25190552Y-1542735D01*
X25304040Y-1425624D01*
X25363901Y-1363852D01*
X25366434Y-1360404D01*
X25366438Y-1360399D01*
X25514453Y-1158900D01*
X25570902Y-1115841D01*
X25641669Y-1110136D01*
X25704286Y-1143596D01*
X25738873Y-1205598D01*
X25742000Y-1233494D01*
X25742000Y-4463695D01*
X25721998Y-4531816D01*
X25668342Y-4578309D01*
X25598068Y-4588413D01*
X25533488Y-4558919D01*
X25504749Y-4522849D01*
X25459187Y-4437160D01*
X25454532Y-4429709D01*
X25349445Y-4285070D01*
X25338520Y-4276646D01*
X25325661Y-4283549D01*
X24122022Y-5487188D01*
X24114408Y-5501132D01*
X24114539Y-5502965D01*
X24118790Y-5509580D01*
X25325984Y-6716774D01*
X25338095Y-6723387D01*
X25349714Y-6714559D01*
X25454532Y-6570291D01*
X25459187Y-6562840D01*
X25504749Y-6477151D01*
X25554390Y-6426395D01*
X25623592Y-6410534D01*
X25690384Y-6434604D01*
X25733559Y-6490964D01*
X25742000Y-6536305D01*
X25742000Y-18463695D01*
X25721998Y-18531816D01*
X25668342Y-18578309D01*
X25598068Y-18588413D01*
X25533488Y-18558919D01*
X25504749Y-18522849D01*
X25459187Y-18437160D01*
X25454532Y-18429709D01*
X25349445Y-18285070D01*
X25338520Y-18276646D01*
X25325661Y-18283549D01*
X24122022Y-19487188D01*
X24114408Y-19501132D01*
X24114539Y-19502965D01*
X24118790Y-19509580D01*
X25325984Y-20716774D01*
X25338095Y-20723387D01*
X25349714Y-20714559D01*
X25454532Y-20570291D01*
X25459187Y-20562840D01*
X25504749Y-20477151D01*
X25554390Y-20426395D01*
X25623592Y-20410534D01*
X25690384Y-20434604D01*
X25733559Y-20490964D01*
X25742000Y-20536305D01*
X25742000Y-26963695D01*
X25721998Y-27031816D01*
X25668342Y-27078309D01*
X25598068Y-27088413D01*
X25533488Y-27058919D01*
X25504749Y-27022849D01*
X25459187Y-26937160D01*
X25454532Y-26929709D01*
X25349445Y-26785070D01*
X25338520Y-26776646D01*
X25325661Y-26783549D01*
X24122022Y-27987188D01*
X24114408Y-28001132D01*
X24114539Y-28002965D01*
X24118790Y-28009580D01*
X25325984Y-29216774D01*
X25338095Y-29223387D01*
X25349714Y-29214559D01*
X25454532Y-29070291D01*
X25459187Y-29062840D01*
X25504749Y-28977151D01*
X25554390Y-28926395D01*
X25623592Y-28910534D01*
X25690384Y-28934604D01*
X25733559Y-28990964D01*
X25742000Y-29036305D01*
X25742000Y-40963695D01*
X25721998Y-41031816D01*
X25668342Y-41078309D01*
X25598068Y-41088413D01*
X25533488Y-41058919D01*
X25504749Y-41022849D01*
X25459187Y-40937160D01*
X25454532Y-40929709D01*
X25349445Y-40785070D01*
X25338520Y-40776646D01*
X25325661Y-40783549D01*
X24122022Y-41987188D01*
X24114408Y-42001132D01*
X24114539Y-42002965D01*
X24118790Y-42009580D01*
X25325984Y-43216774D01*
X25338095Y-43223387D01*
X25349714Y-43214559D01*
X25454532Y-43070291D01*
X25459187Y-43062840D01*
X25504749Y-42977151D01*
X25554390Y-42926395D01*
X25623592Y-42910534D01*
X25690384Y-42934604D01*
X25733559Y-42990964D01*
X25742000Y-43036305D01*
X25742000Y-44917498D01*
X25740144Y-44939044D01*
X25737745Y-44952859D01*
X25735526Y-45079967D01*
X25735278Y-45085941D01*
X25730916Y-45152490D01*
X25730109Y-45160686D01*
X25723941Y-45207535D01*
X25704229Y-45357263D01*
X25702886Y-45365399D01*
X25694064Y-45409749D01*
X25692192Y-45417778D01*
X25640872Y-45609305D01*
X25638479Y-45617194D01*
X25623954Y-45659985D01*
X25621049Y-45667703D01*
X25579479Y-45768063D01*
X25545168Y-45850896D01*
X25541775Y-45858384D01*
X25521770Y-45898950D01*
X25517891Y-45906207D01*
X25418751Y-46077923D01*
X25414398Y-46084924D01*
X25389273Y-46122527D01*
X25384486Y-46129207D01*
X25263750Y-46286553D01*
X25258563Y-46292872D01*
X25244465Y-46308948D01*
X25228721Y-46326900D01*
X25223086Y-46332916D01*
X25082917Y-46473085D01*
X25076899Y-46478722D01*
X25042885Y-46508551D01*
X25036512Y-46513781D01*
X24879239Y-46634462D01*
X24872537Y-46639265D01*
X24834920Y-46664400D01*
X24827917Y-46668755D01*
X24656201Y-46767894D01*
X24648936Y-46771777D01*
X24608394Y-46791770D01*
X24600923Y-46795155D01*
X24522341Y-46827706D01*
X24417704Y-46871048D01*
X24409987Y-46873952D01*
X24367177Y-46888484D01*
X24359287Y-46890878D01*
X24167784Y-46942191D01*
X24159755Y-46944063D01*
X24115405Y-46952885D01*
X24107272Y-46954227D01*
X24107261Y-46954229D01*
X23910686Y-46980108D01*
X23902482Y-46980916D01*
X23890081Y-46981729D01*
X23835944Y-46985277D01*
X23829964Y-46985526D01*
X23706136Y-46987688D01*
X23701707Y-46988402D01*
X23701701Y-46988402D01*
X23689325Y-46990396D01*
X23669287Y-46992000D01*
X17484840Y-46992000D01*
X17416719Y-46971998D01*
X17370226Y-46918342D01*
X17360122Y-46848068D01*
X17389616Y-46783488D01*
X17421269Y-46757212D01*
X17433979Y-46749785D01*
X17433980Y-46749784D01*
X17437682Y-46747621D01*
X17663873Y-46570265D01*
X17705188Y-46527632D01*
X17860918Y-46366930D01*
X17863901Y-46363852D01*
X17866434Y-46360404D01*
X17866438Y-46360399D01*
X18031527Y-46135657D01*
X18034065Y-46132202D01*
X18048998Y-46104699D01*
X18169166Y-45883377D01*
X18169167Y-45883375D01*
X18171216Y-45879601D01*
X18251285Y-45667704D01*
X18271298Y-45614742D01*
X18271299Y-45614738D01*
X18272816Y-45610724D01*
X18336985Y-45330546D01*
X18343294Y-45259865D01*
X18362317Y-45046716D01*
X18362537Y-45044251D01*
X18363000Y-45000000D01*
X18361231Y-44974049D01*
X18343742Y-44717510D01*
X18343741Y-44717504D01*
X18343450Y-44713233D01*
X18285163Y-44431772D01*
X18189216Y-44160827D01*
X18108629Y-44004692D01*
X18059350Y-43909216D01*
X18059350Y-43909215D01*
X18057385Y-43905409D01*
X18038775Y-43878929D01*
X17894576Y-43673756D01*
X17894575Y-43673755D01*
X17892109Y-43670246D01*
X17817383Y-43589830D01*
X22524570Y-43589830D01*
X22534334Y-43602226D01*
X22739855Y-43740850D01*
X22747451Y-43745236D01*
X22991959Y-43864491D01*
X23000106Y-43867782D01*
X23258833Y-43951848D01*
X23267334Y-43953967D01*
X23535255Y-44001210D01*
X23543981Y-44002127D01*
X23815859Y-44011621D01*
X23824622Y-44011315D01*
X24095180Y-43982878D01*
X24103825Y-43981353D01*
X24367776Y-43915543D01*
X24376134Y-43912828D01*
X24628361Y-43810920D01*
X24636253Y-43807071D01*
X24871844Y-43671053D01*
X24879120Y-43666145D01*
X24964671Y-43599307D01*
X24973139Y-43587495D01*
X24966602Y-43575812D01*
X23762812Y-42372022D01*
X23748868Y-42364408D01*
X23747035Y-42364539D01*
X23740420Y-42368790D01*
X22530813Y-43578397D01*
X22524570Y-43589830D01*
X17817383Y-43589830D01*
X17696448Y-43459689D01*
X17474021Y-43277635D01*
X17411006Y-43239019D01*
X17232595Y-43129688D01*
X17232587Y-43129684D01*
X17228945Y-43127452D01*
X17225028Y-43125733D01*
X17225025Y-43125731D01*
X17109089Y-43074839D01*
X16965753Y-43011919D01*
X16961625Y-43010743D01*
X16961622Y-43010742D01*
X16733511Y-42945763D01*
X16689317Y-42933174D01*
X16438683Y-42897504D01*
X16409004Y-42893280D01*
X16409002Y-42893280D01*
X16404752Y-42892675D01*
X16253235Y-42891882D01*
X16121610Y-42891192D01*
X16121604Y-42891192D01*
X16117324Y-42891170D01*
X16113080Y-42891729D01*
X16113076Y-42891729D01*
X15988051Y-42908189D01*
X15832350Y-42928687D01*
X15828210Y-42929820D01*
X15828208Y-42929820D01*
X15564810Y-43001878D01*
X15555105Y-43004533D01*
X15290718Y-43117303D01*
X15194220Y-43175056D01*
X15047764Y-43262708D01*
X15047760Y-43262711D01*
X15044082Y-43264912D01*
X14819761Y-43444627D01*
X14764407Y-43502958D01*
X14644524Y-43629289D01*
X14621906Y-43653123D01*
X14572669Y-43721644D01*
X14459648Y-43878929D01*
X14454177Y-43886542D01*
X14319678Y-44140565D01*
X14220899Y-44410492D01*
X14219986Y-44414678D01*
X14219986Y-44414679D01*
X14160581Y-44687137D01*
X14160580Y-44687145D01*
X14159668Y-44691327D01*
X14155497Y-44744329D01*
X14138474Y-44960624D01*
X14137116Y-44977873D01*
X14144235Y-45101331D01*
X14153662Y-45264829D01*
X14208999Y-45546885D01*
X14210386Y-45550936D01*
X14210387Y-45550940D01*
X14300714Y-45814765D01*
X14300718Y-45814774D01*
X14302103Y-45818820D01*
X14318244Y-45850913D01*
X14391824Y-45997210D01*
X14431252Y-46075605D01*
X14433678Y-46079134D01*
X14433681Y-46079140D01*
X14580576Y-46292872D01*
X14594056Y-46312485D01*
X14596943Y-46315658D01*
X14596944Y-46315659D01*
X14784621Y-46521914D01*
X14787501Y-46525079D01*
X14873666Y-46597124D01*
X15004718Y-46706701D01*
X15004723Y-46706705D01*
X15008010Y-46709453D01*
X15067200Y-46746583D01*
X15087414Y-46759263D01*
X15134492Y-46812406D01*
X15145364Y-46882565D01*
X15116580Y-46947465D01*
X15057278Y-46986500D01*
X15020458Y-46992000D01*
X4079112Y-46992000D01*
X4010991Y-46971998D01*
X3964498Y-46918342D01*
X3954394Y-46848068D01*
X3983888Y-46783488D01*
X4042064Y-46745570D01*
X4121849Y-46721026D01*
X4132196Y-46716803D01*
X4321766Y-46618958D01*
X4331197Y-46612973D01*
X4500450Y-46483101D01*
X4508663Y-46475548D01*
X4652244Y-46317755D01*
X4658999Y-46308855D01*
X4772355Y-46128149D01*
X4777436Y-46118179D01*
X4857002Y-45920253D01*
X4860233Y-45909553D01*
X4903693Y-45699690D01*
X4904896Y-45690554D01*
X4907895Y-45638541D01*
X4908000Y-45634894D01*
X4908000Y-45272115D01*
X4903525Y-45256876D01*
X4902135Y-45255671D01*
X4894452Y-45254000D01*
X2410115Y-45254000D01*
X2394876Y-45258475D01*
X2393671Y-45259865D01*
X2392000Y-45267548D01*
X2392000Y-45603222D01*
X2392249Y-45608817D01*
X2406462Y-45768063D01*
X2408444Y-45779077D01*
X2464733Y-45984835D01*
X2468627Y-45995308D01*
X2560466Y-46187852D01*
X2566161Y-46197481D01*
X2690639Y-46370710D01*
X2697946Y-46379175D01*
X2851141Y-46527632D01*
X2859823Y-46534662D01*
X3036893Y-46653649D01*
X3046682Y-46659030D01*
X3242021Y-46744778D01*
X3247383Y-46746583D01*
X3305565Y-46787270D01*
X3332513Y-46852953D01*
X3319672Y-46922779D01*
X3271119Y-46974578D01*
X3207190Y-46992000D01*
X-3220888Y-46992000D01*
X-3289009Y-46971998D01*
X-3335502Y-46918342D01*
X-3345606Y-46848068D01*
X-3316112Y-46783488D01*
X-3257936Y-46745570D01*
X-3178151Y-46721026D01*
X-3167804Y-46716803D01*
X-2978234Y-46618958D01*
X-2968803Y-46612973D01*
X-2799550Y-46483101D01*
X-2791337Y-46475548D01*
X-2647756Y-46317755D01*
X-2641001Y-46308855D01*
X-2527645Y-46128149D01*
X-2522564Y-46118179D01*
X-2442998Y-45920253D01*
X-2439767Y-45909553D01*
X-2396307Y-45699690D01*
X-2395104Y-45690554D01*
X-2392105Y-45638541D01*
X-2392000Y-45634894D01*
X-2392000Y-45272115D01*
X-2396475Y-45256876D01*
X-2397865Y-45255671D01*
X-2405548Y-45254000D01*
X-4889885Y-45254000D01*
X-4905124Y-45258475D01*
X-4906329Y-45259865D01*
X-4908000Y-45267548D01*
X-4908000Y-45603222D01*
X-4907751Y-45608817D01*
X-4893538Y-45768063D01*
X-4891556Y-45779077D01*
X-4835267Y-45984835D01*
X-4831373Y-45995308D01*
X-4739534Y-46187852D01*
X-4733839Y-46197481D01*
X-4609361Y-46370710D01*
X-4602054Y-46379175D01*
X-4448859Y-46527632D01*
X-4440177Y-46534662D01*
X-4263107Y-46653649D01*
X-4253318Y-46659030D01*
X-4057979Y-46744778D01*
X-4052617Y-46746583D01*
X-3994435Y-46787270D01*
X-3967487Y-46852953D01*
X-3980328Y-46922779D01*
X-4028881Y-46974578D01*
X-4092810Y-46992000D01*
X-15015160Y-46992000D01*
X-15083281Y-46971998D01*
X-15129774Y-46918342D01*
X-15139878Y-46848068D01*
X-15110384Y-46783488D01*
X-15078731Y-46757212D01*
X-15066021Y-46749785D01*
X-15066020Y-46749784D01*
X-15062318Y-46747621D01*
X-14836127Y-46570265D01*
X-14794812Y-46527632D01*
X-14639082Y-46366930D01*
X-14636099Y-46363852D01*
X-14633566Y-46360404D01*
X-14633562Y-46360399D01*
X-14468473Y-46135657D01*
X-14465935Y-46132202D01*
X-14451002Y-46104699D01*
X-14330834Y-45883377D01*
X-14330833Y-45883375D01*
X-14328784Y-45879601D01*
X-14248715Y-45667704D01*
X-14228702Y-45614742D01*
X-14228701Y-45614738D01*
X-14227184Y-45610724D01*
X-14163015Y-45330546D01*
X-14156706Y-45259865D01*
X-14137683Y-45046716D01*
X-14137463Y-45044251D01*
X-14137000Y-45000000D01*
X-14138769Y-44974049D01*
X-14156258Y-44717510D01*
X-14156259Y-44717504D01*
X-14156550Y-44713233D01*
X-14214837Y-44431772D01*
X-14310784Y-44160827D01*
X-14391371Y-44004692D01*
X-14440650Y-43909216D01*
X-14440650Y-43909215D01*
X-14442615Y-43905409D01*
X-14461225Y-43878929D01*
X-14605424Y-43673756D01*
X-14605425Y-43673755D01*
X-14607891Y-43670246D01*
X-14803552Y-43459689D01*
X-15025979Y-43277635D01*
X-15088994Y-43239019D01*
X-15267405Y-43129688D01*
X-15267413Y-43129684D01*
X-15271055Y-43127452D01*
X-15274972Y-43125733D01*
X-15274975Y-43125731D01*
X-15390911Y-43074839D01*
X-15534247Y-43011919D01*
X-15538375Y-43010743D01*
X-15538378Y-43010742D01*
X-15766489Y-42945763D01*
X-15810683Y-42933174D01*
X-16061317Y-42897504D01*
X-16090996Y-42893280D01*
X-16090998Y-42893280D01*
X-16095248Y-42892675D01*
X-16246765Y-42891882D01*
X-16378390Y-42891192D01*
X-16378396Y-42891192D01*
X-16382676Y-42891170D01*
X-16386920Y-42891729D01*
X-16386924Y-42891729D01*
X-16511949Y-42908189D01*
X-16667650Y-42928687D01*
X-16671790Y-42929820D01*
X-16671792Y-42929820D01*
X-16935190Y-43001878D01*
X-16944895Y-43004533D01*
X-17209282Y-43117303D01*
X-17305780Y-43175056D01*
X-17452236Y-43262708D01*
X-17452240Y-43262711D01*
X-17455918Y-43264912D01*
X-17680239Y-43444627D01*
X-17735593Y-43502958D01*
X-17855476Y-43629289D01*
X-17878094Y-43653123D01*
X-17927331Y-43721644D01*
X-18040352Y-43878929D01*
X-18045823Y-43886542D01*
X-18180322Y-44140565D01*
X-18279101Y-44410492D01*
X-18280014Y-44414678D01*
X-18280014Y-44414679D01*
X-18339419Y-44687137D01*
X-18339420Y-44687145D01*
X-18340332Y-44691327D01*
X-18344503Y-44744329D01*
X-18361526Y-44960624D01*
X-18362884Y-44977873D01*
X-18355765Y-45101331D01*
X-18346338Y-45264829D01*
X-18291001Y-45546885D01*
X-18289614Y-45550936D01*
X-18289613Y-45550940D01*
X-18199286Y-45814765D01*
X-18199282Y-45814774D01*
X-18197897Y-45818820D01*
X-18181756Y-45850913D01*
X-18108176Y-45997210D01*
X-18068748Y-46075605D01*
X-18066322Y-46079134D01*
X-18066319Y-46079140D01*
X-17919424Y-46292872D01*
X-17905944Y-46312485D01*
X-17903057Y-46315658D01*
X-17903056Y-46315659D01*
X-17715379Y-46521914D01*
X-17712499Y-46525079D01*
X-17626334Y-46597124D01*
X-17495282Y-46706701D01*
X-17495277Y-46706705D01*
X-17491990Y-46709453D01*
X-17432800Y-46746583D01*
X-17412586Y-46759263D01*
X-17365508Y-46812406D01*
X-17354636Y-46882565D01*
X-17383420Y-46947465D01*
X-17442722Y-46986500D01*
X-17479542Y-46992000D01*
X-23667493Y-46992000D01*
X-23689048Y-46990143D01*
X-23689837Y-46990006D01*
X-23702859Y-46987745D01*
X-23707726Y-46987660D01*
X-23710726Y-46987608D01*
X-23829967Y-46985526D01*
X-23835941Y-46985278D01*
X-23902501Y-46980915D01*
X-23910687Y-46980109D01*
X-24107261Y-46954229D01*
X-24115399Y-46952886D01*
X-24159749Y-46944064D01*
X-24167778Y-46942192D01*
X-24359305Y-46890872D01*
X-24367194Y-46888479D01*
X-24376416Y-46885349D01*
X-24409998Y-46873949D01*
X-24417703Y-46871049D01*
X-24473184Y-46848068D01*
X-24600914Y-46795160D01*
X-24608384Y-46791775D01*
X-24648950Y-46771770D01*
X-24656207Y-46767891D01*
X-24827923Y-46668751D01*
X-24834924Y-46664398D01*
X-24872527Y-46639273D01*
X-24879207Y-46634486D01*
X-25036553Y-46513750D01*
X-25042872Y-46508563D01*
X-25076900Y-46478721D01*
X-25082916Y-46473086D01*
X-25223085Y-46332917D01*
X-25228722Y-46326899D01*
X-25258551Y-46292885D01*
X-25263781Y-46286512D01*
X-25384462Y-46129239D01*
X-25389265Y-46122537D01*
X-25414400Y-46084920D01*
X-25418755Y-46077917D01*
X-25517894Y-45906201D01*
X-25521779Y-45898933D01*
X-25541770Y-45858394D01*
X-25545160Y-45850913D01*
X-25556866Y-45822651D01*
X-25607799Y-45699690D01*
X-25621048Y-45667704D01*
X-25623952Y-45659987D01*
X-25638484Y-45617177D01*
X-25640878Y-45609287D01*
X-25692191Y-45417784D01*
X-25694063Y-45409755D01*
X-25702885Y-45365405D01*
X-25704228Y-45357269D01*
X-25730108Y-45160686D01*
X-25730916Y-45152482D01*
X-25734269Y-45101331D01*
X-25735277Y-45085944D01*
X-25735526Y-45079964D01*
X-25737688Y-44956136D01*
X-25740396Y-44939324D01*
X-25742000Y-44919287D01*
X-25742000Y-43589830D01*
X-24975430Y-43589830D01*
X-24965666Y-43602226D01*
X-24760145Y-43740850D01*
X-24752549Y-43745236D01*
X-24508041Y-43864491D01*
X-24499894Y-43867782D01*
X-24241167Y-43951848D01*
X-24232666Y-43953967D01*
X-23964745Y-44001210D01*
X-23956019Y-44002127D01*
X-23684141Y-44011621D01*
X-23675378Y-44011315D01*
X-23404820Y-43982878D01*
X-23396175Y-43981353D01*
X-23132224Y-43915543D01*
X-23123866Y-43912828D01*
X-22871639Y-43810920D01*
X-22863747Y-43807071D01*
X-22628156Y-43671053D01*
X-22620880Y-43666145D01*
X-22535329Y-43599307D01*
X-22526861Y-43587495D01*
X-22533398Y-43575812D01*
X-23737188Y-42372022D01*
X-23751132Y-42364408D01*
X-23752965Y-42364539D01*
X-23759580Y-42368790D01*
X-24969187Y-43578397D01*
X-24975430Y-43589830D01*
X-25742000Y-43589830D01*
X-25742000Y-43040987D01*
X-25721998Y-42972866D01*
X-25668342Y-42926373D01*
X-25598068Y-42916269D01*
X-25533488Y-42945763D01*
X-25509146Y-42974217D01*
X-25380882Y-43179482D01*
X-25375723Y-43186582D01*
X-25350899Y-43216166D01*
X-25338205Y-43224612D01*
X-25327703Y-43218493D01*
X-24122022Y-42012812D01*
X-24115645Y-42001132D01*
X-23385592Y-42001132D01*
X-23385461Y-42002965D01*
X-23381210Y-42009580D01*
X-22174016Y-43216774D01*
X-22161905Y-43223387D01*
X-22150286Y-43214559D01*
X-22045468Y-43070291D01*
X-22040809Y-43062835D01*
X-21913100Y-42822648D01*
X-21909529Y-42814628D01*
X-21816485Y-42558994D01*
X-21814066Y-42550557D01*
X-21757503Y-42284451D01*
X-21756283Y-42275770D01*
X-21737307Y-42004390D01*
X-21737307Y-41995610D01*
X-21756283Y-41724230D01*
X-21757503Y-41715549D01*
X-21814066Y-41449443D01*
X-21816485Y-41441006D01*
X-21909529Y-41185372D01*
X-21913100Y-41177352D01*
X-22040809Y-40937165D01*
X-22045468Y-40929709D01*
X-22150555Y-40785070D01*
X-22161480Y-40776646D01*
X-22174339Y-40783549D01*
X-23377978Y-41987188D01*
X-23385592Y-42001132D01*
X-24115645Y-42001132D01*
X-24114408Y-41998868D01*
X-24114539Y-41997035D01*
X-24118790Y-41990420D01*
X-25326442Y-40782768D01*
X-25339827Y-40775459D01*
X-25349753Y-40782468D01*
X-25375723Y-40813418D01*
X-25380882Y-40820518D01*
X-25509146Y-41025783D01*
X-25562207Y-41072953D01*
X-25632347Y-41083948D01*
X-25697297Y-41055277D01*
X-25736436Y-40996043D01*
X-25742000Y-40959013D01*
X-25742000Y-40408690D01*
X-24975289Y-40408690D01*
X-24968069Y-40422721D01*
X-23762812Y-41627978D01*
X-23748868Y-41635592D01*
X-23747035Y-41635461D01*
X-23740420Y-41631210D01*
X-22533867Y-40424657D01*
X-22526899Y-40411897D01*
X-22534810Y-40401099D01*
X-22620880Y-40333855D01*
X-22628156Y-40328947D01*
X-22863747Y-40192929D01*
X-22871639Y-40189080D01*
X-23123866Y-40087172D01*
X-23132224Y-40084457D01*
X-23396175Y-40018647D01*
X-23404820Y-40017122D01*
X-23675378Y-39988685D01*
X-23684141Y-39988379D01*
X-23956019Y-39997873D01*
X-23964745Y-39998790D01*
X-24232666Y-40046033D01*
X-24241167Y-40048152D01*
X-24499894Y-40132218D01*
X-24508041Y-40135509D01*
X-24752549Y-40254764D01*
X-24760145Y-40259150D01*
X-24966982Y-40398662D01*
X-24975289Y-40408690D01*
X-25742000Y-40408690D01*
X-25742000Y-39551696D01*
X-21726866Y-39551696D01*
X-21721585Y-39558751D01*
X-21582608Y-39639963D01*
X-21572487Y-39644726D01*
X-21372152Y-39718038D01*
X-21361367Y-39720928D01*
X-21151208Y-39757606D01*
X-21140076Y-39758541D01*
X-20926756Y-39757424D01*
X-20915622Y-39756372D01*
X-20705874Y-39717497D01*
X-20695103Y-39714490D01*
X-20495548Y-39639085D01*
X-20485492Y-39634224D01*
X-20370008Y-39565107D01*
X-4908000Y-39565107D01*
X-4908000Y-39927885D01*
X-4903525Y-39943124D01*
X-4902135Y-39944329D01*
X-4894452Y-39946000D01*
X-3922115Y-39946000D01*
X-3906876Y-39941525D01*
X-3905671Y-39940135D01*
X-3904000Y-39932452D01*
X-3904000Y-38431675D01*
X-3908105Y-38417693D01*
X-3917725Y-38416201D01*
X-3917953Y-38416249D01*
X-4121852Y-38478976D01*
X-4132196Y-38483197D01*
X-4321766Y-38581042D01*
X-4331197Y-38587027D01*
X-4500449Y-38716899D01*
X-4508666Y-38724455D01*
X-4652244Y-38882245D01*
X-4658998Y-38891143D01*
X-4772355Y-39071852D01*
X-4777436Y-39081822D01*
X-4857002Y-39279748D01*
X-4860233Y-39290448D01*
X-4903693Y-39500311D01*
X-4904896Y-39509447D01*
X-4907895Y-39561460D01*
X-4908000Y-39565107D01*
X-20370008Y-39565107D01*
X-20363090Y-39560967D01*
X-20353521Y-39550610D01*
X-20357064Y-39542146D01*
X-21027188Y-38872022D01*
X-21041132Y-38864408D01*
X-21042965Y-38864539D01*
X-21049580Y-38868790D01*
X-21720106Y-39539316D01*
X-21726866Y-39551696D01*
X-25742000Y-39551696D01*
X-25742000Y-38573698D01*
X-22300361Y-38573698D01*
X-22299659Y-38584850D01*
X-22267392Y-38795717D01*
X-22264725Y-38806578D01*
X-22195625Y-39008400D01*
X-22191077Y-39018614D01*
X-22102181Y-39178330D01*
X-22092128Y-39188221D01*
X-22084525Y-39185315D01*
X-21412022Y-38512812D01*
X-21405645Y-38501132D01*
X-20675592Y-38501132D01*
X-20675461Y-38502965D01*
X-20671210Y-38509580D01*
X-19998663Y-39182127D01*
X-19986283Y-39188887D01*
X-19980019Y-39184198D01*
X-19883551Y-39006524D01*
X-19879117Y-38996278D01*
X-19812130Y-38793729D01*
X-19809580Y-38782856D01*
X-19779242Y-38569692D01*
X-19778636Y-38562474D01*
X-19777095Y-38503632D01*
X-19777323Y-38496379D01*
X-19796462Y-38281937D01*
X-19798444Y-38270923D01*
X-19854733Y-38065165D01*
X-19858627Y-38054692D01*
X-19950467Y-37862146D01*
X-19956159Y-37852523D01*
X-19977846Y-37822341D01*
X-19988637Y-37813929D01*
X-20001673Y-37820883D01*
X-20667978Y-38487188D01*
X-20675592Y-38501132D01*
X-21405645Y-38501132D01*
X-21404408Y-38498868D01*
X-21404539Y-38497035D01*
X-21408790Y-38490420D01*
X-22078230Y-37820980D01*
X-22090610Y-37814220D01*
X-22098582Y-37820188D01*
X-22162360Y-37921859D01*
X-22167433Y-37931815D01*
X-22247002Y-38129747D01*
X-22250233Y-38140447D01*
X-22293492Y-38349337D01*
X-22294777Y-38360444D01*
X-22300361Y-38573698D01*
X-25742000Y-38573698D01*
X-25742000Y-29589830D01*
X-24975430Y-29589830D01*
X-24965666Y-29602226D01*
X-24760145Y-29740850D01*
X-24752549Y-29745236D01*
X-24508041Y-29864491D01*
X-24499894Y-29867782D01*
X-24241167Y-29951848D01*
X-24232666Y-29953967D01*
X-23964745Y-30001210D01*
X-23956019Y-30002127D01*
X-23684141Y-30011621D01*
X-23675378Y-30011315D01*
X-23404820Y-29982878D01*
X-23396175Y-29981353D01*
X-23132224Y-29915543D01*
X-23123866Y-29912828D01*
X-22871639Y-29810920D01*
X-22863747Y-29807071D01*
X-22628156Y-29671053D01*
X-22620880Y-29666145D01*
X-22535329Y-29599307D01*
X-22526861Y-29587495D01*
X-22533398Y-29575812D01*
X-23737188Y-28372022D01*
X-23751132Y-28364408D01*
X-23752965Y-28364539D01*
X-23759580Y-28368790D01*
X-24969187Y-29578397D01*
X-24975430Y-29589830D01*
X-25742000Y-29589830D01*
X-25742000Y-29040987D01*
X-25721998Y-28972866D01*
X-25668342Y-28926373D01*
X-25598068Y-28916269D01*
X-25533488Y-28945763D01*
X-25509146Y-28974217D01*
X-25380882Y-29179482D01*
X-25375723Y-29186582D01*
X-25350899Y-29216166D01*
X-25338205Y-29224612D01*
X-25327703Y-29218493D01*
X-24122022Y-28012812D01*
X-24115645Y-28001132D01*
X-23385592Y-28001132D01*
X-23385461Y-28002965D01*
X-23381210Y-28009580D01*
X-22174016Y-29216774D01*
X-22161905Y-29223387D01*
X-22150286Y-29214559D01*
X-22045468Y-29070291D01*
X-22040809Y-29062835D01*
X-21913100Y-28822648D01*
X-21909529Y-28814628D01*
X-21816485Y-28558994D01*
X-21814066Y-28550557D01*
X-21757503Y-28284451D01*
X-21756283Y-28275770D01*
X-21737307Y-28004390D01*
X-21737307Y-27995610D01*
X-21756283Y-27724230D01*
X-21757503Y-27715549D01*
X-21814066Y-27449443D01*
X-21816485Y-27441006D01*
X-21909529Y-27185372D01*
X-21913100Y-27177352D01*
X-22040809Y-26937165D01*
X-22045468Y-26929709D01*
X-22150555Y-26785070D01*
X-22161480Y-26776646D01*
X-22174339Y-26783549D01*
X-23377978Y-27987188D01*
X-23385592Y-28001132D01*
X-24115645Y-28001132D01*
X-24114408Y-27998868D01*
X-24114539Y-27997035D01*
X-24118790Y-27990420D01*
X-25326442Y-26782768D01*
X-25339827Y-26775459D01*
X-25349753Y-26782468D01*
X-25375723Y-26813418D01*
X-25380882Y-26820518D01*
X-25509146Y-27025783D01*
X-25562207Y-27072953D01*
X-25632347Y-27083948D01*
X-25697297Y-27055277D01*
X-25736436Y-26996043D01*
X-25742000Y-26959013D01*
X-25742000Y-26408690D01*
X-24975289Y-26408690D01*
X-24968069Y-26422721D01*
X-23762812Y-27627978D01*
X-23748868Y-27635592D01*
X-23747035Y-27635461D01*
X-23740420Y-27631210D01*
X-22533867Y-26424657D01*
X-22526899Y-26411897D01*
X-22534810Y-26401099D01*
X-22620880Y-26333855D01*
X-22628156Y-26328947D01*
X-22863747Y-26192929D01*
X-22871639Y-26189080D01*
X-23123866Y-26087172D01*
X-23132224Y-26084457D01*
X-23396175Y-26018647D01*
X-23404820Y-26017122D01*
X-23675378Y-25988685D01*
X-23684141Y-25988379D01*
X-23956019Y-25997873D01*
X-23964745Y-25998790D01*
X-24232666Y-26046033D01*
X-24241167Y-26048152D01*
X-24499894Y-26132218D01*
X-24508041Y-26135509D01*
X-24752549Y-26254764D01*
X-24760145Y-26259150D01*
X-24966982Y-26398662D01*
X-24975289Y-26408690D01*
X-25742000Y-26408690D01*
X-25742000Y-21089830D01*
X-24975430Y-21089830D01*
X-24965666Y-21102226D01*
X-24760145Y-21240850D01*
X-24752549Y-21245236D01*
X-24508041Y-21364491D01*
X-24499894Y-21367782D01*
X-24241167Y-21451848D01*
X-24232666Y-21453967D01*
X-23964745Y-21501210D01*
X-23956019Y-21502127D01*
X-23684141Y-21511621D01*
X-23675378Y-21511315D01*
X-23404820Y-21482878D01*
X-23396175Y-21481353D01*
X-23132224Y-21415543D01*
X-23123866Y-21412828D01*
X-22871639Y-21310920D01*
X-22863747Y-21307071D01*
X-22628156Y-21171053D01*
X-22620880Y-21166145D01*
X-22535329Y-21099307D01*
X-22526861Y-21087495D01*
X-22533398Y-21075812D01*
X-23737188Y-19872022D01*
X-23751132Y-19864408D01*
X-23752965Y-19864539D01*
X-23759580Y-19868790D01*
X-24969187Y-21078397D01*
X-24975430Y-21089830D01*
X-25742000Y-21089830D01*
X-25742000Y-20540987D01*
X-25721998Y-20472866D01*
X-25668342Y-20426373D01*
X-25598068Y-20416269D01*
X-25533488Y-20445763D01*
X-25509146Y-20474217D01*
X-25380882Y-20679482D01*
X-25375723Y-20686582D01*
X-25350899Y-20716166D01*
X-25338205Y-20724612D01*
X-25327703Y-20718493D01*
X-24122022Y-19512812D01*
X-24115645Y-19501132D01*
X-23385592Y-19501132D01*
X-23385461Y-19502965D01*
X-23381210Y-19509580D01*
X-22174016Y-20716774D01*
X-22161905Y-20723387D01*
X-22150286Y-20714559D01*
X-22045468Y-20570291D01*
X-22040809Y-20562835D01*
X-21913100Y-20322648D01*
X-21909529Y-20314628D01*
X-21816485Y-20058994D01*
X-21814066Y-20050557D01*
X-21757503Y-19784451D01*
X-21756283Y-19775770D01*
X-21737307Y-19504390D01*
X-21737307Y-19495610D01*
X-21756283Y-19224230D01*
X-21757503Y-19215549D01*
X-21814066Y-18949443D01*
X-21816485Y-18941006D01*
X-21909529Y-18685372D01*
X-21913100Y-18677352D01*
X-22040809Y-18437165D01*
X-22045468Y-18429709D01*
X-22150555Y-18285070D01*
X-22161480Y-18276646D01*
X-22174339Y-18283549D01*
X-23377978Y-19487188D01*
X-23385592Y-19501132D01*
X-24115645Y-19501132D01*
X-24114408Y-19498868D01*
X-24114539Y-19497035D01*
X-24118790Y-19490420D01*
X-25326442Y-18282768D01*
X-25339827Y-18275459D01*
X-25349753Y-18282468D01*
X-25375723Y-18313418D01*
X-25380882Y-18320518D01*
X-25509146Y-18525783D01*
X-25562207Y-18572953D01*
X-25632347Y-18583948D01*
X-25697297Y-18555277D01*
X-25736436Y-18496043D01*
X-25742000Y-18459013D01*
X-25742000Y-17908690D01*
X-24975289Y-17908690D01*
X-24968069Y-17922721D01*
X-23762812Y-19127978D01*
X-23748868Y-19135592D01*
X-23747035Y-19135461D01*
X-23740420Y-19131210D01*
X-22533867Y-17924657D01*
X-22526899Y-17911897D01*
X-22534810Y-17901099D01*
X-22620880Y-17833855D01*
X-22628156Y-17828947D01*
X-22863747Y-17692929D01*
X-22871639Y-17689080D01*
X-23123866Y-17587172D01*
X-23132224Y-17584457D01*
X-23396175Y-17518647D01*
X-23404820Y-17517122D01*
X-23675378Y-17488685D01*
X-23684141Y-17488379D01*
X-23956019Y-17497873D01*
X-23964745Y-17498790D01*
X-24232666Y-17546033D01*
X-24241167Y-17548152D01*
X-24499894Y-17632218D01*
X-24508041Y-17635509D01*
X-24752549Y-17754764D01*
X-24760145Y-17759150D01*
X-24966982Y-17898662D01*
X-24975289Y-17908690D01*
X-25742000Y-17908690D01*
X-25742000Y-17051696D01*
X-21726866Y-17051696D01*
X-21721585Y-17058751D01*
X-21582608Y-17139963D01*
X-21572487Y-17144726D01*
X-21372152Y-17218038D01*
X-21361367Y-17220928D01*
X-21151208Y-17257606D01*
X-21140076Y-17258541D01*
X-20926756Y-17257424D01*
X-20915622Y-17256372D01*
X-20705874Y-17217497D01*
X-20695103Y-17214490D01*
X-20495548Y-17139085D01*
X-20485492Y-17134224D01*
X-20363090Y-17060967D01*
X-20353521Y-17050610D01*
X-20357064Y-17042146D01*
X-21027188Y-16372022D01*
X-21041132Y-16364408D01*
X-21042965Y-16364539D01*
X-21049580Y-16368790D01*
X-21720106Y-17039316D01*
X-21726866Y-17051696D01*
X-25742000Y-17051696D01*
X-25742000Y-16073698D01*
X-22300361Y-16073698D01*
X-22299659Y-16084850D01*
X-22267392Y-16295717D01*
X-22264725Y-16306578D01*
X-22195625Y-16508400D01*
X-22191077Y-16518614D01*
X-22102181Y-16678330D01*
X-22092128Y-16688221D01*
X-22084525Y-16685315D01*
X-21412022Y-16012812D01*
X-21405645Y-16001132D01*
X-20675592Y-16001132D01*
X-20675461Y-16002965D01*
X-20671210Y-16009580D01*
X-19998663Y-16682127D01*
X-19986283Y-16688887D01*
X-19980019Y-16684198D01*
X-19883551Y-16506524D01*
X-19879117Y-16496278D01*
X-19812130Y-16293729D01*
X-19809580Y-16282856D01*
X-19779242Y-16069692D01*
X-19778636Y-16062474D01*
X-19777095Y-16003632D01*
X-19777323Y-15996379D01*
X-19796462Y-15781937D01*
X-19798444Y-15770923D01*
X-19854733Y-15565165D01*
X-19858627Y-15554692D01*
X-19950467Y-15362146D01*
X-19956159Y-15352523D01*
X-19977846Y-15322341D01*
X-19988637Y-15313929D01*
X-20001673Y-15320883D01*
X-20667978Y-15987188D01*
X-20675592Y-16001132D01*
X-21405645Y-16001132D01*
X-21404408Y-15998868D01*
X-21404539Y-15997035D01*
X-21408790Y-15990420D01*
X-22078230Y-15320980D01*
X-22090610Y-15314220D01*
X-22098582Y-15320188D01*
X-22162360Y-15421859D01*
X-22167433Y-15431815D01*
X-22247002Y-15629747D01*
X-22250233Y-15640447D01*
X-22293492Y-15849337D01*
X-22294777Y-15860444D01*
X-22300361Y-16073698D01*
X-25742000Y-16073698D01*
X-25742000Y-9079336D01*
X-22301007Y-9079336D01*
X-22267028Y-9301387D01*
X-22265211Y-9306694D01*
X-22196794Y-9506524D01*
X-22194265Y-9513912D01*
X-22085016Y-9710192D01*
X-22081465Y-9714530D01*
X-22081462Y-9714535D01*
X-21955587Y-9868325D01*
X-21942736Y-9884025D01*
X-21938473Y-9887666D01*
X-21938468Y-9887671D01*
X-21790207Y-10014297D01*
X-21771922Y-10029914D01*
X-21734646Y-10051696D01*
X-21577972Y-10143249D01*
X-21579268Y-10145468D01*
X-21534282Y-10185453D01*
X-21515141Y-10253820D01*
X-21536001Y-10321683D01*
X-21583340Y-10364196D01*
X-21717017Y-10433192D01*
X-21895233Y-10569941D01*
X-22046416Y-10736089D01*
X-22049398Y-10740843D01*
X-22156640Y-10911802D01*
X-22165787Y-10926383D01*
X-22249573Y-11134808D01*
X-22295126Y-11354777D01*
X-22301007Y-11579336D01*
X-22267028Y-11801387D01*
X-22265211Y-11806694D01*
X-22198413Y-12001796D01*
X-22194265Y-12013912D01*
X-22085016Y-12210192D01*
X-22081465Y-12214530D01*
X-22081462Y-12214535D01*
X-22022737Y-12286283D01*
X-21942736Y-12384025D01*
X-21919682Y-12403715D01*
X-21880875Y-12463163D01*
X-21880367Y-12534157D01*
X-21908321Y-12584324D01*
X-22042638Y-12731936D01*
X-22042643Y-12731942D01*
X-22046416Y-12736089D01*
X-22065130Y-12765922D01*
X-22123402Y-12858816D01*
X-22165787Y-12926383D01*
X-22249573Y-13134808D01*
X-22295126Y-13354777D01*
X-22295273Y-13360387D01*
X-22295273Y-13360388D01*
X-22296032Y-13389359D01*
X-22301007Y-13579336D01*
X-22300158Y-13584882D01*
X-22280973Y-13710254D01*
X-22267028Y-13801387D01*
X-22265211Y-13806694D01*
X-22198413Y-14001796D01*
X-22194265Y-14013912D01*
X-22085016Y-14210192D01*
X-22081465Y-14214530D01*
X-22081462Y-14214535D01*
X-21977778Y-14341212D01*
X-21942736Y-14384025D01*
X-21938473Y-14387666D01*
X-21938468Y-14387671D01*
X-21853287Y-14460422D01*
X-21771922Y-14529914D01*
X-21603732Y-14628196D01*
X-21577972Y-14643249D01*
X-21579189Y-14645332D01*
X-21533776Y-14685621D01*
X-21514572Y-14753971D01*
X-21535369Y-14821853D01*
X-21582773Y-14864464D01*
X-21711766Y-14931042D01*
X-21719883Y-14936194D01*
X-21728057Y-14947389D01*
X-21721424Y-14959366D01*
X-21052812Y-15627978D01*
X-21038868Y-15635592D01*
X-21037035Y-15635461D01*
X-21030420Y-15631210D01*
X-20361156Y-14961946D01*
X-20354932Y-14950548D01*
X-20364743Y-14938114D01*
X-20426885Y-14896357D01*
X-20436679Y-14890972D01*
X-20489747Y-14867677D01*
X-20544083Y-14821981D01*
X-20565088Y-14754163D01*
X-20546094Y-14685754D01*
X-20494225Y-14639117D01*
X-20490086Y-14637553D01*
X-20297333Y-14522193D01*
X-20128056Y-14374523D01*
X-19987604Y-14199210D01*
X-19880417Y-14001796D01*
X-19809883Y-13788521D01*
X-19778232Y-13566126D01*
X-19777721Y-13546626D01*
X-19776595Y-13503631D01*
X-19776595Y-13503629D01*
X-19776500Y-13500000D01*
X-19782939Y-13427856D01*
X-19769072Y-13358228D01*
X-19719762Y-13307149D01*
X-19650665Y-13290838D01*
X-19583718Y-13314473D01*
X-19568343Y-13327561D01*
X-13979500Y-18916405D01*
X-8394500Y-24501405D01*
X-8360474Y-24563717D01*
X-8365539Y-24634532D01*
X-8408086Y-24691368D01*
X-8474606Y-24716179D01*
X-8483595Y-24716500D01*
X-12311617Y-24716500D01*
X-12322521Y-24715986D01*
X-12329912Y-24714334D01*
X-12337837Y-24714583D01*
X-12337838Y-24714583D01*
X-12396853Y-24716438D01*
X-12400811Y-24716500D01*
X-12429578Y-24716500D01*
X-12433863Y-24717041D01*
X-12445697Y-24717973D01*
X-12471714Y-24718791D01*
X-12481964Y-24719113D01*
X-12481965Y-24719113D01*
X-12489884Y-24719362D01*
X-12497492Y-24721572D01*
X-12497497Y-24721573D01*
X-12509339Y-24725013D01*
X-12528693Y-24729021D01*
X-12540921Y-24730566D01*
X-12548788Y-24731560D01*
X-12556156Y-24734477D01*
X-12556163Y-24734479D01*
X-12589901Y-24747837D01*
X-12601131Y-24751682D01*
X-12635969Y-24761803D01*
X-12635970Y-24761804D01*
X-12643579Y-24764014D01*
X-12658185Y-24772652D01*
X-12661012Y-24774324D01*
X-12678759Y-24783018D01*
X-12697600Y-24790478D01*
X-12704015Y-24795139D01*
X-12733371Y-24816467D01*
X-12743288Y-24822982D01*
X-12781342Y-24845487D01*
X-12781760Y-24845856D01*
X-12795842Y-24859938D01*
X-12810867Y-24872772D01*
X-12827083Y-24884554D01*
X-12852172Y-24914881D01*
X-12855029Y-24918335D01*
X-12863019Y-24927115D01*
X-19562340Y-31626436D01*
X-19624652Y-31660462D01*
X-19695467Y-31655397D01*
X-19752303Y-31612850D01*
X-19777114Y-31546330D01*
X-19777392Y-31534041D01*
X-19776595Y-31503630D01*
X-19776595Y-31503629D01*
X-19776500Y-31500000D01*
X-19796469Y-31276253D01*
X-19855744Y-31059579D01*
X-19858341Y-31054133D01*
X-19950035Y-30861893D01*
X-19950036Y-30861892D01*
X-19952452Y-30856826D01*
X-19961336Y-30844463D01*
X-20080260Y-30678963D01*
X-20080262Y-30678961D01*
X-20083537Y-30674403D01*
X-20170781Y-30589858D01*
X-20240826Y-30521979D01*
X-20240829Y-30521977D01*
X-20244854Y-30518076D01*
X-20407450Y-30408816D01*
X-20426643Y-30395919D01*
X-20431304Y-30392787D01*
X-20439425Y-30389222D01*
X-20631848Y-30304754D01*
X-20631852Y-30304753D01*
X-20636995Y-30302495D01*
X-20642450Y-30301185D01*
X-20642454Y-30301184D01*
X-20849970Y-30251363D01*
X-20849974Y-30251362D01*
X-20855424Y-30250054D01*
X-20912222Y-30246779D01*
X-21074080Y-30237446D01*
X-21074083Y-30237446D01*
X-21079687Y-30237123D01*
X-21302696Y-30264111D01*
X-21308058Y-30265761D01*
X-21308060Y-30265761D01*
X-21360442Y-30281876D01*
X-21517402Y-30330163D01*
X-21522382Y-30332733D01*
X-21522386Y-30332735D01*
X-21678508Y-30413316D01*
X-21717017Y-30433192D01*
X-21721465Y-30436605D01*
X-21776295Y-30478677D01*
X-21895233Y-30569941D01*
X-22046416Y-30736089D01*
X-22066745Y-30768497D01*
X-22146355Y-30895406D01*
X-22165787Y-30926383D01*
X-22249573Y-31134808D01*
X-22295126Y-31354777D01*
X-22301007Y-31579336D01*
X-22293766Y-31626656D01*
X-22269797Y-31783289D01*
X-22267028Y-31801387D01*
X-22265211Y-31806694D01*
X-22196794Y-32006524D01*
X-22194265Y-32013912D01*
X-22085016Y-32210192D01*
X-22081465Y-32214530D01*
X-22081462Y-32214535D01*
X-21991980Y-32323860D01*
X-21942736Y-32384025D01*
X-21938473Y-32387666D01*
X-21938468Y-32387671D01*
X-21832258Y-32478382D01*
X-21771922Y-32529914D01*
X-21720285Y-32560088D01*
X-21577972Y-32643249D01*
X-21579268Y-32645468D01*
X-21534282Y-32685453D01*
X-21515141Y-32753820D01*
X-21536001Y-32821683D01*
X-21583340Y-32864196D01*
X-21644802Y-32895919D01*
X-21703867Y-32926405D01*
X-21717017Y-32933192D01*
X-21721465Y-32936605D01*
X-21823566Y-33014949D01*
X-21895233Y-33069941D01*
X-22046416Y-33236089D01*
X-22072088Y-33277014D01*
X-22155669Y-33410254D01*
X-22165787Y-33426383D01*
X-22249573Y-33634808D01*
X-22295126Y-33854777D01*
X-22301007Y-34079336D01*
X-22293766Y-34126655D01*
X-22270295Y-34280035D01*
X-22267028Y-34301387D01*
X-22265211Y-34306694D01*
X-22198413Y-34501796D01*
X-22194265Y-34513912D01*
X-22085016Y-34710192D01*
X-22081465Y-34714530D01*
X-22081462Y-34714535D01*
X-21992688Y-34822995D01*
X-21942736Y-34884025D01*
X-21919682Y-34903715D01*
X-21880875Y-34963163D01*
X-21880367Y-35034157D01*
X-21908321Y-35084324D01*
X-22042638Y-35231936D01*
X-22042643Y-35231942D01*
X-22046416Y-35236089D01*
X-22055251Y-35250174D01*
X-22130156Y-35369583D01*
X-22165787Y-35426383D01*
X-22249573Y-35634808D01*
X-22295126Y-35854777D01*
X-22295273Y-35860387D01*
X-22295273Y-35860388D01*
X-22296153Y-35893978D01*
X-22301007Y-36079336D01*
X-22267028Y-36301387D01*
X-22265211Y-36306694D01*
X-22198413Y-36501796D01*
X-22194265Y-36513912D01*
X-22085016Y-36710192D01*
X-22081465Y-36714530D01*
X-22081462Y-36714535D01*
X-22006848Y-36805695D01*
X-21942736Y-36884025D01*
X-21938473Y-36887666D01*
X-21938468Y-36887671D01*
X-21867851Y-36947983D01*
X-21771922Y-37029914D01*
X-21660920Y-37094778D01*
X-21577972Y-37143249D01*
X-21579189Y-37145332D01*
X-21533776Y-37185621D01*
X-21514572Y-37253971D01*
X-21535369Y-37321853D01*
X-21582773Y-37364464D01*
X-21711766Y-37431042D01*
X-21719883Y-37436194D01*
X-21728057Y-37447389D01*
X-21721424Y-37459366D01*
X-21052812Y-38127978D01*
X-21038868Y-38135592D01*
X-21037035Y-38135461D01*
X-21030420Y-38131210D01*
X-20361156Y-37461946D01*
X-20354932Y-37450548D01*
X-20364743Y-37438114D01*
X-20426885Y-37396357D01*
X-20436679Y-37390972D01*
X-20489747Y-37367677D01*
X-20544083Y-37321981D01*
X-20565088Y-37254163D01*
X-20546094Y-37185754D01*
X-20494225Y-37139117D01*
X-20490086Y-37137553D01*
X-20297333Y-37022193D01*
X-20128056Y-36874523D01*
X-19987604Y-36699210D01*
X-19880417Y-36501796D01*
X-19809883Y-36288521D01*
X-19778232Y-36066126D01*
X-19776500Y-36000000D01*
X-19796469Y-35776253D01*
X-19855744Y-35559579D01*
X-19884505Y-35499279D01*
X-19950035Y-35361893D01*
X-19950036Y-35361892D01*
X-19952452Y-35356826D01*
X-19957493Y-35349811D01*
X-20080260Y-35178963D01*
X-20080262Y-35178961D01*
X-20083537Y-35174403D01*
X-20169079Y-35091507D01*
X-20204079Y-35029737D01*
X-20200127Y-34958850D01*
X-20164224Y-34906075D01*
X-20132287Y-34878215D01*
X-20132281Y-34878209D01*
X-20128056Y-34874523D01*
X-19987604Y-34699210D01*
X-19880417Y-34501796D01*
X-19815771Y-34306324D01*
X-19811646Y-34293852D01*
X-19811646Y-34293851D01*
X-19809883Y-34288521D01*
X-19778232Y-34066126D01*
X-19776500Y-34000000D01*
X-19796469Y-33776253D01*
X-19803768Y-33749572D01*
X-19802449Y-33678589D01*
X-19771328Y-33627232D01*
X-19661643Y-33517547D01*
X-9858000Y-33517547D01*
X-9858000Y-33739222D01*
X-9857576Y-33746523D01*
X-9843383Y-33868254D01*
X-9840037Y-33882409D01*
X-9784737Y-34034760D01*
X-9778227Y-34047759D01*
X-9689362Y-34183300D01*
X-9680029Y-34194463D01*
X-9562372Y-34305921D01*
X-9550725Y-34314635D01*
X-9410571Y-34396043D01*
X-9397246Y-34401837D01*
X-9241300Y-34449068D01*
X-9228677Y-34451516D01*
X-9158816Y-34457751D01*
X-9153221Y-34458000D01*
X-9047115Y-34458000D01*
X-9031876Y-34453525D01*
X-9030671Y-34452135D01*
X-9029000Y-34444452D01*
X-9028999Y-33522115D01*
X-9033474Y-33506876D01*
X-9034864Y-33505671D01*
X-9042547Y-33504000D01*
X-9839885Y-33503999D01*
X-9855124Y-33508474D01*
X-9856329Y-33509864D01*
X-9858000Y-33517547D01*
X-19661643Y-33517547D01*
X-18890875Y-32746779D01*
X-9858000Y-32746779D01*
X-9858000Y-32977885D01*
X-9853525Y-32993124D01*
X-9852135Y-32994329D01*
X-9844452Y-32996000D01*
X-9047115Y-32996001D01*
X-9031876Y-32991526D01*
X-9030671Y-32990136D01*
X-9029000Y-32982453D01*
X-9028999Y-32060115D01*
X-9033474Y-32044876D01*
X-9034864Y-32043671D01*
X-9042547Y-32042000D01*
X-9139222Y-32042000D01*
X-9146523Y-32042424D01*
X-9268254Y-32056617D01*
X-9282409Y-32059963D01*
X-9434760Y-32115263D01*
X-9447759Y-32121773D01*
X-9583305Y-32210641D01*
X-9594457Y-32219965D01*
X-9705921Y-32337629D01*
X-9714634Y-32349276D01*
X-9796041Y-32489427D01*
X-9801838Y-32502759D01*
X-9849067Y-32658697D01*
X-9851516Y-32671323D01*
X-9857751Y-32741184D01*
X-9858000Y-32746779D01*
X-18890875Y-32746779D01*
X-18085642Y-31941546D01*
X-18023330Y-31907520D01*
X-17952515Y-31912585D01*
X-17895679Y-31955132D01*
X-17876715Y-31991703D01*
X-17834524Y-32121554D01*
X-17831221Y-32127276D01*
X-17831220Y-32127277D01*
X-17812088Y-32160415D01*
X-17739037Y-32286942D01*
X-17734619Y-32291849D01*
X-17734618Y-32291850D01*
X-17644839Y-32391560D01*
X-17611251Y-32428863D01*
X-17605909Y-32432744D01*
X-17605907Y-32432746D01*
X-17472166Y-32529914D01*
X-17456750Y-32541114D01*
X-17450722Y-32543798D01*
X-17450720Y-32543799D01*
X-17288318Y-32616105D01*
X-17282287Y-32618790D01*
X-17190435Y-32638314D01*
X-17101944Y-32657124D01*
X-17101939Y-32657124D01*
X-17095487Y-32658496D01*
X-16904513Y-32658496D01*
X-16898061Y-32657124D01*
X-16898056Y-32657124D01*
X-16809565Y-32638314D01*
X-16717713Y-32618790D01*
X-16711682Y-32616105D01*
X-16549280Y-32543799D01*
X-16549278Y-32543798D01*
X-16543250Y-32541114D01*
X-16527834Y-32529914D01*
X-16394093Y-32432746D01*
X-16394091Y-32432744D01*
X-16388749Y-32428863D01*
X-16355161Y-32391560D01*
X-16265382Y-32291850D01*
X-16265381Y-32291849D01*
X-16260963Y-32286942D01*
X-16187912Y-32160415D01*
X-16168780Y-32127277D01*
X-16168779Y-32127276D01*
X-16165476Y-32121554D01*
X-16133984Y-32024631D01*
X-16108502Y-31946206D01*
X-16108502Y-31946205D01*
X-16106462Y-31939927D01*
X-16100672Y-31884838D01*
X-16089097Y-31774711D01*
X-16062084Y-31709055D01*
X-16052882Y-31698787D01*
X-14646642Y-30292547D01*
X-10708000Y-30292547D01*
X-10708000Y-30389222D01*
X-10707576Y-30396523D01*
X-10693383Y-30518254D01*
X-10690037Y-30532409D01*
X-10634737Y-30684760D01*
X-10628227Y-30697759D01*
X-10539362Y-30833300D01*
X-10530029Y-30844463D01*
X-10412372Y-30955921D01*
X-10400725Y-30964635D01*
X-10260571Y-31046043D01*
X-10247246Y-31051837D01*
X-10091300Y-31099068D01*
X-10078677Y-31101516D01*
X-10008816Y-31107751D01*
X-10003221Y-31108000D01*
X-9772115Y-31108000D01*
X-9756876Y-31103525D01*
X-9755671Y-31102135D01*
X-9754000Y-31094452D01*
X-9754000Y-31089885D01*
X-9246001Y-31089885D01*
X-9241526Y-31105124D01*
X-9240136Y-31106329D01*
X-9232453Y-31108000D01*
X-9010778Y-31108000D01*
X-9003477Y-31107576D01*
X-8881746Y-31093383D01*
X-8867591Y-31090037D01*
X-8715240Y-31034737D01*
X-8702241Y-31028227D01*
X-8566693Y-30939359D01*
X-8555542Y-30930035D01*
X-8444078Y-30812371D01*
X-8435365Y-30800724D01*
X-8353957Y-30660571D01*
X-8348163Y-30647246D01*
X-8300932Y-30491300D01*
X-8298484Y-30478677D01*
X-8292249Y-30408816D01*
X-8292000Y-30403221D01*
X-8292000Y-30297115D01*
X-8296475Y-30281876D01*
X-8297865Y-30280671D01*
X-8305548Y-30279000D01*
X-9227885Y-30278999D01*
X-9243124Y-30283474D01*
X-9244329Y-30284864D01*
X-9246000Y-30292547D01*
X-9246001Y-31089885D01*
X-9754000Y-31089885D01*
X-9753999Y-30297115D01*
X-9758474Y-30281876D01*
X-9759864Y-30280671D01*
X-9767547Y-30279000D01*
X-10689885Y-30278999D01*
X-10705124Y-30283474D01*
X-10706329Y-30284864D01*
X-10708000Y-30292547D01*
X-14646642Y-30292547D01*
X-13149057Y-28794962D01*
X-12999502Y-28645405D01*
X-12937190Y-28611380D01*
X-12910406Y-28608500D01*
X-10722618Y-28608500D01*
X-10654497Y-28628502D01*
X-10617246Y-28665415D01*
X-10597491Y-28695546D01*
X-10535731Y-28789746D01*
X-10409262Y-28909551D01*
X-10373565Y-28970919D01*
X-10376712Y-29041846D01*
X-10417706Y-29099812D01*
X-10426829Y-29106394D01*
X-10433307Y-29110641D01*
X-10444458Y-29119965D01*
X-10555922Y-29237629D01*
X-10564635Y-29249276D01*
X-10646043Y-29389429D01*
X-10651837Y-29402754D01*
X-10699068Y-29558700D01*
X-10701516Y-29571323D01*
X-10707751Y-29641184D01*
X-10708000Y-29646779D01*
X-10708000Y-29752885D01*
X-10703525Y-29768124D01*
X-10702135Y-29769329D01*
X-10694452Y-29771000D01*
X-9754002Y-29771001D01*
X-9753996Y-29771000D01*
X-8310115Y-29771001D01*
X-8294876Y-29766526D01*
X-8293671Y-29765136D01*
X-8292000Y-29757453D01*
X-8292000Y-29660778D01*
X-8292424Y-29653477D01*
X-8306617Y-29531746D01*
X-8309963Y-29517591D01*
X-8365263Y-29365240D01*
X-8371773Y-29352241D01*
X-8460638Y-29216700D01*
X-8469967Y-29205542D01*
X-8590794Y-29091081D01*
X-8626492Y-29029711D01*
X-8623344Y-28958785D01*
X-8582350Y-28900819D01*
X-8573227Y-28894237D01*
X-8566377Y-28889746D01*
X-8560253Y-28885731D01*
X-8438642Y-28757355D01*
X-8406638Y-28702257D01*
X-8388607Y-28671214D01*
X-8337096Y-28622356D01*
X-8279653Y-28608500D01*
X-8053383Y-28608500D01*
X-8042479Y-28609014D01*
X-8035088Y-28610666D01*
X-8027163Y-28610417D01*
X-8027162Y-28610417D01*
X-7968147Y-28608562D01*
X-7964189Y-28608500D01*
X-7935422Y-28608500D01*
X-7931498Y-28608004D01*
X-7931496Y-28608004D01*
X-7931148Y-28607960D01*
X-7919302Y-28607027D01*
X-7875117Y-28605638D01*
X-7855661Y-28599986D01*
X-7836321Y-28595981D01*
X-7816212Y-28593440D01*
X-7808842Y-28590522D01*
X-7808838Y-28590521D01*
X-7775100Y-28577163D01*
X-7763869Y-28573318D01*
X-7729813Y-28563424D01*
X-7658817Y-28563627D01*
X-7643412Y-28569314D01*
X-7554143Y-28609059D01*
X-7532287Y-28618790D01*
X-7438887Y-28638643D01*
X-7351944Y-28657124D01*
X-7351939Y-28657124D01*
X-7345487Y-28658496D01*
X-7154513Y-28658496D01*
X-7148061Y-28657124D01*
X-7148056Y-28657124D01*
X-7061113Y-28638643D01*
X-6967713Y-28618790D01*
X-6961682Y-28616105D01*
X-6799280Y-28543799D01*
X-6799278Y-28543798D01*
X-6793250Y-28541114D01*
X-6756316Y-28514280D01*
X-6689451Y-28490423D01*
X-6629916Y-28501603D01*
X-6594670Y-28517700D01*
X-6585753Y-28518982D01*
X-6454448Y-28537861D01*
X-6454441Y-28537862D01*
X-6450000Y-28538500D01*
X-4950000Y-28538500D01*
X-4947753Y-28538339D01*
X-4947745Y-28538339D01*
X-4919317Y-28536306D01*
X-4849943Y-28551398D01*
X-4799742Y-28601601D01*
X-4784651Y-28670975D01*
X-4785613Y-28679919D01*
X-4788500Y-28700000D01*
X-4788500Y-30200000D01*
X-4788339Y-30202250D01*
X-4788034Y-30206515D01*
X-4803125Y-30275889D01*
X-4853327Y-30326091D01*
X-4913713Y-30341504D01*
X-5095487Y-30341504D01*
X-5101939Y-30342876D01*
X-5101944Y-30342876D01*
X-5188887Y-30361357D01*
X-5282287Y-30381210D01*
X-5288317Y-30383895D01*
X-5288318Y-30383895D01*
X-5450720Y-30456201D01*
X-5450722Y-30456202D01*
X-5456750Y-30458886D01*
X-5462091Y-30462766D01*
X-5462092Y-30462767D01*
X-5605907Y-30567254D01*
X-5605909Y-30567256D01*
X-5611251Y-30571137D01*
X-5615672Y-30576047D01*
X-5620575Y-30580462D01*
X-5622139Y-30578725D01*
X-5673482Y-30610351D01*
X-5702704Y-30614736D01*
X-5756853Y-30616438D01*
X-5760811Y-30616500D01*
X-5789578Y-30616500D01*
X-5793863Y-30617041D01*
X-5805697Y-30617973D01*
X-5831714Y-30618791D01*
X-5841964Y-30619113D01*
X-5841965Y-30619113D01*
X-5849884Y-30619362D01*
X-5857492Y-30621572D01*
X-5857497Y-30621573D01*
X-5869339Y-30625013D01*
X-5888693Y-30629021D01*
X-5900921Y-30630566D01*
X-5908788Y-30631560D01*
X-5916156Y-30634477D01*
X-5916163Y-30634479D01*
X-5949901Y-30647837D01*
X-5961131Y-30651682D01*
X-5995969Y-30661803D01*
X-5995970Y-30661804D01*
X-6003579Y-30664014D01*
X-6018499Y-30672838D01*
X-6021012Y-30674324D01*
X-6038759Y-30683018D01*
X-6057600Y-30690478D01*
X-6064015Y-30695139D01*
X-6093371Y-30716467D01*
X-6103288Y-30722982D01*
X-6141342Y-30745487D01*
X-6141760Y-30745855D01*
X-6155842Y-30759937D01*
X-6170875Y-30772778D01*
X-6187083Y-30784554D01*
X-6192132Y-30790657D01*
X-6192133Y-30790658D01*
X-6215025Y-30818330D01*
X-6223014Y-30827109D01*
X-7117526Y-31721622D01*
X-7125605Y-31728972D01*
X-7131994Y-31733027D01*
X-7137417Y-31738802D01*
X-7177852Y-31781861D01*
X-7180607Y-31784703D01*
X-7200938Y-31805034D01*
X-7203372Y-31808171D01*
X-7203374Y-31808174D01*
X-7203597Y-31808461D01*
X-7211293Y-31817471D01*
X-7222836Y-31829764D01*
X-7241556Y-31849699D01*
X-7245372Y-31856640D01*
X-7245374Y-31856643D01*
X-7251312Y-31867445D01*
X-7262166Y-31883968D01*
X-7265255Y-31887951D01*
X-7274583Y-31899977D01*
X-7277731Y-31907252D01*
X-7292141Y-31940551D01*
X-7297363Y-31951211D01*
X-7314587Y-31982542D01*
X-7318661Y-31989952D01*
X-7323699Y-32009572D01*
X-7330098Y-32028264D01*
X-7338147Y-32046865D01*
X-7338328Y-32048005D01*
X-7374917Y-32105303D01*
X-7392160Y-32116860D01*
X-7391863Y-32117313D01*
X-7516882Y-32199279D01*
X-7539746Y-32214269D01*
X-7544777Y-32219580D01*
X-7544782Y-32219584D01*
X-7659550Y-32340737D01*
X-7720919Y-32376436D01*
X-7791846Y-32373289D01*
X-7849811Y-32332295D01*
X-7856394Y-32323172D01*
X-7860638Y-32316699D01*
X-7869971Y-32305537D01*
X-7987628Y-32194079D01*
X-7999275Y-32185365D01*
X-8139429Y-32103957D01*
X-8152754Y-32098163D01*
X-8308700Y-32050932D01*
X-8321323Y-32048484D01*
X-8391184Y-32042249D01*
X-8396779Y-32042000D01*
X-8502885Y-32042000D01*
X-8518124Y-32046475D01*
X-8519329Y-32047865D01*
X-8521000Y-32055548D01*
X-8521001Y-32995998D01*
X-8521000Y-32996004D01*
X-8521001Y-34439885D01*
X-8516526Y-34455124D01*
X-8515136Y-34456329D01*
X-8507453Y-34458000D01*
X-8410778Y-34458000D01*
X-8403477Y-34457576D01*
X-8281746Y-34443383D01*
X-8267591Y-34440037D01*
X-8115240Y-34384737D01*
X-8102241Y-34378227D01*
X-7966695Y-34289359D01*
X-7955543Y-34280035D01*
X-7841081Y-34159206D01*
X-7779712Y-34123508D01*
X-7708785Y-34126655D01*
X-7650819Y-34167649D01*
X-7644237Y-34176773D01*
X-7639957Y-34183300D01*
X-7635731Y-34189746D01*
X-7507355Y-34311358D01*
X-7354445Y-34400175D01*
X-7185204Y-34451433D01*
X-7178764Y-34452008D01*
X-7178763Y-34452008D01*
X-7108815Y-34458251D01*
X-7108809Y-34458251D01*
X-7106022Y-34458500D01*
X-6357115Y-34458500D01*
X-6224358Y-34443022D01*
X-6215715Y-34439885D01*
X-6198847Y-34433762D01*
X-6127990Y-34429320D01*
X-6081796Y-34450263D01*
X-5956750Y-34541114D01*
X-5950722Y-34543798D01*
X-5950720Y-34543799D01*
X-5788318Y-34616105D01*
X-5782287Y-34618790D01*
X-5688887Y-34638643D01*
X-5601944Y-34657124D01*
X-5601939Y-34657124D01*
X-5595487Y-34658496D01*
X-5555703Y-34658496D01*
X-5487582Y-34678498D01*
X-5441089Y-34732154D01*
X-5437264Y-34741504D01*
X-5382687Y-34891863D01*
X-5335941Y-34963163D01*
X-5299938Y-35018076D01*
X-5285731Y-35039746D01*
X-5280419Y-35044778D01*
X-5280415Y-35044783D01*
X-5159634Y-35159201D01*
X-5123936Y-35220570D01*
X-5127084Y-35291497D01*
X-5168078Y-35349462D01*
X-5177186Y-35356034D01*
X-5189747Y-35364269D01*
X-5311358Y-35492645D01*
X-5400175Y-35645555D01*
X-5451433Y-35814796D01*
X-5452008Y-35821236D01*
X-5452008Y-35821237D01*
X-5455001Y-35854777D01*
X-5458500Y-35893978D01*
X-5458500Y-36642885D01*
X-5443022Y-36775642D01*
X-5440526Y-36782520D01*
X-5440525Y-36782522D01*
X-5410770Y-36864496D01*
X-5382687Y-36941863D01*
X-5285731Y-37089746D01*
X-5157355Y-37211358D01*
X-5004445Y-37300175D01*
X-4835204Y-37351433D01*
X-4828764Y-37352008D01*
X-4828763Y-37352008D01*
X-4758815Y-37358251D01*
X-4758809Y-37358251D01*
X-4756022Y-37358500D01*
X-4089594Y-37358500D01*
X-4021473Y-37378502D01*
X-4000499Y-37395405D01*
X-3162734Y-38233170D01*
X-3128708Y-38295482D01*
X-3133773Y-38366297D01*
X-3176320Y-38423133D01*
X-3242840Y-38447944D01*
X-3281242Y-38444784D01*
X-3378383Y-38421463D01*
X-3392470Y-38422168D01*
X-3396000Y-38431047D01*
X-3396000Y-40328000D01*
X-3416002Y-40396121D01*
X-3469658Y-40442614D01*
X-3522000Y-40454000D01*
X-4889885Y-40454000D01*
X-4905124Y-40458475D01*
X-4906329Y-40459865D01*
X-4908000Y-40467548D01*
X-4908000Y-40803222D01*
X-4907751Y-40808817D01*
X-4893538Y-40968063D01*
X-4891557Y-40979077D01*
X-4869049Y-41061350D01*
X-4870367Y-41132334D01*
X-4909852Y-41191338D01*
X-4974969Y-41219627D01*
X-5043095Y-41208537D01*
X-5043250Y-41208886D01*
X-5049280Y-41206201D01*
X-5211682Y-41133895D01*
X-5211683Y-41133895D01*
X-5217713Y-41131210D01*
X-5319600Y-41109553D01*
X-5398056Y-41092876D01*
X-5398061Y-41092876D01*
X-5404513Y-41091504D01*
X-5595487Y-41091504D01*
X-5601939Y-41092876D01*
X-5601944Y-41092876D01*
X-5680400Y-41109553D01*
X-5782287Y-41131210D01*
X-5788317Y-41133895D01*
X-5788318Y-41133895D01*
X-5950720Y-41206201D01*
X-5950722Y-41206202D01*
X-5956750Y-41208886D01*
X-5962091Y-41212766D01*
X-5962092Y-41212767D01*
X-6105907Y-41317254D01*
X-6105909Y-41317256D01*
X-6111251Y-41321137D01*
X-6115672Y-41326047D01*
X-6115673Y-41326048D01*
X-6217336Y-41438957D01*
X-6239037Y-41463058D01*
X-6242338Y-41468776D01*
X-6319461Y-41602357D01*
X-6334524Y-41628446D01*
X-6393538Y-41810073D01*
X-6394228Y-41816636D01*
X-6394228Y-41816637D01*
X-6406361Y-41932080D01*
X-6413500Y-42000000D01*
X-6393538Y-42189927D01*
X-6334524Y-42371554D01*
X-6239037Y-42536942D01*
X-6234619Y-42541849D01*
X-6234618Y-42541850D01*
X-6121912Y-42667023D01*
X-6111251Y-42678863D01*
X-6105909Y-42682744D01*
X-6105907Y-42682746D01*
X-6103823Y-42684260D01*
X-5956750Y-42791114D01*
X-5950722Y-42793798D01*
X-5950720Y-42793799D01*
X-5903937Y-42814628D01*
X-5782287Y-42868790D01*
X-5688887Y-42888643D01*
X-5601944Y-42907124D01*
X-5601939Y-42907124D01*
X-5595487Y-42908496D01*
X-5540261Y-42908496D01*
X-5472140Y-42928498D01*
X-5454014Y-42942641D01*
X-5443120Y-42952871D01*
X-5440311Y-42955594D01*
X-5419967Y-42975938D01*
X-5416547Y-42978590D01*
X-5407524Y-42986297D01*
X-5375301Y-43016557D01*
X-5368357Y-43020374D01*
X-5368352Y-43020378D01*
X-5357550Y-43026316D01*
X-5341023Y-43037172D01*
X-5325023Y-43049583D01*
X-5317752Y-43052730D01*
X-5317751Y-43052730D01*
X-5284449Y-43067141D01*
X-5273793Y-43072362D01*
X-5235048Y-43093662D01*
X-5227365Y-43095634D01*
X-5227364Y-43095635D01*
X-5215432Y-43098699D01*
X-5196728Y-43105103D01*
X-5185415Y-43109999D01*
X-5185408Y-43110001D01*
X-5178136Y-43113148D01*
X-5170312Y-43114387D01*
X-5170309Y-43114388D01*
X-5134465Y-43120065D01*
X-5122844Y-43122472D01*
X-5085782Y-43131987D01*
X-5080025Y-43133465D01*
X-5079469Y-43133500D01*
X-5059548Y-43133500D01*
X-5039838Y-43135051D01*
X-5027886Y-43136944D01*
X-5027885Y-43136944D01*
X-5020056Y-43138184D01*
X-5012164Y-43137438D01*
X-4976418Y-43134059D01*
X-4964560Y-43133500D01*
X-4361003Y-43133500D01*
X-4292882Y-43153502D01*
X-4246389Y-43207158D01*
X-4236285Y-43277432D01*
X-4265779Y-43342012D01*
X-4303213Y-43371465D01*
X-4321758Y-43381037D01*
X-4331197Y-43387027D01*
X-4500449Y-43516899D01*
X-4508666Y-43524455D01*
X-4652244Y-43682245D01*
X-4658998Y-43691143D01*
X-4772355Y-43871852D01*
X-4777436Y-43881822D01*
X-4857002Y-44079748D01*
X-4860233Y-44090448D01*
X-4903693Y-44300311D01*
X-4904896Y-44309447D01*
X-4907895Y-44361460D01*
X-4908000Y-44365107D01*
X-4908000Y-44727885D01*
X-4903525Y-44743124D01*
X-4902135Y-44744329D01*
X-4894452Y-44746000D01*
X-2410115Y-44746000D01*
X-2394876Y-44741525D01*
X-2393671Y-44740135D01*
X-2392000Y-44732452D01*
X-2392000Y-44396778D01*
X-2392249Y-44391183D01*
X-2406462Y-44231937D01*
X-2408444Y-44220923D01*
X-2464733Y-44015165D01*
X-2468627Y-44004692D01*
X-2560469Y-43812143D01*
X-2566155Y-43802528D01*
X-2690639Y-43629289D01*
X-2697947Y-43620823D01*
X-2851141Y-43472369D01*
X-2859830Y-43465332D01*
X-3010507Y-43364081D01*
X-3055892Y-43309485D01*
X-3064555Y-43239019D01*
X-3033747Y-43175056D01*
X-2973247Y-43137903D01*
X-2940231Y-43133500D01*
X2938997Y-43133500D01*
X3007118Y-43153502D01*
X3053611Y-43207158D01*
X3063715Y-43277432D01*
X3034221Y-43342012D01*
X2996787Y-43371465D01*
X2978242Y-43381037D01*
X2968803Y-43387027D01*
X2799551Y-43516899D01*
X2791334Y-43524455D01*
X2647756Y-43682245D01*
X2641002Y-43691143D01*
X2527645Y-43871852D01*
X2522564Y-43881822D01*
X2442998Y-44079748D01*
X2439767Y-44090448D01*
X2396307Y-44300311D01*
X2395104Y-44309447D01*
X2392105Y-44361460D01*
X2392000Y-44365107D01*
X2392000Y-44727885D01*
X2396475Y-44743124D01*
X2397865Y-44744329D01*
X2405548Y-44746000D01*
X4889885Y-44746000D01*
X4905124Y-44741525D01*
X4906329Y-44740135D01*
X4908000Y-44732452D01*
X4908000Y-44396778D01*
X4907751Y-44391183D01*
X4893538Y-44231937D01*
X4891556Y-44220923D01*
X4835267Y-44015165D01*
X4831373Y-44004692D01*
X4739531Y-43812143D01*
X4733845Y-43802528D01*
X4609361Y-43629289D01*
X4602053Y-43620823D01*
X4448859Y-43472369D01*
X4440170Y-43465332D01*
X4289493Y-43364081D01*
X4244108Y-43309485D01*
X4235445Y-43239019D01*
X4266253Y-43175056D01*
X4326753Y-43137903D01*
X4359769Y-43133500D01*
X4421617Y-43133500D01*
X4432521Y-43134014D01*
X4439912Y-43135666D01*
X4447837Y-43135417D01*
X4447838Y-43135417D01*
X4506853Y-43133562D01*
X4510811Y-43133500D01*
X4539578Y-43133500D01*
X4543502Y-43133004D01*
X4543504Y-43133004D01*
X4543852Y-43132960D01*
X4555698Y-43132027D01*
X4599883Y-43130638D01*
X4619339Y-43124986D01*
X4638679Y-43120981D01*
X4658788Y-43118440D01*
X4666158Y-43115522D01*
X4666162Y-43115521D01*
X4699900Y-43102163D01*
X4711130Y-43098318D01*
X4745968Y-43088197D01*
X4745969Y-43088197D01*
X4753578Y-43085986D01*
X4771012Y-43075676D01*
X4788764Y-43066980D01*
X4799220Y-43062840D01*
X4807600Y-43059522D01*
X4843375Y-43033530D01*
X4853294Y-43027014D01*
X4854474Y-43026316D01*
X4891341Y-43004513D01*
X4891759Y-43004145D01*
X4905842Y-42990062D01*
X4920867Y-42977228D01*
X4937083Y-42965446D01*
X4965030Y-42931664D01*
X4973019Y-42922885D01*
X7914705Y-39981200D01*
X7977017Y-39947174D01*
X8047833Y-39952239D01*
X8104668Y-39994786D01*
X8129479Y-40061306D01*
X8127789Y-40092716D01*
X8122551Y-40121683D01*
X8121904Y-40189080D01*
X8120562Y-40328947D01*
X8120338Y-40352233D01*
X8157002Y-40579861D01*
X8231494Y-40798056D01*
X8341685Y-41000580D01*
X8484424Y-41181644D01*
X8512943Y-41207368D01*
X8651659Y-41332489D01*
X8651665Y-41332494D01*
X8655629Y-41336069D01*
X8660142Y-41338928D01*
X8660144Y-41338929D01*
X8778242Y-41413731D01*
X8825087Y-41467079D01*
X8835654Y-41537285D01*
X8806587Y-41602058D01*
X8776186Y-41627894D01*
X8681196Y-41685535D01*
X8681189Y-41685540D01*
X8676631Y-41688306D01*
X8672601Y-41691803D01*
X8528742Y-41816637D01*
X8502492Y-41839415D01*
X8499109Y-41843541D01*
X8499105Y-41843545D01*
X8426768Y-41931767D01*
X8356304Y-42017705D01*
X8353665Y-42022341D01*
X8353663Y-42022344D01*
X8262005Y-42183363D01*
X8242245Y-42218077D01*
X8163578Y-42434802D01*
X8162629Y-42440051D01*
X8162628Y-42440054D01*
X8146142Y-42531224D01*
X8122551Y-42661683D01*
X8120338Y-42892233D01*
X8157002Y-43119861D01*
X8231494Y-43338056D01*
X8234044Y-43342743D01*
X8234045Y-43342745D01*
X8286574Y-43439289D01*
X8341685Y-43540580D01*
X8484424Y-43721644D01*
X8488389Y-43725220D01*
X8651659Y-43872489D01*
X8651665Y-43872494D01*
X8655629Y-43876069D01*
X8660142Y-43878928D01*
X8660144Y-43878929D01*
X8713664Y-43912828D01*
X8850406Y-43999439D01*
X9063184Y-44088228D01*
X9068387Y-44089425D01*
X9068392Y-44089426D01*
X9282678Y-44138701D01*
X9282683Y-44138702D01*
X9287881Y-44139897D01*
X9293209Y-44140200D01*
X9293212Y-44140200D01*
X9449293Y-44149063D01*
X9518071Y-44152968D01*
X9523378Y-44152368D01*
X9523380Y-44152368D01*
X9661370Y-44136768D01*
X9747173Y-44127068D01*
X9752288Y-44125587D01*
X9752292Y-44125586D01*
X9838900Y-44100506D01*
X9968635Y-44062937D01*
X10176125Y-43962409D01*
X10180463Y-43959309D01*
X10180468Y-43959306D01*
X10359370Y-43831459D01*
X10363711Y-43828357D01*
X10526030Y-43664617D01*
X10586514Y-43578397D01*
X10647953Y-43490816D01*
X10703449Y-43446536D01*
X10774075Y-43439289D01*
X10837407Y-43471375D01*
X10861781Y-43502958D01*
X10879550Y-43535617D01*
X10885402Y-43544491D01*
X11021486Y-43717113D01*
X11028750Y-43724875D01*
X11191967Y-43872094D01*
X11200444Y-43878528D01*
X11386122Y-43996136D01*
X11395567Y-44001053D01*
X11598406Y-44085694D01*
X11608545Y-44088950D01*
X11748345Y-44121096D01*
X11762422Y-44120257D01*
X11766000Y-44110999D01*
X11766000Y-43057548D01*
X12274000Y-43057548D01*
X12274000Y-44109941D01*
X12278151Y-44124079D01*
X12288798Y-44125774D01*
X12292192Y-44125096D01*
X12503333Y-44063954D01*
X12513259Y-44060143D01*
X12711065Y-43964307D01*
X12720212Y-43958876D01*
X12899041Y-43831083D01*
X12907149Y-43824182D01*
X13061893Y-43668082D01*
X13068706Y-43659933D01*
X13194940Y-43479988D01*
X13200295Y-43470787D01*
X13294399Y-43272156D01*
X13298123Y-43262197D01*
X13355968Y-43055718D01*
X13354430Y-43047351D01*
X13342137Y-43044000D01*
X12292115Y-43044000D01*
X12276876Y-43048475D01*
X12275671Y-43049865D01*
X12274000Y-43057548D01*
X11766000Y-43057548D01*
X11766000Y-42662000D01*
X11786002Y-42593879D01*
X11839658Y-42547386D01*
X11892000Y-42536000D01*
X13339079Y-42536000D01*
X13352610Y-42532027D01*
X13353876Y-42523218D01*
X13306954Y-42342433D01*
X13303419Y-42332395D01*
X13213147Y-42131998D01*
X13207967Y-42122692D01*
X13085218Y-41940366D01*
X13078557Y-41932080D01*
X13013590Y-41863977D01*
X21741904Y-41863977D01*
X21741904Y-42136023D01*
X21742516Y-42144772D01*
X21780377Y-42414173D01*
X21782201Y-42422753D01*
X21857187Y-42684260D01*
X21860186Y-42692501D01*
X21970841Y-42941036D01*
X21974953Y-42948770D01*
X22119118Y-43179482D01*
X22124277Y-43186582D01*
X22149101Y-43216166D01*
X22161795Y-43224612D01*
X22172297Y-43218493D01*
X23377978Y-42012812D01*
X23385592Y-41998868D01*
X23385461Y-41997035D01*
X23381210Y-41990420D01*
X22173558Y-40782768D01*
X22160173Y-40775459D01*
X22150247Y-40782468D01*
X22124277Y-40813418D01*
X22119118Y-40820518D01*
X21974953Y-41051230D01*
X21970841Y-41058964D01*
X21860186Y-41307499D01*
X21857187Y-41315740D01*
X21782201Y-41577247D01*
X21780377Y-41585827D01*
X21742516Y-41855228D01*
X21741904Y-41863977D01*
X13013590Y-41863977D01*
X12926830Y-41773030D01*
X12918873Y-41765990D01*
X12742524Y-41634783D01*
X12729981Y-41627005D01*
X12682628Y-41574107D01*
X12671391Y-41504005D01*
X12699838Y-41438957D01*
X12723122Y-41417409D01*
X12903711Y-41288357D01*
X12985154Y-41206201D01*
X13062277Y-41128403D01*
X13062278Y-41128402D01*
X13066030Y-41124617D01*
X13094560Y-41083948D01*
X13195375Y-40940236D01*
X13195376Y-40940234D01*
X13198439Y-40935868D01*
X13297153Y-40727508D01*
X13359349Y-40505494D01*
X13369438Y-40408690D01*
X22524711Y-40408690D01*
X22531931Y-40422721D01*
X23737188Y-41627978D01*
X23751132Y-41635592D01*
X23752965Y-41635461D01*
X23759580Y-41631210D01*
X24966133Y-40424657D01*
X24973101Y-40411897D01*
X24965190Y-40401099D01*
X24879120Y-40333855D01*
X24871844Y-40328947D01*
X24636253Y-40192929D01*
X24628361Y-40189080D01*
X24376134Y-40087172D01*
X24367776Y-40084457D01*
X24103825Y-40018647D01*
X24095180Y-40017122D01*
X23824622Y-39988685D01*
X23815859Y-39988379D01*
X23543981Y-39997873D01*
X23535255Y-39998790D01*
X23267334Y-40046033D01*
X23258833Y-40048152D01*
X23000106Y-40132218D01*
X22991959Y-40135509D01*
X22747451Y-40254764D01*
X22739855Y-40259150D01*
X22533018Y-40398662D01*
X22524711Y-40408690D01*
X13369438Y-40408690D01*
X13383249Y-40276176D01*
X13383412Y-40259150D01*
X13383472Y-40252963D01*
X13383472Y-40252954D01*
X13383500Y-40250000D01*
X13378331Y-40189080D01*
X13364458Y-40025576D01*
X13364457Y-40025572D01*
X13364007Y-40020265D01*
X13355811Y-39988685D01*
X13307426Y-39802269D01*
X13306084Y-39797098D01*
X13288716Y-39758541D01*
X13213578Y-39591743D01*
X13213577Y-39591741D01*
X13211388Y-39586882D01*
X13082627Y-39395626D01*
X13075039Y-39387671D01*
X12927161Y-39232656D01*
X12923482Y-39228799D01*
X12738504Y-39091171D01*
X12733743Y-39088751D01*
X12730425Y-39086693D01*
X12683071Y-39033796D01*
X12671832Y-38963695D01*
X12700277Y-38898645D01*
X12723564Y-38877093D01*
X12741315Y-38864408D01*
X12903711Y-38748357D01*
X13066030Y-38584617D01*
X13081547Y-38562498D01*
X13195375Y-38400236D01*
X13195376Y-38400234D01*
X13198439Y-38395868D01*
X13297153Y-38187508D01*
X13359349Y-37965494D01*
X13383249Y-37736176D01*
X13383500Y-37710000D01*
X13380148Y-37670498D01*
X13364458Y-37485576D01*
X13364457Y-37485572D01*
X13364007Y-37480265D01*
X13359253Y-37461946D01*
X13307426Y-37262269D01*
X13306084Y-37257098D01*
X13288002Y-37216956D01*
X13213578Y-37051743D01*
X13213577Y-37051741D01*
X13211388Y-37046882D01*
X13200338Y-37030468D01*
X13144805Y-36947983D01*
X13082627Y-36855626D01*
X12923482Y-36688799D01*
X12738504Y-36551171D01*
X12733753Y-36548755D01*
X12733749Y-36548753D01*
X12537740Y-36449097D01*
X12537739Y-36449097D01*
X12532982Y-36446678D01*
X12392033Y-36402912D01*
X12317895Y-36379891D01*
X12317889Y-36379890D01*
X12312792Y-36378307D01*
X12207798Y-36364391D01*
X12089515Y-36348714D01*
X12089510Y-36348714D01*
X12084230Y-36348014D01*
X12078900Y-36348214D01*
X12078899Y-36348214D01*
X11985320Y-36351727D01*
X11853831Y-36356663D01*
X11809246Y-36366018D01*
X11633411Y-36402912D01*
X11633408Y-36402913D01*
X11628184Y-36404009D01*
X11413740Y-36488697D01*
X11216631Y-36608306D01*
X11212601Y-36611803D01*
X11063368Y-36741300D01*
X11042492Y-36759415D01*
X11037339Y-36765700D01*
X11036364Y-36766365D01*
X11035390Y-36767366D01*
X11035186Y-36767168D01*
X10978681Y-36805695D01*
X10907710Y-36807628D01*
X10846961Y-36770885D01*
X10819008Y-36721309D01*
X10800658Y-36658815D01*
X10797096Y-36646684D01*
X10735713Y-36551171D01*
X10722949Y-36531309D01*
X10722947Y-36531306D01*
X10718077Y-36523729D01*
X10675384Y-36486735D01*
X10614431Y-36433918D01*
X10614428Y-36433916D01*
X10607619Y-36428016D01*
X10525175Y-36390365D01*
X10482864Y-36371042D01*
X10482863Y-36371042D01*
X10474670Y-36367300D01*
X10465755Y-36366018D01*
X10465754Y-36366018D01*
X10334448Y-36347139D01*
X10334441Y-36347138D01*
X10330000Y-36346500D01*
X8630000Y-36346500D01*
X8556921Y-36351727D01*
X8503884Y-36367300D01*
X8425330Y-36390365D01*
X8425328Y-36390366D01*
X8416684Y-36392904D01*
X8396350Y-36405972D01*
X8301309Y-36467051D01*
X8301306Y-36467053D01*
X8293729Y-36471923D01*
X8287828Y-36478733D01*
X8203918Y-36575569D01*
X8203916Y-36575572D01*
X8198016Y-36582381D01*
X8194272Y-36590579D01*
X8141886Y-36705289D01*
X8137300Y-36715330D01*
X8136018Y-36724245D01*
X8136018Y-36724246D01*
X8117139Y-36855552D01*
X8117138Y-36855559D01*
X8116500Y-36860000D01*
X8116500Y-38131696D01*
X8096498Y-38199817D01*
X8042842Y-38246310D01*
X8016243Y-38254327D01*
X8015116Y-38254362D01*
X7995666Y-38260013D01*
X7976304Y-38264023D01*
X7956211Y-38266561D01*
X7931732Y-38276253D01*
X7915107Y-38282835D01*
X7903877Y-38286680D01*
X7869033Y-38296803D01*
X7869031Y-38296804D01*
X7861420Y-38299015D01*
X7846066Y-38308095D01*
X7843988Y-38309324D01*
X7826235Y-38318021D01*
X7807399Y-38325479D01*
X7800984Y-38330140D01*
X7771625Y-38351470D01*
X7761706Y-38357985D01*
X7728757Y-38377472D01*
X7728754Y-38377474D01*
X7723658Y-38380488D01*
X7723240Y-38380856D01*
X7709157Y-38394939D01*
X7694132Y-38407773D01*
X7677916Y-38419555D01*
X7657045Y-38444784D01*
X7649970Y-38453336D01*
X7641980Y-38462116D01*
X5119940Y-40984156D01*
X5057628Y-41018182D01*
X4986813Y-41013117D01*
X4929977Y-40970570D01*
X4905166Y-40904050D01*
X4905054Y-40887808D01*
X4907895Y-40838540D01*
X4908000Y-40834894D01*
X4908000Y-40472115D01*
X4903525Y-40456876D01*
X4902135Y-40455671D01*
X4894452Y-40454000D01*
X3522000Y-40454000D01*
X3453879Y-40433998D01*
X3407386Y-40380342D01*
X3396000Y-40328000D01*
X3396000Y-38431675D01*
X3395816Y-38431047D01*
X3904000Y-38431047D01*
X3904000Y-39927885D01*
X3908475Y-39943124D01*
X3909865Y-39944329D01*
X3917548Y-39946000D01*
X4889885Y-39946000D01*
X4905124Y-39941525D01*
X4906329Y-39940135D01*
X4908000Y-39932452D01*
X4908000Y-39596778D01*
X4907751Y-39591183D01*
X4893538Y-39431937D01*
X4891556Y-39420923D01*
X4835267Y-39215165D01*
X4831373Y-39204692D01*
X4739531Y-39012143D01*
X4733845Y-39002528D01*
X4609361Y-38829289D01*
X4602053Y-38820823D01*
X4448859Y-38672369D01*
X4440177Y-38665338D01*
X4263107Y-38546351D01*
X4253318Y-38540970D01*
X4057987Y-38455225D01*
X4047388Y-38451658D01*
X3921616Y-38421463D01*
X3907530Y-38422168D01*
X3904000Y-38431047D01*
X3395816Y-38431047D01*
X3391895Y-38417693D01*
X3382275Y-38416201D01*
X3382047Y-38416249D01*
X3178148Y-38478976D01*
X3167804Y-38483197D01*
X2978234Y-38581042D01*
X2968803Y-38587027D01*
X2799551Y-38716899D01*
X2791334Y-38724455D01*
X2647756Y-38882245D01*
X2641008Y-38891136D01*
X2588399Y-38975003D01*
X2535255Y-39022080D01*
X2465096Y-39032953D01*
X2400196Y-39004169D01*
X2361161Y-38944867D01*
X2357664Y-38930422D01*
X2355876Y-38920516D01*
X2319181Y-38795542D01*
X2311767Y-38779308D01*
X2242574Y-38671640D01*
X2230888Y-38658153D01*
X2134160Y-38574338D01*
X2119152Y-38564693D01*
X2002725Y-38511523D01*
X1985612Y-38506498D01*
X1867929Y-38489578D01*
X1853973Y-38491584D01*
X1850000Y-38505115D01*
X1850000Y-40994885D01*
X1854384Y-41009814D01*
X1865785Y-41011871D01*
X1916269Y-41008260D01*
X1929491Y-41005874D01*
X2054458Y-40969181D01*
X2070692Y-40961767D01*
X2178364Y-40892571D01*
X2197715Y-40875804D01*
X2262296Y-40846311D01*
X2332570Y-40856416D01*
X2386225Y-40902909D01*
X2405727Y-40959831D01*
X2406461Y-40968061D01*
X2408444Y-40979077D01*
X2464733Y-41184835D01*
X2468627Y-41195308D01*
X2560466Y-41387852D01*
X2566161Y-41397481D01*
X2690639Y-41570710D01*
X2697946Y-41579175D01*
X2771048Y-41650016D01*
X2806048Y-41711786D01*
X2802096Y-41782673D01*
X2760447Y-41840170D01*
X2694325Y-41866022D01*
X2683363Y-41866500D01*
X-2680082Y-41866500D01*
X-2748203Y-41846498D01*
X-2794696Y-41792842D01*
X-2804800Y-41722568D01*
X-2773275Y-41655700D01*
X-2647761Y-41517762D01*
X-2641001Y-41508855D01*
X-2527645Y-41328149D01*
X-2522564Y-41318179D01*
X-2442998Y-41120253D01*
X-2439767Y-41109553D01*
X-2404657Y-40940011D01*
X-2371257Y-40877362D01*
X-2309288Y-40842715D01*
X-2238425Y-40847072D01*
X-2198762Y-40870338D01*
X-2134431Y-40926082D01*
X-2134428Y-40926084D01*
X-2127619Y-40931984D01*
X-2119421Y-40935728D01*
X-2006102Y-40987479D01*
X-1994670Y-40992700D01*
X-1985755Y-40993982D01*
X-1985754Y-40993982D01*
X-1854448Y-41012861D01*
X-1854441Y-41012862D01*
X-1850000Y-41013500D01*
X-1350000Y-41013500D01*
X-1276921Y-41008273D01*
X-1270439Y-41006370D01*
X-1270435Y-41006369D01*
X-1240580Y-40997603D01*
X-1187152Y-40993781D01*
X-1054448Y-41012861D01*
X-1054441Y-41012862D01*
X-1050000Y-41013500D01*
X-550000Y-41013500D01*
X-476921Y-41008273D01*
X-470439Y-41006370D01*
X-470435Y-41006369D01*
X-440580Y-40997603D01*
X-387152Y-40993781D01*
X-254448Y-41012861D01*
X-254441Y-41012862D01*
X-250000Y-41013500D01*
X250000Y-41013500D01*
X323079Y-41008273D01*
X329561Y-41006370D01*
X329565Y-41006369D01*
X359420Y-40997603D01*
X412848Y-40993781D01*
X545552Y-41012861D01*
X545559Y-41012862D01*
X550000Y-41013500D01*
X1050000Y-41013500D01*
X1123079Y-41008273D01*
X1160562Y-40997267D01*
X1213992Y-40993445D01*
X1332071Y-41010422D01*
X1346027Y-41008416D01*
X1350000Y-40994885D01*
X1350000Y-40975351D01*
X1370002Y-40907230D01*
X1386459Y-40888239D01*
X1386271Y-40888077D01*
X1476082Y-40784431D01*
X1476084Y-40784428D01*
X1481984Y-40777619D01*
X1542700Y-40644670D01*
X1561971Y-40510636D01*
X1562861Y-40504448D01*
X1562862Y-40504441D01*
X1563500Y-40500000D01*
X1563500Y-39000000D01*
X1558273Y-38926921D01*
X1527120Y-38820823D01*
X1519635Y-38795330D01*
X1519634Y-38795328D01*
X1517096Y-38786684D01*
X1443630Y-38672369D01*
X1442949Y-38671309D01*
X1442947Y-38671306D01*
X1438077Y-38663729D01*
X1393487Y-38625091D01*
X1355104Y-38565364D01*
X1350000Y-38529867D01*
X1350000Y-38505115D01*
X1345616Y-38490186D01*
X1334215Y-38488129D01*
X1283731Y-38491740D01*
X1270512Y-38494125D01*
X1241762Y-38502567D01*
X1188333Y-38506389D01*
X1075637Y-38490186D01*
X1054445Y-38487139D01*
X1054444Y-38487139D01*
X1050000Y-38486500D01*
X759500Y-38486500D01*
X691379Y-38466498D01*
X644886Y-38412842D01*
X633500Y-38360500D01*
X633500Y-38314594D01*
X653502Y-38246473D01*
X670405Y-38225499D01*
X1392522Y-37503382D01*
X1400600Y-37496031D01*
X1406994Y-37491973D01*
X1419087Y-37479096D01*
X1452860Y-37443131D01*
X1455615Y-37440289D01*
X1475938Y-37419966D01*
X1478581Y-37416559D01*
X1486290Y-37407532D01*
X1497196Y-37395919D01*
X1505664Y-37386901D01*
X1566877Y-37350935D01*
X1582921Y-37348003D01*
X1608701Y-37344997D01*
X1618369Y-37343870D01*
X1618370Y-37343870D01*
X1625642Y-37343022D01*
X1632520Y-37340526D01*
X1632522Y-37340525D01*
X1708753Y-37312854D01*
X1791863Y-37282687D01*
X1797984Y-37278674D01*
X1797986Y-37278673D01*
X1845852Y-37247291D01*
X1939747Y-37185731D01*
X2061358Y-37057355D01*
X2140364Y-36921336D01*
X2191875Y-36872477D01*
X2261623Y-36859223D01*
X2327465Y-36885783D01*
X2358467Y-36929973D01*
X2361984Y-36928212D01*
X2371773Y-36947759D01*
X2460641Y-37083305D01*
X2469965Y-37094457D01*
X2587629Y-37205921D01*
X2599276Y-37214634D01*
X2739427Y-37296041D01*
X2752759Y-37301838D01*
X2908697Y-37349067D01*
X2921323Y-37351516D01*
X2991184Y-37357751D01*
X2996779Y-37358000D01*
X3227885Y-37358000D01*
X3243124Y-37353525D01*
X3244329Y-37352135D01*
X3246000Y-37344452D01*
X3246000Y-37339885D01*
X3753999Y-37339885D01*
X3758474Y-37355124D01*
X3759864Y-37356329D01*
X3767547Y-37358000D01*
X3989222Y-37358000D01*
X3996523Y-37357576D01*
X4118254Y-37343383D01*
X4132409Y-37340037D01*
X4284760Y-37284737D01*
X4297759Y-37278227D01*
X4433305Y-37189359D01*
X4444457Y-37180035D01*
X4555921Y-37062371D01*
X4564636Y-37050721D01*
X4646039Y-36910578D01*
X4651838Y-36897241D01*
X4699068Y-36741300D01*
X4701516Y-36728677D01*
X4707751Y-36658816D01*
X4708000Y-36653221D01*
X4708000Y-36547115D01*
X4703525Y-36531876D01*
X4702135Y-36530671D01*
X4694452Y-36529000D01*
X3772115Y-36528999D01*
X3756876Y-36533474D01*
X3755671Y-36534864D01*
X3754000Y-36542547D01*
X3753999Y-37339885D01*
X3246000Y-37339885D01*
X3246001Y-36529000D01*
X3246000Y-36528996D01*
X3246001Y-36147000D01*
X3266003Y-36078879D01*
X3319659Y-36032386D01*
X3372001Y-36021000D01*
X4689885Y-36021001D01*
X4705124Y-36016526D01*
X4706329Y-36015136D01*
X4708000Y-36007453D01*
X4708000Y-35910778D01*
X4707576Y-35903477D01*
X4693383Y-35781746D01*
X4690037Y-35767591D01*
X4634737Y-35615240D01*
X4628227Y-35602241D01*
X4539359Y-35466695D01*
X4530035Y-35455543D01*
X4409206Y-35341081D01*
X4373508Y-35279712D01*
X4376655Y-35208785D01*
X4417649Y-35150819D01*
X4426773Y-35144237D01*
X4433624Y-35139745D01*
X4433628Y-35139742D01*
X4439746Y-35135731D01*
X4561357Y-35007355D01*
X4632436Y-34884984D01*
X4646499Y-34860774D01*
X4646500Y-34860773D01*
X4650175Y-34854445D01*
X4652660Y-34846242D01*
X4699558Y-34691395D01*
X4699558Y-34691394D01*
X4701433Y-34685204D01*
X4703199Y-34665419D01*
X4708251Y-34608815D01*
X4708251Y-34608809D01*
X4708500Y-34606022D01*
X4708500Y-33857115D01*
X4693022Y-33724358D01*
X4632687Y-33558137D01*
X4634134Y-33557612D01*
X4623019Y-33496046D01*
X4650181Y-33430450D01*
X4708494Y-33389953D01*
X4748299Y-33383500D01*
X10671617Y-33383500D01*
X10682521Y-33384014D01*
X10689912Y-33385666D01*
X10697837Y-33385417D01*
X10697838Y-33385417D01*
X10756853Y-33383562D01*
X10760811Y-33383500D01*
X10789578Y-33383500D01*
X10793502Y-33383004D01*
X10793504Y-33383004D01*
X10793852Y-33382960D01*
X10805698Y-33382027D01*
X10849883Y-33380638D01*
X10869339Y-33374986D01*
X10888679Y-33370981D01*
X10908788Y-33368440D01*
X10916158Y-33365522D01*
X10916162Y-33365521D01*
X10949900Y-33352163D01*
X10961130Y-33348318D01*
X10995968Y-33338197D01*
X10995969Y-33338197D01*
X11003578Y-33335986D01*
X11021012Y-33325676D01*
X11038764Y-33316980D01*
X11050225Y-33312442D01*
X11050224Y-33312442D01*
X11057600Y-33309522D01*
X11093375Y-33283530D01*
X11103294Y-33277014D01*
X11141341Y-33254513D01*
X11141759Y-33254145D01*
X11155842Y-33240062D01*
X11170867Y-33227228D01*
X11187083Y-33215446D01*
X11215030Y-33181664D01*
X11223019Y-33172885D01*
X11917522Y-32478382D01*
X11925600Y-32471031D01*
X11931994Y-32466973D01*
X11977860Y-32418131D01*
X11980615Y-32415289D01*
X12000938Y-32394966D01*
X12003581Y-32391559D01*
X12011290Y-32382532D01*
X12013965Y-32379684D01*
X12041557Y-32350301D01*
X12046815Y-32340737D01*
X12051318Y-32332547D01*
X12062172Y-32316023D01*
X12069725Y-32306286D01*
X12069725Y-32306285D01*
X12074583Y-32300023D01*
X12092142Y-32259447D01*
X12097363Y-32248790D01*
X12102523Y-32239404D01*
X12118662Y-32210048D01*
X12122762Y-32194079D01*
X12123699Y-32190432D01*
X12130103Y-32171728D01*
X12134999Y-32160415D01*
X12135001Y-32160408D01*
X12138148Y-32153136D01*
X12143116Y-32121773D01*
X12145065Y-32109465D01*
X12147472Y-32097844D01*
X12156987Y-32060782D01*
X12156987Y-32060781D01*
X12158465Y-32055025D01*
X12158500Y-32054469D01*
X12158500Y-32034548D01*
X12160051Y-32014838D01*
X12161944Y-32002886D01*
X12161944Y-32002885D01*
X12163184Y-31995056D01*
X12162438Y-31987163D01*
X12162438Y-31987158D01*
X12162002Y-31982542D01*
X12175507Y-31912842D01*
X12218358Y-31865317D01*
X12272585Y-31829764D01*
X12339747Y-31785731D01*
X12461358Y-31657355D01*
X12550175Y-31504445D01*
X12601433Y-31335204D01*
X12606195Y-31281848D01*
X12608251Y-31258815D01*
X12608251Y-31258809D01*
X12608500Y-31256022D01*
X12608500Y-30257114D01*
X12593022Y-30124357D01*
X12548883Y-30002754D01*
X12535184Y-29965015D01*
X12532687Y-29958136D01*
X12456968Y-29842645D01*
X12439743Y-29816372D01*
X12439742Y-29816371D01*
X12435731Y-29810253D01*
X12307355Y-29688642D01*
X12235283Y-29646779D01*
X12221214Y-29638607D01*
X12172356Y-29587096D01*
X12158500Y-29529653D01*
X12158500Y-29472618D01*
X12178502Y-29404497D01*
X12215415Y-29367246D01*
X12308336Y-29306324D01*
X12339746Y-29285731D01*
X12461357Y-29157355D01*
X12550174Y-29004445D01*
X12601433Y-28835204D01*
X12603270Y-28814628D01*
X12608251Y-28758815D01*
X12608251Y-28758809D01*
X12608500Y-28756022D01*
X12608500Y-27757115D01*
X12596141Y-27651106D01*
X12593870Y-27631630D01*
X12593870Y-27631629D01*
X12593022Y-27624358D01*
X12582325Y-27594886D01*
X12535184Y-27465016D01*
X12532687Y-27458137D01*
X12457203Y-27343005D01*
X12439743Y-27316373D01*
X12439742Y-27316372D01*
X12435731Y-27310254D01*
X12307355Y-27188642D01*
X12220838Y-27138389D01*
X12171979Y-27086878D01*
X12158500Y-27037811D01*
X12158500Y-27035422D01*
X12157959Y-27031137D01*
X12157026Y-27019296D01*
X12155887Y-26983036D01*
X12155887Y-26983035D01*
X12155638Y-26975116D01*
X12153428Y-26967508D01*
X12153427Y-26967503D01*
X12149987Y-26955661D01*
X12145979Y-26936307D01*
X12144434Y-26924079D01*
X12143440Y-26916212D01*
X12140523Y-26908844D01*
X12140521Y-26908837D01*
X12127163Y-26875099D01*
X12123318Y-26863869D01*
X12113197Y-26829031D01*
X12113196Y-26829030D01*
X12110986Y-26821421D01*
X12100676Y-26803988D01*
X12091982Y-26786241D01*
X12084522Y-26767400D01*
X12058533Y-26731629D01*
X12052017Y-26721710D01*
X12029513Y-26683658D01*
X12029144Y-26683240D01*
X12015062Y-26669158D01*
X12002228Y-26654133D01*
X11990446Y-26637917D01*
X11956664Y-26609970D01*
X11947885Y-26601981D01*
X11922118Y-26576214D01*
X11888092Y-26513902D01*
X11885903Y-26500290D01*
X11869228Y-26341637D01*
X11869228Y-26341636D01*
X11868538Y-26335073D01*
X11811535Y-26159635D01*
X11809507Y-26088669D01*
X11839353Y-26040747D01*
X11836271Y-26038077D01*
X11926082Y-25934431D01*
X11926084Y-25934428D01*
X11931984Y-25927619D01*
X11992700Y-25794670D01*
X11994288Y-25783625D01*
X12012861Y-25654448D01*
X12012862Y-25654441D01*
X12013500Y-25650000D01*
X12013500Y-25250000D01*
X12008273Y-25176921D01*
X11967096Y-25036684D01*
X11888817Y-24914880D01*
X11868815Y-24846761D01*
X11888817Y-24778640D01*
X11899590Y-24764248D01*
X11925662Y-24734160D01*
X11935307Y-24719152D01*
X11988477Y-24602725D01*
X11993502Y-24585612D01*
X12010422Y-24467929D01*
X12008416Y-24453973D01*
X11994885Y-24450000D01*
X10700002Y-24449999D01*
X10699996Y-24450000D01*
X9005115Y-24449999D01*
X8989876Y-24454474D01*
X8988671Y-24455864D01*
X8987729Y-24460195D01*
X8991740Y-24516269D01*
X8994126Y-24529491D01*
X9030979Y-24655002D01*
X9030979Y-24725998D01*
X8992595Y-24785724D01*
X8928015Y-24815217D01*
X8910083Y-24816500D01*
X8764596Y-24816500D01*
X8696475Y-24796498D01*
X8675501Y-24779595D01*
X8110000Y-24214094D01*
X8075974Y-24151782D01*
X8081039Y-24080967D01*
X8110000Y-24035904D01*
X8425499Y-23720405D01*
X8487811Y-23686379D01*
X8514594Y-23683500D01*
X8913091Y-23683500D01*
X8981212Y-23703502D01*
X9027705Y-23757158D01*
X9037809Y-23827432D01*
X9027704Y-23861843D01*
X9011524Y-23897272D01*
X9006498Y-23914388D01*
X8989578Y-24032071D01*
X8991584Y-24046027D01*
X9005115Y-24050000D01*
X10299998Y-24050001D01*
X10300004Y-24050000D01*
X11994885Y-24050001D01*
X12010124Y-24045526D01*
X12011329Y-24044136D01*
X12012271Y-24039805D01*
X12008260Y-23983731D01*
X12005874Y-23970509D01*
X11969181Y-23845542D01*
X11961767Y-23829308D01*
X11888758Y-23715703D01*
X11868756Y-23647583D01*
X11888758Y-23579462D01*
X11899532Y-23565070D01*
X11926082Y-23534430D01*
X11931984Y-23527619D01*
X11992700Y-23394670D01*
X11993982Y-23385754D01*
X12012861Y-23254448D01*
X12012862Y-23254441D01*
X12013500Y-23250000D01*
X12013500Y-22850000D01*
X12008273Y-22776921D01*
X11977686Y-22672750D01*
X11969635Y-22645330D01*
X11969634Y-22645328D01*
X11967096Y-22636684D01*
X11930602Y-22579898D01*
X11892949Y-22521309D01*
X11892947Y-22521306D01*
X11888077Y-22513729D01*
X11848426Y-22479371D01*
X11784431Y-22423918D01*
X11784428Y-22423916D01*
X11777619Y-22418016D01*
X11769421Y-22414272D01*
X11652864Y-22361042D01*
X11652863Y-22361042D01*
X11644670Y-22357300D01*
X11635755Y-22356018D01*
X11635754Y-22356018D01*
X11504448Y-22337139D01*
X11504441Y-22337138D01*
X11500000Y-22336500D01*
X9500000Y-22336500D01*
X9426921Y-22341727D01*
X9373884Y-22357300D01*
X9295330Y-22380365D01*
X9295328Y-22380366D01*
X9286684Y-22382904D01*
X9279103Y-22387776D01*
X9279101Y-22387777D01*
X9265530Y-22396498D01*
X9197410Y-22416500D01*
X8278383Y-22416500D01*
X8267479Y-22415986D01*
X8260088Y-22414334D01*
X8252163Y-22414583D01*
X8252162Y-22414583D01*
X8193147Y-22416438D01*
X8189189Y-22416500D01*
X8160422Y-22416500D01*
X8156137Y-22417041D01*
X8144303Y-22417973D01*
X8118286Y-22418791D01*
X8108036Y-22419113D01*
X8108035Y-22419113D01*
X8100116Y-22419362D01*
X8092508Y-22421572D01*
X8092503Y-22421573D01*
X8080661Y-22425013D01*
X8061307Y-22429021D01*
X8049079Y-22430566D01*
X8041212Y-22431560D01*
X8033844Y-22434477D01*
X8033837Y-22434479D01*
X8000099Y-22447837D01*
X7988869Y-22451682D01*
X7954031Y-22461803D01*
X7954030Y-22461804D01*
X7946421Y-22464014D01*
X7928988Y-22474324D01*
X7911241Y-22483018D01*
X7892400Y-22490478D01*
X7885985Y-22495139D01*
X7856629Y-22516467D01*
X7846712Y-22522982D01*
X7808658Y-22545487D01*
X7808240Y-22545856D01*
X7794158Y-22559938D01*
X7779133Y-22572772D01*
X7762917Y-22584554D01*
X7748550Y-22601921D01*
X7734971Y-22618335D01*
X7726981Y-22627115D01*
X7274501Y-23079595D01*
X7212189Y-23113621D01*
X7185406Y-23116500D01*
X7089500Y-23116500D01*
X7021379Y-23096498D01*
X6974886Y-23042842D01*
X6963500Y-22990500D01*
X6963500Y-22675000D01*
X6958273Y-22601921D01*
X6952428Y-22582015D01*
X6948607Y-22528588D01*
X6962861Y-22429448D01*
X6962862Y-22429441D01*
X6963500Y-22425000D01*
X6963500Y-21875000D01*
X6958273Y-21801921D01*
X6952428Y-21782015D01*
X6948607Y-21728588D01*
X6962861Y-21629448D01*
X6962862Y-21629441D01*
X6963500Y-21625000D01*
X6963500Y-21309500D01*
X6983502Y-21241379D01*
X7037158Y-21194886D01*
X7089500Y-21183500D01*
X7371617Y-21183500D01*
X7382521Y-21184014D01*
X7389912Y-21185666D01*
X7397837Y-21185417D01*
X7397838Y-21185417D01*
X7456853Y-21183562D01*
X7460811Y-21183500D01*
X7489578Y-21183500D01*
X7493502Y-21183004D01*
X7493504Y-21183004D01*
X7493852Y-21182960D01*
X7505698Y-21182027D01*
X7549883Y-21180638D01*
X7569339Y-21174986D01*
X7588679Y-21170981D01*
X7608788Y-21168440D01*
X7616158Y-21165522D01*
X7616162Y-21165521D01*
X7649900Y-21152163D01*
X7661130Y-21148318D01*
X7695968Y-21138197D01*
X7695969Y-21138197D01*
X7703578Y-21135986D01*
X7721012Y-21125676D01*
X7738764Y-21116980D01*
X7750225Y-21112442D01*
X7750224Y-21112442D01*
X7757600Y-21109522D01*
X7784704Y-21089830D01*
X7793375Y-21083530D01*
X7803294Y-21077014D01*
X7841341Y-21054513D01*
X7841759Y-21054145D01*
X7844024Y-21051880D01*
X7844027Y-21051878D01*
X7855848Y-21040057D01*
X7870875Y-21027223D01*
X7880670Y-21020106D01*
X7880672Y-21020104D01*
X7887083Y-21015446D01*
X7915030Y-20981664D01*
X7923019Y-20972885D01*
X9142527Y-19753378D01*
X9150606Y-19746027D01*
X9156994Y-19741973D01*
X9202844Y-19693148D01*
X9205599Y-19690306D01*
X9225938Y-19669967D01*
X9228588Y-19666551D01*
X9236298Y-19657523D01*
X9261130Y-19631080D01*
X9266557Y-19625301D01*
X9270374Y-19618357D01*
X9270378Y-19618352D01*
X9276316Y-19607550D01*
X9287172Y-19591023D01*
X9294724Y-19581287D01*
X9299583Y-19575023D01*
X9317142Y-19534447D01*
X9322363Y-19523790D01*
X9343662Y-19485048D01*
X9346242Y-19475000D01*
X9348699Y-19465432D01*
X9355103Y-19446728D01*
X9359999Y-19435415D01*
X9360001Y-19435408D01*
X9363148Y-19428136D01*
X9369716Y-19386671D01*
X9370065Y-19384465D01*
X9372472Y-19372844D01*
X9381987Y-19335782D01*
X9381987Y-19335781D01*
X9383465Y-19330025D01*
X9383500Y-19329469D01*
X9383500Y-19309548D01*
X9385051Y-19289838D01*
X9386944Y-19277886D01*
X9386944Y-19277885D01*
X9388184Y-19270056D01*
X9384059Y-19226417D01*
X9383500Y-19214560D01*
X9383500Y-17078383D01*
X9384014Y-17067479D01*
X9385666Y-17060088D01*
X9383562Y-16993146D01*
X9383500Y-16989189D01*
X9383500Y-16960422D01*
X9382960Y-16956148D01*
X9382026Y-16944296D01*
X9380887Y-16908043D01*
X9380638Y-16900117D01*
X9374986Y-16880661D01*
X9370981Y-16861321D01*
X9368440Y-16841212D01*
X9365521Y-16833840D01*
X9365520Y-16833835D01*
X9352164Y-16800101D01*
X9348319Y-16788872D01*
X9338197Y-16754031D01*
X9338197Y-16754030D01*
X9335986Y-16746421D01*
X9325676Y-16728988D01*
X9316982Y-16711241D01*
X9309522Y-16692400D01*
X9283533Y-16656629D01*
X9277017Y-16646710D01*
X9257543Y-16613782D01*
X9254513Y-16608658D01*
X9254145Y-16608241D01*
X9240062Y-16594158D01*
X9227228Y-16579133D01*
X9215446Y-16562917D01*
X9181664Y-16534970D01*
X9172885Y-16526981D01*
X7699855Y-15053951D01*
X7665829Y-14991639D01*
X7670894Y-14920824D01*
X7713441Y-14863988D01*
X7750011Y-14845024D01*
X7750531Y-14844855D01*
X7756981Y-14843484D01*
X7763005Y-14840802D01*
X7763008Y-14840801D01*
X7925414Y-14768493D01*
X7925416Y-14768492D01*
X7931444Y-14765808D01*
X7936786Y-14761927D01*
X8080601Y-14657440D01*
X8080603Y-14657438D01*
X8085945Y-14653557D01*
X8090366Y-14648647D01*
X8095269Y-14644232D01*
X8096395Y-14645483D01*
X8149694Y-14612645D01*
X8182888Y-14608194D01*
X15660100Y-14608194D01*
X15728221Y-14628196D01*
X15749195Y-14645099D01*
X17079595Y-15975500D01*
X17113621Y-16037812D01*
X17116500Y-16064594D01*
X17116501Y-20927109D01*
X17116501Y-25715504D01*
X17096499Y-25783625D01*
X17042843Y-25830118D01*
X16990501Y-25841504D01*
X16904513Y-25841504D01*
X16898061Y-25842876D01*
X16898056Y-25842876D01*
X16811113Y-25861357D01*
X16717713Y-25881210D01*
X16711683Y-25883895D01*
X16711682Y-25883895D01*
X16549280Y-25956201D01*
X16549278Y-25956202D01*
X16543250Y-25958886D01*
X16537909Y-25962766D01*
X16537908Y-25962767D01*
X16394093Y-26067254D01*
X16394091Y-26067256D01*
X16388749Y-26071137D01*
X16384328Y-26076047D01*
X16384327Y-26076048D01*
X16293133Y-26177330D01*
X16260963Y-26213058D01*
X16165476Y-26378446D01*
X16140957Y-26453907D01*
X16112685Y-26540922D01*
X16106462Y-26560073D01*
X16105772Y-26566636D01*
X16105772Y-26566637D01*
X16098811Y-26632864D01*
X16086500Y-26750000D01*
X16087190Y-26756565D01*
X16089913Y-26782468D01*
X16106462Y-26939927D01*
X16108502Y-26946205D01*
X16108502Y-26946206D01*
X16120230Y-26982300D01*
X16165476Y-27121554D01*
X16168779Y-27127276D01*
X16168780Y-27127277D01*
X16188714Y-27161803D01*
X16260963Y-27286942D01*
X16265381Y-27291849D01*
X16265382Y-27291850D01*
X16334137Y-27368210D01*
X16364855Y-27432217D01*
X16366501Y-27452520D01*
X16366500Y-34381617D01*
X16365986Y-34392521D01*
X16364334Y-34399912D01*
X16364583Y-34407837D01*
X16364583Y-34407838D01*
X16366438Y-34466853D01*
X16366500Y-34470811D01*
X16366500Y-34499577D01*
X16367041Y-34503856D01*
X16367973Y-34515696D01*
X16369362Y-34559883D01*
X16371572Y-34567491D01*
X16371573Y-34567496D01*
X16375013Y-34579338D01*
X16379021Y-34598692D01*
X16381560Y-34618787D01*
X16384477Y-34626155D01*
X16384479Y-34626162D01*
X16397837Y-34659900D01*
X16401682Y-34671130D01*
X16404030Y-34679210D01*
X16414014Y-34713578D01*
X16418049Y-34720400D01*
X16424324Y-34731011D01*
X16433018Y-34748758D01*
X16440478Y-34767599D01*
X16445137Y-34774011D01*
X16445140Y-34774017D01*
X16466468Y-34803372D01*
X16472985Y-34813294D01*
X16492471Y-34846242D01*
X16495487Y-34851341D01*
X16495855Y-34851759D01*
X16509938Y-34865842D01*
X16522778Y-34880875D01*
X16534554Y-34897083D01*
X16568335Y-34925029D01*
X16577115Y-34933019D01*
X19773514Y-38129418D01*
X19807540Y-38191730D01*
X19807801Y-38244064D01*
X19799977Y-38281848D01*
X19784874Y-38354777D01*
X19778993Y-38579336D01*
X19785995Y-38625091D01*
X19812078Y-38795542D01*
X19812972Y-38801387D01*
X19814789Y-38806694D01*
X19883206Y-39006524D01*
X19885735Y-39013912D01*
X19994984Y-39210192D01*
X19998535Y-39214530D01*
X19998538Y-39214535D01*
X20060672Y-39290448D01*
X20137264Y-39384025D01*
X20141527Y-39387666D01*
X20141532Y-39387671D01*
X20273417Y-39500311D01*
X20308078Y-39529914D01*
X20324168Y-39539316D01*
X20497181Y-39640417D01*
X20497184Y-39640418D01*
X20502028Y-39643249D01*
X20507298Y-39645178D01*
X20507299Y-39645178D01*
X20707718Y-39718521D01*
X20707722Y-39718522D01*
X20712982Y-39720447D01*
X20718499Y-39721410D01*
X20718503Y-39721411D01*
X20899037Y-39752919D01*
X20934273Y-39759069D01*
X20939879Y-39759040D01*
X20939883Y-39759040D01*
X21042937Y-39758500D01*
X21158906Y-39757893D01*
X21167113Y-39756372D01*
X21374260Y-39717979D01*
X21374259Y-39717979D01*
X21379780Y-39716956D01*
X21386307Y-39714490D01*
X21482670Y-39678077D01*
X21589914Y-39637553D01*
X21595477Y-39634224D01*
X21681973Y-39582457D01*
X21782667Y-39522193D01*
X21951944Y-39374523D01*
X22092396Y-39199210D01*
X22199583Y-39001796D01*
X22270117Y-38788521D01*
X22301768Y-38566126D01*
X22302718Y-38529867D01*
X22303405Y-38503631D01*
X22303405Y-38503629D01*
X22303500Y-38500000D01*
X22283531Y-38276253D01*
X22224256Y-38059579D01*
X22181833Y-37970636D01*
X22129965Y-37861893D01*
X22129964Y-37861892D01*
X22127548Y-37856826D01*
X22040852Y-37736176D01*
X21999740Y-37678963D01*
X21999738Y-37678961D01*
X21996463Y-37674403D01*
X21835146Y-37518076D01*
X21648696Y-37392787D01*
X21590839Y-37367390D01*
X21536506Y-37321696D01*
X21515501Y-37253877D01*
X21534495Y-37185469D01*
X21586245Y-37138939D01*
X21589914Y-37137553D01*
X21782667Y-37022193D01*
X21951944Y-36874523D01*
X22092396Y-36699210D01*
X22199583Y-36501796D01*
X22270117Y-36288521D01*
X22301768Y-36066126D01*
X22303500Y-36000000D01*
X22283531Y-35776253D01*
X22224256Y-35559579D01*
X22195495Y-35499279D01*
X22129965Y-35361893D01*
X22129964Y-35361892D01*
X22127548Y-35356826D01*
X22122507Y-35349811D01*
X21999740Y-35178963D01*
X21999738Y-35178961D01*
X21996463Y-35174403D01*
X21910921Y-35091507D01*
X21875921Y-35029737D01*
X21879873Y-34958850D01*
X21915776Y-34906075D01*
X21947713Y-34878215D01*
X21947719Y-34878209D01*
X21951944Y-34874523D01*
X22092396Y-34699210D01*
X22199583Y-34501796D01*
X22264229Y-34306324D01*
X22268354Y-34293852D01*
X22268354Y-34293851D01*
X22270117Y-34288521D01*
X22301768Y-34066126D01*
X22303500Y-34000000D01*
X22283531Y-33776253D01*
X22224256Y-33559579D01*
X22220648Y-33552013D01*
X22129965Y-33361893D01*
X22129964Y-33361892D01*
X22127548Y-33356826D01*
X22094084Y-33310256D01*
X21999740Y-33178963D01*
X21999738Y-33178961D01*
X21996463Y-33174403D01*
X21885148Y-33066531D01*
X21839174Y-33021979D01*
X21839171Y-33021977D01*
X21835146Y-33018076D01*
X21648696Y-32892787D01*
X21590239Y-32867126D01*
X21535905Y-32821431D01*
X21514900Y-32753613D01*
X21533894Y-32685205D01*
X21586046Y-32638314D01*
X21594512Y-32634221D01*
X21716910Y-32560967D01*
X21726479Y-32550610D01*
X21722936Y-32542146D01*
X20681922Y-31501132D01*
X21404408Y-31501132D01*
X21404539Y-31502965D01*
X21408790Y-31509580D01*
X22081337Y-32182127D01*
X22093717Y-32188887D01*
X22099981Y-32184198D01*
X22196449Y-32006524D01*
X22200883Y-31996278D01*
X22267870Y-31793729D01*
X22270420Y-31782856D01*
X22300758Y-31569692D01*
X22301364Y-31562474D01*
X22302905Y-31503632D01*
X22302677Y-31496379D01*
X22283538Y-31281937D01*
X22281556Y-31270923D01*
X22225267Y-31065165D01*
X22221373Y-31054692D01*
X22129533Y-30862146D01*
X22123841Y-30852523D01*
X22102154Y-30822341D01*
X22091363Y-30813929D01*
X22078327Y-30820883D01*
X21412022Y-31487188D01*
X21404408Y-31501132D01*
X20681922Y-31501132D01*
X20001770Y-30820980D01*
X19989390Y-30814220D01*
X19981418Y-30820188D01*
X19917640Y-30921859D01*
X19912567Y-30931815D01*
X19832998Y-31129747D01*
X19829767Y-31140447D01*
X19786508Y-31349337D01*
X19785223Y-31360444D01*
X19780425Y-31543672D01*
X19758646Y-31611246D01*
X19703792Y-31656319D01*
X19633278Y-31664579D01*
X19565373Y-31629469D01*
X18920405Y-30984501D01*
X18886379Y-30922189D01*
X18883500Y-30895406D01*
X18883500Y-30447389D01*
X20351943Y-30447389D01*
X20358576Y-30459366D01*
X21027188Y-31127978D01*
X21041132Y-31135592D01*
X21042965Y-31135461D01*
X21049580Y-31131210D01*
X21718844Y-30461946D01*
X21725068Y-30450548D01*
X21715257Y-30438114D01*
X21653115Y-30396357D01*
X21643315Y-30390969D01*
X21447988Y-30305225D01*
X21437389Y-30301658D01*
X21229960Y-30251859D01*
X21218898Y-30250226D01*
X21005935Y-30237946D01*
X20994751Y-30238298D01*
X20782981Y-30263926D01*
X20772044Y-30266250D01*
X20568148Y-30328976D01*
X20557804Y-30333197D01*
X20368235Y-30431042D01*
X20360117Y-30436194D01*
X20351943Y-30447389D01*
X18883500Y-30447389D01*
X18883500Y-29589830D01*
X22524570Y-29589830D01*
X22534334Y-29602226D01*
X22739855Y-29740850D01*
X22747451Y-29745236D01*
X22991959Y-29864491D01*
X23000106Y-29867782D01*
X23258833Y-29951848D01*
X23267334Y-29953967D01*
X23535255Y-30001210D01*
X23543981Y-30002127D01*
X23815859Y-30011621D01*
X23824622Y-30011315D01*
X24095180Y-29982878D01*
X24103825Y-29981353D01*
X24367776Y-29915543D01*
X24376134Y-29912828D01*
X24628361Y-29810920D01*
X24636253Y-29807071D01*
X24871844Y-29671053D01*
X24879120Y-29666145D01*
X24964671Y-29599307D01*
X24973139Y-29587495D01*
X24966602Y-29575812D01*
X23762812Y-28372022D01*
X23748868Y-28364408D01*
X23747035Y-28364539D01*
X23740420Y-28368790D01*
X22530813Y-29578397D01*
X22524570Y-29589830D01*
X18883500Y-29589830D01*
X18883500Y-27863977D01*
X21741904Y-27863977D01*
X21741904Y-28136023D01*
X21742516Y-28144772D01*
X21780377Y-28414173D01*
X21782201Y-28422753D01*
X21857187Y-28684260D01*
X21860186Y-28692501D01*
X21970841Y-28941036D01*
X21974953Y-28948770D01*
X22119118Y-29179482D01*
X22124277Y-29186582D01*
X22149101Y-29216166D01*
X22161795Y-29224612D01*
X22172297Y-29218493D01*
X23377978Y-28012812D01*
X23385592Y-27998868D01*
X23385461Y-27997035D01*
X23381210Y-27990420D01*
X22173558Y-26782768D01*
X22160173Y-26775459D01*
X22150247Y-26782468D01*
X22124277Y-26813418D01*
X22119118Y-26820518D01*
X21974953Y-27051230D01*
X21970841Y-27058964D01*
X21860186Y-27307499D01*
X21857187Y-27315740D01*
X21782201Y-27577247D01*
X21780377Y-27585827D01*
X21742516Y-27855228D01*
X21741904Y-27863977D01*
X18883500Y-27863977D01*
X18883500Y-26408690D01*
X22524711Y-26408690D01*
X22531931Y-26422721D01*
X23737188Y-27627978D01*
X23751132Y-27635592D01*
X23752965Y-27635461D01*
X23759580Y-27631210D01*
X24966133Y-26424657D01*
X24973101Y-26411897D01*
X24965190Y-26401099D01*
X24879120Y-26333855D01*
X24871844Y-26328947D01*
X24636253Y-26192929D01*
X24628361Y-26189080D01*
X24376134Y-26087172D01*
X24367776Y-26084457D01*
X24103825Y-26018647D01*
X24095180Y-26017122D01*
X23824622Y-25988685D01*
X23815859Y-25988379D01*
X23543981Y-25997873D01*
X23535255Y-25998790D01*
X23267334Y-26046033D01*
X23258833Y-26048152D01*
X23000106Y-26132218D01*
X22991959Y-26135509D01*
X22747451Y-26254764D01*
X22739855Y-26259150D01*
X22533018Y-26398662D01*
X22524711Y-26408690D01*
X18883500Y-26408690D01*
X18883500Y-21089830D01*
X22524570Y-21089830D01*
X22534334Y-21102226D01*
X22739855Y-21240850D01*
X22747451Y-21245236D01*
X22991959Y-21364491D01*
X23000106Y-21367782D01*
X23258833Y-21451848D01*
X23267334Y-21453967D01*
X23535255Y-21501210D01*
X23543981Y-21502127D01*
X23815859Y-21511621D01*
X23824622Y-21511315D01*
X24095180Y-21482878D01*
X24103825Y-21481353D01*
X24367776Y-21415543D01*
X24376134Y-21412828D01*
X24628361Y-21310920D01*
X24636253Y-21307071D01*
X24871844Y-21171053D01*
X24879120Y-21166145D01*
X24964671Y-21099307D01*
X24973139Y-21087495D01*
X24966602Y-21075812D01*
X23762812Y-19872022D01*
X23748868Y-19864408D01*
X23747035Y-19864539D01*
X23740420Y-19868790D01*
X22530813Y-21078397D01*
X22524570Y-21089830D01*
X18883500Y-21089830D01*
X18883500Y-19363977D01*
X21741904Y-19363977D01*
X21741904Y-19636023D01*
X21742516Y-19644772D01*
X21780377Y-19914173D01*
X21782201Y-19922753D01*
X21857187Y-20184260D01*
X21860186Y-20192501D01*
X21970841Y-20441036D01*
X21974953Y-20448770D01*
X22119118Y-20679482D01*
X22124277Y-20686582D01*
X22149101Y-20716166D01*
X22161795Y-20724612D01*
X22172297Y-20718493D01*
X23377978Y-19512812D01*
X23385592Y-19498868D01*
X23385461Y-19497035D01*
X23381210Y-19490420D01*
X22173558Y-18282768D01*
X22160173Y-18275459D01*
X22150247Y-18282468D01*
X22124277Y-18313418D01*
X22119118Y-18320518D01*
X21974953Y-18551230D01*
X21970841Y-18558964D01*
X21860186Y-18807499D01*
X21857187Y-18815740D01*
X21782201Y-19077247D01*
X21780377Y-19085827D01*
X21742516Y-19355228D01*
X21741904Y-19363977D01*
X18883500Y-19363977D01*
X18883500Y-17908690D01*
X22524711Y-17908690D01*
X22531931Y-17922721D01*
X23737188Y-19127978D01*
X23751132Y-19135592D01*
X23752965Y-19135461D01*
X23759580Y-19131210D01*
X24966133Y-17924657D01*
X24973101Y-17911897D01*
X24965190Y-17901099D01*
X24879120Y-17833855D01*
X24871844Y-17828947D01*
X24636253Y-17692929D01*
X24628361Y-17689080D01*
X24376134Y-17587172D01*
X24367776Y-17584457D01*
X24103825Y-17518647D01*
X24095180Y-17517122D01*
X23824622Y-17488685D01*
X23815859Y-17488379D01*
X23543981Y-17497873D01*
X23535255Y-17498790D01*
X23267334Y-17546033D01*
X23258833Y-17548152D01*
X23000106Y-17632218D01*
X22991959Y-17635509D01*
X22747451Y-17754764D01*
X22739855Y-17759150D01*
X22533018Y-17898662D01*
X22524711Y-17908690D01*
X18883500Y-17908690D01*
X18883500Y-14578383D01*
X18884014Y-14567479D01*
X18885666Y-14560088D01*
X18883562Y-14493146D01*
X18883500Y-14489189D01*
X18883500Y-14460422D01*
X18882959Y-14456137D01*
X18882026Y-14444296D01*
X18880887Y-14408036D01*
X18880887Y-14408035D01*
X18880638Y-14400116D01*
X18878428Y-14392508D01*
X18878427Y-14392503D01*
X18874987Y-14380661D01*
X18870979Y-14361307D01*
X18869434Y-14349079D01*
X18868440Y-14341212D01*
X18865522Y-14333842D01*
X18865521Y-14333838D01*
X18855852Y-14309417D01*
X18849373Y-14238717D01*
X18882146Y-14175737D01*
X18943765Y-14140473D01*
X18974595Y-14137337D01*
X18979944Y-14138184D01*
X18987836Y-14137438D01*
X18987837Y-14137438D01*
X19023582Y-14134059D01*
X19035440Y-14133500D01*
X19878226Y-14133500D01*
X19946347Y-14153502D01*
X19988321Y-14198222D01*
X19992252Y-14205284D01*
X19994984Y-14210192D01*
X19998535Y-14214530D01*
X19998538Y-14214535D01*
X20102222Y-14341212D01*
X20137264Y-14384025D01*
X20141527Y-14387666D01*
X20141532Y-14387671D01*
X20226713Y-14460422D01*
X20308078Y-14529914D01*
X20476268Y-14628196D01*
X20502028Y-14643249D01*
X20500732Y-14645468D01*
X20545718Y-14685453D01*
X20564859Y-14753820D01*
X20543999Y-14821683D01*
X20496660Y-14864196D01*
X20362983Y-14933192D01*
X20358535Y-14936605D01*
X20303593Y-14978763D01*
X20184767Y-15069941D01*
X20033584Y-15236089D01*
X20030602Y-15240843D01*
X19944564Y-15378000D01*
X19914213Y-15426383D01*
X19830427Y-15634808D01*
X19784874Y-15854777D01*
X19778993Y-16079336D01*
X19782137Y-16099883D01*
X19809630Y-16279545D01*
X19812972Y-16301387D01*
X19814789Y-16306694D01*
X19883206Y-16506524D01*
X19885735Y-16513912D01*
X19994984Y-16710192D01*
X19998535Y-16714530D01*
X19998538Y-16714535D01*
X20080436Y-16814595D01*
X20137264Y-16884025D01*
X20141527Y-16887666D01*
X20141532Y-16887671D01*
X20224698Y-16958701D01*
X20308078Y-17029914D01*
X20324168Y-17039316D01*
X20497181Y-17140417D01*
X20497184Y-17140418D01*
X20502028Y-17143249D01*
X20507298Y-17145178D01*
X20507299Y-17145178D01*
X20707718Y-17218521D01*
X20707722Y-17218522D01*
X20712982Y-17220447D01*
X20718499Y-17221410D01*
X20718503Y-17221411D01*
X20899037Y-17252919D01*
X20934273Y-17259069D01*
X20939879Y-17259040D01*
X20939883Y-17259040D01*
X21042937Y-17258500D01*
X21158906Y-17257893D01*
X21167113Y-17256372D01*
X21374260Y-17217979D01*
X21374259Y-17217979D01*
X21379780Y-17216956D01*
X21386307Y-17214490D01*
X21519273Y-17164246D01*
X21589914Y-17137553D01*
X21595477Y-17134224D01*
X21660109Y-17095542D01*
X21782667Y-17022193D01*
X21951944Y-16874523D01*
X22092396Y-16699210D01*
X22199583Y-16501796D01*
X22270117Y-16288521D01*
X22301768Y-16066126D01*
X22302793Y-16026981D01*
X22303405Y-16003631D01*
X22303405Y-16003629D01*
X22303500Y-16000000D01*
X22301314Y-15975500D01*
X22291742Y-15868255D01*
X22283531Y-15776253D01*
X22224256Y-15559579D01*
X22218017Y-15546497D01*
X22129965Y-15361893D01*
X22129964Y-15361892D01*
X22127548Y-15356826D01*
X22095818Y-15312669D01*
X21999740Y-15178963D01*
X21999738Y-15178961D01*
X21996463Y-15174403D01*
X21835146Y-15018076D01*
X21648696Y-14892787D01*
X21590839Y-14867390D01*
X21536506Y-14821696D01*
X21515501Y-14753877D01*
X21534495Y-14685469D01*
X21586245Y-14638939D01*
X21589914Y-14637553D01*
X21600513Y-14631210D01*
X21769766Y-14529914D01*
X21782667Y-14522193D01*
X21951944Y-14374523D01*
X22092396Y-14199210D01*
X22199583Y-14001796D01*
X22270117Y-13788521D01*
X22301768Y-13566126D01*
X22302279Y-13546626D01*
X22303405Y-13503631D01*
X22303405Y-13503629D01*
X22303500Y-13500000D01*
X22283531Y-13276253D01*
X22224256Y-13059579D01*
X22180697Y-12968254D01*
X22129965Y-12861893D01*
X22129964Y-12861892D01*
X22127548Y-12856826D01*
X22124270Y-12852264D01*
X21999740Y-12678963D01*
X21999738Y-12678961D01*
X21996463Y-12674403D01*
X21910921Y-12591507D01*
X21875921Y-12529737D01*
X21879873Y-12458850D01*
X21915776Y-12406075D01*
X21947713Y-12378215D01*
X21947719Y-12378209D01*
X21951944Y-12374523D01*
X22092396Y-12199210D01*
X22199583Y-12001796D01*
X22270117Y-11788521D01*
X22301768Y-11566126D01*
X22303500Y-11500000D01*
X22283531Y-11276253D01*
X22224256Y-11059579D01*
X22206704Y-11022779D01*
X22129965Y-10861893D01*
X22129964Y-10861892D01*
X22127548Y-10856826D01*
X22092073Y-10807457D01*
X21999740Y-10678963D01*
X21999738Y-10678961D01*
X21996463Y-10674403D01*
X21835146Y-10518076D01*
X21648696Y-10392787D01*
X21590239Y-10367126D01*
X21535905Y-10321431D01*
X21514900Y-10253613D01*
X21533894Y-10185205D01*
X21586046Y-10138314D01*
X21594512Y-10134221D01*
X21716910Y-10060967D01*
X21726479Y-10050610D01*
X21722936Y-10042146D01*
X21052812Y-9372022D01*
X21038868Y-9364408D01*
X21037035Y-9364539D01*
X21030420Y-9368790D01*
X20359894Y-10039316D01*
X20353134Y-10051696D01*
X20358415Y-10058751D01*
X20502241Y-10142797D01*
X20500983Y-10144949D01*
X20546187Y-10185017D01*
X20565421Y-10253359D01*
X20544654Y-10321250D01*
X20497219Y-10363907D01*
X20367966Y-10430620D01*
X20362983Y-10433192D01*
X20184767Y-10569941D01*
X20033584Y-10736089D01*
X20030605Y-10740838D01*
X19988815Y-10807457D01*
X19935671Y-10854534D01*
X19882078Y-10866500D01*
X4328383Y-10866500D01*
X4317479Y-10865986D01*
X4310088Y-10864334D01*
X4302162Y-10864583D01*
X4302161Y-10864583D01*
X4243134Y-10866438D01*
X4239176Y-10866500D01*
X4210422Y-10866500D01*
X4206155Y-10867039D01*
X4194313Y-10867972D01*
X4162665Y-10868967D01*
X4158040Y-10869112D01*
X4150117Y-10869361D01*
X4130667Y-10875012D01*
X4111305Y-10879022D01*
X4091212Y-10881560D01*
X4057349Y-10894967D01*
X4050108Y-10897834D01*
X4038878Y-10901679D01*
X4004034Y-10911802D01*
X4004032Y-10911803D01*
X3996421Y-10914014D01*
X3983548Y-10921627D01*
X3978989Y-10924323D01*
X3961236Y-10933020D01*
X3942400Y-10940478D01*
X3935985Y-10945139D01*
X3906626Y-10966469D01*
X3896707Y-10972984D01*
X3863758Y-10992471D01*
X3863755Y-10992473D01*
X3858659Y-10995487D01*
X3858241Y-10995855D01*
X3844158Y-11009938D01*
X3829133Y-11022772D01*
X3812917Y-11034554D01*
X3792215Y-11059579D01*
X3784971Y-11068335D01*
X3776981Y-11077115D01*
X35664Y-14818432D01*
X-26648Y-14852458D01*
X-97463Y-14847393D01*
X-136319Y-14823836D01*
X-138749Y-14821137D01*
X-144091Y-14817256D01*
X-144093Y-14817254D01*
X-287908Y-14712767D01*
X-287909Y-14712766D01*
X-293250Y-14708886D01*
X-299278Y-14706202D01*
X-299280Y-14706201D01*
X-461682Y-14633895D01*
X-461683Y-14633895D01*
X-467713Y-14631210D01*
X-561113Y-14611357D01*
X-648056Y-14592876D01*
X-648061Y-14592876D01*
X-654513Y-14591504D01*
X-845487Y-14591504D01*
X-851939Y-14592876D01*
X-851944Y-14592876D01*
X-938887Y-14611357D01*
X-1032287Y-14631210D01*
X-1038317Y-14633895D01*
X-1038318Y-14633895D01*
X-1200720Y-14706201D01*
X-1200722Y-14706202D01*
X-1206750Y-14708886D01*
X-1212091Y-14712766D01*
X-1212092Y-14712767D01*
X-1355907Y-14817254D01*
X-1355909Y-14817256D01*
X-1361251Y-14821137D01*
X-1365672Y-14826047D01*
X-1365673Y-14826048D01*
X-1466577Y-14938114D01*
X-1489037Y-14963058D01*
X-1584524Y-15128446D01*
X-1643538Y-15310073D01*
X-1644228Y-15316636D01*
X-1644228Y-15316637D01*
X-1659439Y-15461358D01*
X-1663500Y-15500000D01*
X-1643538Y-15689927D01*
X-1641498Y-15696205D01*
X-1641498Y-15696206D01*
X-1627521Y-15739223D01*
X-1584524Y-15871554D01*
X-1581221Y-15877276D01*
X-1581220Y-15877277D01*
X-1540481Y-15947838D01*
X-1489037Y-16036942D01*
X-1484619Y-16041849D01*
X-1484618Y-16041850D01*
X-1465863Y-16062679D01*
X-1435146Y-16126686D01*
X-1433499Y-16146990D01*
X-1433500Y-16660500D01*
X-1453502Y-16728621D01*
X-1507158Y-16775114D01*
X-1559500Y-16786500D01*
X-1875000Y-16786500D01*
X-1948079Y-16791727D01*
X-1967985Y-16797572D01*
X-2021412Y-16801393D01*
X-2120552Y-16787139D01*
X-2120559Y-16787138D01*
X-2125000Y-16786500D01*
X-2675000Y-16786500D01*
X-2748079Y-16791727D01*
X-2767985Y-16797572D01*
X-2821412Y-16801393D01*
X-2920552Y-16787139D01*
X-2920559Y-16787138D01*
X-2925000Y-16786500D01*
X-3240500Y-16786500D01*
X-3308621Y-16766498D01*
X-3355114Y-16712842D01*
X-3366500Y-16660500D01*
X-3366500Y-16578383D01*
X-3365986Y-16567479D01*
X-3364334Y-16560088D01*
X-3365227Y-16531658D01*
X-3366438Y-16493147D01*
X-3366500Y-16489189D01*
X-3366500Y-16460422D01*
X-3367040Y-16456148D01*
X-3367974Y-16444296D01*
X-3368200Y-16437083D01*
X-3369362Y-16400117D01*
X-3375014Y-16380661D01*
X-3379019Y-16361321D01*
X-3381560Y-16341212D01*
X-3384479Y-16333840D01*
X-3384480Y-16333835D01*
X-3397836Y-16300101D01*
X-3401681Y-16288872D01*
X-3411803Y-16254031D01*
X-3411803Y-16254030D01*
X-3414014Y-16246421D01*
X-3424324Y-16228988D01*
X-3433018Y-16211241D01*
X-3440478Y-16192400D01*
X-3466467Y-16156629D01*
X-3472983Y-16146710D01*
X-3492457Y-16113782D01*
X-3495487Y-16108658D01*
X-3495855Y-16108241D01*
X-3509938Y-16094158D01*
X-3522772Y-16079133D01*
X-3534554Y-16062917D01*
X-3568336Y-16034970D01*
X-3577115Y-16026981D01*
X-3829595Y-15774501D01*
X-3863621Y-15712189D01*
X-3866500Y-15685406D01*
X-3866500Y-15678478D01*
X-3846498Y-15610357D01*
X-3792842Y-15563864D01*
X-3783495Y-15560041D01*
X-3708137Y-15532687D01*
X-3702016Y-15528674D01*
X-3702014Y-15528673D01*
X-3624665Y-15477961D01*
X-3560253Y-15435731D01*
X-3438642Y-15307355D01*
X-3349825Y-15154445D01*
X-3298567Y-14985204D01*
X-3294364Y-14938114D01*
X-3291749Y-14908815D01*
X-3291749Y-14908809D01*
X-3291500Y-14906022D01*
X-3291500Y-14157115D01*
X-3306978Y-14024358D01*
X-3310769Y-14013912D01*
X-3364816Y-13865016D01*
X-3367313Y-13858137D01*
X-3464269Y-13710254D01*
X-3590738Y-13590449D01*
X-3626435Y-13529081D01*
X-3623288Y-13458154D01*
X-3582294Y-13400188D01*
X-3573171Y-13393606D01*
X-3566693Y-13389359D01*
X-3555542Y-13380035D01*
X-3444078Y-13262371D01*
X-3435365Y-13250724D01*
X-3353957Y-13110571D01*
X-3348163Y-13097246D01*
X-3300932Y-12941300D01*
X-3298484Y-12928677D01*
X-3292249Y-12858816D01*
X-3292000Y-12853221D01*
X-3292000Y-12747115D01*
X-3296475Y-12731876D01*
X-3297865Y-12730671D01*
X-3305548Y-12729000D01*
X-4245998Y-12728999D01*
X-4246004Y-12729000D01*
X-5689885Y-12728999D01*
X-5705124Y-12733474D01*
X-5706329Y-12734864D01*
X-5708000Y-12742547D01*
X-5708000Y-12839222D01*
X-5707576Y-12846523D01*
X-5693383Y-12968254D01*
X-5690037Y-12982409D01*
X-5634737Y-13134760D01*
X-5628227Y-13147759D01*
X-5539362Y-13283300D01*
X-5530033Y-13294458D01*
X-5409206Y-13408919D01*
X-5373508Y-13470289D01*
X-5376656Y-13541215D01*
X-5417650Y-13599181D01*
X-5426772Y-13605763D01*
X-5439747Y-13614269D01*
X-5444781Y-13619583D01*
X-5456016Y-13631443D01*
X-5561358Y-13742645D01*
X-5650175Y-13895555D01*
X-5701433Y-14064796D01*
X-5702008Y-14071236D01*
X-5702008Y-14071237D01*
X-5707916Y-14137438D01*
X-5708500Y-14143978D01*
X-5708500Y-14892885D01*
X-5693022Y-15025642D01*
X-5690526Y-15032520D01*
X-5690525Y-15032522D01*
X-5635184Y-15184984D01*
X-5632687Y-15191863D01*
X-5606409Y-15231943D01*
X-5548034Y-15320980D01*
X-5535731Y-15339746D01*
X-5407355Y-15461358D01*
X-5254445Y-15550175D01*
X-5247438Y-15552297D01*
X-5247434Y-15552299D01*
X-5222977Y-15559706D01*
X-5163579Y-15598595D01*
X-5134635Y-15663424D01*
X-5133500Y-15680296D01*
X-5133500Y-15921617D01*
X-5134014Y-15932521D01*
X-5135666Y-15939912D01*
X-5135417Y-15947837D01*
X-5135417Y-15947838D01*
X-5133562Y-16006853D01*
X-5133500Y-16010811D01*
X-5133500Y-16039577D01*
X-5132959Y-16043856D01*
X-5132027Y-16055696D01*
X-5130638Y-16099883D01*
X-5128428Y-16107491D01*
X-5128427Y-16107496D01*
X-5124987Y-16119338D01*
X-5120979Y-16138692D01*
X-5119434Y-16150920D01*
X-5118440Y-16158787D01*
X-5115523Y-16166155D01*
X-5115521Y-16166162D01*
X-5102163Y-16199900D01*
X-5098318Y-16211130D01*
X-5085986Y-16253578D01*
X-5081951Y-16260400D01*
X-5075676Y-16271011D01*
X-5066982Y-16288758D01*
X-5059522Y-16307599D01*
X-5054863Y-16314011D01*
X-5054860Y-16314017D01*
X-5033532Y-16343372D01*
X-5027015Y-16353294D01*
X-5007529Y-16386242D01*
X-5004513Y-16391341D01*
X-5004145Y-16391759D01*
X-4990062Y-16405842D01*
X-4977222Y-16420875D01*
X-4965446Y-16437083D01*
X-4940161Y-16458000D01*
X-4931666Y-16465028D01*
X-4922886Y-16473018D01*
X-4670404Y-16725500D01*
X-4636378Y-16787812D01*
X-4633499Y-16814595D01*
X-4633499Y-16890580D01*
X-4653501Y-16958701D01*
X-4664274Y-16973092D01*
X-4706984Y-17022381D01*
X-4710728Y-17030579D01*
X-4760889Y-17140417D01*
X-4767700Y-17155330D01*
X-4768982Y-17164245D01*
X-4768982Y-17164246D01*
X-4787861Y-17295552D01*
X-4787862Y-17295559D01*
X-4788500Y-17300000D01*
X-4788500Y-18800000D01*
X-4788339Y-18802247D01*
X-4788339Y-18802255D01*
X-4786306Y-18830683D01*
X-4801398Y-18900057D01*
X-4851601Y-18950258D01*
X-4920975Y-18965349D01*
X-4929919Y-18964387D01*
X-4945546Y-18962140D01*
X-4945551Y-18962140D01*
X-4950000Y-18961500D01*
X-6450000Y-18961500D01*
X-6523079Y-18966727D01*
X-6576116Y-18982300D01*
X-6654670Y-19005365D01*
X-6654672Y-19005366D01*
X-6663316Y-19007904D01*
X-6670894Y-19012774D01*
X-6670896Y-19012775D01*
X-6689227Y-19024556D01*
X-6757348Y-19044558D01*
X-6825469Y-19024556D01*
X-6846443Y-19007653D01*
X-8579595Y-17274501D01*
X-8613621Y-17212189D01*
X-8616500Y-17185406D01*
X-8616500Y-12096779D01*
X-5708000Y-12096779D01*
X-5708000Y-12202885D01*
X-5703525Y-12218124D01*
X-5702135Y-12219329D01*
X-5694452Y-12221000D01*
X-4772115Y-12221001D01*
X-4756876Y-12216526D01*
X-4755671Y-12215136D01*
X-4754000Y-12207453D01*
X-4754000Y-12202885D01*
X-4246001Y-12202885D01*
X-4241526Y-12218124D01*
X-4240136Y-12219329D01*
X-4232453Y-12221000D01*
X-3310115Y-12221001D01*
X-3294876Y-12216526D01*
X-3293671Y-12215136D01*
X-3292000Y-12207453D01*
X-3292000Y-12110778D01*
X-3292424Y-12103477D01*
X-3306617Y-11981746D01*
X-3309963Y-11967591D01*
X-3365263Y-11815240D01*
X-3371773Y-11802241D01*
X-3460638Y-11666700D01*
X-3469971Y-11655537D01*
X-3587628Y-11544079D01*
X-3599275Y-11535365D01*
X-3739429Y-11453957D01*
X-3752754Y-11448163D01*
X-3908700Y-11400932D01*
X-3921323Y-11398484D01*
X-3991184Y-11392249D01*
X-3996779Y-11392000D01*
X-4227885Y-11392000D01*
X-4243124Y-11396475D01*
X-4244329Y-11397865D01*
X-4246000Y-11405548D01*
X-4246001Y-12202885D01*
X-4754000Y-12202885D01*
X-4753999Y-11410115D01*
X-4758474Y-11394876D01*
X-4759864Y-11393671D01*
X-4767547Y-11392000D01*
X-4989222Y-11392000D01*
X-4996523Y-11392424D01*
X-5118254Y-11406617D01*
X-5132409Y-11409963D01*
X-5284760Y-11465263D01*
X-5297759Y-11471773D01*
X-5433307Y-11560641D01*
X-5444458Y-11569965D01*
X-5555922Y-11687629D01*
X-5564635Y-11699276D01*
X-5646043Y-11839429D01*
X-5651837Y-11852754D01*
X-5699068Y-12008700D01*
X-5701516Y-12021323D01*
X-5707751Y-12091184D01*
X-5708000Y-12096779D01*
X-8616500Y-12096779D01*
X-8616500Y-9073698D01*
X19779639Y-9073698D01*
X19780341Y-9084850D01*
X19812608Y-9295717D01*
X19815275Y-9306578D01*
X19884375Y-9508400D01*
X19888923Y-9518614D01*
X19977819Y-9678330D01*
X19987872Y-9688221D01*
X19995475Y-9685315D01*
X20667978Y-9012812D01*
X20674355Y-9001132D01*
X21404408Y-9001132D01*
X21404539Y-9002965D01*
X21408790Y-9009580D01*
X22081337Y-9682127D01*
X22093717Y-9688887D01*
X22099981Y-9684198D01*
X22196449Y-9506524D01*
X22200883Y-9496278D01*
X22267870Y-9293729D01*
X22270420Y-9282856D01*
X22300758Y-9069692D01*
X22301364Y-9062474D01*
X22302905Y-9003632D01*
X22302677Y-8996379D01*
X22283538Y-8781937D01*
X22281556Y-8770923D01*
X22225267Y-8565165D01*
X22221373Y-8554692D01*
X22129533Y-8362146D01*
X22123841Y-8352523D01*
X22102154Y-8322341D01*
X22091363Y-8313929D01*
X22078327Y-8320883D01*
X21412022Y-8987188D01*
X21404408Y-9001132D01*
X20674355Y-9001132D01*
X20675592Y-8998868D01*
X20675461Y-8997035D01*
X20671210Y-8990420D01*
X20001770Y-8320980D01*
X19989390Y-8314220D01*
X19981418Y-8320188D01*
X19917640Y-8421859D01*
X19912567Y-8431815D01*
X19832998Y-8629747D01*
X19829767Y-8640447D01*
X19786508Y-8849337D01*
X19785223Y-8860444D01*
X19779639Y-9073698D01*
X-8616500Y-9073698D01*
X-8616500Y-7947389D01*
X20351943Y-7947389D01*
X20358576Y-7959366D01*
X21027188Y-8627978D01*
X21041132Y-8635592D01*
X21042965Y-8635461D01*
X21049580Y-8631210D01*
X21718844Y-7961946D01*
X21725068Y-7950548D01*
X21715257Y-7938114D01*
X21653115Y-7896357D01*
X21643315Y-7890969D01*
X21447988Y-7805225D01*
X21437389Y-7801658D01*
X21229960Y-7751859D01*
X21218898Y-7750226D01*
X21005935Y-7737946D01*
X20994751Y-7738298D01*
X20782981Y-7763926D01*
X20772044Y-7766250D01*
X20568148Y-7828976D01*
X20557804Y-7833197D01*
X20368235Y-7931042D01*
X20360117Y-7936194D01*
X20351943Y-7947389D01*
X-8616500Y-7947389D01*
X-8616500Y-7089830D01*
X22524570Y-7089830D01*
X22534334Y-7102226D01*
X22739855Y-7240850D01*
X22747451Y-7245236D01*
X22991959Y-7364491D01*
X23000106Y-7367782D01*
X23258833Y-7451848D01*
X23267334Y-7453967D01*
X23535255Y-7501210D01*
X23543981Y-7502127D01*
X23815859Y-7511621D01*
X23824622Y-7511315D01*
X24095180Y-7482878D01*
X24103825Y-7481353D01*
X24367776Y-7415543D01*
X24376134Y-7412828D01*
X24628361Y-7310920D01*
X24636253Y-7307071D01*
X24871844Y-7171053D01*
X24879120Y-7166145D01*
X24964671Y-7099307D01*
X24973139Y-7087495D01*
X24966602Y-7075812D01*
X23762812Y-5872022D01*
X23748868Y-5864408D01*
X23747035Y-5864539D01*
X23740420Y-5868790D01*
X22530813Y-7078397D01*
X22524570Y-7089830D01*
X-8616500Y-7089830D01*
X-8616500Y-4524594D01*
X-8596498Y-4456473D01*
X-8579595Y-4435499D01*
X-8121193Y-3977097D01*
X-8058881Y-3943071D01*
X-8010435Y-3942068D01*
X-7861251Y-3968105D01*
X-7861250Y-3968105D01*
X-7855727Y-3969069D01*
X-7850121Y-3969040D01*
X-7850117Y-3969040D01*
X-7747063Y-3968500D01*
X-7631094Y-3967893D01*
X-7625574Y-3966870D01*
X-7491201Y-3941965D01*
X-7420576Y-3949218D01*
X-7379144Y-3976760D01*
X-5963391Y-5392513D01*
X-5956031Y-5400601D01*
X-5951973Y-5406995D01*
X-5946196Y-5412420D01*
X-5903122Y-5452869D01*
X-5900280Y-5455624D01*
X-5879967Y-5475937D01*
X-5876836Y-5478366D01*
X-5876560Y-5478580D01*
X-5867540Y-5486283D01*
X-5863516Y-5490062D01*
X-5841077Y-5511134D01*
X-5841073Y-5511137D01*
X-5835301Y-5516557D01*
X-5828361Y-5520373D01*
X-5828356Y-5520376D01*
X-5817546Y-5526319D01*
X-5801026Y-5537171D01*
X-5785024Y-5549583D01*
X-5772827Y-5554861D01*
X-5744454Y-5567139D01*
X-5733792Y-5572362D01*
X-5709010Y-5585986D01*
X-5695048Y-5593662D01*
X-5687366Y-5595634D01*
X-5687365Y-5595635D01*
X-5675423Y-5598702D01*
X-5656728Y-5605102D01*
X-5638136Y-5613147D01*
X-5630307Y-5614387D01*
X-5594472Y-5620063D01*
X-5582851Y-5622470D01*
X-5545782Y-5631987D01*
X-5540025Y-5633465D01*
X-5539469Y-5633500D01*
X-5519547Y-5633500D01*
X-5499838Y-5635051D01*
X-5480056Y-5638184D01*
X-5472164Y-5637438D01*
X-5436418Y-5634059D01*
X-5424560Y-5633500D01*
X8791806Y-5633500D01*
X8859927Y-5653502D01*
X8879151Y-5669842D01*
X8879425Y-5669538D01*
X8884328Y-5673953D01*
X8888749Y-5678863D01*
X8894091Y-5682744D01*
X8894093Y-5682746D01*
X9034079Y-5784451D01*
X9043250Y-5791114D01*
X9049278Y-5793798D01*
X9049280Y-5793799D01*
X9208165Y-5864539D01*
X9217713Y-5868790D01*
X9311113Y-5888643D01*
X9398056Y-5907124D01*
X9398061Y-5907124D01*
X9404513Y-5908496D01*
X9595487Y-5908496D01*
X9601939Y-5907124D01*
X9601944Y-5907124D01*
X9688887Y-5888643D01*
X9782287Y-5868790D01*
X9791835Y-5864539D01*
X9950720Y-5793799D01*
X9950722Y-5793798D01*
X9956750Y-5791114D01*
X9965921Y-5784451D01*
X10105907Y-5682746D01*
X10105909Y-5682744D01*
X10111251Y-5678863D01*
X10115672Y-5673953D01*
X10120575Y-5669538D01*
X10121701Y-5670789D01*
X10175000Y-5637951D01*
X10208194Y-5633500D01*
X12381617Y-5633500D01*
X12392521Y-5634014D01*
X12399912Y-5635666D01*
X12407837Y-5635417D01*
X12407838Y-5635417D01*
X12466853Y-5633562D01*
X12470811Y-5633500D01*
X12499578Y-5633500D01*
X12503502Y-5633004D01*
X12503504Y-5633004D01*
X12503852Y-5632960D01*
X12515698Y-5632027D01*
X12559883Y-5630638D01*
X12579339Y-5624986D01*
X12598679Y-5620981D01*
X12618788Y-5618440D01*
X12626158Y-5615522D01*
X12626162Y-5615521D01*
X12659900Y-5602163D01*
X12671130Y-5598318D01*
X12705968Y-5588197D01*
X12705969Y-5588197D01*
X12713578Y-5585986D01*
X12731012Y-5575676D01*
X12748764Y-5566980D01*
X12760225Y-5562442D01*
X12760224Y-5562442D01*
X12767600Y-5559522D01*
X12788203Y-5544553D01*
X12803375Y-5533530D01*
X12813294Y-5527014D01*
X12824518Y-5520376D01*
X12851341Y-5504513D01*
X12851759Y-5504145D01*
X12865842Y-5490062D01*
X12880867Y-5477228D01*
X12897083Y-5465446D01*
X12925030Y-5431664D01*
X12933019Y-5422885D01*
X12991927Y-5363977D01*
X21741904Y-5363977D01*
X21741904Y-5636023D01*
X21742516Y-5644772D01*
X21780377Y-5914173D01*
X21782201Y-5922753D01*
X21857187Y-6184260D01*
X21860186Y-6192501D01*
X21970841Y-6441036D01*
X21974953Y-6448770D01*
X22119118Y-6679482D01*
X22124277Y-6686582D01*
X22149101Y-6716166D01*
X22161795Y-6724612D01*
X22172297Y-6718493D01*
X23377978Y-5512812D01*
X23385592Y-5498868D01*
X23385461Y-5497035D01*
X23381210Y-5490420D01*
X22173558Y-4282768D01*
X22160173Y-4275459D01*
X22150247Y-4282468D01*
X22124277Y-4313418D01*
X22119118Y-4320518D01*
X21974953Y-4551230D01*
X21970841Y-4558964D01*
X21860186Y-4807499D01*
X21857187Y-4815740D01*
X21782201Y-5077247D01*
X21780377Y-5085827D01*
X21742516Y-5355228D01*
X21741904Y-5363977D01*
X12991927Y-5363977D01*
X14378807Y-3977097D01*
X14441119Y-3943071D01*
X14489565Y-3942068D01*
X14638749Y-3968105D01*
X14638750Y-3968105D01*
X14644273Y-3969069D01*
X14649879Y-3969040D01*
X14649883Y-3969040D01*
X14752937Y-3968500D01*
X14868906Y-3967893D01*
X14877113Y-3966372D01*
X15008244Y-3942068D01*
X15089780Y-3926956D01*
X15095865Y-3924657D01*
X15138120Y-3908690D01*
X22524711Y-3908690D01*
X22531931Y-3922721D01*
X23737188Y-5127978D01*
X23751132Y-5135592D01*
X23752965Y-5135461D01*
X23759580Y-5131210D01*
X24966133Y-3924657D01*
X24973101Y-3911897D01*
X24965190Y-3901099D01*
X24879120Y-3833855D01*
X24871844Y-3828947D01*
X24636253Y-3692929D01*
X24628361Y-3689080D01*
X24376134Y-3587172D01*
X24367776Y-3584457D01*
X24103825Y-3518647D01*
X24095180Y-3517122D01*
X23824622Y-3488685D01*
X23815859Y-3488379D01*
X23543981Y-3497873D01*
X23535255Y-3498790D01*
X23267334Y-3546033D01*
X23258833Y-3548152D01*
X23000106Y-3632218D01*
X22991959Y-3635509D01*
X22747451Y-3754764D01*
X22739855Y-3759150D01*
X22533018Y-3898662D01*
X22524711Y-3908690D01*
X15138120Y-3908690D01*
X15279732Y-3855179D01*
X15299914Y-3847553D01*
X15305477Y-3844224D01*
X15443371Y-3761696D01*
X15492667Y-3732193D01*
X15661944Y-3584523D01*
X15802396Y-3409210D01*
X15909583Y-3211796D01*
X15980117Y-2998521D01*
X16011768Y-2776126D01*
X16012171Y-2760749D01*
X16013405Y-2713631D01*
X16013405Y-2713629D01*
X16013500Y-2710000D01*
X15993531Y-2486253D01*
X15934256Y-2269579D01*
X15919171Y-2237951D01*
X15839965Y-2071893D01*
X15839964Y-2071892D01*
X15837548Y-2066826D01*
X15834161Y-2062112D01*
X15709740Y-1888963D01*
X15709738Y-1888961D01*
X15706463Y-1884403D01*
X15562854Y-1745236D01*
X15549174Y-1731979D01*
X15549171Y-1731977D01*
X15545146Y-1728076D01*
X15358696Y-1602787D01*
X15353548Y-1600527D01*
X15329180Y-1589830D01*
X17024570Y-1589830D01*
X17034334Y-1602226D01*
X17239855Y-1740850D01*
X17247451Y-1745236D01*
X17491959Y-1864491D01*
X17500106Y-1867782D01*
X17758833Y-1951848D01*
X17767334Y-1953967D01*
X18035255Y-2001210D01*
X18043981Y-2002127D01*
X18315859Y-2011621D01*
X18324622Y-2011315D01*
X18595180Y-1982878D01*
X18603825Y-1981353D01*
X18867776Y-1915543D01*
X18876134Y-1912828D01*
X19128361Y-1810920D01*
X19136253Y-1807071D01*
X19371844Y-1671053D01*
X19379120Y-1666145D01*
X19464671Y-1599307D01*
X19473139Y-1587495D01*
X19466602Y-1575812D01*
X18262812Y-372022D01*
X18248868Y-364408D01*
X18247035Y-364539D01*
X18240420Y-368790D01*
X17030813Y-1578397D01*
X17024570Y-1589830D01*
X15329180Y-1589830D01*
X15158152Y-1514754D01*
X15158148Y-1514753D01*
X15153005Y-1512495D01*
X15147550Y-1511185D01*
X15147546Y-1511184D01*
X14940030Y-1461363D01*
X14940026Y-1461362D01*
X14934576Y-1460054D01*
X14889144Y-1457434D01*
X14715920Y-1447446D01*
X14715917Y-1447446D01*
X14710313Y-1447123D01*
X14487304Y-1474111D01*
X14481942Y-1475761D01*
X14481940Y-1475761D01*
X14428199Y-1492294D01*
X14272598Y-1540163D01*
X14267618Y-1542733D01*
X14267614Y-1542735D01*
X14152353Y-1602226D01*
X14072983Y-1643192D01*
X14068535Y-1646605D01*
X13934067Y-1749785D01*
X13894767Y-1779941D01*
X13743584Y-1946089D01*
X13721463Y-1981353D01*
X13628050Y-2130267D01*
X13624213Y-2136383D01*
X13615341Y-2158454D01*
X13571373Y-2214198D01*
X13504248Y-2237322D01*
X13435277Y-2220484D01*
X13384708Y-2165700D01*
X13373209Y-2141590D01*
X13337548Y-2066826D01*
X13334161Y-2062112D01*
X13209740Y-1888963D01*
X13209738Y-1888961D01*
X13206463Y-1884403D01*
X13062854Y-1745236D01*
X13049174Y-1731979D01*
X13049171Y-1731977D01*
X13045146Y-1728076D01*
X12858696Y-1602787D01*
X12853548Y-1600527D01*
X12658152Y-1514754D01*
X12658148Y-1514753D01*
X12653005Y-1512495D01*
X12647550Y-1511185D01*
X12647546Y-1511184D01*
X12440030Y-1461363D01*
X12440026Y-1461362D01*
X12434576Y-1460054D01*
X12389144Y-1457434D01*
X12215920Y-1447446D01*
X12215917Y-1447446D01*
X12210313Y-1447123D01*
X11987304Y-1474111D01*
X11981942Y-1475761D01*
X11981940Y-1475761D01*
X11928199Y-1492294D01*
X11772598Y-1540163D01*
X11767618Y-1542733D01*
X11767614Y-1542735D01*
X11652353Y-1602226D01*
X11572983Y-1643192D01*
X11568535Y-1646605D01*
X11434067Y-1749785D01*
X11394767Y-1779941D01*
X11343524Y-1836257D01*
X11282885Y-1873179D01*
X11211909Y-1871456D01*
X11162646Y-1841941D01*
X11102942Y-1784084D01*
X11045146Y-1728076D01*
X10858696Y-1602787D01*
X10853548Y-1600527D01*
X10658152Y-1514754D01*
X10658148Y-1514753D01*
X10653005Y-1512495D01*
X10647550Y-1511185D01*
X10647546Y-1511184D01*
X10440030Y-1461363D01*
X10440026Y-1461362D01*
X10434576Y-1460054D01*
X10389144Y-1457434D01*
X10215920Y-1447446D01*
X10215917Y-1447446D01*
X10210313Y-1447123D01*
X9987304Y-1474111D01*
X9981942Y-1475761D01*
X9981940Y-1475761D01*
X9928199Y-1492294D01*
X9772598Y-1540163D01*
X9767618Y-1542733D01*
X9767614Y-1542735D01*
X9652353Y-1602226D01*
X9572983Y-1643192D01*
X9568535Y-1646605D01*
X9434067Y-1749785D01*
X9394767Y-1779941D01*
X9243584Y-1946089D01*
X9221463Y-1981353D01*
X9128050Y-2130267D01*
X9124213Y-2136383D01*
X9115089Y-2159081D01*
X9071125Y-2214824D01*
X9004000Y-2237951D01*
X8935028Y-2221115D01*
X8884456Y-2166330D01*
X8839530Y-2072142D01*
X8833841Y-2062523D01*
X8812154Y-2032341D01*
X8801363Y-2023929D01*
X8788327Y-2030883D01*
X8122022Y-2697188D01*
X8114408Y-2711132D01*
X8114539Y-2712965D01*
X8118790Y-2719580D01*
X8791337Y-3392127D01*
X8803717Y-3398887D01*
X8809982Y-3394197D01*
X8888526Y-3249535D01*
X8938608Y-3199213D01*
X9007946Y-3183956D01*
X9074525Y-3208608D01*
X9109352Y-3248377D01*
X9192755Y-3398221D01*
X9204984Y-3420192D01*
X9208535Y-3424530D01*
X9208538Y-3424535D01*
X9315400Y-3555095D01*
X9347264Y-3594025D01*
X9351527Y-3597666D01*
X9351532Y-3597671D01*
X9499793Y-3724297D01*
X9518078Y-3739914D01*
X9534168Y-3749316D01*
X9707181Y-3850417D01*
X9707184Y-3850418D01*
X9712028Y-3853249D01*
X9717302Y-3855179D01*
X9755586Y-3869189D01*
X9812685Y-3911383D01*
X9837907Y-3977748D01*
X9836890Y-3982568D01*
X9878509Y-3945805D01*
X9953602Y-3935791D01*
X10144273Y-3969069D01*
X10149879Y-3969040D01*
X10149883Y-3969040D01*
X10252937Y-3968500D01*
X10368906Y-3967893D01*
X10377113Y-3966372D01*
X10508244Y-3942068D01*
X10589780Y-3926956D01*
X10595865Y-3924657D01*
X10779732Y-3855179D01*
X10799914Y-3847553D01*
X10805477Y-3844224D01*
X10943371Y-3761696D01*
X10992667Y-3732193D01*
X11103498Y-3635509D01*
X11157710Y-3588217D01*
X11157714Y-3588213D01*
X11160380Y-3585888D01*
X11161944Y-3584523D01*
X11162320Y-3584954D01*
X11220612Y-3551518D01*
X11291518Y-3555095D01*
X11339993Y-3585888D01*
X11343714Y-3589687D01*
X11347264Y-3594025D01*
X11351527Y-3597666D01*
X11351531Y-3597670D01*
X11496913Y-3721838D01*
X11518078Y-3739914D01*
X11534168Y-3749316D01*
X11707181Y-3850417D01*
X11707184Y-3850418D01*
X11712028Y-3853249D01*
X11717298Y-3855178D01*
X11717299Y-3855178D01*
X11917718Y-3928521D01*
X11917722Y-3928522D01*
X11922982Y-3930447D01*
X11928499Y-3931410D01*
X11928503Y-3931411D01*
X12074348Y-3956865D01*
X12144273Y-3969069D01*
X12149879Y-3969040D01*
X12149883Y-3969040D01*
X12253939Y-3968495D01*
X12290947Y-3968301D01*
X12359172Y-3987946D01*
X12405945Y-4041357D01*
X12416417Y-4111577D01*
X12387262Y-4176312D01*
X12380702Y-4183394D01*
X12234501Y-4329595D01*
X12172189Y-4363621D01*
X12145406Y-4366500D01*
X10208194Y-4366500D01*
X10140073Y-4346498D01*
X10120849Y-4330158D01*
X10120575Y-4330462D01*
X10115672Y-4326047D01*
X10111251Y-4321137D01*
X10105909Y-4317256D01*
X10105907Y-4317254D01*
X9962092Y-4212767D01*
X9962091Y-4212766D01*
X9956750Y-4208886D01*
X9950722Y-4206202D01*
X9950720Y-4206201D01*
X9880691Y-4175022D01*
X9826595Y-4129041D01*
X9806786Y-4063878D01*
X9773355Y-4097726D01*
X9704076Y-4113247D01*
X9686089Y-4110762D01*
X9601944Y-4092876D01*
X9601939Y-4092876D01*
X9595487Y-4091504D01*
X9404513Y-4091504D01*
X9398061Y-4092876D01*
X9398056Y-4092876D01*
X9313912Y-4110762D01*
X9217713Y-4131210D01*
X9211683Y-4133895D01*
X9211682Y-4133895D01*
X9049280Y-4206201D01*
X9049278Y-4206202D01*
X9043250Y-4208886D01*
X9037909Y-4212766D01*
X9037908Y-4212767D01*
X8894093Y-4317254D01*
X8894091Y-4317256D01*
X8888749Y-4321137D01*
X8884328Y-4326047D01*
X8879425Y-4330462D01*
X8878299Y-4329211D01*
X8825000Y-4362049D01*
X8791806Y-4366500D01*
X-5145405Y-4366500D01*
X-5213526Y-4346498D01*
X-5234500Y-4329595D01*
X-5802399Y-3761696D01*
X7063134Y-3761696D01*
X7068415Y-3768751D01*
X7207392Y-3849963D01*
X7217513Y-3854726D01*
X7417848Y-3928038D01*
X7428633Y-3930928D01*
X7638792Y-3967606D01*
X7649924Y-3968541D01*
X7863244Y-3967424D01*
X7874378Y-3966372D01*
X8084126Y-3927497D01*
X8094897Y-3924490D01*
X8294452Y-3849085D01*
X8304508Y-3844224D01*
X8426910Y-3770967D01*
X8436479Y-3760610D01*
X8432936Y-3752146D01*
X7762812Y-3082022D01*
X7748868Y-3074408D01*
X7747035Y-3074539D01*
X7740420Y-3078790D01*
X7069894Y-3749316D01*
X7063134Y-3761696D01*
X-5802399Y-3761696D01*
X-6481057Y-3083039D01*
X-6515082Y-3020727D01*
X-6516705Y-2976191D01*
X-6489310Y-2783698D01*
X6489639Y-2783698D01*
X6490341Y-2794850D01*
X6522608Y-3005717D01*
X6525275Y-3016578D01*
X6594375Y-3218400D01*
X6598923Y-3228614D01*
X6687819Y-3388330D01*
X6697872Y-3398221D01*
X6705475Y-3395315D01*
X7377978Y-2722812D01*
X7385592Y-2708868D01*
X7385461Y-2707035D01*
X7381210Y-2700420D01*
X6711770Y-2030980D01*
X6699390Y-2024220D01*
X6691418Y-2030188D01*
X6627640Y-2131859D01*
X6622567Y-2141815D01*
X6542998Y-2339747D01*
X6539767Y-2350447D01*
X6496508Y-2559337D01*
X6495223Y-2570444D01*
X6489639Y-2783698D01*
X-6489310Y-2783698D01*
X-6488744Y-2779721D01*
X-6488232Y-2776126D01*
X-6487829Y-2760749D01*
X-6486595Y-2713631D01*
X-6486595Y-2713629D01*
X-6486500Y-2710000D01*
X-6506469Y-2486253D01*
X-6565744Y-2269579D01*
X-6580829Y-2237951D01*
X-6660035Y-2071893D01*
X-6660036Y-2071892D01*
X-6662452Y-2066826D01*
X-6665839Y-2062112D01*
X-6790260Y-1888963D01*
X-6790262Y-1888961D01*
X-6793537Y-1884403D01*
X-6937146Y-1745236D01*
X-6950826Y-1731979D01*
X-6950829Y-1731977D01*
X-6954854Y-1728076D01*
X-7141304Y-1602787D01*
X-7146452Y-1600527D01*
X-7170820Y-1589830D01*
X-5475430Y-1589830D01*
X-5465666Y-1602226D01*
X-5260145Y-1740850D01*
X-5252549Y-1745236D01*
X-5008041Y-1864491D01*
X-4999894Y-1867782D01*
X-4741167Y-1951848D01*
X-4732666Y-1953967D01*
X-4464745Y-2001210D01*
X-4456019Y-2002127D01*
X-4184141Y-2011621D01*
X-4175378Y-2011315D01*
X-3904820Y-1982878D01*
X-3896175Y-1981353D01*
X-3632224Y-1915543D01*
X-3623866Y-1912828D01*
X-3371639Y-1810920D01*
X-3363747Y-1807071D01*
X-3128156Y-1671053D01*
X-3120880Y-1666145D01*
X-3035329Y-1599307D01*
X-3028535Y-1589830D01*
X3024570Y-1589830D01*
X3034334Y-1602226D01*
X3239855Y-1740850D01*
X3247451Y-1745236D01*
X3491959Y-1864491D01*
X3500106Y-1867782D01*
X3758833Y-1951848D01*
X3767334Y-1953967D01*
X4035255Y-2001210D01*
X4043981Y-2002127D01*
X4315859Y-2011621D01*
X4324622Y-2011315D01*
X4595180Y-1982878D01*
X4603825Y-1981353D01*
X4867776Y-1915543D01*
X4876134Y-1912828D01*
X5128361Y-1810920D01*
X5136253Y-1807071D01*
X5371844Y-1671053D01*
X5379120Y-1666145D01*
X5390327Y-1657389D01*
X7061943Y-1657389D01*
X7068576Y-1669366D01*
X7737188Y-2337978D01*
X7751132Y-2345592D01*
X7752965Y-2345461D01*
X7759580Y-2341210D01*
X8428844Y-1671946D01*
X8435068Y-1660548D01*
X8425257Y-1648114D01*
X8363115Y-1606357D01*
X8353315Y-1600969D01*
X8157988Y-1515225D01*
X8147389Y-1511658D01*
X7939960Y-1461859D01*
X7928898Y-1460226D01*
X7715935Y-1447946D01*
X7704751Y-1448298D01*
X7492981Y-1473926D01*
X7482044Y-1476250D01*
X7278148Y-1538976D01*
X7267804Y-1543197D01*
X7078235Y-1641042D01*
X7070117Y-1646194D01*
X7061943Y-1657389D01*
X5390327Y-1657389D01*
X5464671Y-1599307D01*
X5473139Y-1587495D01*
X5466602Y-1575812D01*
X4262812Y-372022D01*
X4248868Y-364408D01*
X4247035Y-364539D01*
X4240420Y-368790D01*
X3030813Y-1578397D01*
X3024570Y-1589830D01*
X-3028535Y-1589830D01*
X-3026861Y-1587495D01*
X-3033398Y-1575812D01*
X-4237188Y-372022D01*
X-4251132Y-364408D01*
X-4252965Y-364539D01*
X-4259580Y-368790D01*
X-5469187Y-1578397D01*
X-5475430Y-1589830D01*
X-7170820Y-1589830D01*
X-7341848Y-1514754D01*
X-7341852Y-1514753D01*
X-7346995Y-1512495D01*
X-7352450Y-1511185D01*
X-7352454Y-1511184D01*
X-7559970Y-1461363D01*
X-7559974Y-1461362D01*
X-7565424Y-1460054D01*
X-7610856Y-1457434D01*
X-7784080Y-1447446D01*
X-7784083Y-1447446D01*
X-7789687Y-1447123D01*
X-8010011Y-1473786D01*
X-8010012Y-1473786D01*
X-8012696Y-1474111D01*
X-8012761Y-1473576D01*
X-8079887Y-1468455D01*
X-8124390Y-1439705D01*
X-9456609Y-107487D01*
X-9463969Y-99399D01*
X-9468027Y-93005D01*
X-9489433Y-72903D01*
X-9516878Y-47131D01*
X-9519720Y-44376D01*
X-9540034Y-24062D01*
X-9543445Y-21417D01*
X-9552467Y-13711D01*
X-9578923Y11133D01*
X-9584699Y16557D01*
X-9591643Y20374D01*
X-9591645Y20376D01*
X-9602453Y26318D01*
X-9618977Y37172D01*
X-9628714Y44725D01*
X-9628715Y44725D01*
X-9634977Y49583D01*
X-9642250Y52730D01*
X-9642253Y52732D01*
X-9664683Y62438D01*
X-9675542Y67137D01*
X-9686200Y72358D01*
X-9718006Y89844D01*
X-9718010Y89846D01*
X-9724952Y93662D01*
X-9732627Y95632D01*
X-9732628Y95633D01*
X-9744574Y98700D01*
X-9763281Y105105D01*
X-9774590Y109999D01*
X-9774592Y109999D01*
X-9781865Y113147D01*
X-9789693Y114387D01*
X-9789694Y114387D01*
X-9825527Y120062D01*
X-9837152Y122470D01*
X-9874218Y131987D01*
X-9874220Y131987D01*
X-9879975Y133465D01*
X-9880531Y133500D01*
X-9900454Y133500D01*
X-9920163Y135051D01*
X-9926300Y136023D01*
X-6258096Y136023D01*
X-6258096Y-136023D01*
X-6257484Y-144772D01*
X-6219623Y-414173D01*
X-6217799Y-422753D01*
X-6142813Y-684260D01*
X-6139814Y-692501D01*
X-6029159Y-941036D01*
X-6025047Y-948770D01*
X-5880882Y-1179482D01*
X-5875723Y-1186582D01*
X-5850899Y-1216166D01*
X-5838205Y-1224612D01*
X-5827703Y-1218493D01*
X-4622022Y-12812D01*
X-4615645Y-1132D01*
X-3885592Y-1132D01*
X-3885461Y-2965D01*
X-3881210Y-9580D01*
X-2674016Y-1216774D01*
X-2661905Y-1223387D01*
X-2650286Y-1214559D01*
X-2545468Y-1070291D01*
X-2540809Y-1062835D01*
X-2413100Y-822648D01*
X-2409529Y-814628D01*
X-2316485Y-558994D01*
X-2314066Y-550557D01*
X-2257503Y-284451D01*
X-2256283Y-275770D01*
X-2237307Y-4390D01*
X-2237307Y4390D01*
X-2246511Y136023D01*
X2241904Y136023D01*
X2241904Y-136023D01*
X2242516Y-144772D01*
X2280377Y-414173D01*
X2282201Y-422753D01*
X2357187Y-684260D01*
X2360186Y-692501D01*
X2470841Y-941036D01*
X2474953Y-948770D01*
X2619118Y-1179482D01*
X2624277Y-1186582D01*
X2649101Y-1216166D01*
X2661795Y-1224612D01*
X2672297Y-1218493D01*
X3877978Y-12812D01*
X3884355Y-1132D01*
X4614408Y-1132D01*
X4614539Y-2965D01*
X4618790Y-9580D01*
X5825984Y-1216774D01*
X5838095Y-1223387D01*
X5849714Y-1214559D01*
X5954532Y-1070291D01*
X5959191Y-1062835D01*
X6086900Y-822648D01*
X6090471Y-814628D01*
X6183515Y-558994D01*
X6185934Y-550557D01*
X6242497Y-284451D01*
X6243717Y-275770D01*
X6262693Y-4390D01*
X6262693Y4390D01*
X6253489Y136023D01*
X16241904Y136023D01*
X16241904Y-136023D01*
X16242516Y-144772D01*
X16280377Y-414173D01*
X16282201Y-422753D01*
X16357187Y-684260D01*
X16360186Y-692501D01*
X16470841Y-941036D01*
X16474953Y-948770D01*
X16619118Y-1179482D01*
X16624277Y-1186582D01*
X16649101Y-1216166D01*
X16661795Y-1224612D01*
X16672297Y-1218493D01*
X17877978Y-12812D01*
X17884355Y-1132D01*
X18614408Y-1132D01*
X18614539Y-2965D01*
X18618790Y-9580D01*
X19825984Y-1216774D01*
X19838095Y-1223387D01*
X19849714Y-1214559D01*
X19954532Y-1070291D01*
X19959191Y-1062835D01*
X20086900Y-822648D01*
X20090471Y-814628D01*
X20183515Y-558994D01*
X20185934Y-550557D01*
X20242497Y-284451D01*
X20243717Y-275770D01*
X20262693Y-4390D01*
X20262693Y4390D01*
X20243717Y275770D01*
X20242497Y284451D01*
X20185934Y550557D01*
X20183515Y558994D01*
X20090471Y814628D01*
X20086900Y822648D01*
X19959191Y1062835D01*
X19954532Y1070291D01*
X19849445Y1214930D01*
X19838520Y1223354D01*
X19825661Y1216451D01*
X18622022Y12812D01*
X18614408Y-1132D01*
X17884355Y-1132D01*
X17885592Y1132D01*
X17885461Y2965D01*
X17881210Y9580D01*
X16673558Y1217232D01*
X16660173Y1224541D01*
X16650247Y1217532D01*
X16624277Y1186582D01*
X16619118Y1179482D01*
X16474953Y948770D01*
X16470841Y941036D01*
X16360186Y692501D01*
X16357187Y684260D01*
X16282201Y422753D01*
X16280377Y414173D01*
X16242516Y144772D01*
X16241904Y136023D01*
X6253489Y136023D01*
X6243717Y275770D01*
X6242497Y284451D01*
X6185934Y550557D01*
X6183515Y558994D01*
X6090471Y814628D01*
X6086900Y822648D01*
X5959191Y1062835D01*
X5954532Y1070291D01*
X5849445Y1214930D01*
X5838520Y1223354D01*
X5825661Y1216451D01*
X4622022Y12812D01*
X4614408Y-1132D01*
X3884355Y-1132D01*
X3885592Y1132D01*
X3885461Y2965D01*
X3881210Y9580D01*
X2673558Y1217232D01*
X2660173Y1224541D01*
X2650247Y1217532D01*
X2624277Y1186582D01*
X2619118Y1179482D01*
X2474953Y948770D01*
X2470841Y941036D01*
X2360186Y692501D01*
X2357187Y684260D01*
X2282201Y422753D01*
X2280377Y414173D01*
X2242516Y144772D01*
X2241904Y136023D01*
X-2246511Y136023D01*
X-2256283Y275770D01*
X-2257503Y284451D01*
X-2314066Y550557D01*
X-2316485Y558994D01*
X-2409529Y814628D01*
X-2413100Y822648D01*
X-2540809Y1062835D01*
X-2545468Y1070291D01*
X-2650555Y1214930D01*
X-2661480Y1223354D01*
X-2674339Y1216451D01*
X-3877978Y12812D01*
X-3885592Y-1132D01*
X-4615645Y-1132D01*
X-4614408Y1132D01*
X-4614539Y2965D01*
X-4618790Y9580D01*
X-5826442Y1217232D01*
X-5839827Y1224541D01*
X-5849753Y1217532D01*
X-5875723Y1186582D01*
X-5880882Y1179482D01*
X-6025047Y948770D01*
X-6029159Y941036D01*
X-6139814Y692501D01*
X-6142813Y684260D01*
X-6217799Y422753D01*
X-6219623Y414173D01*
X-6257484Y144772D01*
X-6258096Y136023D01*
X-9926300Y136023D01*
X-9939945Y138184D01*
X-9947837Y137438D01*
X-9983582Y134059D01*
X-9995440Y133500D01*
X-14921617Y133500D01*
X-14932521Y134014D01*
X-14939912Y135666D01*
X-14947837Y135417D01*
X-14947838Y135417D01*
X-15006853Y133562D01*
X-15010811Y133500D01*
X-15039578Y133500D01*
X-15043863Y132959D01*
X-15055697Y132027D01*
X-15081714Y131209D01*
X-15091964Y130887D01*
X-15091965Y130887D01*
X-15099884Y130638D01*
X-15107492Y128428D01*
X-15107497Y128427D01*
X-15119339Y124987D01*
X-15138693Y120979D01*
X-15150921Y119434D01*
X-15158788Y118440D01*
X-15166156Y115523D01*
X-15166163Y115521D01*
X-15199901Y102163D01*
X-15211131Y98318D01*
X-15245969Y88197D01*
X-15245970Y88196D01*
X-15253579Y85986D01*
X-15271012Y75676D01*
X-15288759Y66982D01*
X-15307600Y59522D01*
X-15321280Y49583D01*
X-15343371Y33533D01*
X-15353288Y27018D01*
X-15391342Y4513D01*
X-15391760Y4145D01*
X-15405842Y-9937D01*
X-15420875Y-22778D01*
X-15437083Y-34554D01*
X-15465024Y-68329D01*
X-15473014Y-77109D01*
X-16121522Y-725617D01*
X-16183834Y-759643D01*
X-16254649Y-754578D01*
X-16311485Y-712031D01*
X-16336296Y-645511D01*
X-16329018Y-593427D01*
X-16316485Y-558994D01*
X-16314066Y-550557D01*
X-16257503Y-284451D01*
X-16256283Y-275770D01*
X-16237307Y-4390D01*
X-16237307Y4390D01*
X-16256283Y275770D01*
X-16257503Y284451D01*
X-16314066Y550557D01*
X-16316485Y558994D01*
X-16409529Y814628D01*
X-16413100Y822648D01*
X-16540809Y1062835D01*
X-16545468Y1070291D01*
X-16650555Y1214930D01*
X-16661480Y1223354D01*
X-16674339Y1216451D01*
X-19469187Y-1578397D01*
X-19475430Y-1589830D01*
X-19465666Y-1602226D01*
X-19260145Y-1740850D01*
X-19252549Y-1745236D01*
X-19008041Y-1864491D01*
X-18999894Y-1867782D01*
X-18741167Y-1951848D01*
X-18732666Y-1953967D01*
X-18464745Y-2001210D01*
X-18456019Y-2002127D01*
X-18184141Y-2011621D01*
X-18175378Y-2011315D01*
X-17904820Y-1982878D01*
X-17896175Y-1981353D01*
X-17645749Y-1918915D01*
X-17574813Y-1921843D01*
X-17516721Y-1962657D01*
X-17489916Y-2028399D01*
X-17502910Y-2098197D01*
X-17526172Y-2130267D01*
X-21432514Y-6036610D01*
X-21440601Y-6043969D01*
X-21446995Y-6048027D01*
X-21452420Y-6053804D01*
X-21452421Y-6053805D01*
X-21492863Y-6096872D01*
X-21495619Y-6099715D01*
X-21515938Y-6120034D01*
X-21518362Y-6123159D01*
X-21518369Y-6123167D01*
X-21518589Y-6123451D01*
X-21526297Y-6132476D01*
X-21556557Y-6164700D01*
X-21566313Y-6182446D01*
X-21577164Y-6198965D01*
X-21584722Y-6208709D01*
X-21584725Y-6208714D01*
X-21589583Y-6214977D01*
X-21592732Y-6222255D01*
X-21607139Y-6255547D01*
X-21612362Y-6266208D01*
X-21633662Y-6304953D01*
X-21635634Y-6312635D01*
X-21635635Y-6312636D01*
X-21638702Y-6324578D01*
X-21645102Y-6343273D01*
X-21653147Y-6361865D01*
X-21654387Y-6369694D01*
X-21660063Y-6405529D01*
X-21662470Y-6417150D01*
X-21666951Y-6434604D01*
X-21673465Y-6459976D01*
X-21673500Y-6460532D01*
X-21673500Y-6480454D01*
X-21675051Y-6500163D01*
X-21678184Y-6519945D01*
X-21677438Y-6527837D01*
X-21674059Y-6563583D01*
X-21673500Y-6575441D01*
X-21673499Y-7837663D01*
X-21693501Y-7905784D01*
X-21722796Y-7937626D01*
X-21890784Y-8066526D01*
X-21890792Y-8066533D01*
X-21895233Y-8069941D01*
X-22046416Y-8236089D01*
X-22049398Y-8240843D01*
X-22125491Y-8362146D01*
X-22165787Y-8426383D01*
X-22249573Y-8634808D01*
X-22295126Y-8854777D01*
X-22301007Y-9079336D01*
X-25742000Y-9079336D01*
X-25742000Y-7089830D01*
X-24975430Y-7089830D01*
X-24965666Y-7102226D01*
X-24760145Y-7240850D01*
X-24752549Y-7245236D01*
X-24508041Y-7364491D01*
X-24499894Y-7367782D01*
X-24241167Y-7451848D01*
X-24232666Y-7453967D01*
X-23964745Y-7501210D01*
X-23956019Y-7502127D01*
X-23684141Y-7511621D01*
X-23675378Y-7511315D01*
X-23404820Y-7482878D01*
X-23396175Y-7481353D01*
X-23132224Y-7415543D01*
X-23123866Y-7412828D01*
X-22871639Y-7310920D01*
X-22863747Y-7307071D01*
X-22628156Y-7171053D01*
X-22620880Y-7166145D01*
X-22535329Y-7099307D01*
X-22526861Y-7087495D01*
X-22533398Y-7075812D01*
X-23737188Y-5872022D01*
X-23751132Y-5864408D01*
X-23752965Y-5864539D01*
X-23759580Y-5868790D01*
X-24969187Y-7078397D01*
X-24975430Y-7089830D01*
X-25742000Y-7089830D01*
X-25742000Y-6540987D01*
X-25721998Y-6472866D01*
X-25668342Y-6426373D01*
X-25598068Y-6416269D01*
X-25533488Y-6445763D01*
X-25509146Y-6474217D01*
X-25380882Y-6679482D01*
X-25375723Y-6686582D01*
X-25350899Y-6716166D01*
X-25338205Y-6724612D01*
X-25327703Y-6718493D01*
X-24122022Y-5512812D01*
X-24115645Y-5501132D01*
X-23385592Y-5501132D01*
X-23385461Y-5502965D01*
X-23381210Y-5509580D01*
X-22174016Y-6716774D01*
X-22161905Y-6723387D01*
X-22150286Y-6714559D01*
X-22045468Y-6570291D01*
X-22040809Y-6562835D01*
X-21913100Y-6322648D01*
X-21909529Y-6314628D01*
X-21816485Y-6058994D01*
X-21814066Y-6050557D01*
X-21757503Y-5784451D01*
X-21756283Y-5775770D01*
X-21737307Y-5504390D01*
X-21737307Y-5495610D01*
X-21756283Y-5224230D01*
X-21757503Y-5215549D01*
X-21814066Y-4949443D01*
X-21816485Y-4941006D01*
X-21909529Y-4685372D01*
X-21913100Y-4677352D01*
X-22040809Y-4437165D01*
X-22045468Y-4429709D01*
X-22150555Y-4285070D01*
X-22161480Y-4276646D01*
X-22174339Y-4283549D01*
X-23377978Y-5487188D01*
X-23385592Y-5501132D01*
X-24115645Y-5501132D01*
X-24114408Y-5498868D01*
X-24114539Y-5497035D01*
X-24118790Y-5490420D01*
X-25326442Y-4282768D01*
X-25339827Y-4275459D01*
X-25349753Y-4282468D01*
X-25375723Y-4313418D01*
X-25380882Y-4320518D01*
X-25509146Y-4525783D01*
X-25562207Y-4572953D01*
X-25632347Y-4583948D01*
X-25697297Y-4555277D01*
X-25736436Y-4496043D01*
X-25742000Y-4459013D01*
X-25742000Y-3908690D01*
X-24975289Y-3908690D01*
X-24968069Y-3922721D01*
X-23762812Y-5127978D01*
X-23748868Y-5135592D01*
X-23747035Y-5135461D01*
X-23740420Y-5131210D01*
X-22533867Y-3924657D01*
X-22526899Y-3911897D01*
X-22534810Y-3901099D01*
X-22620880Y-3833855D01*
X-22628156Y-3828947D01*
X-22863747Y-3692929D01*
X-22871639Y-3689080D01*
X-23123866Y-3587172D01*
X-23132224Y-3584457D01*
X-23396175Y-3518647D01*
X-23404820Y-3517122D01*
X-23675378Y-3488685D01*
X-23684141Y-3488379D01*
X-23956019Y-3497873D01*
X-23964745Y-3498790D01*
X-24232666Y-3546033D01*
X-24241167Y-3548152D01*
X-24499894Y-3632218D01*
X-24508041Y-3635509D01*
X-24752549Y-3754764D01*
X-24760145Y-3759150D01*
X-24966982Y-3898662D01*
X-24975289Y-3908690D01*
X-25742000Y-3908690D01*
X-25742000Y-1229308D01*
X-25721998Y-1161187D01*
X-25668342Y-1114694D01*
X-25598068Y-1104590D01*
X-25533488Y-1134084D01*
X-25512162Y-1157938D01*
X-25405944Y-1312485D01*
X-25403057Y-1315658D01*
X-25403056Y-1315659D01*
X-25221396Y-1515301D01*
X-25212499Y-1525079D01*
X-25151823Y-1575812D01*
X-24995282Y-1706701D01*
X-24995277Y-1706705D01*
X-24991990Y-1709453D01*
X-24873018Y-1784084D01*
X-24752140Y-1859911D01*
X-24752136Y-1859913D01*
X-24748500Y-1862194D01*
X-24681072Y-1892639D01*
X-24490445Y-1978711D01*
X-24490441Y-1978713D01*
X-24486533Y-1980477D01*
X-24482413Y-1981697D01*
X-24482414Y-1981697D01*
X-24215050Y-2060894D01*
X-24215046Y-2060895D01*
X-24210937Y-2062112D01*
X-24206703Y-2062760D01*
X-24206698Y-2062761D01*
X-23931053Y-2104940D01*
X-23931051Y-2104940D01*
X-23926811Y-2105589D01*
X-23780501Y-2107888D01*
X-23643705Y-2110037D01*
X-23643699Y-2110037D01*
X-23639414Y-2110104D01*
X-23354063Y-2075573D01*
X-23076039Y-2002635D01*
X-23072079Y-2000995D01*
X-23072074Y-2000993D01*
X-22928845Y-1941665D01*
X-22810486Y-1892639D01*
X-22562318Y-1747621D01*
X-22336127Y-1570265D01*
X-22309448Y-1542735D01*
X-22195960Y-1425624D01*
X-22136099Y-1363852D01*
X-22133566Y-1360404D01*
X-22133562Y-1360399D01*
X-21968473Y-1135657D01*
X-21965935Y-1132202D01*
X-21932320Y-1070291D01*
X-21830834Y-883377D01*
X-21830833Y-883375D01*
X-21828784Y-879601D01*
X-21727184Y-610724D01*
X-21663015Y-330546D01*
X-21652530Y-213075D01*
X-21637683Y-46716D01*
X-21637463Y-44251D01*
X-21637361Y-34554D01*
X-21637026Y-2485D01*
X-21637000Y0D01*
X-21637202Y2965D01*
X-21646272Y136023D01*
X-20258096Y136023D01*
X-20258096Y-136023D01*
X-20257484Y-144772D01*
X-20219623Y-414173D01*
X-20217799Y-422753D01*
X-20142813Y-684260D01*
X-20139814Y-692501D01*
X-20029159Y-941036D01*
X-20025047Y-948770D01*
X-19880882Y-1179482D01*
X-19875723Y-1186582D01*
X-19850899Y-1216166D01*
X-19838205Y-1224612D01*
X-19827703Y-1218493D01*
X-18622022Y-12812D01*
X-18614408Y1132D01*
X-18614539Y2965D01*
X-18618790Y9580D01*
X-19826442Y1217232D01*
X-19839827Y1224541D01*
X-19849753Y1217532D01*
X-19875723Y1186582D01*
X-19880882Y1179482D01*
X-20025047Y948770D01*
X-20029159Y941036D01*
X-20139814Y692501D01*
X-20142813Y684260D01*
X-20217799Y422753D01*
X-20219623Y414173D01*
X-20257484Y144772D01*
X-20258096Y136023D01*
X-21646272Y136023D01*
X-21656258Y282490D01*
X-21656259Y282496D01*
X-21656550Y286767D01*
X-21714837Y568228D01*
X-21810784Y839173D01*
X-21875953Y965436D01*
X-21940650Y1090784D01*
X-21940650Y1090785D01*
X-21942615Y1094591D01*
X-22002277Y1179482D01*
X-22105424Y1326244D01*
X-22105425Y1326245D01*
X-22107891Y1329754D01*
X-22303552Y1540311D01*
X-22361942Y1588103D01*
X-22414765Y1631338D01*
X-22525979Y1722365D01*
X-22582304Y1756881D01*
X-22585055Y1758567D01*
X-22632686Y1811215D01*
X-22644293Y1881257D01*
X-22616190Y1946454D01*
X-22557299Y1986108D01*
X-22519220Y1992000D01*
X-19292374Y1992000D01*
X-19224253Y1971998D01*
G37*
%TD.AperFunction*%
%TA.AperFunction,Conductor*%
G36*
X-715221Y-30464628D02*
G01*
X-691659Y-30491798D01*
X-674656Y-30518254D01*
X-663077Y-30536271D01*
X-662535Y-30536740D01*
X-634783Y-30597510D01*
X-633500Y-30615442D01*
X-633500Y-30646617D01*
X-634014Y-30657521D01*
X-635666Y-30664912D01*
X-635417Y-30672837D01*
X-635417Y-30672838D01*
X-633562Y-30731853D01*
X-633500Y-30735811D01*
X-633500Y-30764577D01*
X-632959Y-30768856D01*
X-632027Y-30780696D01*
X-630638Y-30824883D01*
X-628428Y-30832491D01*
X-628427Y-30832496D01*
X-624987Y-30844338D01*
X-620979Y-30863692D01*
X-618440Y-30883787D01*
X-615523Y-30891155D01*
X-615521Y-30891162D01*
X-602163Y-30924900D01*
X-598318Y-30936130D01*
X-585986Y-30978578D01*
X-581951Y-30985400D01*
X-575676Y-30996011D01*
X-566982Y-31013758D01*
X-559522Y-31032599D01*
X-554863Y-31039011D01*
X-554860Y-31039017D01*
X-533532Y-31068372D01*
X-527015Y-31078294D01*
X-509446Y-31108000D01*
X-504513Y-31116341D01*
X-504145Y-31116759D01*
X-490062Y-31130842D01*
X-477222Y-31145875D01*
X-465446Y-31162083D01*
X-431665Y-31190029D01*
X-422885Y-31198019D01*
X1305501Y-32926405D01*
X1339527Y-32988717D01*
X1334462Y-33059532D01*
X1291915Y-33116368D01*
X1225395Y-33141179D01*
X1216406Y-33141500D01*
X829238Y-33141500D01*
X761117Y-33121498D01*
X740143Y-33104595D01*
X-954595Y-31409858D01*
X-988620Y-31347546D01*
X-991500Y-31320763D01*
X-991500Y-30638271D01*
X-971498Y-30570150D01*
X-960724Y-30555758D01*
X-893016Y-30477619D01*
X-890141Y-30480110D01*
X-850092Y-30445349D01*
X-779826Y-30435188D01*
X-715221Y-30464628D01*
G37*
%TD.AperFunction*%
%TA.AperFunction,Conductor*%
G36*
X7161808Y-27603502D02*
G01*
X7208301Y-27657158D01*
X7218997Y-27696330D01*
X7231462Y-27814927D01*
X7233502Y-27821205D01*
X7233502Y-27821206D01*
X7247399Y-27863977D01*
X7290476Y-27996554D01*
X7293779Y-28002276D01*
X7293780Y-28002277D01*
X7305596Y-28022743D01*
X7385963Y-28161942D01*
X7390381Y-28166849D01*
X7390382Y-28166850D01*
X7421485Y-28201393D01*
X7513749Y-28303863D01*
X7519091Y-28307744D01*
X7519093Y-28307746D01*
X7657360Y-28408202D01*
X7668250Y-28416114D01*
X7674278Y-28418798D01*
X7674280Y-28418799D01*
X7836682Y-28491105D01*
X7842713Y-28493790D01*
X7936113Y-28513643D01*
X8023056Y-28532124D01*
X8023061Y-28532124D01*
X8029513Y-28533496D01*
X8085402Y-28533496D01*
X8153523Y-28553498D01*
X8174497Y-28570401D01*
X8246609Y-28642513D01*
X8253969Y-28650601D01*
X8258027Y-28656995D01*
X8263804Y-28662420D01*
X8306878Y-28702869D01*
X8309720Y-28705624D01*
X8330033Y-28725937D01*
X8333444Y-28728582D01*
X8342460Y-28736283D01*
X8363098Y-28755663D01*
X8399064Y-28816874D01*
X8401996Y-28832905D01*
X8406978Y-28875642D01*
X8409474Y-28882520D01*
X8409475Y-28882522D01*
X8433522Y-28948770D01*
X8467313Y-29041863D01*
X8499582Y-29091081D01*
X8557540Y-29179482D01*
X8564269Y-29189746D01*
X8692645Y-29311358D01*
X8808538Y-29378674D01*
X8828664Y-29390364D01*
X8877522Y-29441875D01*
X8890776Y-29511624D01*
X8864216Y-29577465D01*
X8820026Y-29608467D01*
X8821787Y-29611984D01*
X8802240Y-29621773D01*
X8666694Y-29710641D01*
X8655542Y-29719965D01*
X8544078Y-29837629D01*
X8535365Y-29849276D01*
X8453957Y-29989429D01*
X8448163Y-30002754D01*
X8400932Y-30158700D01*
X8398484Y-30171323D01*
X8392249Y-30241184D01*
X8392000Y-30246779D01*
X8392000Y-30477885D01*
X8396475Y-30493124D01*
X8397865Y-30494329D01*
X8405548Y-30496000D01*
X9603000Y-30496000D01*
X9671121Y-30516002D01*
X9717614Y-30569658D01*
X9729000Y-30622000D01*
X9729000Y-30878000D01*
X9708998Y-30946121D01*
X9655342Y-30992614D01*
X9603000Y-31004000D01*
X8410115Y-31004000D01*
X8394876Y-31008475D01*
X8393671Y-31009865D01*
X8392000Y-31017548D01*
X8392000Y-31239223D01*
X8392424Y-31246524D01*
X8406617Y-31368255D01*
X8409963Y-31382410D01*
X8465263Y-31534761D01*
X8471773Y-31547760D01*
X8560641Y-31683306D01*
X8569965Y-31694458D01*
X8687629Y-31805922D01*
X8699276Y-31814635D01*
X8814470Y-31881546D01*
X8863328Y-31933057D01*
X8876582Y-32002806D01*
X8850022Y-32068647D01*
X8792082Y-32109678D01*
X8751184Y-32116500D01*
X6813963Y-32116500D01*
X6745842Y-32096498D01*
X6699349Y-32042842D01*
X6689966Y-31999709D01*
X6688653Y-31999847D01*
X6669381Y-31816484D01*
X6669381Y-31816483D01*
X6668691Y-31809920D01*
X6665919Y-31801387D01*
X6620129Y-31660462D01*
X6609677Y-31628293D01*
X6514190Y-31462905D01*
X6466427Y-31409858D01*
X6390826Y-31325895D01*
X6390825Y-31325894D01*
X6386404Y-31320984D01*
X6381062Y-31317103D01*
X6381060Y-31317101D01*
X6237245Y-31212614D01*
X6237244Y-31212613D01*
X6231903Y-31208733D01*
X6225875Y-31206049D01*
X6225873Y-31206048D01*
X6063471Y-31133742D01*
X6063470Y-31133742D01*
X6057440Y-31131057D01*
X5948967Y-31108000D01*
X5877097Y-31092723D01*
X5877092Y-31092723D01*
X5870640Y-31091351D01*
X5814751Y-31091351D01*
X5746630Y-31071349D01*
X5725656Y-31054446D01*
X4825405Y-30154195D01*
X4791379Y-30091883D01*
X4788500Y-30065100D01*
X4788500Y-28700000D01*
X4788339Y-28697745D01*
X4786306Y-28669317D01*
X4801398Y-28599943D01*
X4851601Y-28549742D01*
X4920975Y-28534651D01*
X4929919Y-28535613D01*
X4945546Y-28537860D01*
X4945551Y-28537860D01*
X4950000Y-28538500D01*
X6450000Y-28538500D01*
X6523079Y-28533273D01*
X6601165Y-28510345D01*
X6654670Y-28494635D01*
X6654672Y-28494634D01*
X6663316Y-28492096D01*
X6751580Y-28435372D01*
X6778691Y-28417949D01*
X6778694Y-28417947D01*
X6786271Y-28413077D01*
X6828330Y-28364539D01*
X6876082Y-28309431D01*
X6876084Y-28309428D01*
X6881984Y-28302619D01*
X6928313Y-28201174D01*
X6938958Y-28177864D01*
X6938958Y-28177863D01*
X6942700Y-28169670D01*
X6949618Y-28121554D01*
X6962861Y-28029448D01*
X6962862Y-28029441D01*
X6963500Y-28025000D01*
X6963500Y-27709500D01*
X6983502Y-27641379D01*
X7037158Y-27594886D01*
X7089500Y-27583500D01*
X7093687Y-27583500D01*
X7161808Y-27603502D01*
G37*
%TD.AperFunction*%
%TA.AperFunction,Conductor*%
G36*
X-4185093Y-23603502D02*
G01*
X-4159582Y-23625185D01*
X-4111251Y-23678863D01*
X-4105909Y-23682744D01*
X-4105907Y-23682746D01*
X-3971319Y-23780529D01*
X-3956750Y-23791114D01*
X-3950722Y-23793798D01*
X-3950720Y-23793799D01*
X-3788318Y-23866105D01*
X-3782287Y-23868790D01*
X-3688892Y-23888642D01*
X-3601944Y-23907124D01*
X-3601939Y-23907124D01*
X-3595487Y-23908496D01*
X-3404513Y-23908496D01*
X-3398058Y-23907124D01*
X-3398049Y-23907123D01*
X-3285697Y-23883241D01*
X-3214906Y-23888642D01*
X-3158273Y-23931458D01*
X-3133779Y-23998096D01*
X-3133499Y-24006487D01*
X-3133499Y-24308015D01*
X-3134013Y-24318929D01*
X-3135666Y-24326322D01*
X-3135417Y-24334247D01*
X-3135417Y-24334248D01*
X-3133561Y-24393294D01*
X-3133499Y-24397252D01*
X-3133499Y-24425988D01*
X-3133004Y-24429905D01*
X-3132960Y-24430254D01*
X-3132028Y-24442088D01*
X-3130638Y-24486293D01*
X-3128425Y-24493909D01*
X-3128425Y-24493911D01*
X-3124986Y-24505749D01*
X-3120977Y-24525108D01*
X-3118439Y-24545198D01*
X-3115519Y-24552573D01*
X-3102167Y-24586299D01*
X-3098322Y-24597528D01*
X-3085986Y-24639988D01*
X-3081951Y-24646811D01*
X-3075673Y-24657427D01*
X-3066977Y-24675179D01*
X-3059521Y-24694010D01*
X-3054859Y-24700426D01*
X-3033532Y-24729781D01*
X-3027017Y-24739699D01*
X-3004513Y-24777751D01*
X-3004145Y-24778169D01*
X-2990062Y-24792252D01*
X-2977221Y-24807285D01*
X-2965445Y-24823493D01*
X-2942525Y-24842454D01*
X-2931670Y-24851434D01*
X-2922890Y-24859424D01*
X-193520Y-27588794D01*
X-159494Y-27651106D01*
X-157305Y-27691060D01*
X-163500Y-27750000D01*
X-143538Y-27939927D01*
X-141498Y-27946205D01*
X-141498Y-27946206D01*
X-117013Y-28021564D01*
X-114986Y-28092532D01*
X-151648Y-28153330D01*
X-215361Y-28184655D01*
X-236846Y-28186500D01*
X-275000Y-28186500D01*
X-284241Y-28187161D01*
X-341342Y-28191245D01*
X-341343Y-28191245D01*
X-348079Y-28191727D01*
X-369130Y-28197908D01*
X-422560Y-28201729D01*
X-520537Y-28187642D01*
X-528202Y-28187093D01*
X-543124Y-28191475D01*
X-544329Y-28192865D01*
X-546000Y-28200548D01*
X-546000Y-28201174D01*
X-546525Y-28202963D01*
X-548879Y-28213783D01*
X-549653Y-28213615D01*
X-566002Y-28269295D01*
X-597332Y-28300626D01*
X-596879Y-28301149D01*
X-603691Y-28307051D01*
X-611271Y-28311923D01*
X-706984Y-28422381D01*
X-709859Y-28419890D01*
X-749908Y-28454651D01*
X-820174Y-28464812D01*
X-884779Y-28435372D01*
X-908341Y-28408202D01*
X-932050Y-28371311D01*
X-932051Y-28371310D01*
X-936923Y-28363729D01*
X-996710Y-28311923D01*
X-1010512Y-28299963D01*
X-1048895Y-28240237D01*
X-1053893Y-28205476D01*
X-1058474Y-28189876D01*
X-1059864Y-28188671D01*
X-1067547Y-28187000D01*
X-1072743Y-28187000D01*
X-1077250Y-28187161D01*
X-1141267Y-28191740D01*
X-1154491Y-28194126D01*
X-1166803Y-28197741D01*
X-1220232Y-28201563D01*
X-1320552Y-28187139D01*
X-1320559Y-28187138D01*
X-1325000Y-28186500D01*
X-1875000Y-28186500D01*
X-1948079Y-28191727D01*
X-1967985Y-28197572D01*
X-2021412Y-28201393D01*
X-2120552Y-28187139D01*
X-2120559Y-28187138D01*
X-2125000Y-28186500D01*
X-2675000Y-28186500D01*
X-2748079Y-28191727D01*
X-2767986Y-28197572D01*
X-2821416Y-28201393D01*
X-2827893Y-28200462D01*
X-2834393Y-28199527D01*
X-2898974Y-28170033D01*
X-2905555Y-28163905D01*
X-3711973Y-27357487D01*
X-3719333Y-27349399D01*
X-3723391Y-27343005D01*
X-3772243Y-27297130D01*
X-3775084Y-27294376D01*
X-3795398Y-27274062D01*
X-3798809Y-27271417D01*
X-3807831Y-27263711D01*
X-3834287Y-27238867D01*
X-3840063Y-27233443D01*
X-3847007Y-27229626D01*
X-3847009Y-27229624D01*
X-3857817Y-27223682D01*
X-3874341Y-27212828D01*
X-3884078Y-27205275D01*
X-3884079Y-27205275D01*
X-3890341Y-27200417D01*
X-3897614Y-27197270D01*
X-3897617Y-27197268D01*
X-3918029Y-27188435D01*
X-3930906Y-27182863D01*
X-3941564Y-27177642D01*
X-3973370Y-27160156D01*
X-3973374Y-27160154D01*
X-3980316Y-27156338D01*
X-3987991Y-27154368D01*
X-3987992Y-27154367D01*
X-3999938Y-27151300D01*
X-4018645Y-27144895D01*
X-4029954Y-27140001D01*
X-4029956Y-27140001D01*
X-4037229Y-27136853D01*
X-4045057Y-27135613D01*
X-4045058Y-27135613D01*
X-4080891Y-27129938D01*
X-4092516Y-27127530D01*
X-4129582Y-27118013D01*
X-4129584Y-27118013D01*
X-4135339Y-27116535D01*
X-4135895Y-27116500D01*
X-4155818Y-27116500D01*
X-4175527Y-27114949D01*
X-4195309Y-27111816D01*
X-4231837Y-27115269D01*
X-4238946Y-27115941D01*
X-4250804Y-27116500D01*
X-4540581Y-27116500D01*
X-4608702Y-27096498D01*
X-4623087Y-27085729D01*
X-4672381Y-27043016D01*
X-4669890Y-27040142D01*
X-4704652Y-27000092D01*
X-4714813Y-26929826D01*
X-4685373Y-26865221D01*
X-4658202Y-26841658D01*
X-4657962Y-26841504D01*
X-4613729Y-26813077D01*
X-4590466Y-26786230D01*
X-4549963Y-26739488D01*
X-4490237Y-26701105D01*
X-4455476Y-26696107D01*
X-4439876Y-26691526D01*
X-4438671Y-26690136D01*
X-4437000Y-26682453D01*
X-4437000Y-26677257D01*
X-4437161Y-26672750D01*
X-4441740Y-26608733D01*
X-4444126Y-26595509D01*
X-4447741Y-26583197D01*
X-4451563Y-26529768D01*
X-4437139Y-26429448D01*
X-4437138Y-26429441D01*
X-4436500Y-26425000D01*
X-4436500Y-25875000D01*
X-4441727Y-25801921D01*
X-4447572Y-25782015D01*
X-4451393Y-25728588D01*
X-4437139Y-25629448D01*
X-4437138Y-25629441D01*
X-4436500Y-25625000D01*
X-4436500Y-25075000D01*
X-4441727Y-25001921D01*
X-4447572Y-24982015D01*
X-4451393Y-24928588D01*
X-4437139Y-24829448D01*
X-4437138Y-24829441D01*
X-4436500Y-24825000D01*
X-4436500Y-24275000D01*
X-4441727Y-24201921D01*
X-4447572Y-24182015D01*
X-4451393Y-24128588D01*
X-4437139Y-24029448D01*
X-4437138Y-24029441D01*
X-4436500Y-24025000D01*
X-4436500Y-23709500D01*
X-4416498Y-23641379D01*
X-4362842Y-23594886D01*
X-4310500Y-23583500D01*
X-4253214Y-23583500D01*
X-4185093Y-23603502D01*
G37*
%TD.AperFunction*%
%TA.AperFunction,Conductor*%
G36*
X-7021379Y-26003502D02*
G01*
X-6974886Y-26057158D01*
X-6963500Y-26109500D01*
X-6963500Y-26425000D01*
X-6958273Y-26498079D01*
X-6956370Y-26504559D01*
X-6952092Y-26519129D01*
X-6948271Y-26572560D01*
X-6962358Y-26670537D01*
X-6963000Y-26679506D01*
X-6963000Y-26726614D01*
X-6983002Y-26794735D01*
X-7036658Y-26841228D01*
X-7106932Y-26851332D01*
X-7115197Y-26849861D01*
X-7148056Y-26842876D01*
X-7148061Y-26842876D01*
X-7154513Y-26841504D01*
X-7345487Y-26841504D01*
X-7351939Y-26842876D01*
X-7351944Y-26842876D01*
X-7429445Y-26859350D01*
X-7532287Y-26881210D01*
X-7538317Y-26883895D01*
X-7538318Y-26883895D01*
X-7700720Y-26956201D01*
X-7700722Y-26956202D01*
X-7706750Y-26958886D01*
X-7712091Y-26962766D01*
X-7712092Y-26962767D01*
X-7855907Y-27067254D01*
X-7855909Y-27067256D01*
X-7861251Y-27071137D01*
X-7899688Y-27113826D01*
X-7946960Y-27146674D01*
X-7949261Y-27147585D01*
X-7949929Y-27147849D01*
X-7961136Y-27151684D01*
X-8003578Y-27164014D01*
X-8010401Y-27168049D01*
X-8021012Y-27174324D01*
X-8038764Y-27183020D01*
X-8057600Y-27190478D01*
X-8069296Y-27198976D01*
X-8093375Y-27216470D01*
X-8103292Y-27222984D01*
X-8141341Y-27245487D01*
X-8141759Y-27245855D01*
X-8155842Y-27259938D01*
X-8170867Y-27272772D01*
X-8187083Y-27284554D01*
X-8192137Y-27290663D01*
X-8197915Y-27296089D01*
X-8200244Y-27293609D01*
X-8246181Y-27324674D01*
X-8317158Y-27326336D01*
X-8377767Y-27289362D01*
X-8389873Y-27273727D01*
X-8440002Y-27197268D01*
X-8464269Y-27160254D01*
X-8592645Y-27038642D01*
X-8745555Y-26949825D01*
X-8914796Y-26898567D01*
X-8921236Y-26897992D01*
X-8921237Y-26897992D01*
X-8991185Y-26891749D01*
X-8991191Y-26891749D01*
X-8993978Y-26891500D01*
X-9992885Y-26891500D01*
X-10088105Y-26902602D01*
X-10118370Y-26906130D01*
X-10118371Y-26906130D01*
X-10125642Y-26906978D01*
X-10132520Y-26909474D01*
X-10132522Y-26909475D01*
X-10155181Y-26917700D01*
X-10291863Y-26967313D01*
X-10297984Y-26971326D01*
X-10297986Y-26971327D01*
X-10315845Y-26983036D01*
X-10439747Y-27064269D01*
X-10561358Y-27192645D01*
X-10576612Y-27218907D01*
X-10611393Y-27278786D01*
X-10662904Y-27327644D01*
X-10720347Y-27341500D01*
X-13146617Y-27341500D01*
X-13157521Y-27340986D01*
X-13164912Y-27339334D01*
X-13175679Y-27339672D01*
X-13177845Y-27339110D01*
X-13180730Y-27338837D01*
X-13180686Y-27338372D01*
X-13244394Y-27321823D01*
X-13292551Y-27269657D01*
X-13304861Y-27199736D01*
X-13277414Y-27134259D01*
X-13268736Y-27124640D01*
X-12164501Y-26020405D01*
X-12102189Y-25986379D01*
X-12075406Y-25983500D01*
X-7089500Y-25983500D01*
X-7021379Y-26003502D01*
G37*
%TD.AperFunction*%
%TA.AperFunction,Conductor*%
G36*
X4355411Y-24144662D02*
G01*
X4412246Y-24187209D01*
X4437057Y-24253729D01*
X4437057Y-24271126D01*
X4436500Y-24275000D01*
X4436500Y-24825000D01*
X4436661Y-24827250D01*
X4441197Y-24890663D01*
X4441727Y-24898079D01*
X4447675Y-24918335D01*
X4447908Y-24919129D01*
X4451729Y-24972560D01*
X4437642Y-25070537D01*
X4437093Y-25078202D01*
X4441475Y-25093124D01*
X4442865Y-25094329D01*
X4450548Y-25096000D01*
X4451174Y-25096000D01*
X4452963Y-25096525D01*
X4463783Y-25098879D01*
X4463615Y-25099653D01*
X4519295Y-25116002D01*
X4550626Y-25147332D01*
X4551149Y-25146879D01*
X4557051Y-25153691D01*
X4561923Y-25161271D01*
X4568733Y-25167172D01*
X4672381Y-25256984D01*
X4669890Y-25259859D01*
X4704651Y-25299908D01*
X4714812Y-25370174D01*
X4685372Y-25434779D01*
X4658202Y-25458341D01*
X4621311Y-25482050D01*
X4613729Y-25486923D01*
X4607828Y-25493733D01*
X4549963Y-25560512D01*
X4490237Y-25598895D01*
X4455476Y-25603893D01*
X4439876Y-25608474D01*
X4438671Y-25609864D01*
X4437000Y-25617547D01*
X4437000Y-25622743D01*
X4437161Y-25627250D01*
X4441740Y-25691267D01*
X4444126Y-25704491D01*
X4447741Y-25716803D01*
X4451563Y-25770232D01*
X4437139Y-25870552D01*
X4437138Y-25870559D01*
X4436500Y-25875000D01*
X4436500Y-26190500D01*
X4416498Y-26258621D01*
X4362842Y-26305114D01*
X4310500Y-26316500D01*
X2896987Y-26316500D01*
X2828866Y-26296498D01*
X2782373Y-26242842D01*
X2771677Y-26177330D01*
X2775157Y-26144218D01*
X2775847Y-26137653D01*
X2755885Y-25947726D01*
X2733716Y-25879496D01*
X2704284Y-25788913D01*
X2702257Y-25717945D01*
X2735022Y-25660882D01*
X3211122Y-25184783D01*
X3725941Y-24669964D01*
X4222283Y-24173623D01*
X4284595Y-24139597D01*
X4355411Y-24144662D01*
G37*
%TD.AperFunction*%
%TA.AperFunction,Conductor*%
G36*
X7303527Y-25203502D02*
G01*
X7324501Y-25220405D01*
X7405501Y-25301405D01*
X7439527Y-25363717D01*
X7434462Y-25434532D01*
X7391915Y-25491368D01*
X7325395Y-25516179D01*
X7316406Y-25516500D01*
X6859419Y-25516500D01*
X6791298Y-25496498D01*
X6776913Y-25485729D01*
X6727619Y-25443016D01*
X6730110Y-25440142D01*
X6695348Y-25400092D01*
X6685187Y-25329826D01*
X6714627Y-25265221D01*
X6741798Y-25241658D01*
X6778691Y-25217949D01*
X6778694Y-25217947D01*
X6786271Y-25213077D01*
X6786740Y-25212535D01*
X6847510Y-25184783D01*
X6865442Y-25183500D01*
X7235406Y-25183500D01*
X7303527Y-25203502D01*
G37*
%TD.AperFunction*%
%TA.AperFunction,Conductor*%
G36*
X6569747Y-15715651D02*
G01*
X7327113Y-16473018D01*
X8079596Y-17225501D01*
X8113622Y-17287813D01*
X8116501Y-17314596D01*
X8116500Y-18935406D01*
X8096498Y-19003527D01*
X8079595Y-19024501D01*
X7224501Y-19879595D01*
X7162189Y-19913621D01*
X7135406Y-19916500D01*
X7089500Y-19916500D01*
X7021379Y-19896498D01*
X6974886Y-19842842D01*
X6963500Y-19790500D01*
X6963500Y-19475000D01*
X6958273Y-19401921D01*
X6935345Y-19323835D01*
X6919635Y-19270330D01*
X6919634Y-19270328D01*
X6917096Y-19261684D01*
X6892574Y-19223528D01*
X6842949Y-19146309D01*
X6842947Y-19146306D01*
X6838077Y-19138729D01*
X6825670Y-19127978D01*
X6734431Y-19048918D01*
X6734428Y-19048916D01*
X6727619Y-19043016D01*
X6719421Y-19039272D01*
X6602864Y-18986042D01*
X6602863Y-18986042D01*
X6594670Y-18982300D01*
X6585755Y-18981018D01*
X6585754Y-18981018D01*
X6454448Y-18962139D01*
X6454441Y-18962138D01*
X6450000Y-18961500D01*
X4950000Y-18961500D01*
X4918814Y-18963731D01*
X4849442Y-18948641D01*
X4799238Y-18898439D01*
X4784146Y-18829065D01*
X4785108Y-18820119D01*
X4787360Y-18804457D01*
X4788000Y-18795503D01*
X4788000Y-18322115D01*
X4783525Y-18306876D01*
X4782135Y-18305671D01*
X4774452Y-18304000D01*
X4272115Y-18303999D01*
X4256875Y-18308474D01*
X4255671Y-18309864D01*
X4254000Y-18317546D01*
X4253999Y-19294885D01*
X4258474Y-19310124D01*
X4259864Y-19311329D01*
X4267547Y-19313000D01*
X4272743Y-19313000D01*
X4277245Y-19312839D01*
X4305751Y-19310800D01*
X4375126Y-19325890D01*
X4425329Y-19376092D01*
X4440421Y-19445466D01*
X4439460Y-19454408D01*
X4437140Y-19470547D01*
X4436500Y-19475000D01*
X4436500Y-20025000D01*
X4441727Y-20098079D01*
X4443630Y-20104559D01*
X4447572Y-20117985D01*
X4451393Y-20171412D01*
X4437139Y-20270552D01*
X4437138Y-20270559D01*
X4436500Y-20275000D01*
X4436500Y-20590500D01*
X4416498Y-20658621D01*
X4362842Y-20705114D01*
X4310500Y-20716500D01*
X3666036Y-20716500D01*
X3655132Y-20715986D01*
X3647741Y-20714334D01*
X3639816Y-20714583D01*
X3639815Y-20714583D01*
X3580800Y-20716438D01*
X3576842Y-20716500D01*
X3548075Y-20716500D01*
X3543790Y-20717041D01*
X3531956Y-20717973D01*
X3505939Y-20718791D01*
X3495689Y-20719113D01*
X3495688Y-20719113D01*
X3487769Y-20719362D01*
X3480161Y-20721572D01*
X3480156Y-20721573D01*
X3468314Y-20725013D01*
X3448960Y-20729021D01*
X3436732Y-20730566D01*
X3428865Y-20731560D01*
X3421497Y-20734477D01*
X3421490Y-20734479D01*
X3387752Y-20747837D01*
X3376522Y-20751682D01*
X3341684Y-20761803D01*
X3341683Y-20761804D01*
X3334074Y-20764014D01*
X3316641Y-20774324D01*
X3298894Y-20783018D01*
X3280053Y-20790478D01*
X3273638Y-20795139D01*
X3244282Y-20816467D01*
X3234365Y-20822982D01*
X3196311Y-20845487D01*
X3195893Y-20845855D01*
X3181811Y-20859937D01*
X3166778Y-20872778D01*
X3150570Y-20884554D01*
X3145518Y-20890661D01*
X3122629Y-20918329D01*
X3114639Y-20927109D01*
X1698118Y-22343631D01*
X299497Y-23742252D01*
X237185Y-23776278D01*
X210402Y-23779157D01*
X154513Y-23779157D01*
X148061Y-23780529D01*
X148056Y-23780529D01*
X61113Y-23799010D01*
X-32287Y-23818863D01*
X-38317Y-23821548D01*
X-38318Y-23821548D01*
X-200720Y-23893854D01*
X-200722Y-23893855D01*
X-206750Y-23896539D01*
X-212091Y-23900419D01*
X-212092Y-23900420D01*
X-355907Y-24004907D01*
X-355909Y-24004909D01*
X-361251Y-24008790D01*
X-365672Y-24013700D01*
X-365673Y-24013701D01*
X-483590Y-24144662D01*
X-489037Y-24150711D01*
X-492338Y-24156429D01*
X-560795Y-24275000D01*
X-584524Y-24316099D01*
X-586566Y-24322384D01*
X-632195Y-24462814D01*
X-672269Y-24521420D01*
X-737665Y-24549057D01*
X-807622Y-24536950D01*
X-841123Y-24512973D01*
X-1079595Y-24274501D01*
X-1113621Y-24212189D01*
X-1116500Y-24185406D01*
X-1116500Y-20952519D01*
X-1096498Y-20884398D01*
X-1084136Y-20868209D01*
X-1015382Y-20791850D01*
X-1015381Y-20791849D01*
X-1010963Y-20786942D01*
X-915476Y-20621554D01*
X-856462Y-20439927D01*
X-836500Y-20250000D01*
X-842543Y-20192501D01*
X-855772Y-20066637D01*
X-855772Y-20066636D01*
X-856462Y-20060073D01*
X-915476Y-19878446D01*
X-931214Y-19851186D01*
X-1007662Y-19718776D01*
X-1010963Y-19713058D01*
X-1089979Y-19625301D01*
X-1134327Y-19576048D01*
X-1134328Y-19576047D01*
X-1138749Y-19571137D01*
X-1184948Y-19537572D01*
X-1228300Y-19481352D01*
X-1234377Y-19410616D01*
X-1201246Y-19347824D01*
X-1139426Y-19312912D01*
X-1092957Y-19310919D01*
X-1079453Y-19312860D01*
X-1079450Y-19312860D01*
X-1075000Y-19313500D01*
X-525000Y-19313500D01*
X-451921Y-19308273D01*
X-432015Y-19302428D01*
X-378588Y-19298607D01*
X-279448Y-19312861D01*
X-279441Y-19312862D01*
X-275000Y-19313500D01*
X275000Y-19313500D01*
X348079Y-19308273D01*
X367985Y-19302428D01*
X421412Y-19298607D01*
X520552Y-19312861D01*
X520559Y-19312862D01*
X525000Y-19313500D01*
X1075000Y-19313500D01*
X1148079Y-19308273D01*
X1167985Y-19302428D01*
X1221412Y-19298607D01*
X1320552Y-19312861D01*
X1320559Y-19312862D01*
X1325000Y-19313500D01*
X1875000Y-19313500D01*
X1948079Y-19308273D01*
X1967985Y-19302428D01*
X2021412Y-19298607D01*
X2120552Y-19312861D01*
X2120559Y-19312862D01*
X2125000Y-19313500D01*
X2675000Y-19313500D01*
X2748079Y-19308273D01*
X2767985Y-19302428D01*
X2821412Y-19298607D01*
X2920552Y-19312861D01*
X2920559Y-19312862D01*
X2925000Y-19313500D01*
X3475000Y-19313500D01*
X3505353Y-19311329D01*
X3541342Y-19308755D01*
X3541343Y-19308755D01*
X3548079Y-19308273D01*
X3569130Y-19302092D01*
X3622560Y-19298271D01*
X3720537Y-19312358D01*
X3728202Y-19312907D01*
X3743124Y-19308525D01*
X3744329Y-19307135D01*
X3746000Y-19299452D01*
X3746000Y-19298826D01*
X3746525Y-19297037D01*
X3748879Y-19286217D01*
X3749653Y-19286385D01*
X3766002Y-19230705D01*
X3797332Y-19199374D01*
X3796879Y-19198851D01*
X3803691Y-19192949D01*
X3811271Y-19188077D01*
X3817172Y-19181267D01*
X3901082Y-19084431D01*
X3901084Y-19084428D01*
X3906984Y-19077619D01*
X3939920Y-19005500D01*
X3963958Y-18952864D01*
X3963958Y-18952863D01*
X3967700Y-18944670D01*
X3984089Y-18830683D01*
X3987861Y-18804448D01*
X3987862Y-18804441D01*
X3988500Y-18800000D01*
X3988500Y-17922000D01*
X4008502Y-17853879D01*
X4062158Y-17807386D01*
X4114500Y-17796000D01*
X4769885Y-17796001D01*
X4785124Y-17791526D01*
X4786329Y-17790136D01*
X4788000Y-17782453D01*
X4788000Y-17302257D01*
X4787839Y-17297750D01*
X4783260Y-17233731D01*
X4780874Y-17220509D01*
X4744181Y-17095542D01*
X4736767Y-17079308D01*
X4667571Y-16971636D01*
X4661786Y-16964959D01*
X4632294Y-16900378D01*
X4642400Y-16830104D01*
X4667915Y-16793355D01*
X4965867Y-16495404D01*
X5028179Y-16461379D01*
X5054962Y-16458500D01*
X5642886Y-16458500D01*
X5738106Y-16447398D01*
X5768371Y-16443870D01*
X5768372Y-16443870D01*
X5775643Y-16443022D01*
X5782521Y-16440526D01*
X5782523Y-16440525D01*
X5934985Y-16385184D01*
X5941864Y-16382687D01*
X6057950Y-16306578D01*
X6083628Y-16289743D01*
X6083629Y-16289742D01*
X6089747Y-16285731D01*
X6211358Y-16157355D01*
X6300175Y-16004445D01*
X6351433Y-15835204D01*
X6355151Y-15793545D01*
X6381129Y-15727472D01*
X6438706Y-15685933D01*
X6509599Y-15682116D01*
X6569747Y-15715651D01*
G37*
%TD.AperFunction*%
%TA.AperFunction,Conductor*%
G36*
X-9950867Y-3954832D02*
G01*
X-9895375Y-3999116D01*
X-9872633Y-4066372D01*
X-9876489Y-4102805D01*
X-9883465Y-4129976D01*
X-9883500Y-4130532D01*
X-9883500Y-4150454D01*
X-9885051Y-4170163D01*
X-9888184Y-4189945D01*
X-9887438Y-4197837D01*
X-9884059Y-4233583D01*
X-9883500Y-4245441D01*
X-9883499Y-17421600D01*
X-9884014Y-17432520D01*
X-9885666Y-17439912D01*
X-9885417Y-17447835D01*
X-9883561Y-17506884D01*
X-9883499Y-17510842D01*
X-9883499Y-17539578D01*
X-9883004Y-17543495D01*
X-9882960Y-17543844D01*
X-9882028Y-17555678D01*
X-9880638Y-17599883D01*
X-9878425Y-17607499D01*
X-9878425Y-17607501D01*
X-9874986Y-17619339D01*
X-9870977Y-17638698D01*
X-9868439Y-17658788D01*
X-9865519Y-17666163D01*
X-9852167Y-17699889D01*
X-9848322Y-17711118D01*
X-9835986Y-17753578D01*
X-9831951Y-17760401D01*
X-9825673Y-17771017D01*
X-9816977Y-17788769D01*
X-9809521Y-17807600D01*
X-9804859Y-17814016D01*
X-9783532Y-17843371D01*
X-9777017Y-17853289D01*
X-9754513Y-17891341D01*
X-9754145Y-17891759D01*
X-9740062Y-17905842D01*
X-9727221Y-17920875D01*
X-9715445Y-17937083D01*
X-9709338Y-17942135D01*
X-9681670Y-17965024D01*
X-9672890Y-17973014D01*
X-7503391Y-20142513D01*
X-7496031Y-20150601D01*
X-7491973Y-20156995D01*
X-7486196Y-20162420D01*
X-7443122Y-20202869D01*
X-7440280Y-20205624D01*
X-7419966Y-20225938D01*
X-7416555Y-20228583D01*
X-7407535Y-20236287D01*
X-7375301Y-20266557D01*
X-7368357Y-20270374D01*
X-7368355Y-20270376D01*
X-7357547Y-20276318D01*
X-7341023Y-20287172D01*
X-7325023Y-20299583D01*
X-7317752Y-20302730D01*
X-7317751Y-20302730D01*
X-7284449Y-20317141D01*
X-7273793Y-20322362D01*
X-7235048Y-20343662D01*
X-7227365Y-20345634D01*
X-7227364Y-20345635D01*
X-7215432Y-20348699D01*
X-7196728Y-20355103D01*
X-7185415Y-20359999D01*
X-7185408Y-20360001D01*
X-7178136Y-20363148D01*
X-7170312Y-20364387D01*
X-7170309Y-20364388D01*
X-7134465Y-20370065D01*
X-7122844Y-20372472D01*
X-7085782Y-20381987D01*
X-7080025Y-20383465D01*
X-7079469Y-20383500D01*
X-7059548Y-20383500D01*
X-7039838Y-20385051D01*
X-7027886Y-20386944D01*
X-7027885Y-20386944D01*
X-7020056Y-20388184D01*
X-7012164Y-20387438D01*
X-6976418Y-20384059D01*
X-6964560Y-20383500D01*
X-6859419Y-20383500D01*
X-6791298Y-20403502D01*
X-6776913Y-20414271D01*
X-6727619Y-20456984D01*
X-6730110Y-20459858D01*
X-6695348Y-20499908D01*
X-6685187Y-20570174D01*
X-6714627Y-20634779D01*
X-6741797Y-20658341D01*
X-6786271Y-20686923D01*
X-6792172Y-20693733D01*
X-6850037Y-20760512D01*
X-6909763Y-20798895D01*
X-6944524Y-20803893D01*
X-6960124Y-20808474D01*
X-6961329Y-20809864D01*
X-6963000Y-20817547D01*
X-6963000Y-20822743D01*
X-6962839Y-20827250D01*
X-6958260Y-20891267D01*
X-6955874Y-20904491D01*
X-6952259Y-20916803D01*
X-6948437Y-20970232D01*
X-6962861Y-21070552D01*
X-6962862Y-21070559D01*
X-6963500Y-21075000D01*
X-6963500Y-21625000D01*
X-6958273Y-21698079D01*
X-6956370Y-21704559D01*
X-6952428Y-21717985D01*
X-6948607Y-21771412D01*
X-6962861Y-21870552D01*
X-6962862Y-21870559D01*
X-6963500Y-21875000D01*
X-6963500Y-22425000D01*
X-6958273Y-22498079D01*
X-6956370Y-22504559D01*
X-6952428Y-22517985D01*
X-6948607Y-22571412D01*
X-6962861Y-22670552D01*
X-6962862Y-22670559D01*
X-6963500Y-22675000D01*
X-6963500Y-22990500D01*
X-6983502Y-23058621D01*
X-7037158Y-23105114D01*
X-7089500Y-23116500D01*
X-7298996Y-23116500D01*
X-7367117Y-23096498D01*
X-7388091Y-23079595D01*
X-10579595Y-19888091D01*
X-10613621Y-19825779D01*
X-10616500Y-19798996D01*
X-10616500Y-4073452D01*
X-10596498Y-4005331D01*
X-10542842Y-3958838D01*
X-10468837Y-3949328D01*
X-10355727Y-3969069D01*
X-10350121Y-3969040D01*
X-10350117Y-3969040D01*
X-10247063Y-3968500D01*
X-10131094Y-3967893D01*
X-10122887Y-3966372D01*
X-10071593Y-3956865D01*
X-10021491Y-3947579D01*
X-9950867Y-3954832D01*
G37*
%TD.AperFunction*%
%TA.AperFunction,Conductor*%
G36*
X-10206474Y-1153502D02*
G01*
X-10185500Y-1170405D01*
X-10119405Y-1236500D01*
X-10085379Y-1298812D01*
X-10090444Y-1369627D01*
X-10132991Y-1426463D01*
X-10199511Y-1451274D01*
X-10215753Y-1451386D01*
X-10284080Y-1447446D01*
X-10284083Y-1447446D01*
X-10289687Y-1447123D01*
X-10512696Y-1474111D01*
X-10518058Y-1475761D01*
X-10518060Y-1475761D01*
X-10571801Y-1492294D01*
X-10727402Y-1540163D01*
X-10732382Y-1542733D01*
X-10732386Y-1542735D01*
X-10847647Y-1602226D01*
X-10927017Y-1643192D01*
X-10931465Y-1646605D01*
X-11065933Y-1749785D01*
X-11105233Y-1779941D01*
X-11156476Y-1836257D01*
X-11217115Y-1873179D01*
X-11288091Y-1871456D01*
X-11337354Y-1841941D01*
X-11397058Y-1784084D01*
X-11454854Y-1728076D01*
X-11641304Y-1602787D01*
X-11646452Y-1600527D01*
X-11841848Y-1514754D01*
X-11841852Y-1514753D01*
X-11846995Y-1512495D01*
X-11852450Y-1511185D01*
X-11852454Y-1511184D01*
X-12059970Y-1461363D01*
X-12059974Y-1461362D01*
X-12065424Y-1460054D01*
X-12110856Y-1457434D01*
X-12284080Y-1447446D01*
X-12284083Y-1447446D01*
X-12289687Y-1447123D01*
X-12512696Y-1474111D01*
X-12518058Y-1475761D01*
X-12518060Y-1475761D01*
X-12571801Y-1492294D01*
X-12727402Y-1540163D01*
X-12732382Y-1542733D01*
X-12732386Y-1542735D01*
X-12847647Y-1602226D01*
X-12927017Y-1643192D01*
X-12931465Y-1646605D01*
X-13065933Y-1749785D01*
X-13105233Y-1779941D01*
X-13256416Y-1946089D01*
X-13278537Y-1981353D01*
X-13371950Y-2130267D01*
X-13375787Y-2136383D01*
X-13384911Y-2159081D01*
X-13428875Y-2214824D01*
X-13496000Y-2237951D01*
X-13564972Y-2221115D01*
X-13615544Y-2166330D01*
X-13660470Y-2072142D01*
X-13666159Y-2062523D01*
X-13687846Y-2032341D01*
X-13698637Y-2023929D01*
X-13711673Y-2030883D01*
X-14377978Y-2697188D01*
X-14385592Y-2711132D01*
X-14385461Y-2712965D01*
X-14381210Y-2719580D01*
X-13708663Y-3392127D01*
X-13696283Y-3398887D01*
X-13690018Y-3394197D01*
X-13611474Y-3249535D01*
X-13561392Y-3199213D01*
X-13492054Y-3183956D01*
X-13425475Y-3208608D01*
X-13390648Y-3248377D01*
X-13307245Y-3398221D01*
X-13295016Y-3420192D01*
X-13291465Y-3424530D01*
X-13291462Y-3424535D01*
X-13184600Y-3555095D01*
X-13152736Y-3594025D01*
X-13148473Y-3597666D01*
X-13148468Y-3597671D01*
X-13000207Y-3724297D01*
X-12981922Y-3739914D01*
X-12965832Y-3749316D01*
X-12792819Y-3850417D01*
X-12792816Y-3850418D01*
X-12787972Y-3853249D01*
X-12782702Y-3855178D01*
X-12782701Y-3855178D01*
X-12582282Y-3928521D01*
X-12582278Y-3928522D01*
X-12577018Y-3930447D01*
X-12571501Y-3931410D01*
X-12571497Y-3931411D01*
X-12425652Y-3956865D01*
X-12355727Y-3969069D01*
X-12350121Y-3969040D01*
X-12350117Y-3969040D01*
X-12247063Y-3968500D01*
X-12131094Y-3967893D01*
X-12122887Y-3966372D01*
X-12103529Y-3962784D01*
X-12032460Y-3949612D01*
X-11961836Y-3956865D01*
X-11906344Y-4001149D01*
X-11883499Y-4073502D01*
X-11883500Y-18916405D01*
X-11903502Y-18984526D01*
X-11957158Y-19031019D01*
X-12027432Y-19041123D01*
X-12092012Y-19011629D01*
X-12098595Y-19005500D01*
X-19762282Y-11341814D01*
X-19796451Y-11276458D01*
X-19796469Y-11276253D01*
X-19797948Y-11270847D01*
X-19797949Y-11270841D01*
X-19850947Y-11077115D01*
X-19855744Y-11059579D01*
X-19873296Y-11022779D01*
X-19950035Y-10861893D01*
X-19950036Y-10861892D01*
X-19952452Y-10856826D01*
X-19987927Y-10807457D01*
X-20080260Y-10678963D01*
X-20080262Y-10678961D01*
X-20083537Y-10674403D01*
X-20244854Y-10518076D01*
X-20431304Y-10392787D01*
X-20489161Y-10367390D01*
X-20543494Y-10321696D01*
X-20564499Y-10253877D01*
X-20545505Y-10185469D01*
X-20493755Y-10138939D01*
X-20490086Y-10137553D01*
X-20484518Y-10134221D01*
X-20346629Y-10051696D01*
X-20297333Y-10022193D01*
X-20128056Y-9874523D01*
X-19987604Y-9699210D01*
X-19880417Y-9501796D01*
X-19809883Y-9288521D01*
X-19778232Y-9066126D01*
X-19777829Y-9050749D01*
X-19776595Y-9003631D01*
X-19776595Y-9003629D01*
X-19776500Y-9000000D01*
X-19796469Y-8776253D01*
X-19855744Y-8559579D01*
X-19921543Y-8421627D01*
X-19950035Y-8361893D01*
X-19950036Y-8361892D01*
X-19952452Y-8356826D01*
X-19983277Y-8313929D01*
X-20080260Y-8178963D01*
X-20080262Y-8178961D01*
X-20083537Y-8174403D01*
X-20244854Y-8018076D01*
X-20249513Y-8014945D01*
X-20350775Y-7946900D01*
X-20396161Y-7892304D01*
X-20406500Y-7842318D01*
X-20406500Y-6854594D01*
X-20386498Y-6786473D01*
X-20369595Y-6765499D01*
X-17365792Y-3761696D01*
X-15436866Y-3761696D01*
X-15431585Y-3768751D01*
X-15292608Y-3849963D01*
X-15282487Y-3854726D01*
X-15082152Y-3928038D01*
X-15071367Y-3930928D01*
X-14861208Y-3967606D01*
X-14850076Y-3968541D01*
X-14636756Y-3967424D01*
X-14625622Y-3966372D01*
X-14415874Y-3927497D01*
X-14405103Y-3924490D01*
X-14205548Y-3849085D01*
X-14195492Y-3844224D01*
X-14073090Y-3770967D01*
X-14063521Y-3760610D01*
X-14067064Y-3752146D01*
X-14737188Y-3082022D01*
X-14751132Y-3074408D01*
X-14752965Y-3074539D01*
X-14759580Y-3078790D01*
X-15430106Y-3749316D01*
X-15436866Y-3761696D01*
X-17365792Y-3761696D01*
X-16223531Y-2619436D01*
X-16161219Y-2585410D01*
X-16090403Y-2590475D01*
X-16033568Y-2633022D01*
X-16008757Y-2699542D01*
X-16008479Y-2711830D01*
X-16010361Y-2783698D01*
X-16009659Y-2794850D01*
X-15977392Y-3005717D01*
X-15974725Y-3016578D01*
X-15905625Y-3218400D01*
X-15901077Y-3228614D01*
X-15812181Y-3388330D01*
X-15802128Y-3398221D01*
X-15794525Y-3395315D01*
X-14071156Y-1671946D01*
X-14064932Y-1660548D01*
X-14074743Y-1648114D01*
X-14136885Y-1606357D01*
X-14146685Y-1600969D01*
X-14342012Y-1515225D01*
X-14352611Y-1511658D01*
X-14560040Y-1461859D01*
X-14571102Y-1460226D01*
X-14756881Y-1449514D01*
X-14823737Y-1425624D01*
X-14867065Y-1369381D01*
X-14873106Y-1298642D01*
X-14838723Y-1234628D01*
X-14774500Y-1170405D01*
X-14712188Y-1136379D01*
X-14685405Y-1133500D01*
X-10274595Y-1133500D01*
X-10206474Y-1153502D01*
G37*
%TD.AperFunction*%
%TA.AperFunction,Conductor*%
G36*
X3347298Y-13402773D02*
G01*
X3391496Y-13432838D01*
X3392078Y-13432191D01*
X3396813Y-13436454D01*
X3396895Y-13436510D01*
X3401402Y-13441516D01*
X3406744Y-13445397D01*
X3406746Y-13445399D01*
X3546074Y-13546626D01*
X3555903Y-13553767D01*
X3561931Y-13556451D01*
X3561933Y-13556452D01*
X3703728Y-13619583D01*
X3730366Y-13631443D01*
X3823766Y-13651296D01*
X3910709Y-13669777D01*
X3910714Y-13669777D01*
X3917166Y-13671149D01*
X4108140Y-13671149D01*
X4114592Y-13669777D01*
X4114597Y-13669777D01*
X4201540Y-13651296D01*
X4294940Y-13631443D01*
X4333514Y-13614269D01*
X4353240Y-13605486D01*
X4464253Y-13556060D01*
X4534619Y-13546626D01*
X4598916Y-13576732D01*
X4636729Y-13636821D01*
X4641501Y-13671167D01*
X4641501Y-14027381D01*
X4621499Y-14095502D01*
X4584586Y-14132753D01*
X4491050Y-14194078D01*
X4460253Y-14214269D01*
X4455222Y-14219580D01*
X4455217Y-14219584D01*
X4340450Y-14340736D01*
X4279081Y-14376435D01*
X4208154Y-14373288D01*
X4150189Y-14332294D01*
X4143606Y-14323171D01*
X4139359Y-14316693D01*
X4130035Y-14305542D01*
X4012371Y-14194078D01*
X4000724Y-14185365D01*
X3860571Y-14103957D01*
X3847246Y-14098163D01*
X3691300Y-14050932D01*
X3678677Y-14048484D01*
X3608816Y-14042249D01*
X3603221Y-14042000D01*
X3497115Y-14042000D01*
X3481876Y-14046475D01*
X3480671Y-14047865D01*
X3479000Y-14055548D01*
X3479000Y-15378000D01*
X3458998Y-15446121D01*
X3405342Y-15492614D01*
X3353000Y-15504000D01*
X2160115Y-15504000D01*
X2144876Y-15508475D01*
X2143671Y-15509865D01*
X2142000Y-15517548D01*
X2142000Y-15739223D01*
X2142424Y-15746524D01*
X2156617Y-15868255D01*
X2159963Y-15882410D01*
X2215263Y-16034761D01*
X2221773Y-16047760D01*
X2310641Y-16183306D01*
X2319965Y-16194458D01*
X2437629Y-16305922D01*
X2449276Y-16314635D01*
X2589429Y-16396043D01*
X2602754Y-16401837D01*
X2758700Y-16449068D01*
X2771323Y-16451516D01*
X2841184Y-16457751D01*
X2846779Y-16458000D01*
X2907272Y-16458000D01*
X2975393Y-16478002D01*
X3021886Y-16531658D01*
X3031990Y-16601932D01*
X3002496Y-16666512D01*
X2996367Y-16673095D01*
X2910421Y-16759041D01*
X2851389Y-16789924D01*
X2851919Y-16791728D01*
X2832015Y-16797572D01*
X2778588Y-16801393D01*
X2679448Y-16787139D01*
X2679441Y-16787138D01*
X2675000Y-16786500D01*
X2125000Y-16786500D01*
X2051921Y-16791727D01*
X2032015Y-16797572D01*
X1978588Y-16801393D01*
X1879448Y-16787139D01*
X1879441Y-16787138D01*
X1875000Y-16786500D01*
X1325000Y-16786500D01*
X1251921Y-16791727D01*
X1232015Y-16797572D01*
X1178588Y-16801393D01*
X1079448Y-16787139D01*
X1079441Y-16787138D01*
X1075000Y-16786500D01*
X759500Y-16786500D01*
X691379Y-16766498D01*
X644886Y-16712842D01*
X633500Y-16660500D01*
X633500Y-16064594D01*
X653502Y-15996473D01*
X670405Y-15975499D01*
X1926905Y-14718999D01*
X1989217Y-14684973D01*
X2060032Y-14690038D01*
X2116868Y-14732585D01*
X2141679Y-14799105D01*
X2142000Y-14808094D01*
X2142000Y-14977885D01*
X2146475Y-14993124D01*
X2147865Y-14994329D01*
X2155548Y-14996000D01*
X2952885Y-14996000D01*
X2968124Y-14991525D01*
X2969329Y-14990135D01*
X2971000Y-14982452D01*
X2971000Y-14060115D01*
X2966525Y-14044876D01*
X2965135Y-14043671D01*
X2957452Y-14042000D01*
X2908095Y-14042000D01*
X2839974Y-14021998D01*
X2793481Y-13968342D01*
X2783377Y-13898068D01*
X2812871Y-13833488D01*
X2819000Y-13826905D01*
X3214171Y-13431734D01*
X3276483Y-13397708D01*
X3347298Y-13402773D01*
G37*
%TD.AperFunction*%
%TD*%
M02*
