%TF.GenerationSoftware,KiCad,Pcbnew,(5.99.0-7341-g2f3ca60c5e)*%
%TF.CreationDate,2020-12-04T16:45:41+01:00*%
%TF.ProjectId,pcb,7063622e-6b69-4636-9164-5f7063625858,rev?*%
%TF.SameCoordinates,Original*%
%TF.FileFunction,Copper,L1,Top*%
%TF.FilePolarity,Positive*%
%FSLAX46Y46*%
G04 Gerber Fmt 4.6, Leading zero omitted, Abs format (unit mm)*
G04 Created by KiCad (PCBNEW (5.99.0-7341-g2f3ca60c5e)) date 2020-12-04 16:45:41*
%MOMM*%
%LPD*%
G01*
G04 APERTURE LIST*
%TA.AperFunction,ComponentPad*%
%ADD10R,1.800000X1.800000*%
%TD*%
%TA.AperFunction,ComponentPad*%
%ADD11C,1.800000*%
%TD*%
%TA.AperFunction,ComponentPad*%
%ADD12O,1.500000X2.600000*%
%TD*%
%TA.AperFunction,ViaPad*%
%ADD13C,0.800000*%
%TD*%
%TA.AperFunction,Conductor*%
%ADD14C,0.250000*%
%TD*%
G04 APERTURE END LIST*
D10*
%TO.P,D1,1,K*%
%TO.N,Net-(R3-Pad1)*%
X-1270000Y37500000D03*
D11*
%TO.P,D1,2,A*%
%TO.N,VCC*%
X1270000Y37500000D03*
%TD*%
D12*
%TO.P,J1,6,Shield*%
%TO.N,GND*%
X3650000Y-40000000D03*
X3650000Y-35200000D03*
X-3650000Y-35200000D03*
X-3650000Y-40000000D03*
%TD*%
D13*
%TO.N,GND*%
X0Y-16510000D03*
%TO.N,SIGNAL*%
X0Y-33020000D03*
X5080000Y-16510000D03*
%TD*%
D14*
%TO.N,SIGNAL*%
X2540000Y-30480000D02*
X5080000Y-27940000D01*
X0Y-33020000D02*
X2540000Y-30480000D01*
X5080000Y-16510000D02*
X5080000Y-27940000D01*
%TD*%
%TA.AperFunction,Conductor*%
%TO.N,GND*%
G36*
X47771Y41986838D02*
G01*
X354621Y41973057D01*
X360262Y41972677D01*
X426372Y41966727D01*
X444149Y41965128D01*
X449756Y41964496D01*
X512403Y41956010D01*
X754179Y41923259D01*
X759762Y41922374D01*
X842598Y41907342D01*
X848132Y41906210D01*
X997888Y41872028D01*
X1147637Y41837849D01*
X1153116Y41836468D01*
X1234288Y41814066D01*
X1239703Y41812440D01*
X1343780Y41778623D01*
X1531849Y41717516D01*
X1537159Y41715659D01*
X1616068Y41686044D01*
X1621265Y41683959D01*
X1743344Y41631779D01*
X1903748Y41563218D01*
X1908895Y41560880D01*
X1984746Y41524352D01*
X1989784Y41521785D01*
X2260301Y41376215D01*
X2265192Y41373440D01*
X2337555Y41330206D01*
X2342273Y41327240D01*
X2598667Y41157996D01*
X2603259Y41154815D01*
X2671460Y41105264D01*
X2675940Y41101853D01*
X2916104Y40910328D01*
X2920444Y40906704D01*
X2983865Y40851294D01*
X2988038Y40847480D01*
X3210062Y40635204D01*
X3214060Y40631206D01*
X3272255Y40570339D01*
X3276053Y40566184D01*
X3478173Y40334839D01*
X3481786Y40330512D01*
X3534321Y40264634D01*
X3537746Y40260136D01*
X3718275Y40011658D01*
X3721495Y40007010D01*
X3767908Y39936698D01*
X3770916Y39931910D01*
X3928450Y39668243D01*
X3931241Y39663325D01*
X3971148Y39589164D01*
X3973715Y39584127D01*
X4107001Y39307359D01*
X4109331Y39302229D01*
X4109340Y39302209D01*
X4142441Y39224766D01*
X4144546Y39219518D01*
X4252480Y38931927D01*
X4254344Y38926598D01*
X4262379Y38901869D01*
X4280370Y38846499D01*
X4281996Y38841084D01*
X4286136Y38826082D01*
X4363721Y38544962D01*
X4365095Y38539509D01*
X4383837Y38457388D01*
X4384971Y38451852D01*
X4439815Y38149645D01*
X4440698Y38144071D01*
X4446155Y38103789D01*
X4452010Y38060561D01*
X4452643Y38054943D01*
X4480179Y37748994D01*
X4480559Y37743352D01*
X4485352Y37636631D01*
X4485471Y37632402D01*
X4487308Y37469917D01*
X4487428Y37459292D01*
X4488112Y37454871D01*
X4488113Y37454862D01*
X4490517Y37439328D01*
X4492000Y37420056D01*
X4492000Y36203036D01*
X4490862Y36186141D01*
X4488410Y36168016D01*
X4486340Y36152721D01*
X4486437Y36147861D01*
X4486437Y36147860D01*
X4489892Y35974884D01*
X4489917Y35972314D01*
X4489907Y35949012D01*
X4490483Y35945299D01*
X4490493Y35944816D01*
X4490704Y35943529D01*
X4490704Y35943524D01*
X4491665Y35937656D01*
X4491829Y35936630D01*
X4495024Y35916052D01*
X4542483Y35610332D01*
X4542927Y35608878D01*
X4543621Y35604393D01*
X4545098Y35599752D01*
X4545098Y35599750D01*
X4560035Y35552798D01*
X4560476Y35551384D01*
X4575063Y35503595D01*
X4576129Y35501970D01*
X4576540Y35500921D01*
X4647529Y35277787D01*
X4648190Y35276419D01*
X4649564Y35272094D01*
X4651731Y35267743D01*
X4673686Y35223654D01*
X4674327Y35222347D01*
X4696097Y35177310D01*
X4697400Y35175868D01*
X4697969Y35174890D01*
X4779660Y35010844D01*
X4802343Y34965293D01*
X4803206Y34964043D01*
X4805227Y34959980D01*
X4828394Y34927256D01*
X4836474Y34915842D01*
X4837305Y34914654D01*
X4865749Y34873456D01*
X4867256Y34872232D01*
X4867970Y34871351D01*
X5003260Y34680246D01*
X5004305Y34679142D01*
X5006926Y34675437D01*
X5010306Y34671951D01*
X5010309Y34671948D01*
X5044597Y34636591D01*
X5045622Y34635521D01*
X5076423Y34603002D01*
X5076434Y34602992D01*
X5080004Y34599223D01*
X5081679Y34598246D01*
X5082521Y34597484D01*
X5245528Y34429393D01*
X5246728Y34428465D01*
X5249887Y34425204D01*
X5253769Y34422273D01*
X5253771Y34422271D01*
X5293135Y34392548D01*
X5294301Y34391656D01*
X5333793Y34361101D01*
X5335599Y34360393D01*
X5336540Y34359774D01*
X5523407Y34218673D01*
X5524735Y34217940D01*
X5528356Y34215203D01*
X5532651Y34212897D01*
X5532654Y34212895D01*
X5576047Y34189596D01*
X5577347Y34188889D01*
X5621102Y34164729D01*
X5622998Y34164305D01*
X5624023Y34163838D01*
X5830320Y34053074D01*
X5831751Y34052551D01*
X5835747Y34050403D01*
X5840343Y34048784D01*
X5840347Y34048782D01*
X5868700Y34038793D01*
X5886783Y34032422D01*
X5888146Y34031933D01*
X5930245Y34016542D01*
X5930249Y34016541D01*
X5935134Y34014755D01*
X5937070Y34014627D01*
X5938165Y34014320D01*
X6130650Y33946505D01*
X6133066Y33945626D01*
X6150315Y33939150D01*
X6150320Y33939149D01*
X6154871Y33937440D01*
X6158549Y33936676D01*
X6159007Y33936515D01*
X6166483Y33935027D01*
X6167108Y33934899D01*
X6284531Y33910522D01*
X6288440Y33909710D01*
X6291760Y33908914D01*
X6294718Y33907856D01*
X6299496Y33906942D01*
X6299501Y33906941D01*
X6327337Y33901619D01*
X6329229Y33901242D01*
X6346461Y33897664D01*
X6354081Y33896082D01*
X6354084Y33896082D01*
X6358475Y33895170D01*
X6361577Y33894976D01*
X6364961Y33894425D01*
X6715977Y33827309D01*
X6717543Y33826999D01*
X7043954Y33760291D01*
X7046033Y33759848D01*
X7901365Y33569962D01*
X7903435Y33569484D01*
X8049426Y33534480D01*
X8178865Y33503444D01*
X8180820Y33502958D01*
X9029217Y33284338D01*
X9031243Y33283797D01*
X9186845Y33240890D01*
X9304270Y33208509D01*
X9306314Y33207927D01*
X10146852Y32960814D01*
X10148831Y32960215D01*
X10419263Y32875728D01*
X10421141Y32875123D01*
X11252930Y32599776D01*
X11254942Y32599092D01*
X11522162Y32505604D01*
X11524162Y32504885D01*
X11996750Y32330547D01*
X12346269Y32201609D01*
X12348168Y32200890D01*
X12612136Y32098421D01*
X12614012Y32097675D01*
X13138825Y31883692D01*
X13425326Y31766877D01*
X13427286Y31766059D01*
X13562596Y31708209D01*
X13687764Y31654695D01*
X13689542Y31653916D01*
X14313522Y31374597D01*
X14489223Y31295946D01*
X14491156Y31295062D01*
X14747681Y31174997D01*
X14749598Y31174079D01*
X15536664Y30789380D01*
X15538566Y30788431D01*
X15790868Y30659795D01*
X15792753Y30658814D01*
X16095658Y30497883D01*
X16566485Y30247736D01*
X16568308Y30246747D01*
X16816099Y30109688D01*
X16817950Y30108644D01*
X17577339Y29671721D01*
X17579172Y29670646D01*
X17822198Y29525308D01*
X17823951Y29524239D01*
X18045167Y29386825D01*
X18568181Y29061942D01*
X18569977Y29060806D01*
X18807956Y28907357D01*
X18809733Y28906190D01*
X19538020Y28419003D01*
X19539776Y28417806D01*
X19772329Y28256496D01*
X19774065Y28255270D01*
X20485449Y27743833D01*
X20487165Y27742578D01*
X20714241Y27573443D01*
X20715935Y27572159D01*
X21409669Y27037011D01*
X21411341Y27035698D01*
X21632577Y26859004D01*
X21634226Y26857664D01*
X22309494Y26299437D01*
X22311114Y26298075D01*
X22512111Y26126127D01*
X22526212Y26114064D01*
X22527811Y26112672D01*
X22580868Y26065711D01*
X23183928Y25531929D01*
X23185508Y25530507D01*
X23394295Y25339328D01*
X23395850Y25337879D01*
X24031937Y24735396D01*
X24033467Y24733922D01*
X24235708Y24535790D01*
X24237171Y24534332D01*
X24852737Y23910572D01*
X24854126Y23909141D01*
X25049517Y23704351D01*
X25050950Y23702823D01*
X25645139Y23058638D01*
X25646446Y23057197D01*
X25834931Y22845807D01*
X25836271Y22844278D01*
X25961480Y22698992D01*
X26408317Y22180502D01*
X26409691Y22178881D01*
X26590859Y21961348D01*
X26592132Y21959792D01*
X27141407Y21277169D01*
X27142723Y21275505D01*
X27316604Y21051787D01*
X27317782Y21050243D01*
X27499263Y20808436D01*
X27843717Y20349478D01*
X27844978Y20347768D01*
X28011067Y20118514D01*
X28012300Y20116782D01*
X28514265Y19398726D01*
X28515468Y19396974D01*
X28673819Y19162115D01*
X28674971Y19160374D01*
X28897733Y18817650D01*
X29152382Y18425866D01*
X29153525Y18424074D01*
X29303860Y18184013D01*
X29304973Y18182202D01*
X29757353Y17431975D01*
X29758435Y17430146D01*
X29900530Y17185249D01*
X29901580Y17183404D01*
X30145059Y16746977D01*
X30328466Y16418225D01*
X30329423Y16416475D01*
X30463212Y16166856D01*
X30464171Y16165031D01*
X30865029Y15385836D01*
X30865959Y15383989D01*
X30991218Y15130070D01*
X30992126Y15128188D01*
X31366392Y14336085D01*
X31366418Y14336029D01*
X31367310Y14334100D01*
X31483951Y14076056D01*
X31484810Y14074112D01*
X31832168Y13269775D01*
X31832994Y13267817D01*
X31940834Y13006061D01*
X31941627Y13004089D01*
X32261630Y12188563D01*
X32262390Y12186578D01*
X32314146Y12047844D01*
X32361411Y11921145D01*
X32362074Y11919319D01*
X32599719Y11247910D01*
X32654460Y11093252D01*
X32655114Y11091354D01*
X32745049Y10822956D01*
X32745707Y10820935D01*
X33010058Y9985489D01*
X33010682Y9983458D01*
X33091506Y9712198D01*
X33092096Y9710155D01*
X33328094Y8866342D01*
X33328649Y8864291D01*
X33400297Y8590381D01*
X33400817Y8588320D01*
X33608198Y7737115D01*
X33608684Y7735046D01*
X33671054Y7458868D01*
X33671494Y7456840D01*
X33850087Y6598909D01*
X33850473Y6596974D01*
X33903487Y6318870D01*
X33903862Y6316814D01*
X33990417Y5817070D01*
X34053394Y5453461D01*
X34053739Y5451364D01*
X34097360Y5171516D01*
X34097665Y5169445D01*
X34200667Y4426484D01*
X34217980Y4301605D01*
X34218254Y4299497D01*
X34252383Y4018560D01*
X34252622Y4016448D01*
X34343602Y3144990D01*
X34343800Y3142930D01*
X34358174Y2978418D01*
X34368450Y2860799D01*
X34368617Y2858680D01*
X34430147Y1984673D01*
X34430278Y1982552D01*
X34445390Y1699902D01*
X34445486Y1697779D01*
X34477497Y822247D01*
X34477557Y820128D01*
X34482359Y576122D01*
X34483129Y536978D01*
X34483152Y534900D01*
X34483450Y428966D01*
X34485612Y-341232D01*
X34485600Y-343357D01*
X34481619Y-626499D01*
X34481571Y-628624D01*
X34456384Y-1442678D01*
X34454475Y-1504364D01*
X34454392Y-1506459D01*
X34440864Y-1789253D01*
X34440864Y-1789256D01*
X34440746Y-1791361D01*
X34384122Y-2665737D01*
X34384120Y-2665764D01*
X34383964Y-2667883D01*
X34360913Y-2949958D01*
X34360726Y-2952027D01*
X34274626Y-3824128D01*
X34274415Y-3826105D01*
X34263317Y-3921949D01*
X34241850Y-4107341D01*
X34241587Y-4109450D01*
X34198582Y-4432995D01*
X34126133Y-4978050D01*
X34125857Y-4980006D01*
X34083798Y-5260161D01*
X34083486Y-5262126D01*
X33938811Y-6126258D01*
X33938810Y-6126263D01*
X33938442Y-6128356D01*
X33886989Y-6406758D01*
X33886587Y-6408835D01*
X33777444Y-6948302D01*
X33712836Y-7267641D01*
X33712397Y-7269720D01*
X33651594Y-7546174D01*
X33651120Y-7548246D01*
X33623225Y-7665606D01*
X33448511Y-8400658D01*
X33448507Y-8400673D01*
X33447998Y-8402737D01*
X33377884Y-8677061D01*
X33377340Y-8679116D01*
X33146093Y-9524203D01*
X33145515Y-9526248D01*
X33066189Y-9798045D01*
X33065576Y-9800080D01*
X33007794Y-9986322D01*
X32805990Y-10636774D01*
X32805981Y-10636802D01*
X32805334Y-10638827D01*
X32716865Y-10907853D01*
X32716184Y-10909866D01*
X32428506Y-11737372D01*
X32427791Y-11739374D01*
X32330319Y-12005208D01*
X32329571Y-12007197D01*
X32014139Y-12824539D01*
X32014124Y-12824577D01*
X32013359Y-12826510D01*
X31906963Y-13088934D01*
X31906202Y-13090769D01*
X31798428Y-13344228D01*
X31563311Y-13897168D01*
X31562463Y-13899116D01*
X31447308Y-14157732D01*
X31446427Y-14159667D01*
X31076546Y-14954003D01*
X31075632Y-14955922D01*
X30951871Y-15210396D01*
X30950926Y-15212300D01*
X30554452Y-15993728D01*
X30553474Y-15995615D01*
X30421160Y-16245846D01*
X30420151Y-16247716D01*
X30279365Y-16503435D01*
X29997572Y-17015276D01*
X29996563Y-17017073D01*
X29884623Y-17212519D01*
X29855825Y-17262800D01*
X29854753Y-17264635D01*
X29406575Y-18017415D01*
X29405472Y-18019232D01*
X29256531Y-18260062D01*
X29255398Y-18261860D01*
X28782067Y-18999117D01*
X28780904Y-19000896D01*
X28623937Y-19236546D01*
X28622744Y-19238305D01*
X28124823Y-19959164D01*
X28123600Y-19960903D01*
X27958760Y-20191143D01*
X27957510Y-20192858D01*
X27577538Y-20705103D01*
X27435498Y-20896588D01*
X27434217Y-20898284D01*
X27261767Y-21122750D01*
X27260458Y-21124424D01*
X26714991Y-21810162D01*
X26713654Y-21811814D01*
X26533820Y-22030228D01*
X26532455Y-22031858D01*
X25964121Y-22698862D01*
X25962729Y-22700468D01*
X25775535Y-22912798D01*
X25774154Y-22914339D01*
X25183721Y-23561708D01*
X25182276Y-23563266D01*
X24987956Y-23769236D01*
X24986484Y-23770770D01*
X24374568Y-24397835D01*
X24373071Y-24399343D01*
X24171960Y-24598595D01*
X24170437Y-24600078D01*
X23537702Y-25206158D01*
X23536155Y-25207615D01*
X23328504Y-25399909D01*
X23326933Y-25401340D01*
X22674093Y-25985754D01*
X22672497Y-25987159D01*
X22458397Y-26172408D01*
X22456778Y-26173785D01*
X21784589Y-26735849D01*
X21783028Y-26737132D01*
X21575556Y-26904749D01*
X21562755Y-26915091D01*
X21561090Y-26916412D01*
X21064928Y-27303615D01*
X20870424Y-27455405D01*
X20868766Y-27456677D01*
X20642563Y-27627144D01*
X20640980Y-27628317D01*
X19932317Y-28143858D01*
X19930752Y-28144975D01*
X19698851Y-28307769D01*
X19697181Y-28308920D01*
X18971663Y-28800172D01*
X18969894Y-28801349D01*
X18732863Y-28956078D01*
X18731075Y-28957223D01*
X17989467Y-29423681D01*
X17987660Y-29424797D01*
X17745455Y-29571496D01*
X17743684Y-29572549D01*
X16986672Y-30013779D01*
X16984827Y-30014833D01*
X16737858Y-30153253D01*
X16735995Y-30154277D01*
X15964585Y-30569690D01*
X15962705Y-30570682D01*
X15711241Y-30700675D01*
X15709345Y-30701635D01*
X15115259Y-30996154D01*
X14924288Y-31090828D01*
X14922439Y-31091726D01*
X14666737Y-31213160D01*
X14664840Y-31214042D01*
X13889987Y-31566133D01*
X13867020Y-31576569D01*
X13865077Y-31577432D01*
X13605510Y-31690134D01*
X13603554Y-31690964D01*
X12794006Y-32026354D01*
X12792060Y-32027141D01*
X12574824Y-32112876D01*
X12528785Y-32131046D01*
X12526802Y-32131809D01*
X11706419Y-32439693D01*
X11704454Y-32440412D01*
X11437800Y-32535385D01*
X11435801Y-32536078D01*
X10605577Y-32816089D01*
X10603649Y-32816722D01*
X10379903Y-32888004D01*
X10333752Y-32902707D01*
X10331721Y-32903335D01*
X9492562Y-33155169D01*
X9490606Y-33155738D01*
X9218030Y-33232552D01*
X9216004Y-33233104D01*
X8368818Y-33456491D01*
X8366758Y-33457015D01*
X8091792Y-33524579D01*
X8089724Y-33525069D01*
X7235477Y-33719753D01*
X7233400Y-33720208D01*
X6907322Y-33788757D01*
X6905759Y-33789075D01*
X6558569Y-33857482D01*
X6556132Y-33857881D01*
X6553681Y-33858009D01*
X6520060Y-33865061D01*
X6518680Y-33865342D01*
X6505842Y-33867871D01*
X6492596Y-33870481D01*
X6492593Y-33870482D01*
X6488197Y-33871348D01*
X6485901Y-33872152D01*
X6483487Y-33872733D01*
X6384487Y-33893500D01*
X6380423Y-33894283D01*
X6373935Y-33895423D01*
X6357138Y-33898374D01*
X6352481Y-33899961D01*
X6350027Y-33900728D01*
X6346950Y-33901374D01*
X6342732Y-33902909D01*
X6327849Y-33908325D01*
X6325399Y-33909188D01*
X6051068Y-34002658D01*
X6049267Y-34003255D01*
X6028393Y-34009987D01*
X6024049Y-34012174D01*
X6024047Y-34012175D01*
X5739651Y-34155364D01*
X5737794Y-34156280D01*
X5722520Y-34163658D01*
X5722513Y-34163662D01*
X5718137Y-34165776D01*
X5714139Y-34168537D01*
X5714133Y-34168541D01*
X5452132Y-34349512D01*
X5450422Y-34350673D01*
X5432270Y-34362776D01*
X5428687Y-34366064D01*
X5428686Y-34366065D01*
X5194096Y-34581352D01*
X5192562Y-34582736D01*
X5179880Y-34593997D01*
X5179873Y-34594004D01*
X5176230Y-34597239D01*
X5173127Y-34600997D01*
X5129807Y-34653459D01*
X5071010Y-34693251D01*
X5000033Y-34694937D01*
X4939412Y-34657984D01*
X4908393Y-34594122D01*
X4907148Y-34584432D01*
X4893539Y-34431938D01*
X4891556Y-34420923D01*
X4835267Y-34215165D01*
X4831373Y-34204692D01*
X4739531Y-34012143D01*
X4733845Y-34002528D01*
X4609361Y-33829289D01*
X4602053Y-33820823D01*
X4448860Y-33672368D01*
X4440178Y-33665338D01*
X4263108Y-33546351D01*
X4253319Y-33540970D01*
X4057988Y-33455225D01*
X4047389Y-33451658D01*
X3921617Y-33421463D01*
X3907530Y-33422168D01*
X3904000Y-33431047D01*
X3903999Y-34945998D01*
X3904000Y-34946004D01*
X3903999Y-36968325D01*
X3908104Y-36982307D01*
X3917724Y-36983799D01*
X3917952Y-36983751D01*
X4121851Y-36921024D01*
X4132195Y-36916803D01*
X4308208Y-36825955D01*
X4377915Y-36812486D01*
X4443838Y-36838841D01*
X4485048Y-36896653D01*
X4491998Y-36937921D01*
X4491999Y-38263686D01*
X4471997Y-38331807D01*
X4418341Y-38378300D01*
X4348067Y-38388404D01*
X4295723Y-38368268D01*
X4263108Y-38346351D01*
X4253319Y-38340970D01*
X4057988Y-38255225D01*
X4047389Y-38251658D01*
X3921617Y-38221463D01*
X3907530Y-38222168D01*
X3904000Y-38231047D01*
X3903999Y-39745998D01*
X3904000Y-39746004D01*
X3903999Y-41768325D01*
X3908104Y-41782307D01*
X3917724Y-41783799D01*
X3917952Y-41783751D01*
X4121851Y-41721024D01*
X4132195Y-41716803D01*
X4213622Y-41674775D01*
X4283329Y-41661306D01*
X4349252Y-41687661D01*
X4390462Y-41745473D01*
X4393875Y-41816388D01*
X4389465Y-41830780D01*
X4388441Y-41833525D01*
X4385002Y-41841828D01*
X4350256Y-41917912D01*
X4315507Y-41994001D01*
X4311483Y-42002040D01*
X4298564Y-42025699D01*
X4293975Y-42033434D01*
X4203535Y-42174161D01*
X4198405Y-42181549D01*
X4182249Y-42203131D01*
X4176605Y-42210135D01*
X4067056Y-42336561D01*
X4060927Y-42343143D01*
X4041873Y-42362197D01*
X4035290Y-42368326D01*
X3908866Y-42477873D01*
X3901866Y-42483516D01*
X3880280Y-42499675D01*
X3880273Y-42499680D01*
X3872886Y-42504808D01*
X3842870Y-42524098D01*
X3732160Y-42595246D01*
X3724425Y-42599835D01*
X3700773Y-42612750D01*
X3692731Y-42616776D01*
X3608069Y-42655441D01*
X3540562Y-42686270D01*
X3532255Y-42689712D01*
X3506984Y-42699137D01*
X3498453Y-42701976D01*
X3411592Y-42727481D01*
X3337956Y-42749103D01*
X3329246Y-42751326D01*
X3302884Y-42757060D01*
X3294036Y-42758656D01*
X3128466Y-42782462D01*
X3119525Y-42783424D01*
X3106484Y-42784356D01*
X3074380Y-42786652D01*
X3067688Y-42786952D01*
X2960229Y-42788909D01*
X2960223Y-42788910D01*
X2955751Y-42788991D01*
X2939317Y-42791651D01*
X2919185Y-42793270D01*
X-2917379Y-42793270D01*
X-2939028Y-42791396D01*
X-2947680Y-42789887D01*
X-2947679Y-42789887D01*
X-2952473Y-42789051D01*
X-2957332Y-42788962D01*
X-2957337Y-42788962D01*
X-3067689Y-42786952D01*
X-3074384Y-42786652D01*
X-3119513Y-42783424D01*
X-3128454Y-42782463D01*
X-3294040Y-42758656D01*
X-3302892Y-42757059D01*
X-3329246Y-42751326D01*
X-3329254Y-42751324D01*
X-3337966Y-42749100D01*
X-3346237Y-42746672D01*
X-3498460Y-42701975D01*
X-3506985Y-42699137D01*
X-3532252Y-42689712D01*
X-3540558Y-42686272D01*
X-3616642Y-42651526D01*
X-3692737Y-42616774D01*
X-3700770Y-42612753D01*
X-3724429Y-42599834D01*
X-3732164Y-42595245D01*
X-3872891Y-42504805D01*
X-3880279Y-42499675D01*
X-3901861Y-42483519D01*
X-3908865Y-42477875D01*
X-4035291Y-42368326D01*
X-4041873Y-42362197D01*
X-4060927Y-42343143D01*
X-4067056Y-42336560D01*
X-4176603Y-42210136D01*
X-4182247Y-42203134D01*
X-4182249Y-42203131D01*
X-4198412Y-42181540D01*
X-4203540Y-42174153D01*
X-4293976Y-42033430D01*
X-4298565Y-42025695D01*
X-4311480Y-42002043D01*
X-4315506Y-41994001D01*
X-4384998Y-41841838D01*
X-4388409Y-41833613D01*
X-4388566Y-41833193D01*
X-4393682Y-41762381D01*
X-4359702Y-41700044D01*
X-4297415Y-41665974D01*
X-4226595Y-41670987D01*
X-4219896Y-41673702D01*
X-4057988Y-41744775D01*
X-4047389Y-41748342D01*
X-3921617Y-41778537D01*
X-3907530Y-41777832D01*
X-3904000Y-41768953D01*
X-3904000Y-41768325D01*
X-3396001Y-41768325D01*
X-3391896Y-41782307D01*
X-3382276Y-41783799D01*
X-3382048Y-41783751D01*
X-3178149Y-41721024D01*
X-3167805Y-41716803D01*
X-2978235Y-41618958D01*
X-2968804Y-41612973D01*
X-2799550Y-41483101D01*
X-2791337Y-41475548D01*
X-2647756Y-41317755D01*
X-2641001Y-41308855D01*
X-2527645Y-41128149D01*
X-2522564Y-41118179D01*
X-2442998Y-40920253D01*
X-2439767Y-40909553D01*
X-2396307Y-40699690D01*
X-2395104Y-40690554D01*
X-2392105Y-40638541D01*
X-2392000Y-40634894D01*
X-2392000Y-40272115D01*
X-2393341Y-40267547D01*
X2392000Y-40267547D01*
X2392000Y-40603221D01*
X2392249Y-40608816D01*
X2406462Y-40768062D01*
X2408444Y-40779076D01*
X2464733Y-40984834D01*
X2468627Y-40995307D01*
X2560469Y-41187856D01*
X2566155Y-41197471D01*
X2690639Y-41370710D01*
X2697947Y-41379176D01*
X2851140Y-41527632D01*
X2859822Y-41534662D01*
X3036892Y-41653649D01*
X3046681Y-41659030D01*
X3242012Y-41744775D01*
X3252611Y-41748342D01*
X3378383Y-41778537D01*
X3392470Y-41777832D01*
X3396000Y-41768953D01*
X3396001Y-40272115D01*
X3391526Y-40256876D01*
X3390136Y-40255671D01*
X3382453Y-40254000D01*
X2410115Y-40253999D01*
X2394876Y-40258474D01*
X2393671Y-40259864D01*
X2392000Y-40267547D01*
X-2393341Y-40267547D01*
X-2396475Y-40256876D01*
X-2397865Y-40255671D01*
X-2405548Y-40254000D01*
X-3377885Y-40253999D01*
X-3393124Y-40258474D01*
X-3394329Y-40259864D01*
X-3396000Y-40267547D01*
X-3396001Y-41768325D01*
X-3904000Y-41768325D01*
X-3903999Y-40254000D01*
X-3904000Y-40253996D01*
X-3904000Y-39727885D01*
X-3396001Y-39727885D01*
X-3391526Y-39743124D01*
X-3390136Y-39744329D01*
X-3382453Y-39746000D01*
X-2410115Y-39746001D01*
X-2394876Y-39741526D01*
X-2393671Y-39740136D01*
X-2392000Y-39732453D01*
X-2392000Y-39396778D01*
X-2392249Y-39391183D01*
X-2394576Y-39365106D01*
X2392000Y-39365106D01*
X2392000Y-39727885D01*
X2396475Y-39743124D01*
X2397865Y-39744329D01*
X2405548Y-39746000D01*
X3377885Y-39746001D01*
X3393124Y-39741526D01*
X3394329Y-39740136D01*
X3396000Y-39732453D01*
X3396001Y-38231675D01*
X3391896Y-38217693D01*
X3382276Y-38216201D01*
X3382048Y-38216249D01*
X3178149Y-38278976D01*
X3167805Y-38283197D01*
X2978235Y-38381042D01*
X2968804Y-38387027D01*
X2799551Y-38516899D01*
X2791338Y-38524452D01*
X2647753Y-38682249D01*
X2641007Y-38691137D01*
X2527640Y-38871859D01*
X2522567Y-38881815D01*
X2442998Y-39079747D01*
X2439767Y-39090447D01*
X2396307Y-39300310D01*
X2395104Y-39309446D01*
X2392105Y-39361459D01*
X2392000Y-39365106D01*
X-2394576Y-39365106D01*
X-2406462Y-39231937D01*
X-2408444Y-39220923D01*
X-2464733Y-39015165D01*
X-2468627Y-39004692D01*
X-2560469Y-38812143D01*
X-2566155Y-38802528D01*
X-2690639Y-38629289D01*
X-2697947Y-38620823D01*
X-2851140Y-38472368D01*
X-2859822Y-38465338D01*
X-3036892Y-38346351D01*
X-3046681Y-38340970D01*
X-3242012Y-38255225D01*
X-3252611Y-38251658D01*
X-3378383Y-38221463D01*
X-3392470Y-38222168D01*
X-3396000Y-38231047D01*
X-3396001Y-39727885D01*
X-3904000Y-39727885D01*
X-3903999Y-38231675D01*
X-3908104Y-38217693D01*
X-3917724Y-38216201D01*
X-3917952Y-38216249D01*
X-4121851Y-38278976D01*
X-4132195Y-38283197D01*
X-4308209Y-38374045D01*
X-4377916Y-38387514D01*
X-4443840Y-38361159D01*
X-4485049Y-38303346D01*
X-4491999Y-38262079D01*
X-4491999Y-36936314D01*
X-4471997Y-36868193D01*
X-4418341Y-36821700D01*
X-4348067Y-36811596D01*
X-4295723Y-36831732D01*
X-4263108Y-36853649D01*
X-4253319Y-36859030D01*
X-4057988Y-36944775D01*
X-4047389Y-36948342D01*
X-3921617Y-36978537D01*
X-3907530Y-36977832D01*
X-3904000Y-36968953D01*
X-3904000Y-36968325D01*
X-3396001Y-36968325D01*
X-3391896Y-36982307D01*
X-3382276Y-36983799D01*
X-3382048Y-36983751D01*
X-3178149Y-36921024D01*
X-3167805Y-36916803D01*
X-2978235Y-36818958D01*
X-2968804Y-36812973D01*
X-2799550Y-36683101D01*
X-2791337Y-36675548D01*
X-2647756Y-36517755D01*
X-2641001Y-36508855D01*
X-2527645Y-36328149D01*
X-2522564Y-36318179D01*
X-2442998Y-36120253D01*
X-2439767Y-36109553D01*
X-2396307Y-35899690D01*
X-2395104Y-35890554D01*
X-2392105Y-35838541D01*
X-2392000Y-35834894D01*
X-2392000Y-35472115D01*
X-2393341Y-35467547D01*
X2392000Y-35467547D01*
X2392000Y-35803221D01*
X2392249Y-35808816D01*
X2406462Y-35968062D01*
X2408444Y-35979076D01*
X2464733Y-36184834D01*
X2468627Y-36195307D01*
X2560469Y-36387856D01*
X2566155Y-36397471D01*
X2690639Y-36570710D01*
X2697947Y-36579176D01*
X2851140Y-36727632D01*
X2859822Y-36734662D01*
X3036892Y-36853649D01*
X3046681Y-36859030D01*
X3242012Y-36944775D01*
X3252611Y-36948342D01*
X3378383Y-36978537D01*
X3392470Y-36977832D01*
X3396000Y-36968953D01*
X3396001Y-35472115D01*
X3391526Y-35456876D01*
X3390136Y-35455671D01*
X3382453Y-35454000D01*
X2410115Y-35453999D01*
X2394876Y-35458474D01*
X2393671Y-35459864D01*
X2392000Y-35467547D01*
X-2393341Y-35467547D01*
X-2396475Y-35456876D01*
X-2397865Y-35455671D01*
X-2405548Y-35454000D01*
X-3377885Y-35453999D01*
X-3393124Y-35458474D01*
X-3394329Y-35459864D01*
X-3396000Y-35467547D01*
X-3396001Y-36968325D01*
X-3904000Y-36968325D01*
X-3903999Y-35454000D01*
X-3904000Y-35453996D01*
X-3904000Y-34927885D01*
X-3396001Y-34927885D01*
X-3391526Y-34943124D01*
X-3390136Y-34944329D01*
X-3382453Y-34946000D01*
X-2410115Y-34946001D01*
X-2394876Y-34941526D01*
X-2393671Y-34940136D01*
X-2392000Y-34932453D01*
X-2392000Y-34596778D01*
X-2392249Y-34591183D01*
X-2394576Y-34565106D01*
X2392000Y-34565106D01*
X2392000Y-34927885D01*
X2396475Y-34943124D01*
X2397865Y-34944329D01*
X2405548Y-34946000D01*
X3377885Y-34946001D01*
X3393124Y-34941526D01*
X3394329Y-34940136D01*
X3396000Y-34932453D01*
X3396001Y-33431675D01*
X3391896Y-33417693D01*
X3382276Y-33416201D01*
X3382048Y-33416249D01*
X3178149Y-33478976D01*
X3167805Y-33483197D01*
X2978235Y-33581042D01*
X2968804Y-33587027D01*
X2799551Y-33716899D01*
X2791338Y-33724452D01*
X2647753Y-33882249D01*
X2641007Y-33891137D01*
X2527640Y-34071859D01*
X2522567Y-34081815D01*
X2442998Y-34279747D01*
X2439767Y-34290447D01*
X2396307Y-34500310D01*
X2395104Y-34509446D01*
X2392105Y-34561459D01*
X2392000Y-34565106D01*
X-2394576Y-34565106D01*
X-2406462Y-34431937D01*
X-2408444Y-34420923D01*
X-2464733Y-34215165D01*
X-2468627Y-34204692D01*
X-2560469Y-34012143D01*
X-2566155Y-34002528D01*
X-2690639Y-33829289D01*
X-2697947Y-33820823D01*
X-2851140Y-33672368D01*
X-2859822Y-33665338D01*
X-3036892Y-33546351D01*
X-3046681Y-33540970D01*
X-3242012Y-33455225D01*
X-3252611Y-33451658D01*
X-3378383Y-33421463D01*
X-3392470Y-33422168D01*
X-3396000Y-33431047D01*
X-3396001Y-34927885D01*
X-3904000Y-34927885D01*
X-3903999Y-33431675D01*
X-3908104Y-33417693D01*
X-3917724Y-33416201D01*
X-3917952Y-33416249D01*
X-4121851Y-33478976D01*
X-4132195Y-33483197D01*
X-4321765Y-33581042D01*
X-4331196Y-33587027D01*
X-4500449Y-33716899D01*
X-4508662Y-33724452D01*
X-4652247Y-33882249D01*
X-4658993Y-33891137D01*
X-4772360Y-34071859D01*
X-4777433Y-34081815D01*
X-4857002Y-34279747D01*
X-4860233Y-34290447D01*
X-4903693Y-34500310D01*
X-4904896Y-34509446D01*
X-4907895Y-34561459D01*
X-4908000Y-34565106D01*
X-4908000Y-34571596D01*
X-4928002Y-34639717D01*
X-4981658Y-34686210D01*
X-5051932Y-34696314D01*
X-5116512Y-34666820D01*
X-5131158Y-34651822D01*
X-5157582Y-34619821D01*
X-5158846Y-34618265D01*
X-5172485Y-34601184D01*
X-5176073Y-34597891D01*
X-5176076Y-34597888D01*
X-5410637Y-34382627D01*
X-5412148Y-34381218D01*
X-5424485Y-34369517D01*
X-5424492Y-34369512D01*
X-5428016Y-34366169D01*
X-5553133Y-34279747D01*
X-5694055Y-34182408D01*
X-5695743Y-34181221D01*
X-5696438Y-34180724D01*
X-5713458Y-34168551D01*
X-6002252Y-34023149D01*
X-6004066Y-34022216D01*
X-6019063Y-34014354D01*
X-6019065Y-34014353D01*
X-6023380Y-34012091D01*
X-6027990Y-34010520D01*
X-6027993Y-34010519D01*
X-6317745Y-33911796D01*
X-6321640Y-33910397D01*
X-6339187Y-33903768D01*
X-6339188Y-33903768D01*
X-6343745Y-33902046D01*
X-6348538Y-33901041D01*
X-6351060Y-33900445D01*
X-6354035Y-33899431D01*
X-6358436Y-33898602D01*
X-6358441Y-33898601D01*
X-6374056Y-33895661D01*
X-6376592Y-33895156D01*
X-6480264Y-33873410D01*
X-6482673Y-33872822D01*
X-6484982Y-33871982D01*
X-6518660Y-33865346D01*
X-6520149Y-33865043D01*
X-6546096Y-33859601D01*
X-6546097Y-33859601D01*
X-6550478Y-33858682D01*
X-6552899Y-33858525D01*
X-6555344Y-33858118D01*
X-6905736Y-33789080D01*
X-6907299Y-33788762D01*
X-7233425Y-33720203D01*
X-7235502Y-33719748D01*
X-8089724Y-33525070D01*
X-8091792Y-33524580D01*
X-8366739Y-33457020D01*
X-8368799Y-33456496D01*
X-8904790Y-33315166D01*
X-9216009Y-33233104D01*
X-9217913Y-33232584D01*
X-9490553Y-33155753D01*
X-9492581Y-33155163D01*
X-9942970Y-33020000D01*
X-913500Y-33020000D01*
X-912810Y-33026565D01*
X-899233Y-33155738D01*
X-893538Y-33209927D01*
X-891498Y-33216205D01*
X-891498Y-33216206D01*
X-859043Y-33316093D01*
X-834524Y-33391554D01*
X-831221Y-33397276D01*
X-831220Y-33397277D01*
X-803811Y-33444750D01*
X-739037Y-33556942D01*
X-734619Y-33561849D01*
X-734618Y-33561850D01*
X-641437Y-33665338D01*
X-611251Y-33698863D01*
X-605909Y-33702744D01*
X-605907Y-33702746D01*
X-462092Y-33807233D01*
X-456750Y-33811114D01*
X-450722Y-33813798D01*
X-450720Y-33813799D01*
X-288318Y-33886105D01*
X-282287Y-33888790D01*
X-190383Y-33908325D01*
X-101944Y-33927124D01*
X-101939Y-33927124D01*
X-95487Y-33928496D01*
X95487Y-33928496D01*
X101939Y-33927124D01*
X101944Y-33927124D01*
X190383Y-33908325D01*
X282287Y-33888790D01*
X288318Y-33886105D01*
X450720Y-33813799D01*
X450722Y-33813798D01*
X456750Y-33811114D01*
X462092Y-33807233D01*
X605907Y-33702746D01*
X605909Y-33702744D01*
X611251Y-33698863D01*
X641437Y-33665338D01*
X734618Y-33561850D01*
X734619Y-33561849D01*
X739037Y-33556942D01*
X803811Y-33444750D01*
X831220Y-33397277D01*
X831221Y-33397276D01*
X834524Y-33391554D01*
X859043Y-33316093D01*
X891498Y-33216206D01*
X891498Y-33216205D01*
X893538Y-33209927D01*
X899232Y-33155753D01*
X910903Y-33044710D01*
X937916Y-32979054D01*
X947118Y-32968786D01*
X5472513Y-28443391D01*
X5480601Y-28436031D01*
X5486995Y-28431973D01*
X5532870Y-28383121D01*
X5535624Y-28380280D01*
X5555937Y-28359967D01*
X5558582Y-28356556D01*
X5566288Y-28347534D01*
X5567347Y-28346407D01*
X5596557Y-28315301D01*
X5600698Y-28307769D01*
X5606317Y-28297548D01*
X5617173Y-28281021D01*
X5624722Y-28271289D01*
X5629582Y-28265024D01*
X5647143Y-28224445D01*
X5652351Y-28213813D01*
X5673662Y-28175048D01*
X5675633Y-28167371D01*
X5675635Y-28167366D01*
X5678698Y-28155434D01*
X5685104Y-28136722D01*
X5690001Y-28125408D01*
X5690002Y-28125404D01*
X5693147Y-28118137D01*
X5700064Y-28074463D01*
X5702468Y-28062855D01*
X5713465Y-28020025D01*
X5713500Y-28019469D01*
X5713500Y-27999547D01*
X5715051Y-27979836D01*
X5716944Y-27967884D01*
X5718184Y-27960056D01*
X5714059Y-27916421D01*
X5713500Y-27904563D01*
X5713500Y-17212519D01*
X5733502Y-17144398D01*
X5745864Y-17128209D01*
X5814618Y-17051850D01*
X5814619Y-17051849D01*
X5819037Y-17046942D01*
X5914524Y-16881554D01*
X5973538Y-16699927D01*
X5993500Y-16510000D01*
X5973538Y-16320073D01*
X5914524Y-16138446D01*
X5819037Y-15973058D01*
X5691251Y-15831137D01*
X5685909Y-15827256D01*
X5685907Y-15827254D01*
X5542092Y-15722767D01*
X5542091Y-15722766D01*
X5536750Y-15718886D01*
X5530722Y-15716202D01*
X5530720Y-15716201D01*
X5368318Y-15643895D01*
X5368317Y-15643895D01*
X5362287Y-15641210D01*
X5268887Y-15621357D01*
X5181944Y-15602876D01*
X5181939Y-15602876D01*
X5175487Y-15601504D01*
X4984513Y-15601504D01*
X4978061Y-15602876D01*
X4978056Y-15602876D01*
X4891113Y-15621357D01*
X4797713Y-15641210D01*
X4791683Y-15643895D01*
X4791682Y-15643895D01*
X4629280Y-15716201D01*
X4629278Y-15716202D01*
X4623250Y-15718886D01*
X4617909Y-15722766D01*
X4617908Y-15722767D01*
X4474093Y-15827254D01*
X4474091Y-15827256D01*
X4468749Y-15831137D01*
X4340963Y-15973058D01*
X4245476Y-16138446D01*
X4186462Y-16320073D01*
X4166500Y-16510000D01*
X4186462Y-16699927D01*
X4245476Y-16881554D01*
X4340963Y-17046942D01*
X4345381Y-17051849D01*
X4345382Y-17051850D01*
X4414136Y-17128209D01*
X4444854Y-17192216D01*
X4446500Y-17212519D01*
X4446501Y-27625405D01*
X4426499Y-27693526D01*
X4409596Y-27714500D01*
X49497Y-32074599D01*
X-12815Y-32108625D01*
X-39598Y-32111504D01*
X-95487Y-32111504D01*
X-101939Y-32112876D01*
X-101944Y-32112876D01*
X-187424Y-32131046D01*
X-282287Y-32151210D01*
X-288317Y-32153895D01*
X-288318Y-32153895D01*
X-450720Y-32226201D01*
X-450722Y-32226202D01*
X-456750Y-32228886D01*
X-462091Y-32232766D01*
X-462092Y-32232767D01*
X-605907Y-32337254D01*
X-605909Y-32337256D01*
X-611251Y-32341137D01*
X-615672Y-32346047D01*
X-615673Y-32346048D01*
X-700638Y-32440412D01*
X-739037Y-32483058D01*
X-742338Y-32488776D01*
X-801749Y-32591679D01*
X-834524Y-32648446D01*
X-836566Y-32654731D01*
X-889198Y-32816717D01*
X-893538Y-32830073D01*
X-913500Y-33020000D01*
X-9942970Y-33020000D01*
X-10331688Y-32903345D01*
X-10333719Y-32902717D01*
X-10349279Y-32897760D01*
X-10603661Y-32816717D01*
X-10605588Y-32816085D01*
X-11277537Y-32589456D01*
X-11435792Y-32536081D01*
X-11437800Y-32535385D01*
X-11704431Y-32440420D01*
X-11706427Y-32439690D01*
X-12526744Y-32131831D01*
X-12528727Y-32131068D01*
X-12792091Y-32027128D01*
X-12794062Y-32026331D01*
X-13603459Y-31691005D01*
X-13605415Y-31690175D01*
X-13758800Y-31623576D01*
X-13865178Y-31577388D01*
X-13867020Y-31576569D01*
X-14664804Y-31214059D01*
X-14666731Y-31213163D01*
X-14703423Y-31195738D01*
X-14922386Y-31091751D01*
X-14924239Y-31090851D01*
X-15200329Y-30953980D01*
X-15709272Y-30701672D01*
X-15711168Y-30700712D01*
X-15962708Y-30570680D01*
X-15964588Y-30569688D01*
X-16735953Y-30154299D01*
X-16737815Y-30153276D01*
X-16984791Y-30014853D01*
X-16986604Y-30013817D01*
X-17743685Y-29572549D01*
X-17745354Y-29571558D01*
X-17987584Y-29424843D01*
X-17989378Y-29423736D01*
X-18179624Y-29304075D01*
X-18731174Y-28957161D01*
X-18732862Y-28956078D01*
X-18732863Y-28956077D01*
X-18858792Y-28873873D01*
X-18969963Y-28801302D01*
X-18971732Y-28800126D01*
X-19121378Y-28698800D01*
X-19697139Y-28308950D01*
X-19698816Y-28307794D01*
X-19869845Y-28187732D01*
X-19930682Y-28145024D01*
X-19932410Y-28143789D01*
X-20640811Y-27628442D01*
X-20642520Y-27627177D01*
X-20688308Y-27592671D01*
X-2211059Y-27592671D01*
X-2210607Y-27596830D01*
X-2210607Y-27596834D01*
X-2190770Y-27779434D01*
X-2179380Y-27884283D01*
X-2178384Y-27888340D01*
X-2178383Y-27888343D01*
X-2175645Y-27899489D01*
X-2109411Y-28169145D01*
X-2107889Y-28173028D01*
X-2107888Y-28173032D01*
X-2007087Y-28430244D01*
X-2002382Y-28442250D01*
X-2000360Y-28445898D01*
X-2000358Y-28445902D01*
X-1866848Y-28686759D01*
X-1860174Y-28698800D01*
X-1857684Y-28702153D01*
X-1857680Y-28702159D01*
X-1687774Y-28930937D01*
X-1687769Y-28930942D01*
X-1685284Y-28934289D01*
X-1682380Y-28937275D01*
X-1682376Y-28937280D01*
X-1662982Y-28957223D01*
X-1480786Y-29144579D01*
X-1250272Y-29325976D01*
X-1124032Y-29400634D01*
X-1001384Y-29473168D01*
X-1001381Y-29473170D01*
X-997792Y-29475292D01*
X-993952Y-29476922D01*
X-993950Y-29476923D01*
X-939042Y-29500230D01*
X-727782Y-29589905D01*
X-723757Y-29591014D01*
X-723756Y-29591014D01*
X-638551Y-29614483D01*
X-444985Y-29667800D01*
X-440840Y-29668368D01*
X-440839Y-29668368D01*
X-422690Y-29670854D01*
X-154371Y-29707609D01*
X-150195Y-29707624D01*
X-150189Y-29707624D01*
X-5183Y-29708130D01*
X138955Y-29708633D01*
X429841Y-29670854D01*
X713174Y-29594935D01*
X940688Y-29500230D01*
X980118Y-29483817D01*
X980121Y-29483816D01*
X983978Y-29482210D01*
X987581Y-29480113D01*
X987585Y-29480111D01*
X1110736Y-29408435D01*
X1237494Y-29334660D01*
X1469269Y-29154877D01*
X1479425Y-29144579D01*
X1672292Y-28948999D01*
X1675230Y-28946020D01*
X1851759Y-28711757D01*
X1995755Y-28456206D01*
X2104688Y-28183855D01*
X2108861Y-28167366D01*
X2163315Y-27952165D01*
X2176644Y-27899489D01*
X2178404Y-27884283D01*
X2198048Y-27714500D01*
X2210358Y-27608105D01*
X2210508Y-27601994D01*
X2212930Y-27502854D01*
X2213000Y-27500000D01*
X2193560Y-27207317D01*
X2135582Y-26919775D01*
X2040083Y-26642428D01*
X1951174Y-26464879D01*
X1910618Y-26383891D01*
X1910617Y-26383889D01*
X1908743Y-26380147D01*
X1743868Y-26137541D01*
X1693872Y-26081623D01*
X1609411Y-25987159D01*
X1548355Y-25918872D01*
X1325639Y-25727981D01*
X1155595Y-25617553D01*
X1083132Y-25570495D01*
X1083129Y-25570493D01*
X1079633Y-25568223D01*
X814660Y-25442405D01*
X810677Y-25441126D01*
X810674Y-25441125D01*
X650307Y-25389637D01*
X535373Y-25352736D01*
X246681Y-25300792D01*
X84563Y-25293430D01*
X-42176Y-25287674D01*
X-42182Y-25287674D01*
X-46346Y-25287485D01*
X-50494Y-25287848D01*
X-50498Y-25287848D01*
X-206888Y-25301531D01*
X-338558Y-25313051D01*
X-342631Y-25313961D01*
X-342635Y-25313962D01*
X-620744Y-25376126D01*
X-620751Y-25376128D01*
X-624822Y-25377038D01*
X-900108Y-25478324D01*
X-903796Y-25480268D01*
X-903804Y-25480272D01*
X-1074927Y-25570495D01*
X-1159581Y-25615128D01*
X-1398681Y-25785048D01*
X-1613208Y-25985097D01*
X-1799392Y-26211762D01*
X-1953963Y-26461059D01*
X-2074205Y-26728610D01*
X-2076771Y-26737219D01*
X-2156815Y-27005716D01*
X-2156817Y-27005724D01*
X-2158006Y-27009713D01*
X-2158658Y-27013830D01*
X-2158659Y-27013834D01*
X-2167718Y-27071034D01*
X-2203892Y-27299430D01*
X-2203994Y-27303615D01*
X-2208029Y-27468666D01*
X-2210325Y-27562646D01*
X-2211059Y-27592671D01*
X-20688308Y-27592671D01*
X-20868730Y-27456705D01*
X-20870416Y-27455411D01*
X-21441535Y-27009713D01*
X-21561154Y-26916363D01*
X-21562792Y-26915062D01*
X-21782921Y-26737219D01*
X-21784563Y-26735870D01*
X-21784628Y-26735815D01*
X-22028847Y-26531607D01*
X-22456754Y-26173804D01*
X-22458372Y-26172427D01*
X-22672475Y-25987177D01*
X-22674071Y-25985773D01*
X-23326899Y-25401372D01*
X-23328471Y-25399941D01*
X-23536139Y-25207632D01*
X-23537686Y-25206174D01*
X-24170445Y-24600070D01*
X-24171968Y-24598587D01*
X-24373033Y-24399380D01*
X-24374530Y-24397872D01*
X-24986521Y-23770731D01*
X-24987992Y-23769197D01*
X-25182223Y-23563323D01*
X-25183669Y-23561765D01*
X-25774089Y-22914412D01*
X-25775508Y-22912829D01*
X-25793602Y-22892306D01*
X-25962773Y-22700418D01*
X-25964122Y-22698862D01*
X-26532399Y-22031925D01*
X-26533764Y-22030296D01*
X-26713677Y-21811787D01*
X-26715014Y-21810134D01*
X-27260450Y-21124435D01*
X-27261759Y-21122761D01*
X-27424352Y-20911125D01*
X-27434262Y-20898226D01*
X-27435540Y-20896533D01*
X-27957502Y-20192869D01*
X-27958754Y-20191152D01*
X-28123561Y-19960959D01*
X-28124783Y-19959220D01*
X-28294305Y-19713798D01*
X-28622745Y-19238304D01*
X-28623919Y-19236575D01*
X-28780871Y-19000947D01*
X-28782034Y-18999168D01*
X-29255424Y-18261821D01*
X-29256557Y-18260023D01*
X-29405406Y-18019340D01*
X-29406509Y-18017523D01*
X-29854739Y-17264659D01*
X-29855811Y-17262824D01*
X-29855824Y-17262800D01*
X-29996544Y-17017105D01*
X-29997571Y-17015276D01*
X-30420155Y-16247708D01*
X-30421164Y-16245838D01*
X-30553458Y-15995647D01*
X-30554436Y-15993760D01*
X-30564939Y-15973058D01*
X-30950927Y-15212300D01*
X-30951847Y-15210446D01*
X-31075630Y-14955927D01*
X-31076544Y-14954008D01*
X-31144879Y-14807255D01*
X-31446427Y-14159667D01*
X-31447255Y-14157850D01*
X-31562470Y-13899100D01*
X-31563318Y-13897152D01*
X-31906131Y-13090939D01*
X-31906946Y-13088976D01*
X-31908268Y-13085716D01*
X-32013384Y-12826447D01*
X-32014124Y-12824577D01*
X-32329570Y-12007197D01*
X-32330302Y-12005253D01*
X-32427799Y-11739350D01*
X-32428513Y-11737349D01*
X-32640659Y-11127116D01*
X-32716186Y-10909863D01*
X-32716850Y-10907900D01*
X-32716865Y-10907853D01*
X-32805369Y-10638718D01*
X-32805981Y-10636802D01*
X-33065583Y-9800057D01*
X-33066193Y-9798032D01*
X-33145519Y-9526234D01*
X-33146097Y-9524189D01*
X-33377333Y-8679142D01*
X-33377877Y-8677087D01*
X-33448001Y-8402722D01*
X-33448510Y-8400658D01*
X-33631954Y-7628886D01*
X-33651121Y-7548246D01*
X-33651580Y-7546238D01*
X-33712406Y-7269677D01*
X-33712845Y-7267598D01*
X-33715911Y-7252445D01*
X-33886594Y-6408800D01*
X-33886969Y-6406864D01*
X-33911998Y-6271437D01*
X-33938442Y-6128350D01*
X-33938810Y-6126258D01*
X-34083463Y-5262260D01*
X-34083797Y-5260161D01*
X-34124228Y-4990853D01*
X-34125854Y-4980024D01*
X-34126150Y-4977927D01*
X-34126656Y-4974116D01*
X-34141153Y-4865054D01*
X-34241584Y-4109473D01*
X-34241847Y-4107364D01*
X-34274410Y-3826148D01*
X-34274636Y-3824034D01*
X-34360718Y-2952114D01*
X-34360909Y-2949998D01*
X-34367247Y-2872443D01*
X-34383970Y-2667800D01*
X-34384122Y-2665737D01*
X-34413723Y-2208633D01*
X-34440745Y-1791368D01*
X-34440864Y-1789253D01*
X-34454392Y-1506459D01*
X-34454476Y-1504335D01*
X-34480044Y-677988D01*
X-34481572Y-628603D01*
X-34481619Y-626527D01*
X-34485600Y-343352D01*
X-34485612Y-341227D01*
X-34484915Y-92671D01*
X-29711059Y-92671D01*
X-29710607Y-96830D01*
X-29710607Y-96834D01*
X-29684057Y-341227D01*
X-29679380Y-384283D01*
X-29678384Y-388340D01*
X-29678383Y-388343D01*
X-29675645Y-399489D01*
X-29609411Y-669145D01*
X-29607889Y-673028D01*
X-29607888Y-673032D01*
X-29507087Y-930244D01*
X-29502382Y-942250D01*
X-29500360Y-945898D01*
X-29500358Y-945902D01*
X-29366848Y-1186759D01*
X-29360174Y-1198800D01*
X-29357684Y-1202153D01*
X-29357680Y-1202159D01*
X-29187774Y-1430937D01*
X-29187769Y-1430942D01*
X-29185284Y-1434289D01*
X-29182380Y-1437275D01*
X-29182376Y-1437280D01*
X-29117139Y-1504364D01*
X-28980786Y-1644579D01*
X-28750272Y-1825976D01*
X-28624032Y-1900634D01*
X-28501384Y-1973168D01*
X-28501381Y-1973170D01*
X-28497792Y-1975292D01*
X-28493952Y-1976922D01*
X-28493950Y-1976923D01*
X-28362787Y-2032598D01*
X-28227782Y-2089905D01*
X-28223757Y-2091014D01*
X-28223756Y-2091014D01*
X-28138551Y-2114483D01*
X-27944985Y-2167800D01*
X-27940840Y-2168368D01*
X-27940839Y-2168368D01*
X-27922690Y-2170854D01*
X-27654371Y-2207609D01*
X-27650195Y-2207624D01*
X-27650189Y-2207624D01*
X-27505183Y-2208130D01*
X-27361045Y-2208633D01*
X-27070159Y-2170854D01*
X-26786826Y-2094935D01*
X-26596630Y-2015764D01*
X-26519882Y-1983817D01*
X-26519879Y-1983816D01*
X-26516022Y-1982210D01*
X-26512419Y-1980113D01*
X-26512415Y-1980111D01*
X-26389264Y-1908435D01*
X-26262506Y-1834660D01*
X-26030731Y-1654877D01*
X-26023934Y-1647985D01*
X-25882305Y-1504364D01*
X-25824770Y-1446020D01*
X-25648241Y-1211757D01*
X-25504245Y-956206D01*
X-25395312Y-683855D01*
X-25381336Y-628625D01*
X-25324382Y-403543D01*
X-25323356Y-399489D01*
X-25321596Y-384283D01*
X-25289970Y-110938D01*
X-25289642Y-108105D01*
X-25289366Y-96834D01*
X-25287070Y-2854D01*
X-25287000Y0D01*
X-25306440Y292683D01*
X-25364418Y580225D01*
X-25459917Y857572D01*
X-25548826Y1035121D01*
X-25589382Y1116109D01*
X-25589383Y1116111D01*
X-25591257Y1119853D01*
X-25756132Y1362459D01*
X-25951645Y1581128D01*
X-26174361Y1772019D01*
X-26177864Y1774294D01*
X-26416868Y1929505D01*
X-26416871Y1929507D01*
X-26420367Y1931777D01*
X-26685340Y2057595D01*
X-26689323Y2058874D01*
X-26689326Y2058875D01*
X-26849693Y2110363D01*
X-26964627Y2147264D01*
X-27253319Y2199208D01*
X-27415437Y2206570D01*
X-27542176Y2212326D01*
X-27542182Y2212326D01*
X-27546346Y2212515D01*
X-27550494Y2212152D01*
X-27550498Y2212152D01*
X-27706888Y2198469D01*
X-27838558Y2186949D01*
X-27842631Y2186039D01*
X-27842635Y2186038D01*
X-28120744Y2123874D01*
X-28120751Y2123872D01*
X-28124822Y2122962D01*
X-28400108Y2021676D01*
X-28403796Y2019732D01*
X-28403804Y2019728D01*
X-28588439Y1922381D01*
X-28659581Y1884872D01*
X-28898681Y1714952D01*
X-29113208Y1514903D01*
X-29299392Y1288238D01*
X-29453963Y1038941D01*
X-29574205Y771390D01*
X-29575399Y767384D01*
X-29656815Y494284D01*
X-29656817Y494276D01*
X-29658006Y490287D01*
X-29658658Y486170D01*
X-29658659Y486166D01*
X-29667718Y428966D01*
X-29703892Y200570D01*
X-29703994Y196385D01*
X-29708029Y31334D01*
X-29710325Y-62646D01*
X-29711059Y-92671D01*
X-34484915Y-92671D01*
X-34484376Y99300D01*
X-34483153Y534854D01*
X-34483130Y536922D01*
X-34477555Y820197D01*
X-34477501Y822118D01*
X-34445483Y1697846D01*
X-34445392Y1699858D01*
X-34430274Y1982614D01*
X-34430146Y1984688D01*
X-34427440Y2023118D01*
X-34368615Y2858707D01*
X-34368448Y2860825D01*
X-34343807Y3142853D01*
X-34343604Y3144969D01*
X-34343601Y3144990D01*
X-34255567Y3988240D01*
X-34252624Y4016430D01*
X-34252385Y4018543D01*
X-34248098Y4053839D01*
X-4516067Y4053839D01*
X-4514593Y4044983D01*
X-4514593Y4044979D01*
X-4514328Y4043389D01*
X-4512665Y4019251D01*
X-4513764Y3979166D01*
X-4513251Y3974718D01*
X-4508830Y3936385D01*
X-4508000Y3921949D01*
X-4508000Y-3922039D01*
X-4509015Y-3938002D01*
X-4513854Y-3975889D01*
X-4513721Y-3980748D01*
X-4513721Y-3980754D01*
X-4512775Y-4015233D01*
X-4514103Y-4032936D01*
X-4514304Y-4038681D01*
X-4515885Y-4047513D01*
X-4514924Y-4056432D01*
X-4514924Y-4056435D01*
X-4511064Y-4092251D01*
X-4510386Y-4102298D01*
X-4510050Y-4114554D01*
X-4509293Y-4118971D01*
X-4506969Y-4132538D01*
X-4505885Y-4140316D01*
X-4503605Y-4161475D01*
X-4502345Y-4166177D01*
X-4502344Y-4166182D01*
X-4500691Y-4172350D01*
X-4498205Y-4183691D01*
X-4491206Y-4224551D01*
X-4487269Y-4232615D01*
X-4486558Y-4234072D01*
X-4478079Y-4256739D01*
X-4474116Y-4271530D01*
X-4470274Y-4293486D01*
X-4468973Y-4308821D01*
X-4465734Y-4317193D01*
X-4465733Y-4317197D01*
X-4455640Y-4343285D01*
X-4453373Y-4350229D01*
X-4453359Y-4350224D01*
X-4451894Y-4354462D01*
X-4450732Y-4358797D01*
X-4440093Y-4383679D01*
X-4438465Y-4387676D01*
X-4427615Y-4415722D01*
X-4425179Y-4419942D01*
X-4423080Y-4424327D01*
X-4423164Y-4424367D01*
X-4419939Y-4430816D01*
X-4410388Y-4453152D01*
X-4406857Y-4461409D01*
X-4394637Y-4476259D01*
X-4382817Y-4493315D01*
X-4370648Y-4514393D01*
X-4361257Y-4534601D01*
X-4356027Y-4549088D01*
X-4334222Y-4578935D01*
X-4330241Y-4585048D01*
X-4330229Y-4585040D01*
X-4327714Y-4588757D01*
X-4325475Y-4592636D01*
X-4322706Y-4596161D01*
X-4322702Y-4596167D01*
X-4308769Y-4613905D01*
X-4306127Y-4617390D01*
X-4288410Y-4641642D01*
X-4284962Y-4645090D01*
X-4281802Y-4648780D01*
X-4281873Y-4648841D01*
X-4277091Y-4654232D01*
X-4256538Y-4680397D01*
X-4249233Y-4685617D01*
X-4249232Y-4685618D01*
X-4240895Y-4691576D01*
X-4225062Y-4704991D01*
X-4216357Y-4713695D01*
X-4207840Y-4722213D01*
X-4193542Y-4739297D01*
X-4184742Y-4751935D01*
X-4177751Y-4757566D01*
X-4155961Y-4775117D01*
X-4150524Y-4780000D01*
X-4150514Y-4779988D01*
X-4147136Y-4782917D01*
X-4143960Y-4786093D01*
X-4122328Y-4802306D01*
X-4118875Y-4804989D01*
X-4095475Y-4823836D01*
X-4091258Y-4826271D01*
X-4087246Y-4829021D01*
X-4087299Y-4829098D01*
X-4081276Y-4833072D01*
X-4054657Y-4853021D01*
X-4036652Y-4859771D01*
X-4017889Y-4868629D01*
X-3996802Y-4880804D01*
X-3978563Y-4893612D01*
X-3966798Y-4903537D01*
X-3932988Y-4918484D01*
X-3926484Y-4921787D01*
X-3926477Y-4921773D01*
X-3922448Y-4923732D01*
X-3918561Y-4925976D01*
X-3914396Y-4927646D01*
X-3914394Y-4927647D01*
X-3893477Y-4936034D01*
X-3889444Y-4937734D01*
X-3861963Y-4949883D01*
X-3857263Y-4951142D01*
X-3852665Y-4952764D01*
X-3852696Y-4952851D01*
X-3845852Y-4955131D01*
X-3814979Y-4967511D01*
X-3795846Y-4969370D01*
X-3775420Y-4973073D01*
X-3760619Y-4977039D01*
X-3744032Y-4983361D01*
X-3738577Y-4985194D01*
X-3730563Y-4989228D01*
X-3721735Y-4990852D01*
X-3721731Y-4990853D01*
X-3686299Y-4997370D01*
X-3676486Y-4999583D01*
X-3672349Y-5000691D01*
X-3664642Y-5002756D01*
X-3657575Y-5003605D01*
X-3646531Y-5004932D01*
X-3638775Y-5006110D01*
X-3623981Y-5008830D01*
X-3617831Y-5009961D01*
X-3612969Y-5010094D01*
X-3612963Y-5010095D01*
X-3606575Y-5010270D01*
X-3595007Y-5011122D01*
X-3568315Y-5014328D01*
X-3563353Y-5014924D01*
X-3562754Y-5014996D01*
X-3553839Y-5016067D01*
X-3544983Y-5014593D01*
X-3544979Y-5014593D01*
X-3543389Y-5014328D01*
X-3519251Y-5012665D01*
X-3479166Y-5013764D01*
X-3436384Y-5008830D01*
X-3421949Y-5008000D01*
X3422039Y-5008000D01*
X3438003Y-5009015D01*
X3475889Y-5013854D01*
X3480748Y-5013721D01*
X3480754Y-5013721D01*
X3515233Y-5012775D01*
X3532936Y-5014103D01*
X3538681Y-5014304D01*
X3547513Y-5015885D01*
X3556432Y-5014924D01*
X3556435Y-5014924D01*
X3592251Y-5011064D01*
X3602298Y-5010386D01*
X3610074Y-5010173D01*
X3610077Y-5010173D01*
X3614554Y-5010050D01*
X3632538Y-5006969D01*
X3640316Y-5005885D01*
X3656633Y-5004127D01*
X3656636Y-5004126D01*
X3661475Y-5003605D01*
X3666177Y-5002345D01*
X3666182Y-5002344D01*
X3672350Y-5000691D01*
X3683691Y-4998205D01*
X3724551Y-4991206D01*
X3734074Y-4986557D01*
X3756739Y-4978079D01*
X3771530Y-4974116D01*
X3793486Y-4970274D01*
X3799875Y-4969732D01*
X3808821Y-4968973D01*
X3817193Y-4965734D01*
X3817197Y-4965733D01*
X3843285Y-4955640D01*
X3850229Y-4953373D01*
X3850224Y-4953359D01*
X3854462Y-4951894D01*
X3858797Y-4950732D01*
X3883679Y-4940093D01*
X3887676Y-4938465D01*
X3915722Y-4927615D01*
X3919942Y-4925179D01*
X3924327Y-4923080D01*
X3924367Y-4923164D01*
X3930816Y-4919939D01*
X3953152Y-4910388D01*
X3953154Y-4910387D01*
X3961409Y-4906857D01*
X3976259Y-4894637D01*
X3993312Y-4882819D01*
X4014392Y-4870648D01*
X4034601Y-4861257D01*
X4049088Y-4856027D01*
X4078935Y-4834222D01*
X4085048Y-4830241D01*
X4085040Y-4830229D01*
X4088757Y-4827714D01*
X4092636Y-4825475D01*
X4096161Y-4822706D01*
X4096167Y-4822702D01*
X4113905Y-4808769D01*
X4117390Y-4806127D01*
X4141642Y-4788410D01*
X4145090Y-4784962D01*
X4148780Y-4781802D01*
X4148841Y-4781873D01*
X4154233Y-4777090D01*
X4156745Y-4775117D01*
X4180397Y-4756538D01*
X4185618Y-4749232D01*
X4191576Y-4740895D01*
X4204991Y-4725062D01*
X4213695Y-4716357D01*
X4222213Y-4707840D01*
X4239297Y-4693542D01*
X4251935Y-4684742D01*
X4275117Y-4655961D01*
X4280000Y-4650524D01*
X4279988Y-4650514D01*
X4282917Y-4647136D01*
X4286093Y-4643960D01*
X4302306Y-4622328D01*
X4304989Y-4618875D01*
X4308992Y-4613905D01*
X4323836Y-4595475D01*
X4326271Y-4591258D01*
X4329021Y-4587246D01*
X4329098Y-4587299D01*
X4333074Y-4581273D01*
X4347638Y-4561840D01*
X4347638Y-4561839D01*
X4353021Y-4554657D01*
X4359771Y-4536652D01*
X4368629Y-4517889D01*
X4380804Y-4496802D01*
X4393612Y-4478563D01*
X4397748Y-4473660D01*
X4403537Y-4466798D01*
X4418484Y-4432988D01*
X4421787Y-4426484D01*
X4421773Y-4426477D01*
X4423732Y-4422448D01*
X4425976Y-4418561D01*
X4436035Y-4393476D01*
X4437743Y-4389422D01*
X4439402Y-4385671D01*
X4449883Y-4361963D01*
X4451142Y-4357263D01*
X4452764Y-4352665D01*
X4452851Y-4352696D01*
X4455132Y-4345850D01*
X4464170Y-4323311D01*
X4467511Y-4314979D01*
X4469370Y-4295846D01*
X4473073Y-4275420D01*
X4477039Y-4260619D01*
X4483361Y-4244032D01*
X4485194Y-4238577D01*
X4489228Y-4230563D01*
X4490852Y-4221735D01*
X4490853Y-4221731D01*
X4497370Y-4186299D01*
X4499583Y-4176486D01*
X4501594Y-4168978D01*
X4502756Y-4164642D01*
X4504932Y-4146531D01*
X4506110Y-4138775D01*
X4509079Y-4122627D01*
X4509961Y-4117831D01*
X4510144Y-4111186D01*
X4510270Y-4106575D01*
X4511122Y-4095007D01*
X4514996Y-4062754D01*
X4516067Y-4053839D01*
X4514593Y-4044983D01*
X4514593Y-4044979D01*
X4514328Y-4043389D01*
X4512665Y-4019251D01*
X4513515Y-3988240D01*
X4513764Y-3979166D01*
X4508830Y-3936384D01*
X4508000Y-3921949D01*
X4508000Y-92671D01*
X25288941Y-92671D01*
X25289393Y-96830D01*
X25289393Y-96834D01*
X25315943Y-341227D01*
X25320620Y-384283D01*
X25321616Y-388340D01*
X25321617Y-388343D01*
X25324355Y-399489D01*
X25390589Y-669145D01*
X25392111Y-673028D01*
X25392112Y-673032D01*
X25492913Y-930244D01*
X25497618Y-942250D01*
X25499640Y-945898D01*
X25499642Y-945902D01*
X25633152Y-1186759D01*
X25639826Y-1198800D01*
X25642316Y-1202153D01*
X25642320Y-1202159D01*
X25812226Y-1430937D01*
X25812231Y-1430942D01*
X25814716Y-1434289D01*
X25817620Y-1437275D01*
X25817624Y-1437280D01*
X25882861Y-1504364D01*
X26019214Y-1644579D01*
X26249728Y-1825976D01*
X26375968Y-1900634D01*
X26498616Y-1973168D01*
X26498619Y-1973170D01*
X26502208Y-1975292D01*
X26506048Y-1976922D01*
X26506050Y-1976923D01*
X26637213Y-2032598D01*
X26772218Y-2089905D01*
X26776243Y-2091014D01*
X26776244Y-2091014D01*
X26861449Y-2114483D01*
X27055015Y-2167800D01*
X27059160Y-2168368D01*
X27059161Y-2168368D01*
X27077310Y-2170854D01*
X27345629Y-2207609D01*
X27349805Y-2207624D01*
X27349811Y-2207624D01*
X27494817Y-2208130D01*
X27638955Y-2208633D01*
X27929841Y-2170854D01*
X28213174Y-2094935D01*
X28403370Y-2015764D01*
X28480118Y-1983817D01*
X28480121Y-1983816D01*
X28483978Y-1982210D01*
X28487581Y-1980113D01*
X28487585Y-1980111D01*
X28610736Y-1908435D01*
X28737494Y-1834660D01*
X28969269Y-1654877D01*
X28976066Y-1647985D01*
X29117695Y-1504364D01*
X29175230Y-1446020D01*
X29351759Y-1211757D01*
X29495755Y-956206D01*
X29604688Y-683855D01*
X29618664Y-628625D01*
X29675618Y-403543D01*
X29676644Y-399489D01*
X29678404Y-384283D01*
X29710030Y-110938D01*
X29710358Y-108105D01*
X29710634Y-96834D01*
X29712930Y-2854D01*
X29713000Y0D01*
X29693560Y292683D01*
X29635582Y580225D01*
X29540083Y857572D01*
X29451174Y1035121D01*
X29410618Y1116109D01*
X29410617Y1116111D01*
X29408743Y1119853D01*
X29243868Y1362459D01*
X29048355Y1581128D01*
X28825639Y1772019D01*
X28822136Y1774294D01*
X28583132Y1929505D01*
X28583129Y1929507D01*
X28579633Y1931777D01*
X28314660Y2057595D01*
X28310677Y2058874D01*
X28310674Y2058875D01*
X28150307Y2110363D01*
X28035373Y2147264D01*
X27746681Y2199208D01*
X27584563Y2206570D01*
X27457824Y2212326D01*
X27457818Y2212326D01*
X27453654Y2212515D01*
X27449506Y2212152D01*
X27449502Y2212152D01*
X27293112Y2198469D01*
X27161442Y2186949D01*
X27157369Y2186039D01*
X27157365Y2186038D01*
X26879256Y2123874D01*
X26879249Y2123872D01*
X26875178Y2122962D01*
X26599892Y2021676D01*
X26596204Y2019732D01*
X26596196Y2019728D01*
X26411561Y1922381D01*
X26340419Y1884872D01*
X26101319Y1714952D01*
X25886792Y1514903D01*
X25700608Y1288238D01*
X25546037Y1038941D01*
X25425795Y771390D01*
X25424601Y767384D01*
X25343185Y494284D01*
X25343183Y494276D01*
X25341994Y490287D01*
X25341342Y486170D01*
X25341341Y486166D01*
X25332282Y428966D01*
X25296108Y200570D01*
X25296006Y196385D01*
X25291971Y31334D01*
X25289675Y-62646D01*
X25288941Y-92671D01*
X4508000Y-92671D01*
X4508000Y3922039D01*
X4509015Y3938003D01*
X4510261Y3947758D01*
X4513854Y3975889D01*
X4513642Y3983637D01*
X4512775Y4015233D01*
X4514103Y4032936D01*
X4514304Y4038681D01*
X4515885Y4047513D01*
X4511064Y4092251D01*
X4510386Y4102298D01*
X4510173Y4110075D01*
X4510173Y4110078D01*
X4510050Y4114554D01*
X4509295Y4118962D01*
X4509293Y4118980D01*
X4506969Y4132541D01*
X4505884Y4140323D01*
X4504127Y4156632D01*
X4504127Y4156633D01*
X4503605Y4161476D01*
X4502344Y4166182D01*
X4502342Y4166193D01*
X4500690Y4172360D01*
X4498206Y4183692D01*
X4492721Y4215707D01*
X4491206Y4224551D01*
X4486556Y4234076D01*
X4478081Y4256731D01*
X4474115Y4271532D01*
X4470274Y4293486D01*
X4469732Y4299878D01*
X4469732Y4299880D01*
X4468973Y4308821D01*
X4455636Y4343294D01*
X4453372Y4350232D01*
X4453358Y4350227D01*
X4451894Y4354459D01*
X4450732Y4358797D01*
X4440089Y4383688D01*
X4438467Y4387672D01*
X4427615Y4415723D01*
X4425178Y4419945D01*
X4423078Y4424332D01*
X4423162Y4424372D01*
X4419935Y4430823D01*
X4410386Y4453156D01*
X4410385Y4453157D01*
X4406857Y4461409D01*
X4394645Y4476249D01*
X4382817Y4493315D01*
X4370646Y4514397D01*
X4361255Y4534604D01*
X4356027Y4549087D01*
X4334230Y4578923D01*
X4330243Y4585044D01*
X4330231Y4585036D01*
X4327717Y4588753D01*
X4325475Y4592636D01*
X4308795Y4613870D01*
X4306138Y4617377D01*
X4291286Y4637707D01*
X4291283Y4637710D01*
X4288411Y4641642D01*
X4284965Y4645088D01*
X4281804Y4648779D01*
X4281875Y4648840D01*
X4277088Y4654236D01*
X4262084Y4673337D01*
X4262079Y4673342D01*
X4256537Y4680397D01*
X4240886Y4691582D01*
X4225059Y4704994D01*
X4207849Y4722204D01*
X4193543Y4739297D01*
X4192431Y4740894D01*
X4184742Y4751936D01*
X4177751Y4757567D01*
X4177749Y4757569D01*
X4155953Y4775124D01*
X4150524Y4780000D01*
X4150514Y4779988D01*
X4147130Y4782922D01*
X4143960Y4786092D01*
X4122355Y4802284D01*
X4118883Y4804982D01*
X4099267Y4820782D01*
X4099265Y4820784D01*
X4095475Y4823836D01*
X4091259Y4826270D01*
X4087247Y4829020D01*
X4087299Y4829096D01*
X4081274Y4833073D01*
X4061840Y4847638D01*
X4061839Y4847639D01*
X4054657Y4853021D01*
X4036654Y4859770D01*
X4017888Y4868631D01*
X3996810Y4880800D01*
X3978568Y4893608D01*
X3966798Y4903537D01*
X3932988Y4918484D01*
X3926484Y4921787D01*
X3926477Y4921773D01*
X3922448Y4923732D01*
X3918561Y4925976D01*
X3893476Y4936035D01*
X3889444Y4937734D01*
X3861963Y4949883D01*
X3857263Y4951142D01*
X3852665Y4952764D01*
X3852696Y4952851D01*
X3845850Y4955132D01*
X3823311Y4964170D01*
X3814979Y4967511D01*
X3797866Y4969174D01*
X3795840Y4969371D01*
X3775425Y4973071D01*
X3760619Y4977038D01*
X3744031Y4983360D01*
X3738582Y4985191D01*
X3730563Y4989228D01*
X3686304Y4997368D01*
X3676482Y4999583D01*
X3675073Y4999961D01*
X3664641Y5002756D01*
X3660193Y5003291D01*
X3660190Y5003291D01*
X3646523Y5004933D01*
X3638772Y5006110D01*
X3617831Y5009961D01*
X3609412Y5010192D01*
X3606574Y5010270D01*
X3595005Y5011122D01*
X3572977Y5013768D01*
X3553839Y5016067D01*
X3544983Y5014593D01*
X3544979Y5014593D01*
X3543389Y5014328D01*
X3519251Y5012665D01*
X3479166Y5013764D01*
X3440400Y5009293D01*
X3436385Y5008830D01*
X3421949Y5008000D01*
X-3422039Y5008000D01*
X-3438003Y5009015D01*
X-3475889Y5013854D01*
X-3480748Y5013721D01*
X-3480754Y5013721D01*
X-3515233Y5012775D01*
X-3532936Y5014103D01*
X-3538681Y5014304D01*
X-3547513Y5015885D01*
X-3556432Y5014924D01*
X-3556435Y5014924D01*
X-3592251Y5011064D01*
X-3602298Y5010386D01*
X-3610075Y5010173D01*
X-3610078Y5010173D01*
X-3614554Y5010050D01*
X-3618962Y5009295D01*
X-3618980Y5009293D01*
X-3632541Y5006969D01*
X-3640320Y5005884D01*
X-3647784Y5005080D01*
X-3656632Y5004127D01*
X-3656633Y5004127D01*
X-3661476Y5003605D01*
X-3666182Y5002344D01*
X-3666193Y5002342D01*
X-3672360Y5000690D01*
X-3683692Y4998206D01*
X-3707411Y4994142D01*
X-3724551Y4991206D01*
X-3734076Y4986556D01*
X-3756731Y4978081D01*
X-3771532Y4974115D01*
X-3793486Y4970274D01*
X-3799878Y4969732D01*
X-3799880Y4969732D01*
X-3808821Y4968973D01*
X-3843294Y4955636D01*
X-3850232Y4953372D01*
X-3850227Y4953358D01*
X-3854459Y4951894D01*
X-3858797Y4950732D01*
X-3883688Y4940089D01*
X-3887672Y4938467D01*
X-3915723Y4927615D01*
X-3919945Y4925178D01*
X-3924332Y4923078D01*
X-3924372Y4923162D01*
X-3930823Y4919935D01*
X-3961409Y4906857D01*
X-3968340Y4901154D01*
X-3968341Y4901153D01*
X-3976248Y4894646D01*
X-3993315Y4882817D01*
X-4014397Y4870646D01*
X-4034604Y4861255D01*
X-4049087Y4856027D01*
X-4056336Y4850731D01*
X-4056338Y4850730D01*
X-4078923Y4834230D01*
X-4085044Y4830243D01*
X-4085036Y4830231D01*
X-4088753Y4827717D01*
X-4092636Y4825475D01*
X-4108839Y4812747D01*
X-4113870Y4808795D01*
X-4117377Y4806138D01*
X-4137707Y4791286D01*
X-4137710Y4791283D01*
X-4141642Y4788411D01*
X-4145088Y4784965D01*
X-4148779Y4781804D01*
X-4148840Y4781875D01*
X-4154236Y4777088D01*
X-4173337Y4762084D01*
X-4173342Y4762079D01*
X-4180397Y4756537D01*
X-4191582Y4740886D01*
X-4204994Y4725059D01*
X-4222204Y4707849D01*
X-4239297Y4693543D01*
X-4251936Y4684742D01*
X-4257567Y4677751D01*
X-4257569Y4677749D01*
X-4275124Y4655953D01*
X-4280000Y4650524D01*
X-4279988Y4650514D01*
X-4282922Y4647130D01*
X-4286092Y4643960D01*
X-4288778Y4640376D01*
X-4302284Y4622355D01*
X-4304982Y4618883D01*
X-4307621Y4615606D01*
X-4323836Y4595475D01*
X-4326270Y4591259D01*
X-4329020Y4587247D01*
X-4329096Y4587299D01*
X-4333072Y4581275D01*
X-4353021Y4554657D01*
X-4359769Y4536656D01*
X-4368631Y4517888D01*
X-4380800Y4496810D01*
X-4393608Y4478568D01*
X-4403537Y4466798D01*
X-4418480Y4432995D01*
X-4421787Y4426484D01*
X-4421773Y4426477D01*
X-4423732Y4422448D01*
X-4425976Y4418561D01*
X-4427646Y4414396D01*
X-4427647Y4414394D01*
X-4436034Y4393477D01*
X-4437734Y4389444D01*
X-4449883Y4361963D01*
X-4451142Y4357263D01*
X-4452764Y4352665D01*
X-4452851Y4352696D01*
X-4455131Y4345852D01*
X-4467511Y4314979D01*
X-4469174Y4297866D01*
X-4469371Y4295840D01*
X-4473071Y4275425D01*
X-4477038Y4260619D01*
X-4483360Y4244031D01*
X-4485191Y4238582D01*
X-4489228Y4230563D01*
X-4490851Y4221736D01*
X-4497368Y4186302D01*
X-4499583Y4176482D01*
X-4502756Y4164641D01*
X-4503291Y4160193D01*
X-4503291Y4160190D01*
X-4504933Y4146523D01*
X-4506110Y4138772D01*
X-4509961Y4117831D01*
X-4510094Y4112974D01*
X-4510270Y4106574D01*
X-4511122Y4095005D01*
X-4516067Y4053839D01*
X-34248098Y4053839D01*
X-34218247Y4299545D01*
X-34217973Y4301652D01*
X-34097667Y5169425D01*
X-34097358Y5171527D01*
X-34053736Y5451386D01*
X-34053391Y5453484D01*
X-34050552Y5469875D01*
X-33903862Y6316811D01*
X-33903490Y6318855D01*
X-33850487Y6596898D01*
X-33850072Y6598983D01*
X-33828929Y6700552D01*
X-33671494Y7456841D01*
X-33671051Y7458881D01*
X-33608695Y7734994D01*
X-33608209Y7737063D01*
X-33400823Y8588297D01*
X-33400303Y8590358D01*
X-33328636Y8864340D01*
X-33328081Y8866391D01*
X-33224738Y9235894D01*
X-33092092Y9710170D01*
X-33091538Y9712088D01*
X-33035381Y9900562D01*
X-33010653Y9983553D01*
X-33010029Y9985584D01*
X-32745721Y10820895D01*
X-32745062Y10822916D01*
X-32745048Y10822956D01*
X-32655133Y11091296D01*
X-32654443Y11093301D01*
X-32362090Y11919272D01*
X-32361364Y11921270D01*
X-32262405Y12186541D01*
X-32261645Y12188526D01*
X-31941609Y13004133D01*
X-31940816Y13006104D01*
X-31832975Y13267864D01*
X-31832149Y13269823D01*
X-31720313Y13528786D01*
X-31484793Y14074151D01*
X-31483936Y14076090D01*
X-31367284Y14334156D01*
X-31366392Y14336085D01*
X-30992140Y15128156D01*
X-30991216Y15130070D01*
X-30865939Y15384027D01*
X-30864983Y15385926D01*
X-30512806Y16070495D01*
X-30464163Y16165047D01*
X-30463179Y16166920D01*
X-30329459Y16416408D01*
X-30328440Y16418272D01*
X-29901581Y17183404D01*
X-29900529Y17185252D01*
X-29758413Y17430185D01*
X-29757331Y17432014D01*
X-29304919Y18182288D01*
X-29303806Y18184099D01*
X-29153559Y18424020D01*
X-29152416Y18425812D01*
X-28674898Y19160485D01*
X-28673725Y19162257D01*
X-28515532Y19396882D01*
X-28514329Y19398634D01*
X-28514264Y19398726D01*
X-28215739Y19825764D01*
X-28012268Y20116827D01*
X-28011035Y20118559D01*
X-27844973Y20347776D01*
X-27843712Y20349486D01*
X-27710620Y20526820D01*
X-27317698Y21050353D01*
X-27316496Y21051926D01*
X-27235443Y21156210D01*
X-27142781Y21275430D01*
X-27141463Y21277097D01*
X-26749101Y21764715D01*
X-26592088Y21959846D01*
X-26590859Y21961348D01*
X-26409610Y22178978D01*
X-26408319Y22180502D01*
X-25836272Y22844276D01*
X-25834871Y22845874D01*
X-25808510Y22875438D01*
X-25646397Y23057252D01*
X-25645067Y23058719D01*
X-25278897Y23455698D01*
X-25051026Y23702742D01*
X-25049572Y23704292D01*
X-24854100Y23909167D01*
X-24852620Y23910692D01*
X-24237269Y24534234D01*
X-24235763Y24535735D01*
X-24033384Y24734003D01*
X-24031853Y24735477D01*
X-23405070Y25329146D01*
X-23395831Y25337897D01*
X-23394297Y25339326D01*
X-23394294Y25339328D01*
X-23185489Y25530524D01*
X-23183909Y25531946D01*
X-22527751Y26112724D01*
X-22526148Y26114119D01*
X-22427223Y26198747D01*
X-22311060Y26298121D01*
X-22309581Y26299364D01*
X-21881083Y26653593D01*
X-21634190Y26857693D01*
X-21632541Y26859033D01*
X-21411290Y27035739D01*
X-21409617Y27037052D01*
X-20929610Y27407329D01*
X-2211059Y27407329D01*
X-2210607Y27403170D01*
X-2210607Y27403166D01*
X-2190770Y27220566D01*
X-2179380Y27115717D01*
X-2178384Y27111660D01*
X-2178383Y27111657D01*
X-2159725Y27035698D01*
X-2109411Y26830855D01*
X-2107889Y26826972D01*
X-2107888Y26826968D01*
X-2007087Y26569756D01*
X-2002382Y26557750D01*
X-2000360Y26554102D01*
X-2000358Y26554098D01*
X-1866848Y26313241D01*
X-1860174Y26301200D01*
X-1857684Y26297847D01*
X-1857680Y26297841D01*
X-1687774Y26069063D01*
X-1687769Y26069058D01*
X-1685284Y26065711D01*
X-1682380Y26062725D01*
X-1682376Y26062720D01*
X-1573335Y25950592D01*
X-1480786Y25855421D01*
X-1250272Y25674024D01*
X-1124032Y25599366D01*
X-1001384Y25526832D01*
X-1001381Y25526830D01*
X-997792Y25524708D01*
X-993952Y25523078D01*
X-993950Y25523077D01*
X-862787Y25467401D01*
X-727782Y25410095D01*
X-723757Y25408986D01*
X-723756Y25408986D01*
X-674853Y25395516D01*
X-444985Y25332200D01*
X-440840Y25331632D01*
X-440839Y25331632D01*
X-422690Y25329146D01*
X-154371Y25292391D01*
X-150195Y25292376D01*
X-150189Y25292376D01*
X-5183Y25291870D01*
X138955Y25291367D01*
X429841Y25329146D01*
X713174Y25405065D01*
X903370Y25484236D01*
X980118Y25516183D01*
X980121Y25516184D01*
X983978Y25517790D01*
X987581Y25519887D01*
X987585Y25519889D01*
X1110736Y25591565D01*
X1237494Y25665340D01*
X1469269Y25845123D01*
X1479425Y25855421D01*
X1672292Y26051001D01*
X1675230Y26053980D01*
X1851759Y26288243D01*
X1995755Y26543794D01*
X2104688Y26816145D01*
X2115541Y26859033D01*
X2175618Y27096457D01*
X2176644Y27100511D01*
X2178404Y27115717D01*
X2210030Y27389062D01*
X2210358Y27391895D01*
X2210634Y27403166D01*
X2212930Y27497146D01*
X2213000Y27500000D01*
X2193560Y27792683D01*
X2135582Y28080225D01*
X2040083Y28357572D01*
X2009285Y28419076D01*
X1910618Y28616109D01*
X1910617Y28616111D01*
X1908743Y28619853D01*
X1743868Y28862459D01*
X1703725Y28907357D01*
X1646112Y28971793D01*
X1548355Y29081128D01*
X1325639Y29272019D01*
X1155595Y29382447D01*
X1083132Y29429505D01*
X1083129Y29429507D01*
X1079633Y29431777D01*
X814660Y29557595D01*
X810677Y29558874D01*
X810674Y29558875D01*
X650307Y29610363D01*
X535373Y29647264D01*
X246681Y29699208D01*
X84563Y29706570D01*
X-42176Y29712326D01*
X-42182Y29712326D01*
X-46346Y29712515D01*
X-50494Y29712152D01*
X-50498Y29712152D01*
X-206888Y29698469D01*
X-338558Y29686949D01*
X-342631Y29686039D01*
X-342635Y29686038D01*
X-620744Y29623874D01*
X-620751Y29623872D01*
X-624822Y29622962D01*
X-900108Y29521676D01*
X-903796Y29519732D01*
X-903804Y29519728D01*
X-1074927Y29429505D01*
X-1159581Y29384872D01*
X-1398681Y29214952D01*
X-1613208Y29014903D01*
X-1799392Y28788238D01*
X-1953963Y28538941D01*
X-1955679Y28535124D01*
X-1955680Y28535121D01*
X-1971043Y28500937D01*
X-2074205Y28271390D01*
X-2100251Y28184022D01*
X-2156815Y27994284D01*
X-2156817Y27994276D01*
X-2158006Y27990287D01*
X-2158658Y27986170D01*
X-2158659Y27986166D01*
X-2201110Y27718136D01*
X-2203892Y27700570D01*
X-2207000Y27573444D01*
X-2208029Y27531334D01*
X-2210325Y27437354D01*
X-2211059Y27407329D01*
X-20929610Y27407329D01*
X-20715932Y27572160D01*
X-20714239Y27573444D01*
X-20487134Y27742600D01*
X-20485418Y27743855D01*
X-19774052Y28255278D01*
X-19772328Y28256496D01*
X-19539556Y28417958D01*
X-19537979Y28419032D01*
X-18991363Y28784688D01*
X-18809677Y28906226D01*
X-18807901Y28907393D01*
X-18738747Y28951984D01*
X-18569915Y29060847D01*
X-18568287Y29061877D01*
X-17823927Y29524253D01*
X-17822112Y29525359D01*
X-17657381Y29623874D01*
X-17579075Y29670704D01*
X-17577298Y29671746D01*
X-17294153Y29834656D01*
X-16817935Y30108651D01*
X-16816084Y30109695D01*
X-16568259Y30246773D01*
X-16566438Y30247761D01*
X-15792652Y30658866D01*
X-15790867Y30659795D01*
X-15538565Y30788431D01*
X-15536749Y30789338D01*
X-14980670Y31061136D01*
X-14749518Y31174117D01*
X-14747601Y31175033D01*
X-14491174Y31295054D01*
X-14489316Y31295905D01*
X-13689601Y31653890D01*
X-13687704Y31654721D01*
X-13579298Y31701069D01*
X-13427264Y31766069D01*
X-13425303Y31766887D01*
X-12981852Y31947695D01*
X-12614054Y32097657D01*
X-12612173Y32098405D01*
X-12348133Y32200903D01*
X-12346154Y32201652D01*
X-11524222Y32504864D01*
X-11522222Y32505583D01*
X-11522162Y32505604D01*
X-11254803Y32599141D01*
X-11252915Y32599783D01*
X-10421143Y32875123D01*
X-10419132Y32875769D01*
X-10148888Y32960197D01*
X-10146854Y32960814D01*
X-9306325Y33207924D01*
X-9304281Y33208506D01*
X-9031272Y33283790D01*
X-9029218Y33284338D01*
X-9029206Y33284341D01*
X-8180836Y33502953D01*
X-8178787Y33503463D01*
X-7903470Y33569476D01*
X-7901436Y33569946D01*
X-7046050Y33759844D01*
X-7043971Y33760287D01*
X-6717548Y33826997D01*
X-6715982Y33827307D01*
X-6571332Y33854965D01*
X-6368171Y33893810D01*
X-6364822Y33894345D01*
X-6361686Y33894503D01*
X-6329210Y33901245D01*
X-6327297Y33901626D01*
X-6302329Y33906400D01*
X-6302327Y33906401D01*
X-6297937Y33907240D01*
X-6295001Y33908249D01*
X-6291643Y33909044D01*
X-6277274Y33912027D01*
X-6187504Y33930665D01*
X-6185131Y33931133D01*
X-6162100Y33935425D01*
X-6158550Y33936676D01*
X-6158081Y33936773D01*
X-6156834Y33937224D01*
X-6156830Y33937225D01*
X-6151140Y33939283D01*
X-6150160Y33939632D01*
X-6131863Y33946078D01*
X-5938164Y34014320D01*
X-5841663Y34048318D01*
X-5841661Y34048319D01*
X-5838839Y34049313D01*
X-5837498Y34050013D01*
X-5833211Y34051521D01*
X-5828933Y34053818D01*
X-5828926Y34053821D01*
X-5785422Y34077180D01*
X-5784256Y34077797D01*
X-5739901Y34100943D01*
X-5738499Y34102290D01*
X-5737553Y34102880D01*
X-5531246Y34213649D01*
X-5530023Y34214550D01*
X-5526022Y34216696D01*
X-5482676Y34249427D01*
X-5481768Y34250104D01*
X-5441399Y34279846D01*
X-5440221Y34281392D01*
X-5439370Y34282126D01*
X-5252502Y34423227D01*
X-5251430Y34424307D01*
X-5247807Y34427040D01*
X-5210124Y34465898D01*
X-5209110Y34466932D01*
X-5177537Y34498733D01*
X-5173873Y34502423D01*
X-5172946Y34504131D01*
X-5172213Y34504993D01*
X-5009206Y34673085D01*
X-5008313Y34674315D01*
X-5005156Y34677568D01*
X-5002349Y34681533D01*
X-5002344Y34681539D01*
X-4973859Y34721774D01*
X-4972998Y34722976D01*
X-4946708Y34759202D01*
X-4946707Y34759204D01*
X-4943658Y34763405D01*
X-4943004Y34765234D01*
X-4942421Y34766183D01*
X-4807121Y34957300D01*
X-4806427Y34958654D01*
X-4803802Y34962358D01*
X-4801009Y34967967D01*
X-4779657Y35010844D01*
X-4778988Y35012167D01*
X-4758578Y35051972D01*
X-4758575Y35051978D01*
X-4756203Y35056605D01*
X-4755837Y35058514D01*
X-4755401Y35059555D01*
X-4744044Y35082360D01*
X-4651024Y35269158D01*
X-4650546Y35270601D01*
X-4648521Y35274663D01*
X-4632105Y35326261D01*
X-4631648Y35327669D01*
X-4617575Y35370170D01*
X-4615942Y35375100D01*
X-4615874Y35377037D01*
X-4615601Y35378138D01*
X-4545522Y35598413D01*
X-4545520Y35598421D01*
X-4544614Y35601268D01*
X-4544363Y35602771D01*
X-4542986Y35607091D01*
X-4534681Y35660589D01*
X-4534449Y35662027D01*
X-4527057Y35706211D01*
X-4526199Y35711337D01*
X-4526429Y35713264D01*
X-4526328Y35714392D01*
X-4495023Y35916052D01*
X-4494602Y35918590D01*
X-4494335Y35920105D01*
X-4490559Y35941534D01*
X-4490484Y35945294D01*
X-4490410Y35945770D01*
X-4490324Y35953073D01*
X-4490309Y35954061D01*
X-4489893Y35974884D01*
X-4486404Y36149438D01*
X-4488922Y36169934D01*
X-4491058Y36187313D01*
X-4491999Y36202680D01*
X-4492000Y37418438D01*
X-4490273Y37439228D01*
X-4488269Y37451207D01*
X-4487465Y37456013D01*
X-4485471Y37632403D01*
X-4485352Y37636632D01*
X-4480559Y37743354D01*
X-4480179Y37748996D01*
X-4452642Y38054947D01*
X-4452009Y38060565D01*
X-4440700Y38144054D01*
X-4439815Y38149639D01*
X-4394382Y38400000D01*
X-2683500Y38400000D01*
X-2683500Y36600000D01*
X-2678273Y36526921D01*
X-2657252Y36455330D01*
X-2647013Y36420460D01*
X-2637096Y36386684D01*
X-2632225Y36379105D01*
X-2562949Y36271309D01*
X-2562947Y36271306D01*
X-2558077Y36263729D01*
X-2551267Y36257828D01*
X-2454431Y36173918D01*
X-2454428Y36173916D01*
X-2447619Y36168016D01*
X-2439421Y36164272D01*
X-2327812Y36113302D01*
X-2314670Y36107300D01*
X-2305755Y36106018D01*
X-2305754Y36106018D01*
X-2174448Y36087139D01*
X-2174441Y36087138D01*
X-2170000Y36086500D01*
X-370000Y36086500D01*
X-296921Y36091727D01*
X-216355Y36115383D01*
X-165330Y36130365D01*
X-165328Y36130366D01*
X-156684Y36132904D01*
X-102049Y36168016D01*
X-41309Y36207051D01*
X-41306Y36207053D01*
X-33729Y36211923D01*
X-4019Y36246210D01*
X56082Y36315569D01*
X56084Y36315572D01*
X61984Y36322381D01*
X110430Y36428464D01*
X156923Y36482119D01*
X225044Y36502121D01*
X293165Y36482119D01*
X309428Y36469690D01*
X415399Y36374105D01*
X617318Y36246210D01*
X756183Y36188264D01*
X829810Y36157541D01*
X837900Y36154165D01*
X941402Y36130365D01*
X1065629Y36101799D01*
X1065633Y36101798D01*
X1070836Y36100602D01*
X1076169Y36100299D01*
X1076170Y36100299D01*
X1190152Y36093826D01*
X1309467Y36087051D01*
X1314774Y36087651D01*
X1314776Y36087651D01*
X1439921Y36101799D01*
X1546970Y36113901D01*
X1552085Y36115382D01*
X1552089Y36115383D01*
X1771430Y36178900D01*
X1771435Y36178902D01*
X1776553Y36180384D01*
X1991652Y36284599D01*
X2116903Y36374105D01*
X2181771Y36420460D01*
X2181773Y36420462D01*
X2186117Y36423566D01*
X2354388Y36593311D01*
X2491652Y36788981D01*
X2593986Y37004982D01*
X2658463Y37235137D01*
X2677568Y37418438D01*
X2682933Y37469917D01*
X2682933Y37469920D01*
X2683240Y37472864D01*
X2683500Y37500000D01*
X2663292Y37738160D01*
X2661951Y37743328D01*
X2604586Y37964345D01*
X2604584Y37964350D01*
X2603245Y37969510D01*
X2564760Y38054943D01*
X2507267Y38182574D01*
X2507266Y38182577D01*
X2505077Y38187435D01*
X2371594Y38385704D01*
X2362246Y38395504D01*
X2263619Y38498891D01*
X2206613Y38558649D01*
X2144759Y38604670D01*
X2019134Y38698137D01*
X2014852Y38701323D01*
X2010101Y38703739D01*
X2010097Y38703741D01*
X1806549Y38807230D01*
X1806548Y38807230D01*
X1801793Y38809648D01*
X1573528Y38880526D01*
X1552210Y38883352D01*
X1341868Y38911231D01*
X1341865Y38911231D01*
X1336585Y38911931D01*
X1331256Y38911731D01*
X1331255Y38911731D01*
X1251988Y38908755D01*
X1097738Y38902964D01*
X1030986Y38888958D01*
X869043Y38854979D01*
X869040Y38854978D01*
X863816Y38853882D01*
X641508Y38766089D01*
X636944Y38763320D01*
X636945Y38763320D01*
X441732Y38644862D01*
X441729Y38644860D01*
X437171Y38642094D01*
X307612Y38529668D01*
X243054Y38500129D01*
X172773Y38510183D01*
X119084Y38556637D01*
X104137Y38589336D01*
X99635Y38604670D01*
X99634Y38604672D01*
X97096Y38613316D01*
X44055Y38695849D01*
X22949Y38728691D01*
X22947Y38728694D01*
X18077Y38736271D01*
X-7411Y38758357D01*
X-85569Y38826082D01*
X-85572Y38826084D01*
X-92381Y38831984D01*
X-174825Y38869635D01*
X-217136Y38888958D01*
X-217137Y38888958D01*
X-225330Y38892700D01*
X-234245Y38893982D01*
X-234246Y38893982D01*
X-365552Y38912861D01*
X-365559Y38912862D01*
X-370000Y38913500D01*
X-2170000Y38913500D01*
X-2243079Y38908273D01*
X-2296116Y38892700D01*
X-2374670Y38869635D01*
X-2374672Y38869634D01*
X-2383316Y38867096D01*
X-2390895Y38862225D01*
X-2498691Y38792949D01*
X-2498694Y38792947D01*
X-2506271Y38788077D01*
X-2512172Y38781267D01*
X-2596082Y38684431D01*
X-2596084Y38684428D01*
X-2601984Y38677619D01*
X-2605728Y38669421D01*
X-2658077Y38554792D01*
X-2662700Y38544670D01*
X-2663982Y38535755D01*
X-2663982Y38535754D01*
X-2682861Y38404448D01*
X-2682862Y38404441D01*
X-2683500Y38400000D01*
X-4394382Y38400000D01*
X-4384975Y38451833D01*
X-4383841Y38457373D01*
X-4365093Y38539513D01*
X-4363711Y38544996D01*
X-4282000Y38841069D01*
X-4280374Y38846484D01*
X-4254341Y38926606D01*
X-4252474Y38931943D01*
X-4155489Y39190358D01*
X-4144535Y39219544D01*
X-4142434Y39224780D01*
X-4109339Y39302209D01*
X-4107001Y39307358D01*
X-4107000Y39307359D01*
X-4096277Y39329626D01*
X-3973710Y39584136D01*
X-3971143Y39589173D01*
X-3931256Y39663296D01*
X-3928466Y39668214D01*
X-3770903Y39931931D01*
X-3767894Y39936720D01*
X-3721488Y40007021D01*
X-3718268Y40011668D01*
X-3537745Y40260138D01*
X-3534320Y40264636D01*
X-3481798Y40330497D01*
X-3478174Y40334839D01*
X-3478161Y40334853D01*
X-3327056Y40507806D01*
X-3276052Y40566184D01*
X-3272237Y40570357D01*
X-3214056Y40631210D01*
X-3210058Y40635208D01*
X-2988028Y40847490D01*
X-2983855Y40851304D01*
X-2920419Y40906727D01*
X-2916135Y40910304D01*
X-2675926Y41101865D01*
X-2671474Y41105254D01*
X-2603270Y41154807D01*
X-2598647Y41158010D01*
X-2342299Y41327223D01*
X-2337512Y41330231D01*
X-2333376Y41332702D01*
X-2265181Y41373447D01*
X-2260318Y41376206D01*
X-1989790Y41521784D01*
X-1984788Y41524333D01*
X-1955512Y41538431D01*
X-1908860Y41560897D01*
X-1903713Y41563234D01*
X-1621301Y41683943D01*
X-1616054Y41686048D01*
X-1537175Y41715652D01*
X-1531837Y41717520D01*
X-1239701Y41812440D01*
X-1234287Y41814066D01*
X-1207981Y41821326D01*
X-1153106Y41836471D01*
X-1147652Y41837845D01*
X-1010757Y41869090D01*
X-848120Y41906211D01*
X-842581Y41907345D01*
X-759764Y41922374D01*
X-754180Y41923259D01*
X-695071Y41931266D01*
X-449746Y41964498D01*
X-444159Y41965127D01*
X-407520Y41968424D01*
X-360262Y41972677D01*
X-354622Y41973057D01*
X-47755Y41986838D01*
X-42102Y41986965D01*
X42118Y41986965D01*
X47771Y41986838D01*
G37*
%TD.AperFunction*%
%TD*%
M02*
