%TF.GenerationSoftware,KiCad,Pcbnew,(5.99.0-7341-g2f3ca60c5e)*%
%TF.CreationDate,2020-12-04T16:45:41+01:00*%
%TF.ProjectId,pcb,7063622e-6b69-4636-9164-5f7063625858,rev?*%
%TF.SameCoordinates,Original*%
%TF.FileFunction,Legend,Bot*%
%TF.FilePolarity,Positive*%
%FSLAX46Y46*%
G04 Gerber Fmt 4.6, Leading zero omitted, Abs format (unit mm)*
G04 Created by KiCad (PCBNEW (5.99.0-7341-g2f3ca60c5e)) date 2020-12-04 16:45:41*
%MOMM*%
%LPD*%
G01*
G04 APERTURE LIST*
%ADD10C,0.150000*%
%ADD11C,0.120000*%
G04 APERTURE END LIST*
D10*
%TO.C,C1*%
X-246190Y-12105714D02*
X-246190Y-12772380D01*
X-8095Y-11724761D02*
X230000Y-12439047D01*
X-389047Y-12439047D01*
X-674761Y-11772380D02*
X-1341428Y-11772380D01*
X-912857Y-12772380D01*
X-2150952Y-12105714D02*
X-2150952Y-12772380D01*
X-1722380Y-12105714D02*
X-1722380Y-12629523D01*
X-1770000Y-12724761D01*
X-1865238Y-12772380D01*
X-2008095Y-12772380D01*
X-2103333Y-12724761D01*
X-2150952Y-12677142D01*
X-2484285Y-12105714D02*
X-2865238Y-12105714D01*
X-2627142Y-12772380D02*
X-2627142Y-11915238D01*
X-2674761Y-11820000D01*
X-2770000Y-11772380D01*
X-2865238Y-11772380D01*
%TO.C,R3*%
X-5247619Y-17764285D02*
X-5247619Y-18383333D01*
X-4866666Y-18050000D01*
X-4866666Y-18192857D01*
X-4819047Y-18288095D01*
X-4771428Y-18335714D01*
X-4676190Y-18383333D01*
X-4438095Y-18383333D01*
X-4342857Y-18335714D01*
X-4295238Y-18288095D01*
X-4247619Y-18192857D01*
X-4247619Y-17907142D01*
X-4295238Y-17811904D01*
X-4342857Y-17764285D01*
X-5247619Y-18716666D02*
X-5247619Y-19335714D01*
X-4866666Y-19002380D01*
X-4866666Y-19145238D01*
X-4819047Y-19240476D01*
X-4771428Y-19288095D01*
X-4676190Y-19335714D01*
X-4438095Y-19335714D01*
X-4342857Y-19288095D01*
X-4295238Y-19240476D01*
X-4247619Y-19145238D01*
X-4247619Y-18859523D01*
X-4295238Y-18764285D01*
X-4342857Y-18716666D01*
X-5247619Y-19954761D02*
X-5247619Y-20050000D01*
X-5200000Y-20145238D01*
X-5152380Y-20192857D01*
X-5057142Y-20240476D01*
X-4866666Y-20288095D01*
X-4628571Y-20288095D01*
X-4438095Y-20240476D01*
X-4342857Y-20192857D01*
X-4295238Y-20145238D01*
X-4247619Y-20050000D01*
X-4247619Y-19954761D01*
X-4295238Y-19859523D01*
X-4342857Y-19811904D01*
X-4438095Y-19764285D01*
X-4628571Y-19716666D01*
X-4866666Y-19716666D01*
X-5057142Y-19764285D01*
X-5152380Y-19811904D01*
X-5200000Y-19859523D01*
X-5247619Y-19954761D01*
%TO.C,R1*%
X-1104285Y-18764285D02*
X-437619Y-18764285D01*
X-1485238Y-18526190D02*
X-770952Y-18288095D01*
X-770952Y-18907142D01*
X-1437619Y-19192857D02*
X-1437619Y-19859523D01*
X-437619Y-19430952D01*
%TO.C,R2*%
X1342380Y-17184761D02*
X1342380Y-16613333D01*
X1342380Y-16899047D02*
X342380Y-16899047D01*
X485238Y-16803809D01*
X580476Y-16708571D01*
X628095Y-16613333D01*
X342380Y-17803809D02*
X342380Y-17899047D01*
X390000Y-17994285D01*
X437619Y-18041904D01*
X532857Y-18089523D01*
X723333Y-18137142D01*
X961428Y-18137142D01*
X1151904Y-18089523D01*
X1247142Y-18041904D01*
X1294761Y-17994285D01*
X1342380Y-17899047D01*
X1342380Y-17803809D01*
X1294761Y-17708571D01*
X1247142Y-17660952D01*
X1151904Y-17613333D01*
X961428Y-17565714D01*
X723333Y-17565714D01*
X532857Y-17613333D01*
X437619Y-17660952D01*
X390000Y-17708571D01*
X342380Y-17803809D01*
X1342380Y-18565714D02*
X342380Y-18565714D01*
X961428Y-18660952D02*
X1342380Y-18946666D01*
X675714Y-18946666D02*
X1056666Y-18565714D01*
D11*
%TO.C,C1*%
X-1531252Y-14680000D02*
X-1008748Y-14680000D01*
X-1531252Y-13260000D02*
X-1008748Y-13260000D01*
%TO.C,D1*%
X-2560000Y35955000D02*
X-2560000Y39045000D01*
X2990000Y37499538D02*
G75*
G03*
X-2560000Y39044830I-2990000J462D01*
G01*
X2990000Y37500462D02*
G75*
G02*
X-2560000Y35955170I-2990000J-462D01*
G01*
X2500000Y37500000D02*
G75*
G03*
X2500000Y37500000I-2500000J0D01*
G01*
%TO.C,R3*%
X-5640000Y-18788748D02*
X-5640000Y-19311252D01*
X-7060000Y-18788748D02*
X-7060000Y-19311252D01*
%TO.C,R1*%
X-3250000Y-18788748D02*
X-3250000Y-19311252D01*
X-1830000Y-18788748D02*
X-1830000Y-19311252D01*
%TO.C,R2*%
X3250000Y-18041252D02*
X3250000Y-17518748D01*
X1830000Y-18041252D02*
X1830000Y-17518748D01*
%TD*%
M02*
